<?xml version="1.0" encoding="UTF-8"?>
<svg version="1.1" xmlns="http://www.w3.org/2000/svg" width="1414" height="336">
<path d="M0 0 C0.845625 0.49967285 1.69125 0.9993457 2.5625 1.51416016 C3.5215625 2.0778833 4.480625 2.64160645 5.46875 3.22241211 C6.4896875 3.82657959 7.510625 4.43074707 8.5625 5.05322266 C10.72872506 6.32610991 12.89540022 7.59823145 15.0625 8.86962891 C16.69638672 9.82893311 16.69638672 9.82893311 18.36328125 10.80761719 C29.82414025 17.50886121 41.38862221 24.0333877 52.96557617 30.53149414 C65.05481717 37.31889559 77.051484 44.26586452 89.04541016 51.21972656 C91.63750074 52.7216809 94.23070162 54.22170185 96.82421875 55.72119141 C97.68055908 56.21643311 98.53689941 56.7116748 99.41918945 57.22192383 C101.05688727 58.16897836 102.69473712 59.11577003 104.33276367 60.06225586 C105.07631104 60.4923999 105.8198584 60.92254395 106.5859375 61.36572266 C107.23481934 61.74083984 107.88370117 62.11595703 108.55224609 62.50244141 C109.21562988 62.89044922 109.87901367 63.27845703 110.5625 63.67822266 C111.41725418 64.05223709 112.27200836 64.42625153 113.15266418 64.81159973 C115.5625 66.67822266 115.5625 66.67822266 116.16377258 69.81034851 C116.15266953 71.10052383 116.14156647 72.39069916 116.13012695 73.7199707 C116.13085709 74.43241943 116.13158722 75.14486816 116.13233948 75.87890625 C116.12885644 78.2333598 116.08996648 80.58583368 116.05078125 82.93994141 C116.04145555 84.57232075 116.03433829 86.20471409 116.02934265 87.83711243 C116.01025339 92.13321585 115.96113694 96.42847377 115.90582275 100.72424316 C115.85467126 105.10787517 115.83183744 109.49164384 115.80664062 113.87548828 C115.75301893 122.47683096 115.66506823 131.07732422 115.5625 139.67822266 C107.3125 144.29822266 99.0625 148.91822266 90.5625 153.67822266 C93.61198612 156.72770878 95.06965745 158.16321013 98.625 159.99072266 C102.1757601 161.88523623 105.56211628 163.92341334 108.9375 166.11572266 C112.47638688 168.39666496 116.03142737 170.51714738 119.75 172.49072266 C125.01916 175.30789731 130.10475019 178.37474193 135.0612793 181.71118164 C138.89394673 184.2398444 142.43999447 186.06861067 146.8125 187.50244141 C152.45394764 189.57062621 157.2299284 191.45817687 160.5625 196.67822266 C162.41030979 202.5892377 162.42122211 208.78859401 162.4375 214.92822266 C162.45224365 215.74079529 162.4669873 216.55336792 162.48217773 217.39056396 C162.56817526 230.5471927 162.56817526 230.5471927 158.1484375 235.24316406 C155.34675283 237.04081758 152.62276454 238.38175328 149.5625 239.67822266 C147.96486664 240.61252179 146.3787582 241.56722951 144.8125 242.55322266 C143.0627333 243.59528117 141.31270461 244.6368998 139.5625 245.67822266 C137.06138232 247.1763612 134.56200249 248.6773913 132.0625 250.17822266 C130.23956721 251.27208146 128.41654521 252.36579145 126.59350586 253.45947266 C125.13581725 254.33419096 123.67832013 255.2092284 122.22094727 256.08447266 C117.99376153 258.62251909 113.76378359 261.15564902 109.52734375 263.67822266 C108.69783203 264.17322266 107.86832031 264.66822266 107.01367188 265.17822266 C105.33500923 266.17994209 103.65531647 267.17993724 101.97460938 268.17822266 C97.0661565 271.11183496 92.28420036 274.17815346 87.54321289 277.37451172 C85.20179535 278.9156395 82.79952872 280.26157226 80.3125 281.55322266 C73.88850513 284.98534299 67.74645628 288.83561334 61.5625 292.67822266 C56.94156433 295.49352956 52.28921705 298.2545029 47.62109375 300.99072266 C37.94935353 306.65945551 37.94935353 306.65945551 28.375 312.49072266 C19.65327863 317.89885484 10.78884405 323.06899394 1.94335938 328.27124023 C-0.49571609 329.67176689 -0.49571609 329.67176689 -2.92773438 331.41918945 C-5.4375 332.67822266 -5.4375 332.67822266 -7.95166016 332.52978516 C-10.60946755 331.61931254 -12.80460195 330.50332456 -15.2109375 329.05322266 C-16.11102539 328.51576416 -17.01111328 327.97830566 -17.93847656 327.42456055 C-18.8869043 326.84826904 -19.83533203 326.27197754 -20.8125 325.67822266 C-21.79186523 325.09097412 -22.77123047 324.50372559 -23.78027344 323.89868164 C-26.66975815 322.16465912 -29.55372658 320.42172068 -32.4375 318.67822266 C-33.9134498 317.79308561 -35.38994468 316.90885629 -36.8671875 316.02587891 C-39.33298792 314.55173244 -41.79682591 313.07445461 -44.2578125 311.59228516 C-47.02277294 309.92787408 -49.79202515 308.27092648 -52.5625 306.61572266 C-56.26765899 304.39384807 -59.94866368 302.13495577 -63.625 299.86572266 C-73.69718123 293.65748931 -83.85488973 287.59835138 -94.0625 281.61572266 C-99.94133842 278.16853806 -105.76507146 274.64635736 -111.55859375 271.05712891 C-116.84401359 267.80066102 -122.17528999 264.61985543 -127.5 261.42822266 C-129.12180176 260.4561084 -129.12180176 260.4561084 -130.77636719 259.46435547 C-134.95625546 256.95991302 -139.13689771 254.45673201 -143.31787109 251.95410156 C-172.82678571 234.28893694 -172.82678571 234.28893694 -174.4375 232.67822266 C-174.52605161 230.01196235 -174.55274673 227.37175151 -174.53515625 224.70556641 C-174.5337413 223.90792374 -174.53232635 223.11028107 -174.53086853 222.28846741 C-174.52525316 219.7308483 -174.51269812 217.17331548 -174.5 214.61572266 C-174.49498698 212.88590621 -174.49042373 211.15608839 -174.48632812 209.42626953 C-174.47527875 205.17688713 -174.45800386 200.92756954 -174.4375 196.67822266 C-173.51388672 196.15220459 -172.59027344 195.62618652 -171.63867188 195.08422852 C-159.71391828 188.28625697 -147.92712057 181.33848257 -136.42578125 173.8425293 C-132.1657737 171.08885945 -127.79950678 168.66056304 -123.31640625 166.29541016 C-119.09143843 163.92209038 -115.06089577 161.26203021 -111.03125 158.57275391 C-106.64469233 155.67822266 -106.64469233 155.67822266 -104.4375 155.67822266 C-106.4725771 153.49753261 -108.4039679 151.98233916 -111.01953125 150.55712891 C-111.70466797 150.17878906 -112.38980469 149.80044922 -113.09570312 149.41064453 C-113.80662109 149.02457031 -114.51753906 148.63849609 -115.25 148.24072266 C-127.65472561 141.46099705 -127.65472561 141.46099705 -130.4375 138.67822266 C-130.5845163 136.50266606 -130.66063389 134.32229985 -130.7097168 132.14233398 C-130.72592575 131.4593222 -130.7421347 130.77631042 -130.75883484 130.07260132 C-130.89921698 123.76101836 -130.97718266 117.4480182 -131.03775311 111.1352129 C-131.07872521 106.89246409 -131.13905928 102.65202355 -131.24682617 98.41040039 C-131.3506312 94.31115003 -131.40516227 90.21395775 -131.42521095 86.11347008 C-131.44113765 84.55235372 -131.47435614 82.99131231 -131.52536583 81.43094826 C-131.67218188 76.71302463 -131.67971032 72.27392354 -130.4375 67.67822266 C-127.46996325 64.59316904 -124.38489801 63.20102922 -120.4375 61.67822266 C-119.1306879 60.92480746 -117.83605717 60.14895339 -116.56640625 59.33447266 C-110.33758575 55.56385745 -104.08806565 51.89313439 -97.671875 48.44775391 C-90.45267781 44.49812066 -83.34015448 40.35481834 -76.20166016 36.26171875 C-73.577452 34.75839654 -70.95133486 33.2584874 -68.32421875 31.76025391 C-59.76082855 26.87621305 -51.2066459 21.97659037 -42.66748047 17.05029297 C-40.44510522 15.76881273 -38.22148648 14.48948636 -35.99658203 13.21240234 C-30.87439624 10.26727952 -25.77775246 7.29432047 -20.73828125 4.20947266 C-19.86896973 3.68426025 -18.9996582 3.15904785 -18.10400391 2.61791992 C-16.49674509 1.64397236 -14.89806939 0.65566037 -13.31005859 -0.34936523 C-12.60316895 -0.77467529 -11.8962793 -1.19998535 -11.16796875 -1.63818359 C-10.56364014 -2.01402588 -9.95931152 -2.38986816 -9.33666992 -2.77709961 C-5.80494154 -3.7899915 -3.06512284 -1.66211689 0 0 Z " fill="#4080C9" transform="translate(174.4375,3.32177734375)"/>
<path d="M0 0 C0.845625 0.49967285 1.69125 0.9993457 2.5625 1.51416016 C3.5215625 2.0778833 4.480625 2.64160645 5.46875 3.22241211 C6.4896875 3.82657959 7.510625 4.43074707 8.5625 5.05322266 C10.72872506 6.32610991 12.89540022 7.59823145 15.0625 8.86962891 C16.69638672 9.82893311 16.69638672 9.82893311 18.36328125 10.80761719 C29.82414025 17.50886121 41.38862221 24.0333877 52.96557617 30.53149414 C66.79773784 38.29744356 80.51204778 46.26815229 94.23339844 54.22753906 C96.01069186 55.25844649 97.78811399 56.28913208 99.56567383 57.31958008 C101.24290141 58.29186969 102.91983295 59.26467018 104.59643555 60.23803711 C105.34965088 60.67462646 106.10286621 61.11121582 106.87890625 61.56103516 C107.54349854 61.94662598 108.20809082 62.3322168 108.89282227 62.72949219 C110.09700622 63.41372363 111.32371618 64.05883075 112.5625 64.67822266 C112.5625 65.66822266 112.5625 66.65822266 112.5625 67.67822266 C113.2225 68.00822266 113.8825 68.33822266 114.5625 68.67822266 C111.25939577 70.58680505 107.95594763 72.49479085 104.65216064 74.40219116 C103.46539345 75.08736305 102.27866669 75.77260499 101.09197998 76.45791626 C94.15321934 80.46447271 87.20659228 84.4563423 80.24023438 88.41479492 C71.89787857 93.15643805 63.63565519 98.0092034 55.42333984 102.97241211 C47.51904928 107.73541137 39.52946452 112.34554976 31.52612305 116.93969727 C25.9040633 120.16816975 20.2949579 123.41555494 14.7109375 126.70947266 C13.61491211 127.35480957 12.51888672 128.00014648 11.38964844 128.66503906 C9.29934523 129.89761035 7.21134125 131.13409161 5.12597656 132.375 C4.18979492 132.92623535 3.25361328 133.4774707 2.2890625 134.04541016 C1.47002441 134.53122559 0.65098633 135.01704102 -0.19287109 135.51757812 C-2.4375 136.67822266 -2.4375 136.67822266 -6.4375 137.67822266 C-6.4375 161.43822266 -6.4375 185.19822266 -6.4375 209.67822266 C-14.16718372 205.46203154 -21.87927857 201.22689699 -29.5625 196.92822266 C-30.65127441 196.31914062 -31.74004883 195.71005859 -32.86181641 195.08251953 C-39.90972458 191.12762313 -46.90377043 187.0941949 -53.85180664 182.96679688 C-59.30649778 179.73210968 -64.83685955 176.65394091 -70.4375 173.67822266 C-70.4375 173.01822266 -70.4375 172.35822266 -70.4375 171.67822266 C-71.50242676 171.52546875 -71.50242676 171.52546875 -72.58886719 171.36962891 C-75.83222063 170.58241799 -78.14591299 169.31643622 -81.015625 167.61572266 C-82.08619141 166.98786865 -83.15675781 166.36001465 -84.25976562 165.71313477 C-85.39091797 165.04161377 -86.52207031 164.37009277 -87.6875 163.67822266 C-90.03378834 162.29993741 -92.38358656 160.92772223 -94.734375 159.55712891 C-95.3130835 159.21919815 -95.89179199 158.8812674 -96.48803711 158.53309631 C-101.24126854 155.76782637 -106.05787827 153.14968777 -110.9375 150.61572266 C-126.70655907 142.40916359 -126.70655907 142.40916359 -130.4375 138.67822266 C-130.74530029 135.78265381 -130.74530029 135.78265381 -130.82324219 132.02880859 C-130.83959717 131.34565079 -130.85595215 130.66249298 -130.87280273 129.95863342 C-130.92250501 127.69332384 -130.95554148 125.42826506 -130.984375 123.16259766 C-130.99502235 122.38860878 -131.00566971 121.6146199 -131.01663971 120.81717682 C-131.07010516 116.71897849 -131.10884998 112.62090192 -131.13769531 108.52246094 C-131.17096663 104.29325105 -131.26048084 100.06716708 -131.3624382 95.83913803 C-131.42984122 92.58423405 -131.45285474 89.3300687 -131.46414948 86.07453156 C-131.47756431 84.51623943 -131.50798687 82.95799516 -131.55593109 81.400383 C-131.69258782 76.69126076 -131.68872327 72.26202665 -130.4375 67.67822266 C-127.46845243 64.59784079 -124.38217619 63.20265102 -120.4375 61.67822266 C-119.1307449 60.92470861 -117.83613265 60.14883572 -116.56640625 59.33447266 C-110.33758575 55.56385745 -104.08806565 51.89313439 -97.671875 48.44775391 C-90.45267781 44.49812066 -83.34015448 40.35481834 -76.20166016 36.26171875 C-73.577452 34.75839654 -70.95133486 33.2584874 -68.32421875 31.76025391 C-59.76082855 26.87621305 -51.2066459 21.97659037 -42.66748047 17.05029297 C-40.44510522 15.76881273 -38.22148648 14.48948636 -35.99658203 13.21240234 C-30.87439624 10.26727952 -25.77775246 7.29432047 -20.73828125 4.20947266 C-19.43431396 3.42165405 -19.43431396 3.42165405 -18.10400391 2.61791992 C-16.49674509 1.64397236 -14.89806939 0.65566037 -13.31005859 -0.34936523 C-12.60316895 -0.77467529 -11.8962793 -1.19998535 -11.16796875 -1.63818359 C-10.56364014 -2.01402588 -9.95931152 -2.38986816 -9.33666992 -2.77709961 C-5.80494154 -3.7899915 -3.06512284 -1.66211689 0 0 Z " fill="#B5F1EE" transform="translate(174.4375,3.32177734375)"/>
<path d="M0 0 C2 1 2 1 3.64453125 2.7890625 C6.69263438 5.65013443 10.0210846 7.40914833 13.6875 9.375 C22.40962389 14.15659292 22.40962389 14.15659292 26.5 17 C30.38541216 19.68366229 34.43526673 21.96629693 38.5625 24.25 C44.73664118 27.67230829 50.74982511 31.28207128 56.71484375 35.05541992 C64.62462256 40.04980909 72.66241392 44.82852952 80.69433594 49.62304688 C83.86168774 51.51460386 87.02476133 53.41324384 90.1875 55.3125 C91.39189761 56.03520537 92.59632616 56.75785918 93.80078125 57.48046875 C97.06901042 59.44140625 100.33723958 61.40234375 103.60546875 63.36328125 C104.62157227 63.97292725 105.63767578 64.58257324 106.68457031 65.21069336 C108.82329956 66.49396364 110.96197081 67.77733057 113.10058594 69.06079102 C118.57742885 72.34746914 124.05523251 75.63252329 129.53515625 78.9140625 C130.59839111 79.55142334 131.66162598 80.18878418 132.75708008 80.84545898 C134.86088766 82.1052888 136.96617306 83.36265438 139.07299805 84.61743164 C143.8858301 87.49134162 148.65977022 90.40088423 153.359375 93.45703125 C154.18058838 93.98393555 155.00180176 94.51083984 155.84790039 95.05371094 C157.3584482 96.02785113 158.85861838 97.01836545 160.34545898 98.02832031 C164.30160785 100.58447407 164.30160785 100.58447407 168.8984375 100.625 C173.18031622 98.38159755 177.3219047 95.97213552 181.4375 93.4375 C183.2317443 92.34631053 185.02601535 91.25516505 186.8203125 90.1640625 C187.70106445 89.62555664 188.58181641 89.08705078 189.48925781 88.53222656 C192.91867174 86.43936369 196.36454019 84.374606 199.8125 82.3125 C201.02355183 81.58612809 202.23449045 80.85956739 203.4453125 80.1328125 C280.5546875 33.8671875 280.5546875 33.8671875 282.3605957 32.78369141 C283.58054245 32.05169075 284.80043159 31.31959408 286.02026367 30.58740234 C289.65665669 28.40490888 293.29450112 26.22486458 296.93359375 24.046875 C312.3080426 14.87630294 312.3080426 14.87630294 327.49609375 5.40234375 C332.81284819 2 332.81284819 2 335 2 C335.27335034 6.71347738 335.47209484 11.42229439 335.60424805 16.1418457 C335.65934644 17.74390012 335.73426105 19.34540664 335.82983398 20.94555664 C336.13272496 26.14977424 336.2069647 30.9043687 335 36 C331.78412079 39.51974711 328.34410999 41.16986153 324 43 C322.40196428 43.93361077 320.8157048 44.88812832 319.25 45.875 C317.5002333 46.91705851 315.75020461 47.95867715 314 49 C311.49888232 50.49813854 308.99950249 51.99916864 306.5 53.5 C304.67706721 54.5938588 302.85404521 55.6875688 301.03100586 56.78125 C299.57331725 57.6559683 298.11582013 58.53100574 296.65844727 59.40625 C292.43126153 61.94429644 288.20128359 64.47742637 283.96484375 67 C283.13533203 67.495 282.30582031 67.99 281.45117188 68.5 C279.77250923 69.50171943 278.09281647 70.50171458 276.41210938 71.5 C271.5036565 74.4336123 266.72170036 77.4999308 261.98071289 80.69628906 C259.63929535 82.23741684 257.23702872 83.5833496 254.75 84.875 C248.32600513 88.30712034 242.18395628 92.15739069 236 96 C231.37906433 98.8153069 226.72671705 101.57628025 222.05859375 104.3125 C212.38685353 109.98123285 212.38685353 109.98123285 202.8125 115.8125 C194.09077863 121.22063219 185.22634405 126.39077129 176.38085938 131.59301758 C173.94178391 132.99354424 173.94178391 132.99354424 171.50976562 134.7409668 C169 136 169 136 166.48583984 135.8515625 C163.82803245 134.94108988 161.63289805 133.8251019 159.2265625 132.375 C158.32647461 131.8375415 157.42638672 131.30008301 156.49902344 130.74633789 C155.5505957 130.17004639 154.60216797 129.59375488 153.625 129 C152.15595215 128.1191272 152.15595215 128.1191272 150.65722656 127.22045898 C147.76774185 125.48643647 144.88377342 123.74349802 142 122 C140.5240502 121.11486295 139.04755532 120.23063364 137.5703125 119.34765625 C135.10451208 117.87350978 132.64067409 116.39623195 130.1796875 114.9140625 C127.41472706 113.24965142 124.64547485 111.59270382 121.875 109.9375 C118.16984101 107.71562541 114.48883632 105.45673311 110.8125 103.1875 C100.74031877 96.97926666 90.58261027 90.92012872 80.375 84.9375 C74.49616158 81.4903154 68.67242854 77.9681347 62.87890625 74.37890625 C57.59348641 71.12243836 52.26221001 67.94163278 46.9375 64.75 C45.85629883 64.10192383 44.77509766 63.45384766 43.66113281 62.78613281 C39.48124454 60.28169036 35.30060229 57.77850935 31.11962891 55.27587891 C1.61071429 37.61071429 1.61071429 37.61071429 0 36 C-0.08855161 33.3337397 -0.11524673 30.69352886 -0.09765625 28.02734375 C-0.0962413 27.22970108 -0.09482635 26.43205841 -0.09336853 25.61024475 C-0.08775316 23.05262565 -0.07519812 20.49509282 -0.0625 17.9375 C-0.05748698 16.20768355 -0.05292373 14.47786574 -0.04882812 12.74804688 C-0.03777875 8.49866447 -0.02050386 4.24934688 0 0 Z " fill="#1C76D1" transform="translate(0,200)"/>
<path d="M0 0 C1.27925858 -0.01283524 2.55851715 -0.02567047 3.87654114 -0.03889465 C5.28316864 -0.04706918 6.68980057 -0.05451153 8.09643555 -0.0612793 C9.16156907 -0.06739259 9.16156907 -0.06739259 10.24822044 -0.07362938 C14.01736536 -0.09451481 17.78647376 -0.10879748 21.55566406 -0.11816406 C25.41756677 -0.12914539 29.27887994 -0.1634398 33.14057636 -0.20333576 C36.13409861 -0.22973113 39.12748641 -0.23787665 42.12111473 -0.24144554 C43.54223737 -0.24626433 44.96335597 -0.25774072 46.38436317 -0.27648354 C59.98476508 -0.4445046 72.58221517 1.65591805 82.9206543 11.17700195 C83.4156543 12.66200195 83.4156543 12.66200195 83.9206543 14.17700195 C84.9106543 14.50700195 85.9006543 14.83700195 86.9206543 15.17700195 C89.97099555 20.35200286 92.53558992 26.14432668 92.9206543 32.17700195 C92.9825293 32.90145508 93.0444043 33.6259082 93.1081543 34.37231445 C93.63273625 44.83116716 89.74972758 53.41669141 82.9206543 61.17700195 C81.62193586 62.544074 80.30621296 63.89802473 78.9206543 65.17700195 C79.7662793 65.38325195 80.6119043 65.58950195 81.4831543 65.80200195 C89.1149078 68.85470335 94.24512087 74.9369784 97.9206543 82.17700195 C101.69805136 92.23174613 101.62944517 101.89783867 97.94018555 111.96606445 C96.08485424 115.98950322 93.80775261 119.80872059 90.9206543 123.17700195 C89.4356543 123.67200195 89.4356543 123.67200195 87.9206543 124.17700195 C87.4256543 125.66200195 87.4256543 125.66200195 86.9206543 127.17700195 C84.69799805 128.7121582 84.69799805 128.7121582 81.8581543 130.23950195 C80.93905273 130.74610352 80.01995117 131.25270508 79.07299805 131.7746582 C72.78912516 134.57008617 66.86436259 135.47597664 60.03588867 135.40405273 C58.90445309 135.40441434 58.90445309 135.40441434 57.75016022 135.40478325 C55.33811637 135.40330504 52.92639195 135.38814186 50.5144043 135.37231445 C49.01342924 135.36936937 47.51245213 135.3673318 46.01147461 135.36621094 C40.4811696 135.35577746 34.95090872 135.32785495 29.4206543 135.30200195 C17.0456543 135.26075195 4.6706543 135.21950195 -8.0793457 135.17700195 C-8.0793457 90.95700195 -8.0793457 46.73700195 -8.0793457 1.17700195 C-5.32444578 -0.20044801 -3.08342427 0.02688965 0 0 Z M18.9206543 23.17700195 C18.9206543 34.06700195 18.9206543 44.95700195 18.9206543 56.17700195 C23.7962841 56.2690915 28.66886949 56.34864362 33.54467773 56.39672852 C35.20135754 56.41678204 36.85796712 56.44403225 38.5144043 56.47875977 C40.90260187 56.52755707 43.28985977 56.55003259 45.6784668 56.56762695 C46.41308136 56.58827209 47.14769592 56.60891724 47.90457153 56.63018799 C54.57270193 56.63306487 57.89497676 53.89442421 62.7956543 49.73950195 C65.88967334 45.76581083 65.72644686 41.23783996 65.5378418 36.3840332 C64.56547359 31.33141109 62.09978023 28.11472701 57.9206543 25.17700195 C53.26885395 23.27582764 49.07913649 22.90720965 44.1159668 22.98168945 C43.15194946 22.98471069 43.15194946 22.98471069 42.16845703 22.98779297 C39.79411565 22.99816617 37.41987692 23.026088 35.0456543 23.05200195 C29.7244043 23.09325195 24.4031543 23.13450195 18.9206543 23.17700195 Z M18.9206543 76.17700195 C18.9206543 88.38700195 18.9206543 100.59700195 18.9206543 113.17700195 C24.7162793 113.21825195 30.5119043 113.25950195 36.4831543 113.30200195 C38.29887939 113.32020996 40.11460449 113.33841797 41.98535156 113.35717773 C43.44425156 113.36302566 44.90315486 113.36812051 46.36206055 113.37231445 C47.47429993 113.38766235 47.47429993 113.38766235 48.60900879 113.40332031 C55.95953139 113.40575386 62.12800403 111.93984772 67.9206543 107.17700195 C71.98100303 102.04814039 72.66037715 97.63019966 72.44018555 91.12231445 C71.40885867 85.27554401 67.9831366 81.77542574 63.4206543 78.23950195 C57.97003177 75.92298738 52.29341726 76.0393716 46.4597168 76.0793457 C45.75806396 76.08035278 45.05641113 76.08135986 44.33349609 76.08239746 C41.73753196 76.08758995 39.14159131 76.10155092 36.5456543 76.11450195 C27.8212793 76.14543945 27.8212793 76.14543945 18.9206543 76.17700195 Z " fill="#F1F5FA" transform="translate(717.079345703125,94.822998046875)"/>
<path d="M0 0 C1.45889648 -0.00193359 1.45889648 -0.00193359 2.94726562 -0.00390625 C3.96626953 -0.00003906 4.98527344 0.00382812 6.03515625 0.0078125 C7.05029297 0.00394531 8.06542969 0.00007813 9.11132812 -0.00390625 C10.08521484 -0.00261719 11.05910156 -0.00132813 12.0625 0 C13.40235962 0.00169189 13.40235962 0.00169189 14.76928711 0.00341797 C17.09765625 0.1328125 17.09765625 0.1328125 20.09765625 1.1328125 C20.09765625 19.2828125 20.09765625 37.4328125 20.09765625 56.1328125 C41.21765625 56.1328125 62.33765625 56.1328125 84.09765625 56.1328125 C84.09765625 37.9828125 84.09765625 19.8328125 84.09765625 1.1328125 C86.63212498 -0.13442187 88.41992579 0.00339922 91.25390625 0 C92.78724609 -0.00193359 92.78724609 -0.00193359 94.3515625 -0.00390625 C95.42277344 -0.00003906 96.49398438 0.00382812 97.59765625 0.0078125 C99.20447266 0.00201172 99.20447266 0.00201172 100.84375 -0.00390625 C101.86597656 -0.00261719 102.88820313 -0.00132813 103.94140625 0 C104.88177734 0.00112793 105.82214844 0.00225586 106.79101562 0.00341797 C109.09765625 0.1328125 109.09765625 0.1328125 111.09765625 1.1328125 C111.09765625 45.3528125 111.09765625 89.5728125 111.09765625 135.1328125 C102.18765625 135.1328125 93.27765625 135.1328125 84.09765625 135.1328125 C84.09765625 116.9828125 84.09765625 98.8328125 84.09765625 80.1328125 C62.97765625 80.1328125 41.85765625 80.1328125 20.09765625 80.1328125 C20.09765625 98.2828125 20.09765625 116.4328125 20.09765625 135.1328125 C11.18765625 135.1328125 2.27765625 135.1328125 -6.90234375 135.1328125 C-6.90234375 90.9128125 -6.90234375 46.6928125 -6.90234375 1.1328125 C-4.42892207 -0.10389834 -2.76375064 0.00349431 0 0 Z " fill="#EFF4FA" transform="translate(1302.90234375,94.8671875)"/>
<path d="M0 0 C2 1 2 1 3.28100586 2.35839844 C5.48515835 4.46331555 7.84831207 5.76860416 10.50390625 7.265625 C11.62385986 7.90072998 12.74381348 8.53583496 13.89770508 9.19018555 C15.11929392 9.8768072 16.34089248 10.56341157 17.5625 11.25 C19.47077866 12.32972753 21.37805805 13.41120654 23.2853241 14.49272156 C24.59165247 15.233291 25.89830693 15.97328551 27.20527649 16.71272278 C33.59771991 20.33082937 39.95618594 24.00628542 46.3125 27.6875 C54.35076661 32.33540734 62.40991313 36.94290363 70.5 41.5 C78.85695244 46.20930191 87.18829285 50.96126311 95.5 55.75 C97.03817383 56.63461914 97.03817383 56.63461914 98.60742188 57.53710938 C100.5921893 58.68270544 102.56734656 59.84516951 104.53086853 61.02680969 C106.97977877 62.41971336 109.29636182 63.61032482 111.84925842 64.75346375 C122.12072211 69.63070261 122.12072211 69.63070261 124.31600952 75.54611206 C124.92369929 79.83922035 124.69108822 84.09537007 124.46484375 88.41015625 C124.43682123 89.98902753 124.41549071 91.56803042 124.40052795 93.14707947 C124.34358406 97.27875996 124.19662633 101.40236794 124.02996826 105.53088379 C123.87574647 109.75320165 123.80785591 113.97684199 123.73242188 118.20117188 C123.57214795 126.47112984 123.31663318 134.73455776 123 143 C115.2689785 138.78975606 107.55747849 134.54825867 99.875 130.25 C98.78622559 129.64091797 97.69745117 129.03183594 96.57568359 128.40429688 C89.52777542 124.44940048 82.53372957 120.41597224 75.58569336 116.28857422 C70.13100222 113.05388703 64.60064045 109.97571825 59 107 C59 106.34 59 105.68 59 105 C57.93507324 104.84724609 57.93507324 104.84724609 56.84863281 104.69140625 C53.60527937 103.90419534 51.29158701 102.63821356 48.421875 100.9375 C47.35130859 100.309646 46.28074219 99.68179199 45.17773438 99.03491211 C44.04658203 98.36339111 42.91542969 97.69187012 41.75 97 C39.40371166 95.62171475 37.05391344 94.24949957 34.703125 92.87890625 C34.1244165 92.54097549 33.54570801 92.20304474 32.94946289 91.85487366 C28.19623146 89.08960372 23.37962173 86.47146512 18.5 83.9375 C2.73094093 75.73094093 2.73094093 75.73094093 -1 72 C-1.24723816 69.07078552 -1.24723816 69.07078552 -1.24291992 65.27124023 C-1.24481827 64.58005096 -1.24671661 63.88886169 -1.24867249 63.17672729 C-1.25238366 60.88723484 -1.24167237 58.5980581 -1.23046875 56.30859375 C-1.22927714 54.72201067 -1.22882375 53.13542689 -1.2290802 51.54884338 C-1.2275148 48.22237742 -1.2192202 44.89601899 -1.20581055 41.56958008 C-1.18880679 37.29644345 -1.18499656 33.02342494 -1.18575573 28.75025845 C-1.1854844 25.47413496 -1.18000934 22.19803753 -1.17275429 18.92192268 C-1.16956275 17.34578715 -1.16759909 15.76964865 -1.16686058 14.19351006 C-1.16470291 11.99541014 -1.15597165 9.79743792 -1.14526367 7.59936523 C-1.13954597 5.71978371 -1.13954597 5.71978371 -1.13371277 3.80223083 C-1 1 -1 1 0 0 Z " fill="#5CCFE4" transform="translate(45,70)"/>
<path d="M0 0 C0.99 0.33 1.98 0.66 3 1 C3 25.09 3 49.18 3 74 C-22 88 -22 88 -33 94 C-34.91516856 95.08791683 -36.82563509 96.18426157 -38.7265625 97.296875 C-39.68651123 97.85777832 -40.64645996 98.41868164 -41.63549805 98.99658203 C-42.62203369 99.57520996 -43.60856934 100.15383789 -44.625 100.75 C-46.19858276 101.67014893 -46.19858276 101.67014893 -47.80395508 102.60888672 C-53.10085213 105.70802725 -58.39112297 108.81820524 -63.67602539 111.93774414 C-64.33981201 112.32953857 -65.00359863 112.72133301 -65.6875 113.125 C-66.35450928 113.51872803 -67.02151855 113.91245605 -67.70874023 114.31811523 C-74.03928717 118.04405968 -80.42328212 121.67463166 -86.81054688 125.30224609 C-94.62824268 129.75534578 -102.36442759 134.34177274 -110.0690918 138.98754883 C-110.94734619 139.51243896 -111.82560059 140.0373291 -112.73046875 140.578125 C-113.50801514 141.04637695 -114.28556152 141.51462891 -115.08666992 141.99707031 C-117 143 -117 143 -119 143 C-119 119.57 -119 96.14 -119 72 C-113.06 68.7 -107.12 65.4 -101 62 C-97.01087449 59.70189011 -93.03017609 57.39652934 -89.0625 55.0625 C-87.01319568 53.86168072 -84.96371427 52.66116363 -82.9140625 51.4609375 C-81.91922852 50.87795898 -80.92439453 50.29498047 -79.89941406 49.69433594 C-75.58850548 47.17516235 -71.26291469 44.6816525 -66.9375 42.1875 C-61.50746505 39.05415997 -56.11022643 35.87617582 -50.75 32.625 C-44.44789777 28.80675429 -38.04663454 25.17545486 -31.625 21.5625 C-24.47784781 17.53782159 -17.33716037 13.50465471 -10.25 9.375 C-9.55342285 8.9735376 -8.8568457 8.5720752 -8.13916016 8.15844727 C-3.64477868 5.59346945 -3.64477868 5.59346945 0 2 C0 1.34 0 0.68 0 0 Z " fill="#2F94D2" transform="translate(287,69)"/>
<path d="M0 0 C1.09828125 -0.01224609 2.1965625 -0.02449219 3.328125 -0.03710938 C9.48177109 -0.04817708 14.74329852 0.36728181 20.625 2.1875 C21.56085938 2.47109375 22.49671875 2.7546875 23.4609375 3.046875 C38.21650942 8.22267561 50.88182774 17.36040669 58.625 31.1875 C59.00140625 31.85523437 59.3778125 32.52296875 59.765625 33.2109375 C62.68183011 38.71690685 65.83310663 44.8577939 65.4375 51.1875 C64.625 53.1875 64.625 53.1875 62.625 54.1875 C60.99310862 54.28352558 59.3573691 54.31824567 57.72265625 54.3203125 C56.26375977 54.32224609 56.26375977 54.32224609 54.77539062 54.32421875 C53.75638672 54.32035156 52.73738281 54.31648438 51.6875 54.3125 C50.67236328 54.31636719 49.65722656 54.32023437 48.61132812 54.32421875 C47.63744141 54.32292969 46.66355469 54.32164062 45.66015625 54.3203125 C44.7669165 54.31918457 43.87367676 54.31805664 42.95336914 54.31689453 C40.625 54.1875 40.625 54.1875 37.625 53.1875 C36.53454244 50.8643513 35.56198354 48.57129635 34.625 46.1875 C31.17160028 37.53707228 25.24383657 31.83598615 16.75390625 27.96484375 C5.07227594 23.69944112 -6.62254385 24.54627659 -18.375 28.1875 C-23.84776825 30.91995818 -28.293788 34.63986377 -32.375 39.1875 C-33.035 39.909375 -33.695 40.63125 -34.375 41.375 C-42.38036668 52.63254689 -44.77404747 64.9944399 -42.91015625 78.57421875 C-41.45623656 86.53206322 -39.07323668 92.61750593 -34.375 99.1875 C-33.776875 100.095 -33.17875 101.0025 -32.5625 101.9375 C-24.10419268 110.63747325 -12.59492811 115.05902364 -0.625 115.375 C10.11887459 115.19834436 19.35190826 112.48005198 27.69921875 105.4375 C32.158833 100.79408386 34.38147418 95.62974277 36.58203125 89.62890625 C37.625 87.1875 37.625 87.1875 39.625 86.1875 C43.62002644 85.94553739 47.6234633 86.00230503 51.625 86 C53.30335937 85.98163086 53.30335937 85.98163086 55.015625 85.96289062 C56.61664062 85.95999023 56.61664062 85.95999023 58.25 85.95703125 C59.23226563 85.95292236 60.21453125 85.94881348 61.2265625 85.94458008 C63.625 86.1875 63.625 86.1875 65.625 88.1875 C65.32421875 90.48828125 65.32421875 90.48828125 64.625 93.1875 C64.44582031 94.02667969 64.26664063 94.86585938 64.08203125 95.73046875 C60.59179271 110.05102325 51.18066636 122.40965358 38.625 130.1875 C22.07227237 139.80499722 2.66431058 143.70926821 -16.26171875 139.27734375 C-17.28910156 138.91769531 -18.31648438 138.55804688 -19.375 138.1875 C-20.36242188 137.89230469 -21.34984375 137.59710938 -22.3671875 137.29296875 C-40.39662399 131.55188802 -54.92595697 119.90376673 -64 103.1953125 C-65.22883514 100.55477984 -66.33258938 97.90627707 -67.375 95.1875 C-67.83326172 94.09115234 -67.83326172 94.09115234 -68.30078125 92.97265625 C-71.31150428 85.53859608 -71.55654354 78.21077215 -71.5625 70.3125 C-71.57474609 69.46558594 -71.58699219 68.61867188 -71.59960938 67.74609375 C-71.63020863 54.42521607 -67.2973281 40.94518763 -59.375 30.1875 C-58.76140625 29.33671875 -58.1478125 28.4859375 -57.515625 27.609375 C-49.22382046 16.77555738 -39.14934841 9.07768025 -26.375 4.1875 C-25.6325 3.88199219 -24.89 3.57648438 -24.125 3.26171875 C-16.11115466 0.05921616 -8.5028598 0.00495505 0 0 Z " fill="#EEF3F9" transform="translate(1204.375,92.8125)"/>
<path d="M0 0 C10.13526402 8.56638069 17.28556964 19.72413673 20.1015625 32.78515625 C20.15754988 34.78437245 20.17221058 36.78640443 20.1015625 38.78515625 C17.62814082 40.02186709 15.96296939 39.91447444 13.19921875 39.91796875 C11.74032227 39.91990234 11.74032227 39.91990234 10.25195312 39.921875 C9.23294922 39.91800781 8.21394531 39.91414063 7.1640625 39.91015625 C6.14892578 39.91402344 5.13378906 39.91789062 4.08789062 39.921875 C3.11400391 39.92058594 2.14011719 39.91929687 1.13671875 39.91796875 C0.243479 39.91684082 -0.64976074 39.91571289 -1.57006836 39.91455078 C-3.8984375 39.78515625 -3.8984375 39.78515625 -6.8984375 38.78515625 C-7.61284956 37.18623401 -8.31632584 35.58144092 -8.9609375 33.953125 C-13.06793834 24.45568556 -18.28589972 18.05496962 -27.703125 13.6328125 C-38.6876924 9.39144039 -51.86901312 9.27017746 -62.69140625 14.0078125 C-74.70169417 20.22003039 -81.06731966 27.48101292 -86.2109375 39.97265625 C-89.34922428 52.81110217 -88.86579111 66.85044903 -82.8984375 78.78515625 C-82.3415625 79.94015625 -81.7846875 81.09515625 -81.2109375 82.28515625 C-75.83721959 91.23469388 -66.26019044 95.94053845 -56.8984375 99.78515625 C-44.47344574 102.52366199 -32.31715073 100.90007837 -21.37109375 94.46484375 C-14.26011557 89.63432145 -11.49961927 83.27934333 -8.1953125 75.48046875 C-6.8984375 72.78515625 -6.8984375 72.78515625 -4.8984375 71.78515625 C-3.09709402 71.68861342 -1.29220881 71.65440185 0.51171875 71.65234375 C1.58357422 71.65105469 2.65542969 71.64976562 3.75976562 71.6484375 C4.88318359 71.65230469 6.00660156 71.65617187 7.1640625 71.66015625 C8.29134766 71.65628906 9.41863281 71.65242188 10.58007812 71.6484375 C11.65064453 71.64972656 12.72121094 71.65101563 13.82421875 71.65234375 C15.30547241 71.65403564 15.30547241 71.65403564 16.81665039 71.65576172 C19.1015625 71.78515625 19.1015625 71.78515625 20.1015625 72.78515625 C20.47166959 85.39523342 14.05749923 96.47160095 6.1015625 105.78515625 C3.58579383 108.32303185 1.05087295 110.75663991 -1.8984375 112.78515625 C-2.5584375 112.78515625 -3.2184375 112.78515625 -3.8984375 112.78515625 C-3.8984375 113.44515625 -3.8984375 114.10515625 -3.8984375 114.78515625 C-17.77363659 121.98920699 -28.97777658 125.96303941 -44.8359375 125.97265625 C-45.89490234 125.98490234 -46.95386719 125.99714844 -48.04492188 126.00976562 C-53.71420239 126.02037563 -58.49540796 125.69689318 -63.8984375 123.78515625 C-64.88585937 123.48996094 -65.87328125 123.19476563 -66.890625 122.890625 C-76.3996309 119.86268952 -83.77926309 115.90212906 -91.4609375 109.59765625 C-91.99847656 109.15728027 -92.53601563 108.7169043 -93.08984375 108.26318359 C-94.40152611 107.15175483 -95.65572344 105.9731993 -96.8984375 104.78515625 C-96.8984375 104.12515625 -96.8984375 103.46515625 -96.8984375 102.78515625 C-97.5584375 102.78515625 -98.2184375 102.78515625 -98.8984375 102.78515625 C-101.8984375 99.32361779 -101.8984375 99.32361779 -101.8984375 96.78515625 C-102.5584375 96.78515625 -103.2184375 96.78515625 -103.8984375 96.78515625 C-114.64612662 78.3552701 -119.38214961 58.49686127 -114.65625 37.296875 C-112.21467605 29.20444176 -108.80136681 21.67575961 -103.8984375 14.78515625 C-103.2384375 14.78515625 -102.5784375 14.78515625 -101.8984375 14.78515625 C-101.49044922 13.92083984 -101.49044922 13.92083984 -101.07421875 13.0390625 C-98.11903396 7.37414016 -94.64246541 2.72396122 -88.8984375 -0.21484375 C-87.47633725 -1.18610204 -86.06029044 -2.16624889 -84.6484375 -3.15234375 C-80.25647148 -6.09488815 -75.79972289 -8.26130651 -70.8984375 -10.21484375 C-70.19460938 -10.50359375 -69.49078125 -10.79234375 -68.765625 -11.08984375 C-46.1614839 -20.02836342 -18.84774895 -14.40252514 0 0 Z " fill="#EEF3F9" transform="translate(515.8984375,107.21484375)"/>
<path d="M0 0 C0.86602341 0.00359528 1.73204681 0.00719055 2.62431335 0.01089478 C3.98515549 0.01067574 3.98515549 0.01067574 5.37348938 0.01045227 C8.38737843 0.01115176 11.40120651 0.01894582 14.41508484 0.02676392 C16.49873826 0.02862797 18.58239212 0.03005193 20.66604614 0.03105164 C26.16191305 0.03487783 31.65775372 0.04470897 37.15361023 0.05575562 C42.75704086 0.06596757 48.36047572 0.07054879 53.96391296 0.07559204 C64.96717973 0.08633115 75.97042698 0.10340877 86.97367859 0.12442017 C87.00255095 3.93690443 87.02043351 7.74936086 87.03617859 11.56192017 C87.0445575 12.65053345 87.0529364 13.73914673 87.06156921 14.86074829 C87.06479187 15.89522095 87.06801453 16.9296936 87.07133484 17.99551392 C87.07657166 18.95385132 87.08180847 19.91218872 87.08720398 20.89956665 C86.97367859 23.12442017 86.97367859 23.12442017 85.97367859 24.12442017 C83.94873627 24.21851496 81.92047989 24.24185138 79.89335632 24.23794556 C77.9414463 24.23783226 77.9414463 24.23783226 75.95010376 24.23771667 C74.51915957 24.23260925 73.08821577 24.22739325 71.65727234 24.22207642 C70.20138599 24.2202122 68.74549902 24.21878831 67.28961182 24.2177887 C63.4508848 24.21396382 59.61219539 24.20413381 55.77348328 24.19308472 C51.17132088 24.18107515 46.56914592 24.17646821 41.96697235 24.17063141 C34.96918157 24.16092202 27.97147339 24.14176529 20.97367859 24.12442017 C20.97367859 34.68442017 20.97367859 45.24442017 20.97367859 56.12442017 C25.00457703 56.1128186 29.03547546 56.10121704 33.18852234 56.08926392 C36.39445718 56.08283689 39.60039021 56.0774127 42.80632782 56.07266998 C46.1950509 56.06738047 49.58374914 56.06030736 52.97245789 56.04898071 C56.85697636 56.0360775 60.74148455 56.03119093 64.62602234 56.02676392 C65.84579269 56.02160263 67.06556305 56.01644135 68.32229614 56.01112366 C70.00392601 56.01101036 70.00392601 56.01101036 71.7195282 56.01089478 C73.20844826 56.00756386 73.20844826 56.00756386 74.72744751 56.00416565 C76.97367859 56.12442017 76.97367859 56.12442017 77.97367859 57.12442017 C78.06053462 58.68614761 78.08070078 60.25171361 78.07133484 61.81582642 C78.06650085 63.23218384 78.06650085 63.23218384 78.06156921 64.67715454 C78.04900085 66.16698853 78.04900085 66.16698853 78.03617859 67.68692017 C78.03166687 68.68401001 78.02715515 69.68109985 78.02250671 70.70840454 C78.01067866 73.18046865 77.99419708 75.65241535 77.97367859 78.12442017 C75.402344 79.41008746 73.57650758 79.24451795 70.69779968 79.23794556 C69.04631424 79.23783226 69.04631424 79.23783226 67.36146545 79.23771667 C66.16873016 79.23255539 64.97599487 79.2273941 63.74711609 79.22207642 C62.52916351 79.22066147 61.31121094 79.21924652 60.05635071 79.2177887 C56.15376869 79.21217655 52.25124336 79.19962196 48.34867859 79.18692017 C45.70805442 79.18190673 43.06742935 79.17734355 40.42680359 79.17324829 C33.942389 79.16305267 27.4580975 79.14347953 20.97367859 79.12442017 C20.97367859 89.68442017 20.97367859 100.24442017 20.97367859 111.12442017 C27.72578796 111.08961548 27.72578796 111.08961548 34.61430359 111.05410767 C38.20507699 111.04124439 41.79584388 111.03039926 45.3866272 111.0209198 C49.17627084 111.01036157 52.96582492 110.99625364 56.75541687 110.97354126 C60.40585466 110.95179996 64.05620564 110.93984883 67.70670319 110.93466568 C69.09895443 110.93097223 70.49120096 110.92375983 71.88341522 110.91296005 C73.83435425 110.89842891 75.78538077 110.8976031 77.7363739 110.89736938 C79.40183258 110.89070755 79.40183258 110.89070755 81.10093689 110.88391113 C83.93081846 111.12083187 85.57533273 111.65605721 87.97367859 113.12442017 C88.00255371 116.77023704 88.02043444 120.4160248 88.03617859 124.06192017 C88.0445575 125.10283813 88.0529364 126.1437561 88.06156921 127.21621704 C88.06479187 128.20557251 88.06801453 129.19492798 88.07133484 130.21426392 C88.07657166 131.13070679 88.08180847 132.04714966 88.08720398 132.99136353 C87.97367859 135.12442017 87.97367859 135.12442017 86.97367859 136.12442017 C84.08761843 136.22498708 81.22545284 136.26057392 78.33891296 136.2538147 C77.43329117 136.25556702 76.52766937 136.25731934 75.59460449 136.25912476 C72.58552666 136.2635447 69.57650707 136.26060478 66.56742859 136.25723267 C64.48617034 136.25790566 62.40491216 136.25887565 60.32365417 136.26013184 C55.95552321 136.261609 51.58741266 136.25945365 47.21928406 136.25479126 C41.60653306 136.24909396 35.99382987 136.25237287 30.38108063 136.25836372 C26.0815647 136.26196883 21.7820602 136.26083098 17.48254395 136.25823593 C15.41238398 136.25756652 13.34222299 136.25839557 11.27206421 136.26071548 C8.38416272 136.26324118 5.49633981 136.25940259 2.60844421 136.2538147 C1.74399185 136.25583893 0.87953949 136.25786316 -0.0111084 136.25994873 C-5.91205904 136.23868254 -5.91205904 136.23868254 -7.02632141 135.12442017 C-7.12477063 133.39313919 -7.15264194 131.65781432 -7.15330505 129.92373657 C-7.15612488 128.79631042 -7.1589447 127.66888428 -7.16184998 126.5072937 C-7.15982574 125.25946106 -7.15780151 124.01162842 -7.15571594 122.72598267 C-7.15746826 121.42046448 -7.15922058 120.11494629 -7.161026 118.76986694 C-7.16560002 115.17905507 -7.16381091 111.58827181 -7.16064692 107.99745941 C-7.15812315 104.2476239 -7.1604609 100.49779092 -7.16203308 96.74795532 C-7.16385473 90.44961098 -7.16144859 84.15127835 -7.1566925 77.85293579 C-7.15124989 70.56103133 -7.15301255 63.26915483 -7.15851891 55.97725105 C-7.16305018 49.72758303 -7.16370052 43.47792345 -7.16108024 37.22825432 C-7.15951754 33.49077776 -7.15932351 29.75331435 -7.16261673 26.01583862 C-7.16602947 21.85149467 -7.16130549 17.68719926 -7.15571594 13.52285767 C-7.15774017 12.27502502 -7.1597644 11.02719238 -7.16184998 9.74154663 C-7.15903015 8.61412048 -7.15621033 7.48669434 -7.15330505 6.32510376 C-7.15292803 5.33916229 -7.152551 4.35322083 -7.15216255 3.33740234 C-6.89343198 -1.21250992 -3.84812109 0.00674823 0 0 Z " fill="#EBF0F8" transform="translate(1029.0263214111328,94.87557983398438)"/>
<path d="M0 0 C1.46083008 0.00290039 1.46083008 0.00290039 2.95117188 0.00585938 C3.96630859 0.01810547 4.98144531 0.03035156 6.02734375 0.04296875 C7.04634766 0.04361328 8.06535156 0.04425781 9.11523438 0.04492188 C16.68403389 0.09006382 16.68403389 0.09006382 18.96484375 1.23046875 C18.96848938 2.31073334 18.97213501 3.39099792 18.97589111 4.5039978 C19.01292773 14.71406519 19.07079488 24.92383339 19.14874649 35.13367271 C19.18815562 40.38193334 19.22037629 45.63002783 19.23583984 50.87841797 C19.25104965 55.9490589 19.28557186 61.01924288 19.33315277 66.08967972 C19.34792205 68.01838826 19.35588219 69.94716206 19.3567276 71.87592697 C19.28873921 86.03188414 19.28873921 86.03188414 23.96484375 99.23046875 C24.64667805 100.89098801 25.31698877 102.55640001 25.96484375 104.23046875 C26.62484375 104.23046875 27.28484375 104.23046875 27.96484375 104.23046875 C29.29817708 105.56380208 30.63151042 106.89713542 31.96484375 108.23046875 C38.77515092 113.28955407 47.75565558 114.09319352 55.9609375 112.953125 C60.72940739 111.97712239 64.30841192 110.00561898 68.30078125 107.25390625 C69.96484375 106.23046875 69.96484375 106.23046875 71.96484375 106.23046875 C72.38056641 105.38935547 72.38056641 105.38935547 72.8046875 104.53125 C73.58871738 102.97638939 74.39409635 101.43213915 75.21875 99.8984375 C75.65058594 99.07988281 76.08242188 98.26132813 76.52734375 97.41796875 C76.96175781 96.60714844 77.39617187 95.79632813 77.84375 94.9609375 C80.22655789 89.15751341 80.12334757 82.90955745 80.17016602 76.72485352 C80.18006561 75.9045314 80.18996521 75.08420929 80.20016479 74.23902893 C80.2315426 71.55000614 80.25644257 68.86096574 80.28125 66.171875 C80.30184006 64.29857445 80.32283705 62.42527833 80.34422302 60.55198669 C80.39923189 55.63823044 80.448734 50.72443373 80.49707031 45.81060791 C80.54744068 40.78971792 80.6030454 35.76888615 80.65820312 30.74804688 C80.76552532 20.90890399 80.86702715 11.0697104 80.96484375 1.23046875 C83.49931248 -0.03676562 85.28711329 0.10105547 88.12109375 0.09765625 C89.65443359 0.09572266 89.65443359 0.09572266 91.21875 0.09375 C92.28996094 0.09761719 93.36117187 0.10148437 94.46484375 0.10546875 C96.07166016 0.09966797 96.07166016 0.09966797 97.7109375 0.09375 C98.73316406 0.09503906 99.75539063 0.09632812 100.80859375 0.09765625 C101.74896484 0.09878418 102.68933594 0.09991211 103.65820312 0.10107422 C105.96484375 0.23046875 105.96484375 0.23046875 107.96484375 1.23046875 C108.01127336 12.93994176 108.04676689 24.6493927 108.06846809 36.35893917 C108.07888585 41.79669901 108.09300835 47.23439566 108.11572266 52.67211914 C108.13752266 57.92408936 108.14942747 63.17599895 108.15459824 68.42801094 C108.15828116 70.42737341 108.16547288 72.42673273 108.17630386 74.42606926 C108.19091393 77.2358595 108.19281773 80.04540223 108.19189453 82.85522461 C108.19908508 83.67378433 108.20627563 84.49234406 108.21368408 85.33570862 C108.15843647 100.97078266 101.56612447 113.59933164 90.77734375 124.60546875 C85.09631785 130.23046875 85.09631785 130.23046875 80.96484375 130.23046875 C80.96484375 130.89046875 80.96484375 131.55046875 80.96484375 132.23046875 C79.11134058 132.8574337 77.25700516 133.48193841 75.40234375 134.10546875 C74.36980469 134.45351562 73.33726562 134.8015625 72.2734375 135.16015625 C70.63568359 135.68996094 70.63568359 135.68996094 68.96484375 136.23046875 C67.92457031 136.59914062 66.88429688 136.9678125 65.8125 137.34765625 C60.50062672 138.56642108 55.3959168 138.52030547 49.96484375 138.48046875 C48.91039062 138.48820313 47.8559375 138.4959375 46.76953125 138.50390625 C41.07905039 138.48964439 36.33034507 138.13216542 30.96484375 136.23046875 C29.59199219 135.80507813 29.59199219 135.80507813 28.19140625 135.37109375 C21.72484924 133.15731748 16.43907809 130.30844089 10.96484375 126.23046875 C9.60359375 125.24046875 9.60359375 125.24046875 8.21484375 124.23046875 C-1.35489568 115.7240337 -7.0110855 103.62700973 -8.26353073 90.91197205 C-8.62629576 84.62104522 -8.57105176 78.32609592 -8.53125 72.02734375 C-8.53140526 70.01190133 -8.53289874 67.99645861 -8.53565979 65.98101807 C-8.53703471 61.78880371 -8.52462567 57.59693534 -8.50170898 53.40478516 C-8.47310571 48.02439681 -8.47613314 42.6445727 -8.4887991 37.26414108 C-8.49573456 33.11726012 -8.48799517 28.97051071 -8.47554207 24.82364655 C-8.47102223 22.83805088 -8.4706954 20.85244114 -8.47460747 18.86684418 C-8.4775043 16.10721976 -8.46109455 13.34839117 -8.43920898 10.58886719 C-8.44371063 9.76713516 -8.44821228 8.94540314 -8.45285034 8.09877014 C-8.4228363 5.83148193 -8.4228363 5.83148193 -8.03515625 2.23046875 C-4.75802642 0.04571553 -3.79648241 -0.01746375 0 0 Z " fill="#EDF2F9" transform="translate(568.03515625,94.76953125)"/>
<path d="M0 0 C0.845625 0.49967285 1.69125 0.9993457 2.5625 1.51416016 C3.5215625 2.0778833 4.480625 2.64160645 5.46875 3.22241211 C6.4896875 3.82657959 7.510625 4.43074707 8.5625 5.05322266 C10.72872506 6.32610991 12.89540022 7.59823145 15.0625 8.86962891 C16.69638672 9.82893311 16.69638672 9.82893311 18.36328125 10.80761719 C29.82414025 17.50886121 41.38862221 24.0333877 52.96557617 30.53149414 C66.79773784 38.29744356 80.51204778 46.26815229 94.23339844 54.22753906 C96.01069186 55.25844649 97.78811399 56.28913208 99.56567383 57.31958008 C101.24290141 58.29186969 102.91983295 59.26467018 104.59643555 60.23803711 C105.34965088 60.67462646 106.10286621 61.11121582 106.87890625 61.56103516 C107.54349854 61.94662598 108.20809082 62.3322168 108.89282227 62.72949219 C110.09700622 63.41372363 111.32371618 64.05883075 112.5625 64.67822266 C112.5625 65.66822266 112.5625 66.65822266 112.5625 67.67822266 C113.2225 68.00822266 113.8825 68.33822266 114.5625 68.67822266 C111.25939577 70.58680505 107.95594763 72.49479085 104.65216064 74.40219116 C103.46539345 75.08736305 102.27866669 75.77260499 101.09197998 76.45791626 C94.15321934 80.46447271 87.20659228 84.4563423 80.24023438 88.41479492 C71.89787857 93.15643805 63.63565519 98.0092034 55.42333984 102.97241211 C47.5181798 107.7359353 39.52715487 112.34553371 31.52392578 116.94189453 C25.91733289 120.16272086 20.320871 123.39866413 14.74609375 126.67431641 C13.65458008 127.3151416 12.56306641 127.9559668 11.43847656 128.61621094 C9.36193906 129.83701147 7.28698433 131.06050951 5.21386719 132.28710938 C4.2809082 132.83512207 3.34794922 133.38313477 2.38671875 133.94775391 C1.57291748 134.42833252 0.75911621 134.90891113 -0.0793457 135.40405273 C-4.75399099 137.92988085 -4.75399099 137.92988085 -7.4375 138.67822266 C-9.7355957 137.93408203 -9.7355957 137.93408203 -12.11328125 136.52197266 C-13.01199951 136.00070801 -13.91071777 135.47944336 -14.83666992 134.94238281 C-15.79806885 134.36020996 -16.75946777 133.77803711 -17.75 133.17822266 C-18.75458252 132.58960449 -19.75916504 132.00098633 -20.79418945 131.39453125 C-22.92616381 130.14346022 -25.05358365 128.88460055 -27.17675781 127.61865234 C-30.39511092 125.7034479 -33.62771645 123.81526447 -36.8671875 121.93603516 C-40.8575133 119.62095265 -44.84413093 117.29992722 -48.82421875 114.96728516 C-49.74380371 114.4287793 -50.66338867 113.89027344 -51.61083984 113.33544922 C-53.54978113 112.19867832 -55.48754735 111.05990149 -57.42431641 109.91943359 C-63.09353577 106.5914713 -68.80193782 103.36557579 -74.58349609 100.23730469 C-80.01395214 97.27076129 -85.37990343 94.1897748 -90.75 91.11572266 C-91.65052597 90.60038971 -91.65052597 90.60038971 -92.56924438 90.074646 C-101.10779877 85.18534929 -109.63362184 80.27407954 -118.125 75.30322266 C-119.05675049 74.76238037 -119.98850098 74.22153809 -120.94848633 73.66430664 C-122.21728638 72.91709351 -122.21728638 72.91709351 -123.51171875 72.15478516 C-124.24994873 71.72246582 -124.98817871 71.29014648 -125.7487793 70.84472656 C-127.4375 69.67822266 -127.4375 69.67822266 -128.4375 67.67822266 C-125.15342489 63.97738675 -121.3637376 61.75137292 -117.0625 59.42822266 C-115.61042497 58.62789866 -114.1586062 57.82710955 -112.70703125 57.02587891 C-111.98338379 56.62900879 -111.25973633 56.23213867 -110.51416016 55.82324219 C-107.57448864 54.20237933 -104.66178356 52.53607514 -101.75 50.86572266 C-100.61304687 50.21474609 -99.47609375 49.56376953 -98.3046875 48.89306641 C-97.69463867 48.54356934 -97.08458984 48.19407227 -96.45605469 47.83398438 C-93.32018017 46.03848003 -90.18248352 44.24616737 -87.04492188 42.45361328 C-85.24926813 41.42771308 -83.4536966 40.40166895 -81.65820312 39.37548828 C-77.21840088 36.838007 -72.77799334 34.30160077 -68.3359375 31.76806641 C-59.76920006 26.88044779 -51.21070061 21.97892955 -42.66748047 17.05029297 C-40.44510522 15.76881273 -38.22148648 14.48948636 -35.99658203 13.21240234 C-30.87439624 10.26727952 -25.77775246 7.29432047 -20.73828125 4.20947266 C-19.43431396 3.42165405 -19.43431396 3.42165405 -18.10400391 2.61791992 C-16.49674509 1.64397236 -14.89806939 0.65566037 -13.31005859 -0.34936523 C-12.60316895 -0.77467529 -11.8962793 -1.19998535 -11.16796875 -1.63818359 C-10.56364014 -2.01402588 -9.95931152 -2.38986816 -9.33666992 -2.77709961 C-5.80494154 -3.7899915 -3.06512284 -1.66211689 0 0 Z M-76.25390625 48.85791016 C-81.41280486 55.521103 -84.44709104 62.31808402 -83.97265625 70.85791016 C-81.58954278 83.4170921 -72.51929458 92.38271715 -62.375 99.42822266 C-46.40773712 108.99053828 -27.79568976 112.22383821 -9.45214844 112.12426758 C-7.07138455 112.11575443 -4.69302932 112.14465006 -2.3125 112.17626953 C8.25069729 112.22325678 17.42986255 110.68483545 27.5625 107.67822266 C29.35381428 107.1977403 31.14539273 106.7182388 32.9375 106.24072266 C41.96414355 103.41328154 49.43517223 98.84065948 56.5625 92.67822266 C57.27664062 92.07107422 57.99078125 91.46392578 58.7265625 90.83837891 C64.66502348 85.40035003 68.71247545 79.1379957 69.96875 71.06884766 C70.29155117 62.4070163 68.03967344 56.02463047 62.375 49.49072266 C45.88612377 32.39602509 22.67478642 25.17329138 -0.6796875 24.47509766 C-27.49900415 24.10530683 -57.15710654 27.9880438 -76.25390625 48.85791016 Z " fill="#B0EEEC" transform="translate(174.4375,3.32177734375)"/>
<path d="M0 0 C0.85810272 -0.00281982 1.71620544 -0.00563965 2.60031128 -0.00854492 C3.54375397 -0.00652069 4.48719666 -0.00449646 5.45922852 -0.00241089 C6.94714401 -0.00503937 6.94714401 -0.00503937 8.46511841 -0.00772095 C11.75614146 -0.01213553 15.04711113 -0.00920284 18.33813477 -0.00582886 C20.61735037 -0.00650201 22.8965659 -0.00747213 25.17578125 -0.00872803 C29.95744509 -0.01020447 34.73909028 -0.00805216 39.52075195 -0.00338745 C45.66136662 0.0023098 51.80193759 -0.00096949 57.94255066 -0.00695992 C62.65043469 -0.01056697 67.35830829 -0.00942627 72.06619263 -0.00683212 C74.33090215 -0.00616326 76.59561261 -0.00698988 78.86032104 -0.00931168 C82.02092001 -0.01184055 85.1814474 -0.00799424 88.34204102 -0.00241089 C89.2854837 -0.00443512 90.22892639 -0.00645935 91.20095825 -0.00854492 C92.48811234 -0.00431519 92.48811234 -0.00431519 93.80126953 0 C94.54901138 0.00037703 95.29675323 0.00075405 96.06715393 0.0011425 C97.90063477 0.12698364 97.90063477 0.12698364 99.90063477 1.12698364 C99.90063477 8.71698364 99.90063477 16.30698364 99.90063477 24.12698364 C86.70063477 24.12698364 73.50063477 24.12698364 59.90063477 24.12698364 C59.90063477 60.75698364 59.90063477 97.38698364 59.90063477 135.12698364 C50.99063477 135.12698364 42.08063477 135.12698364 32.90063477 135.12698364 C32.90063477 98.49698364 32.90063477 61.86698364 32.90063477 24.12698364 C20.03063477 24.12698364 7.16063477 24.12698364 -6.09936523 24.12698364 C-6.09936523 16.53698364 -6.09936523 8.94698364 -6.09936523 1.12698364 C-3.81053852 -0.01742971 -2.5434485 0.00128245 0 0 Z " fill="#EEF2F9" transform="translate(899.099365234375,94.87301635742188)"/>
<path d="M0 0 C1.45889648 -0.00193359 1.45889648 -0.00193359 2.94726562 -0.00390625 C3.96626953 -0.00003906 4.98527344 0.00382812 6.03515625 0.0078125 C7.05029297 0.00394531 8.06542969 0.00007813 9.11132812 -0.00390625 C10.08521484 -0.00261719 11.05910156 -0.00132813 12.0625 0 C13.40235962 0.00169189 13.40235962 0.00169189 14.76928711 0.00341797 C17.09765625 0.1328125 17.09765625 0.1328125 20.09765625 1.1328125 C20.09765625 45.3528125 20.09765625 89.5728125 20.09765625 135.1328125 C11.18765625 135.1328125 2.27765625 135.1328125 -6.90234375 135.1328125 C-6.90234375 90.9128125 -6.90234375 46.6928125 -6.90234375 1.1328125 C-4.42892207 -0.10389834 -2.76375064 0.00349431 0 0 Z " fill="#EDF3F9" transform="translate(849.90234375,94.8671875)"/>
<path d="M0 0 C1.38759487 0.662025 2.75281148 1.37214443 4.09765625 2.1171875 C4.88986572 2.55393799 5.6820752 2.99068848 6.49829102 3.44067383 C7.34447998 3.91400146 8.19066895 4.3873291 9.0625 4.875 C10.38302368 5.60722778 10.38302368 5.60722778 11.73022461 6.35424805 C18.63013758 10.19573476 25.47792981 14.12573797 32.29125977 18.11865234 C33.74588573 18.9694498 35.20925869 19.80546502 36.6809082 20.62646484 C39 22 39 22 41.57495117 23.87744141 C44.4085907 25.7902561 46.69188603 27.1156195 50 28 C54.66456465 26.87388255 58.23965497 24.41188924 62.1875 21.75 C63.88604858 20.68998966 65.58462802 19.63002393 67.28526306 18.57336426 C69.03704204 17.47585158 70.77495321 16.35893136 72.51074219 15.23632812 C78.02577658 11.68144959 83.6667416 8.34247689 89.3125 5 C90.31369873 4.38350586 91.31489746 3.76701172 92.34643555 3.13183594 C93.28011963 2.57270508 94.21380371 2.01357422 95.17578125 1.4375 C95.98958252 0.94121094 96.80338379 0.44492188 97.6418457 -0.06640625 C100.63244534 -1.25038523 101.96536541 -1.00959621 105 0 C107.61547852 1.35107422 107.61547852 1.35107422 110.37890625 3.0546875 C111.38244141 3.66957031 112.38597656 4.28445312 113.41992188 4.91796875 C114.45697266 5.56378906 115.49402344 6.20960938 116.5625 6.875 C118.12387695 7.83212891 118.12387695 7.83212891 119.71679688 8.80859375 C123.93113478 11.40495112 128.08046753 13.97035992 132 17 C131.67 17.66 131.34 18.32 131 19 C129.92363281 18.9071875 128.84726563 18.814375 127.73828125 18.71875 C117.35988001 18.09518584 111.29959835 19.50978143 102.71484375 25.79394531 C99.60110885 27.98384429 96.29287745 29.84520291 93 31.75 C92.29721924 32.16209717 91.59443848 32.57419434 90.87036133 32.9987793 C84.10674685 36.9633454 77.30233864 40.85752689 70.48022461 44.72045898 C66.68462648 46.87260225 62.90540114 49.02915526 59.2109375 51.3515625 C58.17195313 51.99867188 57.13296875 52.64578125 56.0625 53.3125 C54.78052734 54.14201172 54.78052734 54.14201172 53.47265625 54.98828125 C50.02558599 56.39869389 48.57793873 56.12787443 45 55 C41.56333318 53.16260818 38.29714042 51.07447293 35 49 C33.12829519 47.89322992 31.25186511 46.7944169 29.37109375 45.703125 C27.92500732 44.86104492 27.92500732 44.86104492 26.44970703 44.00195312 C25.45567871 43.42380859 24.46165039 42.84566406 23.4375 42.25 C9.58157929 34.17858988 9.58157929 34.17858988 3.76196289 30.75439453 C2.35373437 29.92776616 0.94281278 29.10570612 -0.47094727 28.28857422 C-3.30780515 26.64096224 -6.01101747 24.99195498 -8.6640625 23.0546875 C-16.25975469 17.59290214 -24.02667557 18.43786599 -33 19 C-31.55909898 15.3626985 -29.94984066 14.06815153 -26.5625 12.1875 C-22.71667245 9.99465477 -18.96492983 7.72136011 -15.25 5.3125 C-4.5349977 -1.50339004 -4.5349977 -1.50339004 0 0 Z " fill="#3C6AB2" transform="translate(118,184)"/>
<path d="M0 0 C0.66 0 1.32 0 2 0 C2.27335034 4.71347738 2.47209484 9.42229439 2.60424805 14.1418457 C2.65934644 15.74390012 2.73426105 17.34540664 2.82983398 18.94555664 C3.13272496 24.14977424 3.2069647 28.9043687 2 34 C-1.21587921 37.51974711 -4.65589001 39.16986153 -9 41 C-10.59803572 41.93361077 -12.1842952 42.88812832 -13.75 43.875 C-15.4997667 44.91705851 -17.24979539 45.95867715 -19 47 C-21.50111768 48.49813854 -24.00049751 49.99916864 -26.5 51.5 C-28.32293279 52.5938588 -30.14595479 53.6875688 -31.96899414 54.78125 C-33.42668275 55.6559683 -34.88417987 56.53100574 -36.34155273 57.40625 C-40.56873847 59.94429644 -44.79871641 62.47742637 -49.03515625 65 C-49.86466797 65.495 -50.69417969 65.99 -51.54882812 66.5 C-53.22749077 67.50171943 -54.90718353 68.50171458 -56.58789062 69.5 C-61.4963435 72.4336123 -66.27829964 75.4999308 -71.01928711 78.69628906 C-73.36070465 80.23741684 -75.76297128 81.5833496 -78.25 82.875 C-84.67399487 86.30712034 -90.81604372 90.15739069 -97 94 C-101.62093567 96.8153069 -106.27328295 99.57628025 -110.94140625 102.3125 C-112.39845957 103.16662901 -113.85549022 104.02079671 -115.3125 104.875 C-116.04500977 105.30433838 -116.77751953 105.73367676 -117.53222656 106.17602539 C-122.0561986 108.83503551 -126.54043121 111.54683542 -131 114.3125 C-138.64544753 119.02623457 -138.64544753 119.02623457 -142.125 121.0625 C-142.80820313 121.46597656 -143.49140625 121.86945313 -144.1953125 122.28515625 C-146 123 -146 123 -149 122 C-143.85019818 115.49498718 -143.85019818 115.49498718 -140.41015625 113.4921875 C-137.14172184 111.55082187 -135.19916945 110.13804564 -133 107 C-132.48370753 103.49551478 -132.5952366 100.0345381 -132.6875 96.5 C-132.90359752 87.28566528 -132.90359752 87.28566528 -130.78515625 84.27148438 C-126.26251555 80.28456794 -120.77693488 78.44423372 -115 77 C-114.505 84.425 -114.505 84.425 -114 92 C-109.39272186 89.67055697 -109.39272186 89.67055697 -106 86 C-105.85886356 83.33857002 -105.8653665 80.89371236 -106 78.25 C-106.13274265 74.3466485 -106.16597819 71.28826819 -103.44970703 68.28710938 C-99.14004857 64.90239367 -92.674992 60 -87 60 C-87 63.3 -87 66.6 -87 70 C-83.65760988 67.96080441 -80.66188706 65.88755764 -78 63 C-77.48276494 60.51508342 -77.48276494 60.51508342 -77.625 57.9375 C-77.6171875 55.3671875 -77.6171875 55.3671875 -77 53 C-73.6420954 50.27952813 -69.93500646 48.72559709 -66 47 C-65.09765625 46.45214844 -64.1953125 45.90429688 -63.265625 45.33984375 C-61 44 -61 44 -59 44 C-58.67 44.99 -58.34 45.98 -58 47 C-56.69817331 46.11899636 -55.40888828 45.21944599 -54.125 44.3125 C-53.40570313 43.81363281 -52.68640625 43.31476563 -51.9453125 42.80078125 C-49.82372887 41.11746046 -49.82372887 41.11746046 -49.12109375 38.5078125 C-47.52641633 34.94062468 -45.40210633 34.28485883 -41.9375 32.5625 C-35.09022359 28.94284172 -29.38551646 24.44219164 -23.49584961 19.44262695 C-17.80771763 14.62102356 -11.94185599 10.11764261 -5.91259766 5.73144531 C-2.43353591 3.3418309 -2.43353591 3.3418309 0 0 Z " fill="#4282CB" transform="translate(333,202)"/>
<path d="M0 0 C0.70543945 0.15065918 1.41087891 0.30131836 2.13769531 0.45654297 C20.40164945 4.42580732 36.986898 11.47225684 48.25390625 27.1328125 C51.98168713 33.25404553 53.10478885 39.95948196 52 47 C47.57444328 60.18955291 37.23790208 69.85090634 25 76 C9.77364222 82.56762533 -5.4102981 85.53594804 -21.93041992 85.44604492 C-24.30020523 85.4375441 -26.66756045 85.46640711 -29.03710938 85.49804688 C-51.58298632 85.60056996 -74.0402981 79.26378205 -90.875 63.75 C-96.75051193 57.52131522 -101.18615518 50.19574009 -101.75 41.5 C-101.09002539 31.52864449 -95.35885965 23.08886469 -88.1953125 16.44921875 C-64.93583417 -2.26869153 -28.47535826 -6.45937462 0 0 Z M-56 8 C-56.66161133 8.21962402 -57.32322266 8.43924805 -58.00488281 8.66552734 C-66.34788499 11.495259 -73.46018489 14.96324759 -80 21 C-80.65742187 21.5671875 -81.31484375 22.134375 -81.9921875 22.71875 C-88.16613219 28.35471611 -90.089645 33.64622452 -90.5 41.9375 C-90.337352 48.07939839 -88.54055103 52.06887044 -85 57 C-83.948125 58.546875 -83.948125 58.546875 -82.875 60.125 C-79.05757351 64.43153426 -73.94741133 67.18235665 -69 70 C-68.20078125 70.46664062 -67.4015625 70.93328125 -66.578125 71.4140625 C-44.77514748 82.73216866 -15.00242194 81.61994584 8 75 C20.73929315 70.89511665 31.668089 64.42969584 39 53 C42.06991598 46.78971096 42.09886882 39.35860049 40.41796875 32.69140625 C34.96847442 20.32428898 22.50276762 14.1505865 10.6875 9.3125 C-0.85603668 5.12685619 -12.06169873 3.45877732 -24.3125 3.5625 C-25.57852051 3.57007324 -26.84454102 3.57764648 -28.14892578 3.58544922 C-37.96831409 3.75758693 -46.71215994 4.8553749 -56 8 Z " fill="#3699D4" transform="translate(192,30)"/>
<path d="M0 0 C15.06227538 -2.79095103 24.8827462 4.29601674 37.18066406 12.20068359 C40.9976955 14.636735 44.89552714 16.91723921 48.8125 19.1875 C50.14494977 19.97194579 51.47698042 20.75710392 52.80859375 21.54296875 C58.46860599 24.86957503 64.15677062 28.14788913 69.84692383 31.42260742 C70.60642334 31.86064697 71.36592285 32.29868652 72.1484375 32.75 C73.15656494 33.33007812 73.15656494 33.33007812 74.18505859 33.921875 C75.8228144 34.89474689 77.41500997 35.94333998 79 37 C85.04314919 36.91746837 89.77031127 33.55348891 94.8125 30.5625 C95.74030273 30.02189941 96.66810547 29.48129883 97.62402344 28.92431641 C100.4212969 27.29169451 103.21109415 25.64686432 106 24 C107.51913143 23.10999429 109.03863239 22.22061885 110.55859375 21.33203125 C114.00839491 19.312181 117.45056306 17.27969674 120.89111328 15.24414062 C123.13111796 13.92264678 125.37558128 12.60898636 127.62109375 11.296875 C128.38518555 10.84973145 129.14927734 10.40258789 129.93652344 9.94189453 C131.38822968 9.09259914 132.84065138 8.24452494 134.29394531 7.39794922 C134.95362305 7.0113916 135.61330078 6.62483398 136.29296875 6.2265625 C136.92879883 5.85660156 137.56462891 5.48664063 138.21972656 5.10546875 C140.24942994 3.88763303 140.24942994 3.88763303 142.93359375 1.7265625 C147.04570682 -0.58879289 150.25211865 -0.4537202 154.875 -0.25 C156.050625 -0.22292969 156.050625 -0.22292969 157.25 -0.1953125 C159.16720189 -0.14855148 161.08376715 -0.07682003 163 0 C159.9064699 3.40965727 156.71092106 5.47392232 152.6875 7.6875 C151.42760713 8.39053414 150.1685185 9.09501111 148.91015625 9.80078125 C148.26320801 10.16252441 147.61625977 10.52426758 146.94970703 10.89697266 C143.81115562 12.67257687 140.71558624 14.51746461 137.625 16.375 C137.00077148 16.75003662 136.37654297 17.12507324 135.73339844 17.51147461 C131.26883869 20.20676701 126.84959314 22.96992969 122.4375 25.75 C115.91506313 29.85373043 109.31885123 33.8248767 102.6875 37.75 C101.79281006 38.28077148 100.89812012 38.81154297 99.97631836 39.35839844 C98.21812767 40.39489417 96.45315231 41.41997212 94.68139648 42.43310547 C92.81342469 43.52466907 90.97571069 44.66898482 89.16430664 45.85205078 C82.27014269 50.1427287 82.27014269 50.1427287 78.82739258 49.75585938 C76.68995677 48.83013801 74.9535595 47.73342857 73.0625 46.375 C72.38356689 45.94147217 71.70463379 45.50794434 71.00512695 45.0612793 C68.97133832 43.74952032 66.98572167 42.38311241 65 41 C63.90945312 40.27683594 62.81890625 39.55367187 61.6953125 38.80859375 C59.71145337 37.49203269 57.73592008 36.16282696 55.76953125 34.8203125 C52.33534831 32.56314853 48.77170305 30.66343252 45.14453125 28.73828125 C40.42945966 26.1318131 35.86231409 23.29431664 31.27832031 20.46533203 C27.0521643 17.85940784 22.81099116 15.28549686 18.53515625 12.76171875 C17.18151978 11.96048584 17.18151978 11.96048584 15.80053711 11.14306641 C14.05285685 10.11062896 12.30247286 9.08275097 10.54907227 8.06005859 C6.57164067 5.70422309 3.06152569 3.53832068 0 0 Z " fill="#0B3373" transform="translate(86,202)"/>
<path d="M0 0 C0.7734375 -0.00515625 1.546875 -0.0103125 2.34375 -0.015625 C4.5 0.25 4.5 0.25 7.5 2.25 C7.6134375 3.075 7.726875 3.9 7.84375 4.75 C8.0603125 5.575 8.276875 6.4 8.5 7.25 C10.99908208 8.54601395 10.99908208 8.54601395 14 9.25 C17.03125 10.0625 17.03125 10.0625 19.5 11.25 C20.40625 13.76171875 20.40625 13.76171875 20.5 16.25 C19.5 18.0625 19.5 18.0625 17.5 19.25 C13.53478037 19.69889279 11.18605505 19.60794176 7.625 17.75 C3.47548316 15.75823192 0.02762671 15.64243245 -4.5 16.25 C-7.57499469 17.22337194 -7.57499469 17.22337194 -9.5 19.25 C-10.25 21.75 -10.25 21.75 -9.5 24.25 C-6.07794394 27.76857559 -1.95468943 28.04399824 2.6875 28.6875 C11.80705714 30.15002498 19.58874774 31.73518611 25.45703125 39.4609375 C27.16465963 42.39012775 27.32358162 43.95567353 26.5 47.25 C22.74081173 53.29108151 17.47586747 57.2348849 10.5625 59 C9.881875 59.0825 9.20125 59.165 8.5 59.25 C8.066875 60.7040625 8.066875 60.7040625 7.625 62.1875 C6.5 65.25 6.5 65.25 4.5 66.25 C2.44140625 66.453125 2.44140625 66.453125 0.0625 66.5 C-1.11119141 66.53867188 -1.11119141 66.53867188 -2.30859375 66.578125 C-4.5 66.25 -4.5 66.25 -6.28515625 64.984375 C-7.5 63.25 -7.5 63.25 -7.5 59.25 C-8.36625 59.1675 -9.2325 59.085 -10.125 59 C-14.05668644 58.1262919 -16.38561622 56.78496354 -19.5 54.25 C-20.5625 52.1875 -20.5625 52.1875 -20.5 50.25 C-19.5625 48.5 -19.5625 48.5 -17.5 47.25 C-13.04386562 46.64781968 -10.29965079 46.71689947 -6.5 49.25 C-3.69855546 49.60599164 -3.69855546 49.60599164 -0.625 49.5625 C0.40367187 49.57925781 1.43234375 49.59601563 2.4921875 49.61328125 C5.8553662 49.20707915 7.7479883 48.17437719 10.5 46.25 C10.55167527 43.82732914 10.55167527 43.82732914 9.5 41.25 C5.22074902 38.58735494 1.68300854 38.102188 -3.3125 37.8125 C-10.95121771 37.30580158 -17.6406473 35.61249178 -23.125 30 C-25.49941261 26.82507114 -26.42028311 24.20257967 -26.07421875 20.234375 C-24.68357604 15.42861652 -21.45366742 12.37634907 -17.203125 9.92578125 C-13.79786528 8.33999854 -11.28854881 7.25 -7.5 7.25 C-7.561875 6.46625 -7.62375 5.6825 -7.6875 4.875 C-7.5946875 3.575625 -7.5946875 3.575625 -7.5 2.25 C-4.377998 0.16866533 -3.56733011 -0.0237822 0 0 Z " fill="#3498D3" transform="translate(167.5,37.75)"/>
<path d="M0 0 C3.62599816 1.79921201 7.18812495 3.70158747 10.75 5.625 C13.84375 7.295625 13.84375 7.295625 17 9 C17 15.6 17 22.2 17 29 C10.80875348 27.45218837 3.85146189 25.45662578 0 20 C-1.65837679 13.51946964 -0.79300421 6.56926562 0 0 Z " fill="#BEDDF8" transform="translate(89,262)"/>
<path d="M0 0 C0.92169718 6.55586658 1.89176344 13.55852573 0 20 C-3.72182942 24.73148134 -9.48118687 26.99090398 -15 29 C-15.66 29 -16.32 29 -17 29 C-17.92169718 22.44413342 -18.89176344 15.44147427 -17 9 C-13.41613799 4.44391365 -5.86198995 0 0 0 Z " fill="#BFDEF8" transform="translate(190,295)"/>
<path d="M0 0 C3.65619863 1.35876682 6.86826518 3.01873514 10.1875 5.0625 C13.5385079 7.13105765 13.5385079 7.13105765 17 9 C17 15.6 17 22.2 17 29 C3.60377358 24.53459119 3.60377358 24.53459119 0 20 C-1.41193319 13.47555848 -0.66679916 6.58872179 0 0 Z " fill="#BFDEF8" transform="translate(145,295)"/>
<path d="M0 0 C13.25448704 4.28705961 13.25448704 4.28705961 17 9 C18.41193319 15.52444152 17.66679916 22.41127821 17 29 C14.72791794 27.8774654 12.45732355 26.75208479 10.1875 25.625 C9.54490234 25.30789063 8.90230469 24.99078125 8.24023438 24.6640625 C5.36805539 23.23541389 2.6732179 21.78214527 0 20 C-0.34057617 17.93701172 -0.34057617 17.93701172 -0.29296875 15.4296875 C-0.28330078 14.53378906 -0.27363281 13.63789063 -0.26367188 12.71484375 C-0.23853516 11.77769531 -0.21339844 10.84054687 -0.1875 9.875 C-0.17396484 8.93011719 -0.16042969 7.98523438 -0.14648438 7.01171875 C-0.11106306 4.67391221 -0.06167271 2.33723763 0 0 Z " fill="#C2E0F9" transform="translate(117,279)"/>
<path d="M0 0 C0 6.6 0 13.2 0 20 C-2.619375 21.485 -5.23875 22.97 -7.9375 24.5 C-9.17681274 25.20479492 -9.17681274 25.20479492 -10.44116211 25.92382812 C-11.08835205 26.28927734 -11.73554199 26.65472656 -12.40234375 27.03125 C-13.06741943 27.40830078 -13.73249512 27.78535156 -14.41772461 28.17382812 C-16 29 -16 29 -17 29 C-19.06951958 11.85605078 -19.06951958 11.85605078 -15.75634766 7.28369141 C-12.28263932 4.29932845 -8.2690565 2.60775521 -4 1 C-2 0 -2 0 0 0 Z " fill="#C2E0F9" transform="translate(218,279)"/>
<path d="M0 0 C0.88993652 0.45656982 0.88993652 0.45656982 1.79785156 0.92236328 C4.13722821 2.10731983 4.13722821 2.10731983 7.234375 3.2421875 C14.63347136 6.6786567 14.63347136 6.6786567 17 10 C18.66102414 16.47867213 17.7928363 23.43212535 17 30 C15.28969148 29.08702392 13.58185105 28.16942376 11.875 27.25 C10.92367187 26.73953125 9.97234375 26.2290625 8.9921875 25.703125 C8.00476562 25.14109375 7.01734375 24.5790625 6 24 C4.8965625 23.484375 3.793125 22.96875 2.65625 22.4375 C-0.37858262 19.65259478 -0.41272104 19.15218936 -0.5859375 15.234375 C-0.54617566 13.40533048 -0.47478066 11.57675359 -0.375 9.75 C-0.34792969 8.81414062 -0.32085937 7.87828125 -0.29296875 6.9140625 C-0.22234523 4.6070276 -0.12380579 2.30469231 0 0 Z " fill="#BFDEF8" transform="translate(33,229)"/>
<path d="M0 0 C0 6.6 0 13.2 0 20 C-2.619375 21.485 -5.23875 22.97 -7.9375 24.5 C-9.17681274 25.20479492 -9.17681274 25.20479492 -10.44116211 25.92382812 C-11.08835205 26.28927734 -11.73554199 26.65472656 -12.40234375 27.03125 C-13.06741943 27.40830078 -13.73249512 27.78535156 -14.41772461 28.17382812 C-16 29 -16 29 -17 29 C-17.92169718 22.44413342 -18.89176344 15.44147427 -17 9 C-13.41613799 4.44391365 -5.86198995 0 0 0 Z " fill="#C1DFF8" transform="translate(274,246)"/>
<path d="M0 0 C1.04220703 0.42152344 1.04220703 0.42152344 2.10546875 0.8515625 C4.08481238 1.63688912 6.090337 2.35842948 8.11328125 3.0234375 C11.93286026 4.63708138 14.2296407 5.87413293 17 9 C18.55211816 15.49281959 17.725538 22.42830008 17 29 C16.30519531 28.71898437 15.61039063 28.43796875 14.89453125 28.1484375 C12.91518762 27.36311088 10.909663 26.64157052 8.88671875 25.9765625 C5.06713974 24.36291862 2.7703593 23.12586707 0 20 C-1.55211816 13.50718041 -0.725538 6.57169992 0 0 Z " fill="#C0DFF9" transform="translate(61,246)"/>
<path d="M0 0 C0 6.6 0 13.2 0 20 C-2.26875 21.32 -4.5375 22.64 -6.875 24 C-7.58769043 24.41765625 -8.30038086 24.8353125 -9.03466797 25.265625 C-13.77777778 28 -13.77777778 28 -16 28 C-16 21.4 -16 14.8 -16 8 C-12.596875 6.02 -12.596875 6.02 -9.125 4 C-8.05596436 3.37351562 -8.05596436 3.37351562 -6.96533203 2.734375 C-2.22222222 0 -2.22222222 0 0 0 Z " fill="#C3E0F9" transform="translate(245,263)"/>
<path d="M0 0 C1.98 0.66 3.96 1.32 6 2 C6.91523438 2.26554688 7.83046875 2.53109375 8.7734375 2.8046875 C12.09884505 4.17279811 13.76895849 5.12904736 16 8 C17.30615574 14.53648242 16.60100648 21.40742117 16 28 C10.35447383 25.87389691 5.27034249 22.92091271 0 20 C0 13.4 0 6.8 0 0 Z " fill="#C3E1F9" transform="translate(6,214)"/>
<path d="M0 0 C2.22589643 16.96328759 2.22589643 16.96328759 -1.34179688 21.83056641 C-5.13590858 25.1716012 -10.82745224 29 -16 29 C-16.92119116 22.44773262 -17.90187454 15.43559622 -16 9 C-12.81742497 4.99883509 -5.28938588 0 0 0 Z " fill="#C4E1F9" transform="translate(329,213)"/>
<path d="M0 0 C0 6.6 0 13.2 0 20 C-2.26875 21.299375 -4.5375 22.59875 -6.875 23.9375 C-7.58769043 24.34605225 -8.30038086 24.75460449 -9.03466797 25.17553711 C-13.77777778 27.88888889 -13.77777778 27.88888889 -16 29 C-16 22.07 -16 15.14 -16 8 C-12.596875 6.02 -12.596875 6.02 -9.125 4 C-8.05596436 3.37351563 -8.05596436 3.37351563 -6.96533203 2.734375 C-2.22222222 0 -2.22222222 0 0 0 Z " fill="#C5E2FA" transform="translate(301,230)"/>
<path d="M0 0 C3.5625 0.1875 3.5625 0.1875 5.5625 2.1875 C5.89265665 5.29097254 6.06781294 7.34531176 4.4375 10.0625 C1.69333761 11.70899743 -0.3069571 11.58714378 -3.4375 11.1875 C-5.4375 8.1875 -5.4375 8.1875 -5.125 4.5625 C-4.24274345 0.23142237 -4.24274345 0.23142237 0 0 Z " fill="#0C3676" transform="translate(167.4375,279.8125)"/>
<path d="M0 0 C2.5 0.8125 2.5 0.8125 5.5 2.8125 C5.1875 6.1875 5.1875 6.1875 4.5 9.8125 C1.5 11.8125 1.5 11.8125 -1.0625 11.625 C-3.5 10.8125 -3.5 10.8125 -5.5 7.8125 C-5.86145422 4.92086622 -5.88440503 3.4194553 -4.3125 0.9375 C-2.5 -0.1875 -2.5 -0.1875 0 0 Z " fill="#0D3878" transform="translate(223.5,229.1875)"/>
<path d="M0 0 C1.38550197 2.77100394 1.1877467 4.9334706 1 8 C0.01 9.485 0.01 9.485 -1 11 C-4.16259871 11.40373601 -6.14012639 11.54458662 -8.875 9.8125 C-10.40659584 7.34492892 -10.42822025 5.85480169 -10 3 C-7.65127184 -1.00665392 -4.23309225 -0.239609 0 0 Z " fill="#0D3777" transform="translate(60,196)"/>
<path d="M0 0 C2.4375 0.75 2.4375 0.75 4.4375 2.75 C4.8125 5.6875 4.8125 5.6875 4.4375 8.75 C2.75 10.6875 2.75 10.6875 0.4375 11.75 C-2.1875 11.625 -2.1875 11.625 -4.5625 10.75 C-6.5625 7.75 -6.5625 7.75 -6.375 4.6875 C-5.32105756 0.87709272 -4.04091296 -0.39423541 0 0 Z " fill="#0D3676" transform="translate(140.5625,246.25)"/>
<path d="M0 0 C3.16259871 -0.40373601 5.14012639 -0.54458662 7.875 1.1875 C9.40659584 3.65507108 9.42822025 5.14519831 9 8 C7.875 9.8125 7.875 9.8125 6 11 C2.9375 11.3125 2.9375 11.3125 0 11 C-2 9 -2 9 -2.25 6.0625 C-2 3 -2 3 0 0 Z " fill="#0D3777" transform="translate(206,238)"/>
<path d="M0 0 C3.0625 0.3125 3.0625 0.3125 4.9375 1.5 C6.46909584 3.96757108 6.49072025 5.45769831 6.0625 8.3125 C4.9375 10.125 4.9375 10.125 3.0625 11.3125 C0 11.6875 0 11.6875 -2.9375 11.3125 C-5.23913882 7.86004176 -5.28240322 6.36511287 -4.9375 2.3125 C-2.9375 0.3125 -2.9375 0.3125 0 0 Z " fill="#0D3777" transform="translate(278.9375,195.6875)"/>
<path d="M0 0 C1 1 1 1 1.1875 4.4375 C1 8 1 8 -1 10 C-4.13704316 10.333728 -6.16554166 10.52849028 -8.875 8.8125 C-10.40659584 6.34492892 -10.42822025 4.85480169 -10 2 C-7.59027568 -2.25245468 -4.23782457 -0.94173879 0 0 Z " fill="#0D3877" transform="translate(32,197)"/>
<path d="M0 0 C3.5 0.25 3.5 0.25 5.5 2.25 C5.875 5.1875 5.875 5.1875 5.5 8.25 C3.8125 10.1875 3.8125 10.1875 1.5 11.25 C-1.125 11.125 -1.125 11.125 -3.5 10.25 C-5.64915785 7.02626323 -5.88286803 5.98296326 -5.5 2.25 C-3.5 0.25 -3.5 0.25 0 0 Z " fill="#0D3676" transform="translate(181.5,271.75)"/>
<path d="M0 0 C2.9375 0.8125 2.9375 0.8125 4.9375 2.8125 C4.36057692 9.38942308 4.36057692 9.38942308 2.9375 10.8125 C-0.5 11 -0.5 11 -4.0625 10.8125 C-6.0625 8.8125 -6.0625 8.8125 -6.375 5.875 C-6.0625 2.8125 -6.0625 2.8125 -4.9375 0.875 C-3.0625 -0.1875 -3.0625 -0.1875 0 0 Z " fill="#0D3777" transform="translate(168.0625,263.1875)"/>
<path d="M0 0 C2 2 2 2 2.3125 4.9375 C2 8 2 8 0.8125 9.875 C-1.65507108 11.40659584 -3.14519831 11.42822025 -6 11 C-7.875 9.9375 -7.875 9.9375 -9 8 C-8.8125 4.375 -8.8125 4.375 -8 1 C-5.23749964 -0.38125018 -3.05268901 -0.19079306 0 0 Z " fill="#0E3878" transform="translate(129,255)"/>
<path d="M0 0 C0.66 0.66 1.32 1.32 2 2 C1.8125 5.5 1.8125 5.5 1 9 C-2 11 -2 11 -4 10.8125 C-6.36897219 9.85010505 -7.50921906 9.08709332 -9 7 C-9.4375 4.5 -9.4375 4.5 -9 2 C-6.07557433 -1.24936186 -4.04996841 -1.38551551 0 0 Z " fill="#0D3777" transform="translate(115,247)"/>
<path d="M0 0 C3.125 0.25 3.125 0.25 5 1.4375 C6.53159584 3.90507108 6.55322025 5.39519831 6.125 8.25 C5 10.0625 5 10.0625 3.125 11.25 C0.0625 11.625 0.0625 11.625 -2.875 11.25 C-4.875 8.25 -4.875 8.25 -4.5625 4.625 C-3.68565574 0.3204918 -3.68565574 0.3204918 0 0 Z " fill="#0C3675" transform="translate(236.875,237.75)"/>
<path d="M0 0 C2.9375 0.75 2.9375 0.75 4.9375 2.75 C5.29773622 5.55984248 5.32082602 7.13241919 3.8125 9.5625 C1.10304166 11.27849028 -0.92545684 11.083728 -4.0625 10.75 C-6.0625 8.75 -6.0625 8.75 -6.375 5.25 C-6.271875 4.095 -6.16875 2.94 -6.0625 1.75 C-3.0625 -0.25 -3.0625 -0.25 0 0 Z " fill="#0D3776" transform="translate(266.0625,221.25)"/>
<path d="M0 0 C3.0625 0.3125 3.0625 0.3125 5 1.4375 C6.0625 3.3125 6.0625 3.3125 5.9375 6.375 C5.0625 9.3125 5.0625 9.3125 2.0625 11.3125 C-0.5 11.625 -0.5 11.625 -2.9375 11.3125 C-5.23913882 7.86004176 -5.28240322 6.36511287 -4.9375 2.3125 C-2.9375 0.3125 -2.9375 0.3125 0 0 Z " fill="#0D3676" transform="translate(250.9375,212.6875)"/>
<path d="M0 0 C1.8125 1.125 1.8125 1.125 3 3 C3.3125 6.0625 3.3125 6.0625 3 9 C1 11 1 11 -1.9375 11.3125 C-5 11 -5 11 -6.875 9.8125 C-8.40659584 7.34492892 -8.42822025 5.85480169 -8 3 C-5.85607122 -0.27231235 -3.76836426 -0.56525464 0 0 Z " fill="#0C3676" transform="translate(86,179)"/>
<path d="M0 0 C2 2 2 2 2.3125 4.9375 C2 8 2 8 0.8125 9.875 C-1.65507108 11.40659584 -3.14519831 11.42822025 -6 11 C-7.8125 9.8125 -7.8125 9.8125 -9 8 C-9.42822025 5.14519831 -9.40659584 3.65507108 -7.875 1.1875 C-5.16554166 -0.52849028 -3.13704316 -0.333728 0 0 Z " fill="#0D3776" transform="translate(73,171)"/>
<path d="M0 0 C3.0625 0.3125 3.0625 0.3125 5 1.4375 C6.0625 3.3125 6.0625 3.3125 5.9375 6.375 C5.0625 9.3125 5.0625 9.3125 2.0625 11.3125 C-1.25990324 10.9883631 -2.54526303 10.70473697 -4.9375 8.3125 C-5.1875 5.3125 -5.1875 5.3125 -4.9375 2.3125 C-2.9375 0.3125 -2.9375 0.3125 0 0 Z " fill="#0D3676" transform="translate(208.9375,254.6875)"/>
<path d="M0 0 C2.9375 0.8125 2.9375 0.8125 4.9375 2.8125 C4.6875 6.375 4.6875 6.375 3.9375 9.8125 C1.14886993 11.20681504 -0.98328868 11.06910094 -4.0625 10.8125 C-6.21752531 7.57996204 -6.53106135 6.56099077 -6.0625 2.8125 C-4.28235296 -0.15441173 -3.48497618 -0.21336589 0 0 Z " fill="#0C3575" transform="translate(196.0625,246.1875)"/>
<path d="M0 0 C1.33359073 6.42548263 1.33359073 6.42548263 -0.125 8.9375 C-2.63647631 10.36066991 -4.15503228 10.42674516 -7 10 C-8.8125 8.8125 -8.8125 8.8125 -10 7 C-10.42674516 4.15503228 -10.36066991 2.63647631 -8.9375 0.125 C-5.88430685 -1.64782183 -3.33588292 -0.69235306 0 0 Z " fill="#0D3777" transform="translate(130,239)"/>
<path d="M0 0 C2 2 2 2 2.3125 4.9375 C2 8 2 8 0.875 9.9375 C-1 11 -1 11 -4.0625 10.8125 C-7 10 -7 10 -9 8 C-9.36023622 5.19015752 -9.38332602 3.61758081 -7.875 1.1875 C-5.16554166 -0.52849028 -3.13704316 -0.333728 0 0 Z " fill="#0C3675" transform="translate(115,230)"/>
<path d="M0 0 C3.0625 0.3125 3.0625 0.3125 5 1.4375 C6.0625 3.3125 6.0625 3.3125 5.9375 6.375 C5.0625 9.3125 5.0625 9.3125 2.0625 11.3125 C-0.5 11.625 -0.5 11.625 -2.9375 11.3125 C-5.23913882 7.86004176 -5.28240322 6.36511287 -4.9375 2.3125 C-2.9375 0.3125 -2.9375 0.3125 0 0 Z " fill="#0C3676" transform="translate(278.9375,212.6875)"/>
<path d="M0 0 C3 0.25 3 0.25 5 2.25 C5.333728 5.38704316 5.52849028 7.41554166 3.8125 10.125 C1.31963619 11.67229478 -0.11967335 11.75405716 -3 11.25 C-4.875 9.5625 -4.875 9.5625 -6 7.25 C-5.67747519 2.7346526 -4.81889451 0.40157454 0 0 Z " fill="#0D3676" transform="translate(84,212.75)"/>
<path d="M0 0 C3 0.25 3 0.25 5 2.25 C5.333728 5.38704316 5.52849028 7.41554166 3.8125 10.125 C1.31963619 11.67229478 -0.11967335 11.75405716 -3 11.25 C-4.875 9.5625 -4.875 9.5625 -6 7.25 C-5.67747519 2.7346526 -4.81889451 0.40157454 0 0 Z " fill="#0C3676" transform="translate(56,212.75)"/>
<path d="M0 0 C2.9375 0.8125 2.9375 0.8125 4.9375 2.8125 C5.29773622 5.62234248 5.32082602 7.19491919 3.8125 9.625 C1.10304166 11.34099028 -0.92545684 11.146228 -4.0625 10.8125 C-6.0625 8.8125 -6.0625 8.8125 -6.375 5.875 C-6.0625 2.8125 -6.0625 2.8125 -4.9375 0.875 C-3.0625 -0.1875 -3.0625 -0.1875 0 0 Z " fill="#0D3676" transform="translate(266.0625,204.1875)"/>
<path d="M0 0 C2 2 2 2 2.3125 4.9375 C2 8 2 8 0.875 9.9375 C-1 11 -1 11 -4.0625 10.8125 C-7 10 -7 10 -9 8 C-9.36023622 5.19015752 -9.38332602 3.61758081 -7.875 1.1875 C-5.16554166 -0.52849028 -3.13704316 -0.333728 0 0 Z " fill="#0C3676" transform="translate(73,188)"/>
<path d="M0 0 C2.9375 0.8125 2.9375 0.8125 4.9375 2.8125 C5.29773622 5.62234248 5.32082602 7.19491919 3.8125 9.625 C1.10304166 11.34099028 -0.92545684 11.146228 -4.0625 10.8125 C-6.0625 8.8125 -6.0625 8.8125 -6.375 5.875 C-6.0625 2.8125 -6.0625 2.8125 -4.9375 0.875 C-3.0625 -0.1875 -3.0625 -0.1875 0 0 Z " fill="#0C3676" transform="translate(252.0625,179.1875)"/>
<path d="M0 0 C1.875 1.0625 1.875 1.0625 3 3 C2.55555556 9.44444444 2.55555556 9.44444444 1 11 C-4.27565392 11.45875252 -4.27565392 11.45875252 -6.875 9.8125 C-8.40659584 7.34492892 -8.42822025 5.85480169 -8 3 C-5.85607122 -0.27231235 -3.76836426 -0.56525464 0 0 Z " fill="#0C3675" transform="translate(58,179)"/>
<path d="M0 0 C2.9375 0.8125 2.9375 0.8125 4.9375 2.8125 C5.29773622 5.62234248 5.32082602 7.19491919 3.8125 9.625 C1.07762639 11.35708662 -0.89990129 11.21623601 -4.0625 10.8125 C-6.21752531 7.57996204 -6.53106135 6.56099077 -6.0625 2.8125 C-4.28235296 -0.15441173 -3.48497618 -0.21336589 0 0 Z " fill="#0B3474" transform="translate(196.0625,263.1875)"/>
<path d="M0 0 C2.9375 0.8125 2.9375 0.8125 4.9375 2.8125 C4.36057692 9.38942308 4.36057692 9.38942308 2.9375 10.8125 C-2.33815392 11.27125252 -2.33815392 11.27125252 -4.9375 9.625 C-6.46909584 7.15742892 -6.49072025 5.66730169 -6.0625 2.8125 C-4.28235296 -0.15441173 -3.48497618 -0.21336589 0 0 Z " fill="#0C3575" transform="translate(140.0625,263.1875)"/>
<path d="M0 0 C3.125 0.25 3.125 0.25 5 1.4375 C6.54729478 3.93036381 6.62905716 5.36967335 6.125 8.25 C4.4375 10.125 4.4375 10.125 2.125 11.25 C-0.5 11.125 -0.5 11.125 -2.875 10.25 C-4.875 7.25 -4.875 7.25 -4.5625 4.125 C-3.65202703 0.31756757 -3.65202703 0.31756757 0 0 Z " fill="#0C3675" transform="translate(180.875,254.75)"/>
<path d="M0 0 C2.9375 0.8125 2.9375 0.8125 4.9375 2.8125 C5.29773622 5.62234248 5.32082602 7.19491919 3.8125 9.625 C1.07762639 11.35708662 -0.89990129 11.21623601 -4.0625 10.8125 C-6.21752531 7.57996204 -6.53106135 6.56099077 -6.0625 2.8125 C-4.28235296 -0.15441173 -3.48497618 -0.21336589 0 0 Z " fill="#0C3575" transform="translate(224.0625,246.1875)"/>
<path d="M0 0 C3 0.25 3 0.25 5 2.25 C5.33302312 5.3804173 5.47671956 7.42898298 3.875 10.1875 C2 11.25 2 11.25 -1.0625 11.125 C-4 10.25 -4 10.25 -6 7.25 C-5.5601518 2.74155593 -4.87125629 0.40593802 0 0 Z " fill="#0C3675" transform="translate(84,229.75)"/>
<path d="M0 0 C2.9375 0.8125 2.9375 0.8125 4.9375 2.8125 C5.29773622 5.62234248 5.32082602 7.19491919 3.8125 9.625 C1.07762639 11.35708662 -0.89990129 11.21623601 -4.0625 10.8125 C-6.21752531 7.57996204 -6.53106135 6.56099077 -6.0625 2.8125 C-4.28235296 -0.15441173 -3.48497618 -0.21336589 0 0 Z " fill="#0B3574" transform="translate(238.0625,221.1875)"/>
<path d="M0 0 C2.5625 0.3125 2.5625 0.3125 4.4375 1.375 C6.22560335 4.45451133 5.30842606 6.95583273 4.5625 10.3125 C3.5625 11.3125 3.5625 11.3125 0.6875 11.5625 C-2.4375 11.3125 -2.4375 11.3125 -4.375 10.1875 C-5.4375 8.3125 -5.4375 8.3125 -5.25 5.25 C-4.27786515 1.7353586 -3.70860904 0.4754627 0 0 Z " fill="#0C3675" transform="translate(97.4375,220.6875)"/>
<path d="M0 0 C0.66 0.66 1.32 1.32 2 2 C1.42307692 8.57692308 1.42307692 8.57692308 0 10 C-5.27565392 10.45875252 -5.27565392 10.45875252 -7.875 8.8125 C-9.42229478 6.31963619 -9.50405716 4.88032665 -9 2 C-6.07557433 -1.24936186 -4.04996841 -1.38551551 0 0 Z " fill="#0D3676" transform="translate(73,222)"/>
<path d="M0 0 C2.9375 0.8125 2.9375 0.8125 4.9375 2.8125 C5.29773622 5.62234248 5.32082602 7.19491919 3.8125 9.625 C1.07762639 11.35708662 -0.89990129 11.21623601 -4.0625 10.8125 C-6.21752531 7.57996204 -6.53106135 6.56099077 -6.0625 2.8125 C-4.28235296 -0.15441173 -3.48497618 -0.21336589 0 0 Z " fill="#0C3575" transform="translate(280.0625,179.1875)"/>
<path d="M0 0 C2 3 2 3 1.8125 6.0625 C1 9 1 9 -2 11 C-5.32240324 10.6758631 -6.60776303 10.39223697 -9 8 C-8.75 4.4375 -8.75 4.4375 -8 1 C-5.21136993 -0.39431504 -3.07921132 -0.25660094 0 0 Z " fill="#0C3575" transform="translate(157,272)"/>
<path d="M0 0 C1.8125 1.1875 1.8125 1.1875 3 3 C3.4334014 5.88934264 3.42525784 7.35092224 1.8125 9.8125 C-0.64907776 11.42525784 -2.11065736 11.4334014 -5 11 C-6.8125 9.8125 -6.8125 9.8125 -8 8 C-8.4334014 5.11065736 -8.42525784 3.64907776 -6.8125 1.1875 C-4.35092224 -0.42525784 -2.88934264 -0.4334014 0 0 Z " fill="#0C3575" transform="translate(100,238)"/>
<path d="M0 0 C6.57692308 0.57692308 6.57692308 0.57692308 8 2 C8.1875 5.4375 8.1875 5.4375 8 9 C6 11 6 11 3 11.25 C0 11 0 11 -2 9 C-2.25 5.5 -2.25 5.5 -2 2 C-1.34 1.34 -0.68 0.68 0 0 Z " fill="#0C3675" transform="translate(304,196)"/>
<path d="M0 0 C1.875 1.125 1.875 1.125 3 3 C2.77669287 6.64734979 2.61627165 8.38372835 0 11 C-2.84602594 11.36487512 -4.3864306 11.40199375 -6.8125 9.8125 C-8.42525784 7.35092224 -8.4334014 5.88934264 -8 3 C-5.85607122 -0.27231235 -3.76836426 -0.56525464 0 0 Z " fill="#0C3575" transform="translate(156,255)"/>
<path d="M0 0 C2.68930863 0.94125802 3.95731359 1.47526558 5.5 3.875 C5.25546876 7.21692692 4.89456443 8.48043557 2.5 10.875 C-0.5 11.125 -0.5 11.125 -3.5 10.875 C-5.5 8.875 -5.5 8.875 -5.8125 5.9375 C-5.5 2.875 -5.5 2.875 -4.3125 0.9375 C-2.5 -0.125 -2.5 -0.125 0 0 Z " fill="#0B3574" transform="translate(293.5,204.125)"/>
<path d="M0 0 C3 0.25 3 0.25 5 2.25 C5.33661952 5.4142235 5.49943411 7.43513382 3.8125 10.1875 C2 11.25 2 11.25 -0.5 11.125 C-3.18930863 10.18374198 -4.45731359 9.64973442 -6 7.25 C-5.66963219 2.73497322 -4.81520347 0.40126696 0 0 Z " fill="#0C3575" transform="translate(42,187.75)"/>
<path d="M0 0 C3 0.25 3 0.25 5 2.25 C5.25 5.75 5.25 5.75 5 9.25 C3 11.25 3 11.25 0 11.5625 C-0.99 11.459375 -1.98 11.35625 -3 11.25 C-5.30163882 7.79754176 -5.34490322 6.30261287 -5 2.25 C-3 0.25 -3 0.25 0 0 Z " fill="#0D3676" transform="translate(265,170.75)"/>
<path d="M0 0 C3.0625 0.3125 3.0625 0.3125 4.9375 1.5 C6.45934676 3.95186422 6.49816323 5.48068902 6.0625 8.3125 C2.61004176 10.61413882 1.11511287 10.65740322 -2.9375 10.3125 C-4.9375 8.3125 -4.9375 8.3125 -5.1875 5.3125 C-4.84687504 1.2250005 -4.07761768 0.43378911 0 0 Z " fill="#0C3575" transform="translate(264.9375,187.6875)"/>
<path d="M0 0 C0.66 0.66 1.32 1.32 2 2 C1.42307692 8.57692308 1.42307692 8.57692308 0 10 C-5.27565392 10.45875252 -5.27565392 10.45875252 -7.875 8.8125 C-9.39684676 6.36063578 -9.43566323 4.83181098 -9 2 C-5.54754176 -0.30163882 -4.05261287 -0.34490322 0 0 Z " fill="#0B3574" transform="translate(73,205)"/>
<path d="M0 0 C3 0.25 3 0.25 5 2.25 C5.33661952 5.4142235 5.49943411 7.43513382 3.8125 10.1875 C2 11.25 2 11.25 -0.5625 11.0625 C-3 10.25 -3 10.25 -5 8.25 C-5.25 5.25 -5.25 5.25 -5 2.25 C-3 0.25 -3 0.25 0 0 Z " fill="#0B3473" transform="translate(251,229.75)"/>
<path d="M0 0 C3 0.25 3 0.25 5 2.25 C5.25 5.25 5.25 5.25 5 8.25 C3 10.25 3 10.25 0.0625 10.5625 C-3 10.25 -3 10.25 -4.9375 9.0625 C-6 7.25 -6 7.25 -5.8125 4.6875 C-4.61374094 1.09122283 -3.8124642 0.31770535 0 0 Z " fill="#0B3473" transform="translate(42,204.75)"/>
<path d="M0 0 C3 0.25 3 0.25 5 2.25 C5.33661952 5.4142235 5.49943411 7.43513382 3.8125 10.1875 C2 11.25 2 11.25 -0.5625 11.0625 C-3 10.25 -3 10.25 -5 8.25 C-5.25 5.25 -5.25 5.25 -5 2.25 C-3 0.25 -3 0.25 0 0 Z " fill="#0B3473" transform="translate(293,187.75)"/>
<path d="M0 0 C1.75 1.25 1.75 1.25 2.75 2.25 C3.04178308 5.02193929 3.11366316 6.66409825 1.625 9.0625 C-1.10987361 10.79458662 -3.08740129 10.65373601 -6.25 10.25 C-8.25 7.25 -8.25 7.25 -8.1875 4.75 C-7.25 2.25 -7.25 2.25 -4.9375 0.3125 C-2.25 -0.75 -2.25 -0.75 0 0 Z " fill="#0D3777" transform="translate(240.25,171.75)"/>
<path d="M0 0 C3.0831351 1.19899698 6.06279492 2.47700477 9 4 C8.6875 6.375 8.6875 6.375 8 9 C5 11 5 11 2.4375 10.8125 C0 10 0 10 -2 7 C-2.25 4.4375 -2.25 4.4375 -2 2 C-1.34 1.34 -0.68 0.68 0 0 Z " fill="#0E3978" transform="translate(80,163)"/>
<path d="M0 0 C1.75 1.5 1.75 1.5 2.625 3.9375 C2.75 6.5 2.75 6.5 0.75 9.5 C-2.75 9.8125 -2.75 9.8125 -6.25 9.5 C-6.91 8.84 -7.57 8.18 -8.25 7.5 C-8.1875 5.0625 -8.1875 5.0625 -7.25 2.5 C-3.37181303 -0.74929178 -3.37181303 -0.74929178 0 0 Z " fill="#0B3574" transform="translate(254.25,163.5)"/>
<path d="M0 0 C3.83206182 0.41427695 6.08025204 1.51280729 9 4 C8.42655063 6.86724686 8.1385485 7.8614515 6 10 C3.5625 10.375 3.5625 10.375 1 10 C-0.875 8.3125 -0.875 8.3125 -2 6 C-1.58974359 1.58974359 -1.58974359 1.58974359 0 0 Z " fill="#0C3574" transform="translate(94,172)"/>
<path d="M0 0 C-1.612328 4.03082 -4.46234596 6.75944137 -7.5 9.75 C-7.99886719 10.25660156 -8.49773437 10.76320313 -9.01171875 11.28515625 C-12.74658861 15 -12.74658861 15 -15 15 C-13.58884686 11.87729974 -11.889376 9.50346319 -9.625 6.9375 C-9.03976562 6.26589844 -8.45453125 5.59429687 -7.8515625 4.90234375 C-3.08008214 0 -3.08008214 0 0 0 Z " fill="#8EC1EA" transform="translate(1162,107)"/>
<path d="M0 0 C0.66 0.33 1.32 0.66 2 1 C1.34 1.66 0.68 2.32 0 3 C0.33 3.66 0.66 4.32 1 5 C-1.97 6.65 -4.94 8.3 -8 10 C-6.95475221 5.81900884 -6.5894258 5.27154064 -3.4375 2.75 C-2.79683594 2.22921875 -2.15617188 1.7084375 -1.49609375 1.171875 C-1.00238281 0.78515625 -0.50867188 0.3984375 0 0 Z " fill="#3074C5" transform="translate(185,321)"/>
<path d="M0 0 C1.25127906 3.54667178 0.72285053 5.72253438 -0.4375 9.25 C-0.72496094 10.14203125 -1.01242187 11.0340625 -1.30859375 11.953125 C-1.53675781 12.62859375 -1.76492188 13.3040625 -2 14 C-2.33 14 -2.66 14 -3 14 C-2.88512252 12.41590006 -2.75765492 10.83271037 -2.625 9.25 C-2.55539062 8.36828125 -2.48578125 7.4865625 -2.4140625 6.578125 C-2.00149945 4.00933618 -1.28839043 2.24158985 0 0 Z " fill="#4095DE" transform="translate(404,138)"/>
<path d="M0 0 C1.134375 0.020625 2.26875 0.04125 3.4375 0.0625 C3.4375 0.3925 3.4375 0.7225 3.4375 1.0625 C2.48875 1.289375 1.54 1.51625 0.5625 1.75 C-2.75573388 2.75333714 -2.75573388 2.75333714 -3.9375 5.6875 C-4.14375 6.47125 -4.35 7.255 -4.5625 8.0625 C-4.8925 8.0625 -5.2225 8.0625 -5.5625 8.0625 C-4.54651535 0.07976343 -4.54651535 0.07976343 0 0 Z " fill="#174586" transform="translate(167.5625,279.9375)"/>
</svg>
