<?xml version="1.0" encoding="UTF-8"?>
<svg version="1.1" xmlns="http://www.w3.org/2000/svg" width="1282" height="274">
<path d="M0 0 C3.91724038 2.12893499 4.81210032 3.41652206 6.1875 7.6875 C6.5896875 9.3271875 6.5896875 9.3271875 7 11 C7.99 11.495 7.99 11.495 9 12 C9.55140785 13.29995115 10.06747767 14.61504905 10.5625 15.9375 C11.77565501 18.45367336 12.40353291 19.71254598 14.9453125 20.9375 C18.08220263 21.63701557 21.17488132 21.93621615 24.375 22.18359375 C29.56052181 22.61280079 33.14421637 23.14421637 37 27 C38.21463441 30.9331019 38.67539535 34.45925435 37 38.28125 C36.67 38.8484375 36.34 39.415625 36 40 C35.34 40 34.68 40 34 40 C33.67 40.99 33.34 41.98 33 43 C32.34 43 31.68 43 31 43 C30.67 43.99 30.34 44.98 30 46 C28.37667033 47.38576923 26.71275535 48.72641268 25 50 C26.0621875 50.08636719 27.124375 50.17273438 28.21875 50.26171875 C37.03467343 51.09026339 44.28115543 51.78122616 50.51171875 58.671875 C54.6282486 64.00331194 56.24576154 69.37699271 56.26742554 76.12103271 C56.28022049 77.92918457 56.28022049 77.92918457 56.29327393 79.77386475 C56.29236755 81.08308899 56.29146118 82.39231323 56.29052734 83.74121094 C56.29651681 85.14457556 56.30332331 86.5479369 56.31088257 87.95129395 C56.32850959 91.75315945 56.33323661 95.55493485 56.33451414 99.35683727 C56.33593843 101.73593004 56.34021334 104.1150001 56.34550858 106.49408722 C56.36399956 114.80499214 56.37218056 123.11583301 56.37060547 131.42675781 C56.36940506 139.15551542 56.39048992 146.88399332 56.4220928 154.6126802 C56.44830875 161.26259724 56.45897051 167.91242324 56.45769465 174.56239152 C56.45718648 178.52765384 56.4627887 182.49266758 56.48405075 186.45787811 C56.50352264 190.19103247 56.50349728 193.92370345 56.48901749 197.65687561 C56.48595458 199.66594811 56.50254391 201.67502111 56.51989746 203.684021 C56.46749722 211.28400604 55.46182078 217.19589902 52 224 C51.34 224 50.68 224 50 224 C50 224.66 50 225.32 50 226 C48.34765625 227.4375 48.34765625 227.4375 46.0625 229 C44.96615234 229.7734375 44.96615234 229.7734375 43.84765625 230.5625 C36.86895343 234.08535684 29.39480722 234.2903129 21.71508789 234.24723816 C20.21849813 234.25085978 20.21849813 234.25085978 18.69167423 234.25455457 C15.36860041 234.26016314 12.04572126 234.25154989 8.72265625 234.24291992 C6.33202055 234.24399351 3.9413851 234.24593334 1.55075073 234.24867249 C-4.25637047 234.25300969 -10.06342943 234.24809383 -15.87054372 234.23882218 C-22.64065164 234.22840423 -29.4107474 234.22850928 -36.18086183 234.22899476 C-48.26479231 234.22949472 -60.34869627 234.22035203 -72.43261719 234.20581055 C-84.14421064 234.19172451 -95.85578077 234.18463985 -107.56738281 234.18530273 C-108.28875659 234.18534269 -109.01013037 234.18538265 -109.75336397 234.18542381 C-110.47352052 234.18546417 -111.19367707 234.18550452 -111.93565655 234.1855461 C-125.28911722 234.18623698 -138.64256803 234.18033997 -151.9960255 234.17139288 C-156.70925455 234.16838375 -161.42248177 234.16731418 -166.13571167 234.16686058 C-172.48539163 234.16585448 -178.83504719 234.15973596 -185.18471909 234.14969444 C-187.51270269 234.14677897 -189.84068911 234.14554214 -192.16867447 234.14612198 C-195.35083804 234.14661455 -198.53293379 234.14093855 -201.71508789 234.13371277 C-203.09064299 234.13603567 -203.09064299 234.13603567 -204.49398708 234.1384055 C-219.11524777 234.08373253 -219.11524777 234.08373253 -223.5 231.5625 C-225 230 -225 230 -226 228 C-226.66 228 -227.32 228 -228 228 C-228 227.34 -228 226.68 -228 226 C-228.99 225.67 -229.98 225.34 -231 225 C-236.98797343 216.62069833 -237.84403313 208.56291361 -237.65283203 198.54589844 C-237.647812 197.13841416 -237.64541227 195.73091852 -237.645401 194.32342529 C-237.63754334 190.53801074 -237.59203146 186.75394047 -237.5381608 182.96893597 C-237.48698891 178.9903545 -237.46756036 175.01159675 -237.443573 171.03277588 C-237.39850085 164.35843999 -237.32939107 157.68469163 -237.24511719 151.01074219 C-237.14812064 143.31038286 -237.08663085 135.6103727 -237.04464638 127.9095304 C-237.00352176 120.47479901 -236.93995302 113.04043036 -236.86532211 105.60596466 C-236.83390059 102.45307712 -236.80976398 99.30026058 -236.79150772 96.1472702 C-236.76879695 92.43352589 -236.72619841 88.7205105 -236.66859245 85.00714874 C-236.64202281 83.00505869 -236.63456869 81.00274316 -236.62779236 79.00048828 C-236.46655217 70.39511582 -235.41025853 64.84747116 -229.5625 58.25 C-222.83968918 52.34704416 -219.40451937 50.85408623 -210.4956665 50.84178162 C-209.35735417 50.83437465 -209.35735417 50.83437465 -208.19604564 50.82681805 C-205.65185814 50.81145351 -203.10769586 50.80308525 -200.56347656 50.79467773 C-198.74024738 50.78509839 -196.91702041 50.77508828 -195.09379578 50.76467896 C-190.14172542 50.73762993 -185.18964554 50.71662033 -180.23754215 50.69667697 C-175.06318993 50.67481743 -169.88886709 50.64742858 -164.71453857 50.62062073 C-154.9150897 50.57069343 -145.11562453 50.52575472 -135.31614375 50.48259836 C-124.16025836 50.43322632 -113.00440244 50.37830806 -101.84854555 50.32291877 C-78.89905787 50.20909815 -55.94954191 50.10225926 -33 50 C-33.99 49.34 -34.98 48.68 -36 48 C-36 47.34 -36 46.68 -36 46 C-36.66 46 -37.32 46 -38 46 C-39.36639342 44.3603279 -40.6949419 42.68889872 -42 41 C-42.721875 40.34 -43.44375 39.68 -44.1875 39 C-46.43595347 36.5189479 -47 35.35845051 -47 32 C-45.7090018 28.66792644 -44.29224303 25.84226555 -41.25 23.859375 C-38.41113028 22.77508448 -35.69641896 22.35825365 -32.6875 21.9375 C-31.5428125 21.77378906 -30.398125 21.61007813 -29.21875 21.44140625 C-28.1565625 21.29574219 -27.094375 21.15007813 -26 21 C-24.56240892 20.79229609 -23.12488465 20.58412769 -21.6875 20.375 C-20.800625 20.25125 -19.91375 20.1275 -19 20 C-18.85304687 19.46632813 -18.70609375 18.93265625 -18.5546875 18.3828125 C-16.64162779 12.027936 -13.85749507 6.41553625 -10 1 C-6.78644089 -0.60677955 -3.48561517 -0.46831682 0 0 Z " fill="#1875D1" transform="translate(257,18)"/>
<path d="M0 0 C3.91724038 2.12893499 4.81210032 3.41652206 6.1875 7.6875 C6.5896875 9.3271875 6.5896875 9.3271875 7 11 C7.99 11.495 7.99 11.495 9 12 C9.55140785 13.29995115 10.06747767 14.61504905 10.5625 15.9375 C11.77565501 18.45367336 12.40353291 19.71254598 14.9453125 20.9375 C18.08220263 21.63701557 21.17488132 21.93621615 24.375 22.18359375 C29.56052181 22.61280079 33.14421637 23.14421637 37 27 C38.21463441 30.9331019 38.67539535 34.45925435 37 38.28125 C36.67 38.8484375 36.34 39.415625 36 40 C35.34 40 34.68 40 34 40 C33.67 40.99 33.34 41.98 33 43 C32.34 43 31.68 43 31 43 C30.67 43.99 30.34 44.98 30 46 C28.37667033 47.38576923 26.71275535 48.72641268 25 50 C26.0621875 50.08636719 27.124375 50.17273438 28.21875 50.26171875 C37.03467343 51.09026339 44.28115543 51.78122616 50.51171875 58.671875 C54.6282486 64.00331194 56.24576154 69.37699271 56.26742554 76.12103271 C56.28022049 77.92918457 56.28022049 77.92918457 56.29327393 79.77386475 C56.29236755 81.08308899 56.29146118 82.39231323 56.29052734 83.74121094 C56.29651681 85.14457556 56.30332331 86.5479369 56.31088257 87.95129395 C56.32850959 91.75315945 56.33323661 95.55493485 56.33451414 99.35683727 C56.33593843 101.73593004 56.34021334 104.1150001 56.34550858 106.49408722 C56.36399956 114.80499214 56.37218056 123.11583301 56.37060547 131.42675781 C56.36940506 139.15551542 56.39048992 146.88399332 56.4220928 154.6126802 C56.44830875 161.26259724 56.45897051 167.91242324 56.45769465 174.56239152 C56.45718648 178.52765384 56.4627887 182.49266758 56.48405075 186.45787811 C56.50352264 190.19103247 56.50349728 193.92370345 56.48901749 197.65687561 C56.48595458 199.66594811 56.50254391 201.67502111 56.51989746 203.684021 C56.46749722 211.28400604 55.46182078 217.19589902 52 224 C51.34 224 50.68 224 50 224 C50 224.66 50 225.32 50 226 C48.34765625 227.4375 48.34765625 227.4375 46.0625 229 C44.96615234 229.7734375 44.96615234 229.7734375 43.84765625 230.5625 C36.86895343 234.08535684 29.39480722 234.2903129 21.71508789 234.24723816 C20.21849813 234.25085978 20.21849813 234.25085978 18.69167423 234.25455457 C15.36860041 234.26016314 12.04572126 234.25154989 8.72265625 234.24291992 C6.33202055 234.24399351 3.9413851 234.24593334 1.55075073 234.24867249 C-4.25637047 234.25300969 -10.06342943 234.24809383 -15.87054372 234.23882218 C-22.64065164 234.22840423 -29.4107474 234.22850928 -36.18086183 234.22899476 C-48.26479231 234.22949472 -60.34869627 234.22035203 -72.43261719 234.20581055 C-84.14421064 234.19172451 -95.85578077 234.18463985 -107.56738281 234.18530273 C-108.28875659 234.18534269 -109.01013037 234.18538265 -109.75336397 234.18542381 C-110.47352052 234.18546417 -111.19367707 234.18550452 -111.93565655 234.1855461 C-125.28911722 234.18623698 -138.64256803 234.18033997 -151.9960255 234.17139288 C-156.70925455 234.16838375 -161.42248177 234.16731418 -166.13571167 234.16686058 C-172.48539163 234.16585448 -178.83504719 234.15973596 -185.18471909 234.14969444 C-187.51270269 234.14677897 -189.84068911 234.14554214 -192.16867447 234.14612198 C-195.35083804 234.14661455 -198.53293379 234.14093855 -201.71508789 234.13371277 C-203.09064299 234.13603567 -203.09064299 234.13603567 -204.49398708 234.1384055 C-219.11524777 234.08373253 -219.11524777 234.08373253 -223.5 231.5625 C-225 230 -225 230 -226 228 C-226.66 228 -227.32 228 -228 228 C-228 227.34 -228 226.68 -228 226 C-228.99 225.67 -229.98 225.34 -231 225 C-236.98797343 216.62069833 -237.84403313 208.56291361 -237.65283203 198.54589844 C-237.647812 197.13841416 -237.64541227 195.73091852 -237.645401 194.32342529 C-237.63754334 190.53801074 -237.59203146 186.75394047 -237.5381608 182.96893597 C-237.48698891 178.9903545 -237.46756036 175.01159675 -237.443573 171.03277588 C-237.39850085 164.35843999 -237.32939107 157.68469163 -237.24511719 151.01074219 C-237.14812064 143.31038286 -237.08663085 135.6103727 -237.04464638 127.9095304 C-237.00352176 120.47479901 -236.93995302 113.04043036 -236.86532211 105.60596466 C-236.83390059 102.45307712 -236.80976398 99.30026058 -236.79150772 96.1472702 C-236.76879695 92.43352589 -236.72619841 88.7205105 -236.66859245 85.00714874 C-236.64202281 83.00505869 -236.63456869 81.00274316 -236.62779236 79.00048828 C-236.46655217 70.39511582 -235.41025853 64.84747116 -229.5625 58.25 C-222.83968918 52.34704416 -219.40451937 50.85408623 -210.4956665 50.84178162 C-209.35735417 50.83437465 -209.35735417 50.83437465 -208.19604564 50.82681805 C-205.65185814 50.81145351 -203.10769586 50.80308525 -200.56347656 50.79467773 C-198.74024738 50.78509839 -196.91702041 50.77508828 -195.09379578 50.76467896 C-190.14172542 50.73762993 -185.18964554 50.71662033 -180.23754215 50.69667697 C-175.06318993 50.67481743 -169.88886709 50.64742858 -164.71453857 50.62062073 C-154.9150897 50.57069343 -145.11562453 50.52575472 -135.31614375 50.48259836 C-124.16025836 50.43322632 -113.00440244 50.37830806 -101.84854555 50.32291877 C-78.89905787 50.20909815 -55.94954191 50.10225926 -33 50 C-33.99 49.34 -34.98 48.68 -36 48 C-36 47.34 -36 46.68 -36 46 C-36.66 46 -37.32 46 -38 46 C-39.36639342 44.3603279 -40.6949419 42.68889872 -42 41 C-42.721875 40.34 -43.44375 39.68 -44.1875 39 C-46.43595347 36.5189479 -47 35.35845051 -47 32 C-45.7090018 28.66792644 -44.29224303 25.84226555 -41.25 23.859375 C-38.41113028 22.77508448 -35.69641896 22.35825365 -32.6875 21.9375 C-31.5428125 21.77378906 -30.398125 21.61007813 -29.21875 21.44140625 C-28.1565625 21.29574219 -27.094375 21.15007813 -26 21 C-24.56240892 20.79229609 -23.12488465 20.58412769 -21.6875 20.375 C-20.800625 20.25125 -19.91375 20.1275 -19 20 C-18.85304687 19.46632813 -18.70609375 18.93265625 -18.5546875 18.3828125 C-16.64162779 12.027936 -13.85749507 6.41553625 -10 1 C-6.78644089 -0.60677955 -3.48561517 -0.46831682 0 0 Z M-235 87 C-244.95773751 159.78093594 -244.95773751 159.78093594 -228.6875 224.3125 C-223.26314004 229.73685996 -218.9508927 231.44791893 -211.43341023 231.53497362 C-210.46317431 231.52605073 -209.4929384 231.51712785 -208.49330139 231.50793457 C-207.44757554 231.51417453 -206.40184969 231.5204145 -205.32443517 231.52684355 C-201.82681798 231.54277478 -198.32989754 231.53016815 -194.83227539 231.51757812 C-192.32208347 231.52299919 -189.81189474 231.53012175 -187.30171204 231.53881836 C-181.19513421 231.55516358 -175.0888136 231.55277214 -168.9822324 231.5411678 C-164.01772977 231.5321253 -159.05328223 231.530913 -154.08877373 231.53526306 C-153.02792233 231.53618246 -153.02792233 231.53618246 -151.94563959 231.53712043 C-150.50878416 231.53839937 -149.07192875 231.53969622 -147.63507336 231.5410108 C-134.16825309 231.55241117 -120.70154181 231.53931189 -107.23473942 231.51780933 C-95.68776973 231.49994269 -84.14096092 231.50303988 -72.59399414 231.52148438 C-59.17611987 231.54290741 -45.75834112 231.5513085 -32.34045213 231.53903532 C-30.90864878 231.53776116 -29.47684542 231.53650368 -28.04504204 231.53526306 C-27.34062042 231.53464596 -26.6361988 231.53402886 -25.91043108 231.53339306 C-20.95427729 231.52994415 -15.99818425 231.53575863 -11.04203987 231.54518127 C-4.36643102 231.55759427 2.30882771 231.54871204 8.98442268 231.52560425 C11.43376283 231.52031746 13.88312854 231.52183037 16.3324585 231.53065491 C19.6774226 231.54159464 23.02141543 231.52786424 26.36631775 231.50793457 C27.33432294 231.51685746 28.30232814 231.52578034 29.29966682 231.53497362 C36.47790225 231.45208747 41.76077645 229.78776382 47.2421875 225.0703125 C47.78101563 224.42835938 48.31984375 223.78640625 48.875 223.125 C49.42929687 222.48820313 49.98359375 221.85140625 50.5546875 221.1953125 C54.14608015 215.74027825 54.30242285 210.28541323 54.31884766 203.98242188 C54.32889328 203.09339172 54.3389389 202.20436157 54.34928894 201.28839111 C54.38015588 198.34851679 54.39720107 195.40873535 54.4140625 192.46875 C54.43281733 190.39684312 54.45239378 188.32494354 54.4727478 186.25305176 C54.5241293 180.78031939 54.56364254 175.30756107 54.60089111 169.8347168 C54.63253602 165.45762501 54.67220961 161.08062542 54.71247292 156.70360565 C54.92590704 133.46826233 55 110.23741629 55 87 C-40.7 87 -136.4 87 -235 87 Z " fill="#1A76D0" transform="translate(257,18)"/>
<path d="M0 0 C0.6506543 -0.00817749 1.30130859 -0.01635498 1.97167969 -0.02478027 C4.13906945 -0.04971165 6.30639251 -0.06618553 8.47387695 -0.08056641 C9.21673258 -0.08589008 9.9595882 -0.09121376 10.72495461 -0.09669876 C14.6703043 -0.12348624 18.61562201 -0.14282775 22.56103516 -0.15722656 C25.80546871 -0.17047113 29.04925906 -0.1981358 32.29345703 -0.23925781 C36.22398147 -0.28907676 40.15393027 -0.31340953 44.08475685 -0.32045364 C45.57206306 -0.32709674 47.05936002 -0.34213339 48.54648399 -0.36634445 C61.05932003 -0.55813922 72.19159038 1.17089698 82.2746582 9.25537109 C89.81589073 16.68478962 93.70030101 25.8537833 94.0871582 36.38037109 C93.95066179 45.38913413 89.89684996 53.70334783 83.7746582 60.19287109 C82.46412764 61.22257368 81.1356207 62.2308114 79.7746582 63.19287109 C80.48750977 63.66595703 81.20036133 64.13904297 81.93481445 64.62646484 C89.78250554 70.04485721 97.32436473 76.29351649 100.3371582 85.70849609 C102.4608645 97.76811402 101.06180832 109.29573527 94.0246582 119.50537109 C86.65093349 128.51974956 76.82478597 132.39194426 65.7746582 135.19287109 C63.35242338 135.36282286 60.92232871 135.43858212 58.49414062 135.43579102 C57.80382751 135.43768936 57.1135144 135.43958771 56.40228271 135.44154358 C54.144778 135.44521669 51.88760252 135.43460132 49.63012695 135.42333984 C48.05308571 135.42214648 46.47604375 135.42169521 44.89900208 135.42195129 C41.60661318 135.42039269 38.31433398 135.41214736 35.02197266 135.39868164 C30.79728113 135.3816227 26.57270912 135.37786964 22.34798717 135.37862682 C19.09756831 135.37835539 15.84717568 135.37287967 12.59676552 135.36562538 C11.03820303 135.36244019 9.47963757 135.36047165 7.92107201 135.35973167 C5.75006371 135.35757047 3.57918393 135.34883312 1.40820312 135.33813477 C-0.44542595 135.33241707 -0.44542595 135.33241707 -2.33650208 135.32658386 C-5.2253418 135.19287109 -5.2253418 135.19287109 -7.2253418 134.19287109 C-7.2486703 116.86909757 -7.26632073 99.54532893 -7.27715397 82.22154331 C-7.28231703 74.17837055 -7.28935992 66.13520753 -7.30078125 58.09204102 C-7.31072778 51.08414149 -7.31719515 44.07624901 -7.31943029 37.06834263 C-7.32073745 33.35543917 -7.32382364 29.6425559 -7.33107185 25.92965889 C-7.33908511 21.79155699 -7.33933296 17.65349049 -7.33886719 13.51538086 C-7.34246246 12.27532791 -7.34605774 11.03527496 -7.34976196 9.75764465 C-7.3483873 8.6371875 -7.34701263 7.51673035 -7.34559631 6.36231995 C-7.34651811 5.382454 -7.3474399 4.40258806 -7.34838963 3.39302921 C-7.09458734 -1.14508554 -3.85784816 0.04199801 0 0 Z M19.7746582 22.19287109 C19.7746582 33.41287109 19.7746582 44.63287109 19.7746582 56.19287109 C25.1990332 56.29599609 30.6234082 56.39912109 36.2121582 56.50537109 C37.90526123 56.55089111 39.59836426 56.59641113 41.34277344 56.64331055 C49.33686772 56.76890685 56.42752729 56.71758413 62.7746582 51.19287109 C66.65719373 46.77985957 67.42260785 42.43790003 67.1574707 36.62255859 C66.32263776 31.323925 64.00964219 28.17056675 59.7746582 24.81787109 C54.86768827 22.15992905 50.67903581 22.05445544 45.1652832 22.09521484 C44.52059082 22.09622192 43.87589844 22.097229 43.21166992 22.0982666 C40.81598111 22.10347707 38.42031777 22.11743829 36.0246582 22.13037109 C30.6621582 22.15099609 25.2996582 22.17162109 19.7746582 22.19287109 Z M19.7746582 75.19287109 C19.7746582 87.40287109 19.7746582 99.61287109 19.7746582 112.19287109 C25.18286068 112.26201005 30.58950928 112.32166193 35.99780273 112.35766602 C37.83476987 112.37268606 39.67170154 112.39310818 41.50854492 112.41918945 C44.15983875 112.45587312 46.81065552 112.47266547 49.4621582 112.48583984 C50.27394531 112.5013237 51.08573242 112.51680756 51.92211914 112.53276062 C58.15506795 112.53457084 63.88842514 111.60262925 68.83325195 107.47412109 C69.51581055 106.59240234 69.51581055 106.59240234 70.2121582 105.69287109 C70.68524414 105.10505859 71.15833008 104.51724609 71.64575195 103.91162109 C74.72938192 99.21682115 74.406962 93.57480576 73.7746582 88.19287109 C72.02826518 83.26379919 69.38309571 80.19923947 64.7746582 77.75537109 C59.11140924 75.20919263 53.54309707 75.05348458 47.41137695 75.09521484 C46.70871704 75.09622192 46.00605713 75.097229 45.28210449 75.0982666 C42.67543896 75.10347009 40.06879682 75.11743123 37.4621582 75.13037109 C28.7068457 75.16130859 28.7068457 75.16130859 19.7746582 75.19287109 Z " fill="#1557B1" transform="translate(658.225341796875,70.80712890625)"/>
<path d="M0 0 C95.7 0 191.4 0 290 0 C290 9.9 290 19.8 290 30 C194.3 30 98.6 30 0 30 C0 20.1 0 10.2 0 0 Z " fill="#093170" transform="translate(22,105)"/>
<path d="M0 0 C1.5610144 -0.02114868 1.5610144 -0.02114868 3.15356445 -0.04272461 C13.51852731 0.02175543 23.18620743 2.15307439 32.4375 6.875 C33.44478149 7.38776489 33.44478149 7.38776489 34.47241211 7.91088867 C49.14614679 15.77163118 57.66120281 27.98619216 63.58984375 43.33203125 C64.47489387 46.50923881 64.6722343 49.09351036 64.4375 52.375 C62.72665499 54.08584501 60.49389907 53.50514689 58.16015625 53.5078125 C57.08958984 53.50910156 56.01902344 53.51039062 54.91601562 53.51171875 C53.78873047 53.50785156 52.66144531 53.50398438 51.5 53.5 C50.37658203 53.50386719 49.25316406 53.50773437 48.09570312 53.51171875 C47.02384766 53.51042969 45.95199219 53.50914063 44.84765625 53.5078125 C43.85902588 53.50668457 42.87039551 53.50555664 41.85180664 53.50439453 C39.4375 53.375 39.4375 53.375 37.4375 52.375 C36.86682832 50.7457767 36.35630382 49.09532428 35.875 47.4375 C32.89603135 38.98426424 27.40985284 32.63510972 19.5 28.375 C8.65255924 23.62294778 -3.2343937 22.89577084 -14.5625 26.375 C-27.09653542 31.61996299 -34.73909184 38.28969203 -40.63671875 50.62109375 C-45.76082369 63.44385392 -44.85845122 79.35111383 -39.4609375 91.9453125 C-34.27557196 101.814234 -27.29127977 108.81533969 -16.53125 112.37890625 C-13.55404282 113.15703995 -10.58410896 113.79603437 -7.5625 114.375 C-6.304375 114.66375 -5.04625 114.9525 -3.75 115.25 C5.03712729 116.15266087 16.16397909 113.26870531 23.4375 108.375 C24.03820312 107.97796875 24.63890625 107.5809375 25.2578125 107.171875 C32.13714114 101.99004304 35.31621044 94.17822391 38.4375 86.375 C47.0175 86.375 55.5975 86.375 64.4375 86.375 C62.77530614 102.99693855 56.01362704 115.40568805 43.2578125 126.30859375 C38.00696299 130.15582282 32.40937941 132.87212763 26.4375 135.375 C24.88869141 136.02855469 24.88869141 136.02855469 23.30859375 136.6953125 C10.01049509 141.36188455 -7.10659893 141.45877784 -20.5625 137.375 C-21.49835938 137.09140625 -22.43421875 136.8078125 -23.3984375 136.515625 C-41.54065209 130.15189434 -56.87762309 117.41712848 -65.4375 100.0625 C-73.40285755 80.47509052 -73.86242021 61.3987101 -66.125 41.71875 C-57.35651279 22.6641528 -42.11503094 9.64894318 -22.65625 2.2734375 C-15.20264399 0.12952394 -7.71104543 0.07647037 0 0 Z " fill="#1155B0" transform="translate(413.5625,68.625)"/>
<path d="M0 0 C3.30173492 -0.03108978 3.30173492 -0.03108978 6.60346985 -0.06217957 C7.63301169 -0.07191746 7.63301169 -0.07191746 8.68335235 -0.08185208 C12.46900996 -0.11761789 16.25467106 -0.15290071 20.04034138 -0.18729687 C27.15362788 -0.2523716 34.26654512 -0.3230568 41.3794384 -0.42340279 C44.2031522 -0.45799082 47.02663332 -0.47131209 49.85054016 -0.47721863 C51.22338516 -0.48479359 52.5962013 -0.50215986 53.96882629 -0.52787781 C68.81957872 -0.79171423 80.78031048 3.03514418 92 13 C94.30274406 15.51382893 96.19191279 18.11525244 98 21 C98.38800781 21.56332031 98.77601563 22.12664062 99.17578125 22.70703125 C105.3761766 32.33455421 105.21148628 45.4215785 103.46484375 56.34765625 C100.63283287 68.58875247 94.93677916 77.85724868 84.83984375 85.671875 C72.29113934 93.27146422 58.77126014 93.54161874 44.625 93.25 C42.90627111 93.22987893 41.18751913 93.21163819 39.46875 93.1953125 C35.31191607 93.15181866 31.15622275 93.08311167 27 93 C27.01047363 94.20124512 27.02094727 95.40249023 27.03173828 96.64013672 C27.06787287 101.08672112 27.09087657 105.53329248 27.10986328 109.97998047 C27.11993582 111.90643494 27.13359443 113.83287408 27.15087891 115.75927734 C27.17507241 118.52445252 27.18647036 121.289426 27.1953125 124.0546875 C27.20563507 124.9193161 27.21595764 125.7839447 27.22659302 126.67477417 C27.22699106 128.78453521 27.12265243 130.89380718 27 133 C25 135 25 135 22.58569336 135.24291992 C21.59706299 135.23881104 20.60843262 135.23470215 19.58984375 135.23046875 C18.51798828 135.22853516 17.44613281 135.22660156 16.34179688 135.22460938 C15.21837891 135.21236328 14.09496094 135.20011719 12.9375 135.1875 C11.24657227 135.1865332 11.24657227 135.1865332 9.52148438 135.18554688 C1.14013317 135.14013317 1.14013317 135.14013317 0 134 C-0.09627113 132.26640402 -0.12187568 130.52885354 -0.12025452 128.79258728 C-0.12162918 127.66371597 -0.12300385 126.53484467 -0.12442017 125.37176514 C-0.12082489 124.12236145 -0.11722961 122.87295776 -0.11352539 121.58569336 C-0.11367142 120.27856888 -0.11381744 118.9714444 -0.1139679 117.62471008 C-0.11425586 114.02982901 -0.10835928 110.43498103 -0.10139394 106.84010768 C-0.09516026 103.08713748 -0.09455659 99.3341666 -0.09336853 95.58119202 C-0.09025526 88.46969174 -0.08204192 81.35820675 -0.07201904 74.24671322 C-0.06085778 66.15252934 -0.05534742 58.05834474 -0.05032361 49.96415508 C-0.03985931 33.30942775 -0.02225994 16.65471582 0 0 Z M27 24 C27 38.85 27 53.7 27 69 C34.6725 69.0928125 34.6725 69.0928125 42.5 69.1875 C44.09779297 69.21481201 45.69558594 69.24212402 47.34179688 69.27026367 C56.21758994 69.32224407 62.67678904 68.90985353 70.25 63.8125 C76.71978878 57.19567057 77.44379793 51.53054396 77.43359375 42.3671875 C76.70010279 36.67106853 73.97613218 32.08359522 70 28 C64.58354011 24.47374916 59.94491301 23.42665037 53.5625 23.609375 C52.88251953 23.61340332 52.20253906 23.61743164 51.50195312 23.62158203 C49.00102118 23.64225551 46.50047879 23.69809807 44 23.75 C38.39 23.8325 32.78 23.915 27 24 Z " fill="#FBC136" transform="translate(845,71)"/>
<path d="M0 0 C4.14581887 -0.02886751 8.29161216 -0.04675327 12.4375 -0.0625 C14.21350586 -0.07506836 14.21350586 -0.07506836 16.02539062 -0.08789062 C17.15009766 -0.09111328 18.27480469 -0.09433594 19.43359375 -0.09765625 C20.47572021 -0.10289307 21.51784668 -0.10812988 22.59155273 -0.11352539 C25 0 25 0 26 1 C26.1038916 3.64994199 26.14361376 6.27466788 26.1418457 8.92529297 C26.14705734 10.17184914 26.14705734 10.17184914 26.15237427 11.44358826 C26.15974764 13.2562378 26.16508455 15.06889646 26.16866493 16.88155746 C26.17582048 19.75795569 26.19148414 22.63418233 26.21000671 25.51052856 C26.26249059 33.6918896 26.31037135 41.8731621 26.32592773 50.0546875 C26.33605997 55.05514031 26.36552701 60.05516947 26.40724754 65.05545425 C26.41949904 66.95543321 26.42468958 68.85547222 26.42244911 70.75548935 C26.41093549 83.7180005 26.53065936 95.45704002 36.09765625 105.34765625 C42.29588426 110.73133274 49.87496018 112.6990726 58 113 C64.49228628 112.10397017 70.26028504 110.17194774 76 107 C76.66 107 77.32 107 78 107 C78.495 105.515 78.495 105.515 79 104 C79.598125 103.484375 80.19625 102.96875 80.8125 102.4375 C87.8699034 94.57353621 88.12699028 83.60862828 88.20532227 73.56445312 C88.21522186 72.76349213 88.22512146 71.96253113 88.23532104 71.13729858 C88.26663264 68.51864466 88.291572 65.89997266 88.31640625 63.28125 C88.33700206 61.45421914 88.35799918 59.62719275 88.37937927 57.8001709 C88.43432881 53.01301729 88.48385663 48.22582264 88.53222656 43.43859863 C88.58264075 38.5449665 88.63822241 33.6513933 88.69335938 28.7578125 C88.80060879 19.17192546 88.90212623 9.58598704 89 0 C93.14581887 -0.02886751 97.29161216 -0.04675327 101.4375 -0.0625 C102.62150391 -0.07087891 103.80550781 -0.07925781 105.02539062 -0.08789062 C106.15009766 -0.09111328 107.27480469 -0.09433594 108.43359375 -0.09765625 C109.47572021 -0.10289307 110.51784668 -0.10812988 111.59155273 -0.11352539 C114 0 114 0 115 1 C115.11118734 3.73630311 115.1573973 6.44759573 115.16113281 9.18481445 C115.16858017 10.47285225 115.16858017 10.47285225 115.17617798 11.78691101 C115.19085383 14.64570912 115.19761449 17.50445155 115.203125 20.36328125 C115.20887691 22.35092673 115.21463464 24.3385722 115.22039795 26.32621765 C115.23092666 30.50695047 115.23675545 34.68766398 115.24023438 38.8684082 C115.24568923 44.19992116 115.26964433 49.53117484 115.29820633 54.862607 C115.31693683 58.97642224 115.32204407 63.09017673 115.32357025 67.20403099 C115.32657951 69.16742541 115.33454902 71.13081921 115.34775543 73.09417152 C115.46389746 91.70653005 113.51240626 106.80612309 100.1796875 120.81640625 C86.99260258 134.02712394 72.15404689 137.27270165 54.1875 137.32128906 C46.07689781 137.23035201 39.480083 136.30274434 32 133 C31.28585937 132.72285156 30.57171875 132.44570312 29.8359375 132.16015625 C17.51377828 126.83364519 7.70403608 115.91701081 2.5625 103.6875 C0.07709506 97.12291027 -0.14289596 90.70961479 -0.11352539 83.78173828 C-0.11367142 82.87378006 -0.11381744 81.96582184 -0.1139679 81.03034973 C-0.11327391 78.04364594 -0.10550563 75.05700533 -0.09765625 72.0703125 C-0.09579024 69.99380528 -0.0943672 67.91729761 -0.09336853 65.84078979 C-0.08955774 60.38609595 -0.07973975 54.9314289 -0.06866455 49.47674561 C-0.05841949 43.90637576 -0.05386428 38.33600156 -0.04882812 32.765625 C-0.03811617 21.84373825 -0.02105704 10.92187136 0 0 Z " fill="#1557B1" transform="translate(503,71)"/>
<path d="M0 0 C0.90814453 -0.01224609 1.81628906 -0.02449219 2.75195312 -0.03710938 C15.97784319 -0.06551143 25.48368248 4.05630323 35.8125 12.1875 C35.8125 12.8475 35.8125 13.5075 35.8125 14.1875 C36.8025 14.5175 37.7925 14.8475 38.8125 15.1875 C48.27530532 24.8571426 52.91987691 39.54855226 53.0625 52.8125 C52.98323171 57.84603659 52.98323171 57.84603659 51.8125 60.1875 C48.32571216 61.34976261 45.2124588 61.31990097 41.5871582 61.30102539 C40.85520233 61.30117142 40.12324646 61.30131744 39.36911011 61.3014679 C36.95047031 61.3007714 34.53190759 61.29299128 32.11328125 61.28515625 C30.43605084 61.28329114 28.75881989 61.28186767 27.08158875 61.28086853 C22.66749568 61.2770507 18.25343553 61.26722666 13.83935547 61.25616455 C9.33496547 61.24593467 4.83057015 61.24136753 0.32617188 61.23632812 C-8.51173321 61.22560375 -17.34961387 61.20853611 -26.1875 61.1875 C-25.56947806 62.78685329 -24.94602698 64.38410931 -24.3203125 65.98046875 C-23.97371582 66.87016357 -23.62711914 67.7598584 -23.27001953 68.67651367 C-20.58062476 74.91476925 -16.30661561 78.47035402 -10.2734375 81.26953125 C-3.6437759 83.24164578 4.74050383 83.66304449 11.32421875 81.27734375 C13.3760963 80.12784088 13.3760963 80.12784088 15.8125 78.1875 C16.4725 78.1875 17.1325 78.1875 17.8125 78.1875 C18.10125 77.61 18.39 77.0325 18.6875 76.4375 C19.72916667 74.35416667 20.77083333 72.27083333 21.8125 70.1875 C30.7225 70.1875 39.6325 70.1875 48.8125 70.1875 C47.68446896 79.2117483 47.68446896 79.2117483 44.4375 84 C43.83164063 84.91394531 43.22578125 85.82789063 42.6015625 86.76953125 C41.10335429 88.79440217 39.73729065 90.56917043 37.8125 92.1875 C37.1525 92.1875 36.4925 92.1875 35.8125 92.1875 C35.3175 93.6725 35.3175 93.6725 34.8125 95.1875 C24.48647052 103.68085631 13.20540264 106.50646389 0.125 106.625 C-0.7417334 106.63523193 -1.6084668 106.64546387 -2.50146484 106.65600586 C-15.17099835 106.48408108 -27.27671773 101.40720404 -36.6875 92.9375 C-47.36238395 81.19512765 -54.24357123 66.97713839 -53.53515625 50.68359375 C-51.07830444 33.04394985 -44.22266566 19.12592612 -30.05078125 8.05078125 C-20.6604632 1.94002858 -10.93025921 0.00759573 0 0 Z M-22.1875 33.1875 C-23.79917447 35.87362411 -24.1875 36.98780958 -24.1875 40.1875 C-8.0175 40.1875 8.1525 40.1875 24.8125 40.1875 C23.86111959 34.47921751 23.00292414 31.8553536 18.8125 28.1875 C4.7793962 18.88212635 -10.69251776 20.34016691 -22.1875 33.1875 Z " fill="#FBC341" transform="translate(1015.1875,101.8125)"/>
<path d="M0 0 C1.07507812 -0.00128906 2.15015625 -0.00257812 3.2578125 -0.00390625 C4.38960937 -0.00003906 5.52140625 0.00382812 6.6875 0.0078125 C7.81929687 0.00394531 8.95109375 0.00007813 10.1171875 -0.00390625 C11.19226562 -0.00261719 12.26734375 -0.00132813 13.375 0 C14.86580078 0.00169189 14.86580078 0.00169189 16.38671875 0.00341797 C18.6875 0.1328125 18.6875 0.1328125 19.6875 1.1328125 C19.78248646 3.56677269 19.81308417 5.97224202 19.80102539 8.40649414 C19.80117142 9.16741867 19.80131744 9.9283432 19.8014679 10.71232605 C19.80076862 13.23923548 19.79297555 15.76607212 19.78515625 18.29296875 C19.78329212 20.0403184 19.7818682 21.78766857 19.78086853 23.53501892 C19.77704293 28.14313184 19.76721229 32.75121345 19.75616455 37.35931396 C19.74595134 42.05789771 19.7413711 46.75648649 19.73632812 51.45507812 C19.72559005 60.68100337 19.70851313 69.90690534 19.6875 79.1328125 C23.09711415 75.77280169 26.10167854 72.43018059 28.9375 68.5703125 C29.71738281 67.51585937 30.49726562 66.46140625 31.30078125 65.375 C31.6973291 64.83584961 32.09387695 64.29669922 32.50244141 63.74121094 C35.10710271 60.20608348 37.73232627 56.69274315 40.453125 53.24609375 C42.1376137 50.89900023 43.24704932 49.05061656 44.421875 46.48828125 C46.5225035 42.3836301 48.41559379 39.18144241 52.6875 37.1328125 C62.53915949 35.49110656 72.7852849 36.34566558 82.6875 37.1328125 C82.6875 38.4528125 82.6875 39.7728125 82.6875 41.1328125 C82.0275 41.1328125 81.3675 41.1328125 80.6875 41.1328125 C80.41164063 41.71804687 80.13578125 42.30328125 79.8515625 42.90625 C77.02051205 48.3213465 72.80643444 53.00563152 69 57.7578125 C68.00806641 59.00498047 68.00806641 59.00498047 66.99609375 60.27734375 C65.24242549 62.44643258 63.46420093 64.58061433 61.66015625 66.70703125 C60.62733769 67.95290414 59.59478392 69.19899659 58.5625 70.4453125 C58.05243408 71.03199707 57.54236816 71.61868164 57.0168457 72.22314453 C55.41309656 74.10008147 55.41309656 74.10008147 53.6875 77.1328125 C53.95536463 79.69441981 53.95536463 79.69441981 55.6875 82.1328125 C56.41154721 83.41791868 57.13549607 84.70308028 57.859375 85.98828125 C58.71512166 87.43444484 59.57465933 88.87837025 60.4375 90.3203125 C60.88633545 91.07699219 61.3351709 91.83367187 61.79760742 92.61328125 C64.64162879 97.40234878 67.51463309 102.17384375 70.39453125 106.94140625 C71.7083913 109.16822042 72.95247745 111.42396188 74.1875 113.6953125 C75.88224298 116.78604569 77.70671972 119.7172252 79.6875 122.6328125 C81.76362102 125.70655012 83.75378297 128.80445482 85.625 132.0078125 C86.04652344 132.72710937 86.46804688 133.44640625 86.90234375 134.1875 C87.6875 136.1328125 87.6875 136.1328125 86.6875 139.1328125 C82.33475867 139.42458128 77.98453308 139.60123615 73.625 139.7578125 C72.39587891 139.84160156 71.16675781 139.92539063 69.90039062 140.01171875 C60.94193916 140.25318644 60.94193916 140.25318644 57.36425781 137.05786133 C55.54852555 134.49339076 54.08140544 131.94591331 52.6875 129.1328125 C52.08679687 128.12089844 51.48609375 127.10898438 50.8671875 126.06640625 C50.22136719 124.83083984 50.22136719 124.83083984 49.5625 123.5703125 C49.07394531 122.64992188 48.58539062 121.72953125 48.08203125 120.78125 C47.62183594 119.90726562 47.16164063 119.03328125 46.6875 118.1328125 C43.2819099 111.88027799 39.70154545 105.74474765 36.04296875 99.63671875 C34.6875 97.1328125 34.6875 97.1328125 34.6875 95.1328125 C33.54361961 96.27669289 32.40005995 97.42089524 31.2578125 98.56640625 C30.1326972 99.68872276 29.00180749 100.80526202 27.8671875 101.91796875 C27.25101563 102.52511719 26.63484375 103.13226563 26 103.7578125 C25.41863281 104.32757813 24.83726563 104.89734375 24.23828125 105.484375 C20.76466973 109.1767278 20.41602271 111.58080142 20.30859375 116.515625 C20.27443359 117.76472656 20.24027344 119.01382813 20.20507812 120.30078125 C20.17865234 121.60660156 20.15222656 122.91242188 20.125 124.2578125 C20.06536127 126.84384937 20.00178253 129.42979945 19.93359375 132.015625 C19.90966553 133.16434082 19.8857373 134.31305664 19.86108398 135.49658203 C19.6875 138.1328125 19.6875 138.1328125 18.6875 139.1328125 C16.91890807 139.23227703 15.14638549 139.26361467 13.375 139.265625 C12.29992188 139.26691406 11.22484375 139.26820313 10.1171875 139.26953125 C8.98539063 139.26566406 7.85359375 139.26179687 6.6875 139.2578125 C4.98980469 139.26361328 4.98980469 139.26361328 3.2578125 139.26953125 C2.18273438 139.26824219 1.10765625 139.26695312 0 139.265625 C-0.99386719 139.26449707 -1.98773437 139.26336914 -3.01171875 139.26220703 C-5.3125 139.1328125 -5.3125 139.1328125 -6.3125 138.1328125 C-6.41102467 136.36352293 -6.43882089 134.59026785 -6.43948364 132.8182373 C-6.44230347 131.6655687 -6.44512329 130.51290009 -6.44802856 129.32530212 C-6.44600433 128.04941727 -6.4439801 126.77353241 -6.44189453 125.45898438 C-6.44324856 124.11072238 -6.4450285 122.76246075 -6.44720459 121.41419983 C-6.45177873 117.74281222 -6.44998945 114.07145259 -6.4468255 110.40006447 C-6.4443018 106.56614733 -6.44663947 102.73223266 -6.44821167 98.89831543 C-6.45003334 92.45873584 -6.44762713 86.0191677 -6.44287109 79.57958984 C-6.43742848 72.12409087 -6.43919114 64.66861924 -6.4446975 57.21312094 C-6.44922871 50.82332674 -6.44987914 44.4335408 -6.44725883 38.04374552 C-6.4456961 34.22243202 -6.44550217 30.4011314 -6.44879532 26.57981873 C-6.45167416 22.98807425 -6.44969812 19.39636519 -6.44390106 15.80462456 C-6.44193793 13.84985783 -6.44492727 11.89508813 -6.44802856 9.94032288 C-6.44520874 8.78765427 -6.44238892 7.63498566 -6.43948364 6.4473877 C-6.43910662 5.4393232 -6.43872959 4.4312587 -6.43834114 3.39264679 C-6.19781758 -0.92663534 -3.76015537 0.00426736 0 0 Z " fill="#FBC23A" transform="translate(1180.3125,66.8671875)"/>
<path d="M0 0 C3.91724038 2.12893499 4.81210032 3.41652206 6.1875 7.6875 C6.455625 8.780625 6.72375 9.87375 7 11 C7.66 11.33 8.32 11.66 9 12 C9.55140785 13.29995115 10.06747767 14.61504905 10.5625 15.9375 C11.77565501 18.45367336 12.40353291 19.71254598 14.9453125 20.9375 C18.08220263 21.63701557 21.17488132 21.93621615 24.375 22.18359375 C29.56052181 22.61280079 33.14421637 23.14421637 37 27 C38.21463441 30.9331019 38.67539535 34.45925435 37 38.28125 C36.67 38.8484375 36.34 39.415625 36 40 C35.34 40 34.68 40 34 40 C33.67 40.99 33.34 41.98 33 43 C32.34 43 31.68 43 31 43 C30.67 43.99 30.34 44.98 30 46 C28.02583732 47.05008653 26.02417134 48.04987876 24 49 C23.01 49.99 23.01 49.99 22 51 C22.2922229 54.56511939 22.76661574 57.92364572 23.5234375 61.4140625 C24.52459483 66.84657193 25.25147477 72.75777437 22.5 77.6875 C19.01852286 79.5152755 15.81805208 79.53629634 12 79 C8.58682284 77.62886194 5.56737126 75.63000557 2.46875 73.66796875 C-0.72127877 71.78174842 -2.41406609 70.8945319 -6.125 71.5625 C-8.956493 72.9782465 -11.66906205 74.4823925 -14.375 76.125 C-19.33993703 78.87429166 -22.37752352 80.08503932 -28 79 C-30.72449785 76.88851417 -31.7951047 75.38172984 -32.3046875 71.9453125 C-32.42545215 68.0674255 -31.99023244 64.55816183 -31 60.8125 C-29.65536318 55.93077651 -29.65536318 55.93077651 -30 51 C-32.39294705 47.82688665 -35.03599731 44.45410467 -39.02734375 43.53125 C-42.4531041 42.60866899 -43.8846063 39.92067379 -45.8515625 37.125 C-47 35 -47 35 -47.1875 31.8125 C-45.48275957 27.77495687 -42.94162188 24.97081094 -39 23 C-36.94343267 22.6318313 -34.87946029 22.30445445 -32.8125 22 C-31.64976562 21.82726562 -30.48703125 21.65453125 -29.2890625 21.4765625 C-28.20367187 21.31929687 -27.11828125 21.16203125 -26 21 C-25.20335937 20.88398437 -24.40671875 20.76796875 -23.5859375 20.6484375 C-22.05785515 20.42834333 -20.52903797 20.21335414 -19 20 C-18.85304687 19.46632813 -18.70609375 18.93265625 -18.5546875 18.3828125 C-16.64162779 12.027936 -13.85749507 6.41553625 -10 1 C-6.78644089 -0.60677955 -3.48561517 -0.46831682 0 0 Z " fill="#F5C037" transform="translate(257,18)"/>
<path d="M0 0 C1.12019531 -0.00128906 2.24039063 -0.00257812 3.39453125 -0.00390625 C4.57402344 -0.00003906 5.75351562 0.00382812 6.96875 0.0078125 C8.73798828 0.00201172 8.73798828 0.00201172 10.54296875 -0.00390625 C12.22326172 -0.00197266 12.22326172 -0.00197266 13.9375 0 C14.97326172 0.00112793 16.00902344 0.00225586 17.07617188 0.00341797 C19.46875 0.1328125 19.46875 0.1328125 20.46875 1.1328125 C20.56499593 2.85373903 20.59062598 4.57864632 20.58900452 6.30226135 C20.59037918 7.42271851 20.59175385 8.54317566 20.59317017 9.69758606 C20.58957489 10.93763901 20.58597961 12.17769196 20.58227539 13.45532227 C20.58242142 14.75269318 20.58256744 16.05006409 20.5827179 17.38674927 C20.58300586 20.95477179 20.57710932 24.52276098 20.57014394 28.09077573 C20.56391021 31.8157187 20.56330659 35.54066236 20.56211853 39.26560974 C20.55900527 46.32398613 20.55079195 53.3823471 20.54076904 60.44071668 C20.52960774 68.47444221 20.52409741 76.50816846 20.51907361 84.5418998 C20.50860934 101.07221307 20.49101 117.60251082 20.46875 134.1328125 C17.93428127 135.40004687 16.14648046 135.26222578 13.3125 135.265625 C12.29027344 135.26691406 11.26804687 135.26820313 10.21484375 135.26953125 C9.14363281 135.26566406 8.07242188 135.26179687 6.96875 135.2578125 C5.36193359 135.26361328 5.36193359 135.26361328 3.72265625 135.26953125 C2.70042969 135.26824219 1.67820312 135.26695312 0.625 135.265625 C-0.31537109 135.26449707 -1.25574219 135.26336914 -2.22460938 135.26220703 C-4.53125 135.1328125 -4.53125 135.1328125 -6.53125 134.1328125 C-6.5545785 116.80903898 -6.57222893 99.48527034 -6.58306217 82.16148472 C-6.58822523 74.11831196 -6.59526812 66.07514893 -6.60668945 58.03198242 C-6.61663598 51.0240829 -6.62310335 44.01619042 -6.62533849 37.00828403 C-6.62664566 33.29538058 -6.62973184 29.5824973 -6.63698006 25.8696003 C-6.64499332 21.73149839 -6.64524116 17.59343189 -6.64477539 13.45532227 C-6.64837067 12.21526932 -6.65196594 10.97521637 -6.65567017 9.69758606 C-6.6542955 8.57712891 -6.65292084 7.45667175 -6.65150452 6.30226135 C-6.65242631 5.32239541 -6.6533481 4.34252947 -6.65429783 3.33297062 C-6.41173922 -1.00410135 -3.73713749 0.00406969 0 0 Z " fill="#205FB4" transform="translate(791.53125,70.8671875)"/>
<path d="M0 0 C1.02802734 -0.01224609 2.05605469 -0.02449219 3.11523438 -0.03710938 C4.58766602 -0.04000977 4.58766602 -0.04000977 6.08984375 -0.04296875 C6.99468506 -0.04707764 7.89952637 -0.05118652 8.83178711 -0.05541992 C11.0625 0.1875 11.0625 0.1875 13.0625 2.1875 C13.2578125 4.5703125 13.2578125 4.5703125 13.1875 7.3125 C13.16945313 8.22257812 13.15140625 9.13265625 13.1328125 10.0703125 C13.10960937 10.76898438 13.08640625 11.46765625 13.0625 12.1875 C13.86316638 11.38683362 14.62605824 10.54846521 15.375 9.69921875 C21.17394926 3.43044721 26.16955799 0.25275935 34.828125 -0.0859375 C39.5871532 -0.16149892 44.31105251 -0.10003799 49.0625 0.1875 C50.68450515 1.80950515 50.1924075 3.60773031 50.1953125 5.84375 C50.19724609 7.25333984 50.19724609 7.25333984 50.19921875 8.69140625 C50.19535156 9.68011719 50.19148438 10.66882813 50.1875 11.6875 C50.19330078 13.17056641 50.19330078 13.17056641 50.19921875 14.68359375 C50.19792969 15.62332031 50.19664063 16.56304687 50.1953125 17.53125 C50.19418457 18.39943359 50.19305664 19.26761719 50.19189453 20.16210938 C50.0625 22.1875 50.0625 22.1875 49.0625 23.1875 C47.15410451 23.28239259 45.24517612 23.37135755 43.33520508 23.42602539 C31.77120354 23.74368813 31.77120354 23.74368813 22.3671875 29.9140625 C15.33686423 38.43875401 14.60893412 47.59139529 14.55078125 58.31640625 C14.53283005 59.54665024 14.51487885 60.77689423 14.49638367 62.04441833 C14.44251052 65.94624477 14.40845783 69.84795047 14.375 73.75 C14.34341885 76.40694648 14.3073154 79.06380776 14.27148438 81.72070312 C14.18679709 88.2095271 14.11835029 94.69836715 14.0625 101.1875 C11.51974451 102.45887774 9.71441799 102.316925 6.87109375 102.3203125 C5.84435547 102.32160156 4.81761719 102.32289063 3.75976562 102.32421875 C2.68404297 102.32035156 1.60832031 102.31648438 0.5 102.3125 C-0.57958984 102.31636719 -1.65917969 102.32023437 -2.77148438 102.32421875 C-3.79693359 102.32292969 -4.82238281 102.32164062 -5.87890625 102.3203125 C-6.82451416 102.31918457 -7.77012207 102.31805664 -8.74438477 102.31689453 C-10.9375 102.1875 -10.9375 102.1875 -11.9375 101.1875 C-12.03817034 98.08779236 -12.073643 95.01032329 -12.06689453 91.91015625 C-12.06864685 90.93625946 -12.07039917 89.96236267 -12.07220459 88.95895386 C-12.07662499 85.72261806 -12.07368445 82.4863364 -12.0703125 79.25 C-12.07098549 77.01180002 -12.07195546 74.77360012 -12.07321167 72.53540039 C-12.0746889 67.83772081 -12.07253329 63.1400602 -12.06787109 58.44238281 C-12.0621738 52.40589386 -12.06545267 46.36944936 -12.07144356 40.33296204 C-12.0750485 35.70918439 -12.07391089 31.08541736 -12.07131577 26.4616394 C-12.07064631 24.23517858 -12.07147556 22.0087168 -12.07379532 19.78225708 C-12.07632074 16.67642645 -12.0724828 13.5706689 -12.06689453 10.46484375 C-12.06891876 9.53493622 -12.07094299 8.60502869 -12.07302856 7.64694214 C-12.04082128 -1.96267675 -8.51821997 0.00532056 0 0 Z " fill="#FBC343" transform="translate(1102.9375,103.8125)"/>
<path d="M0 0 C0.66 0 1.32 0 2 0 C0.86810644 3.01838282 -0.34841847 5.5672559 -2.04577637 8.33070374 C-4.97769541 14.20947028 -4.5584549 20.26919974 -4.51757812 26.70874023 C-4.5230065 28.08446999 -4.53013317 29.46019393 -4.53881836 30.83590698 C-4.55697171 34.55300762 -4.5500172 38.26966152 -4.53730202 41.98676944 C-4.52713059 45.88898285 -4.53657933 49.79115962 -4.54284668 53.69337463 C-4.55011195 60.24592916 -4.54056585 66.79830302 -4.52148438 73.35083008 C-4.49972675 80.90926878 -4.50676323 88.46727564 -4.52879 96.02570385 C-4.54698695 102.53214648 -4.54948115 109.03845967 -4.53903532 115.54491955 C-4.53282272 119.42346043 -4.53190256 123.30179886 -4.54518127 127.18032646 C-4.55680172 130.82901295 -4.54860257 134.47714708 -4.52560425 138.12577438 C-4.51785804 140.09085598 -4.52962069 142.05598472 -4.54211426 144.02104187 C-4.45377773 153.31893489 -2.78042616 161.21957384 4 168 C9.89238332 172.16211355 14.39803234 172.57331024 21.50669861 172.50793457 C22.55242446 172.51417453 23.59815031 172.5204145 24.67556483 172.52684355 C28.17318202 172.54277478 31.67010246 172.53016815 35.16772461 172.51757812 C37.67791653 172.52299919 40.18810526 172.53012175 42.69828796 172.53881836 C48.80486579 172.55516358 54.9111864 172.55277214 61.0177676 172.5411678 C65.98227023 172.5321253 70.94671777 172.530913 75.91122627 172.53526306 C76.97207767 172.53618246 76.97207767 172.53618246 78.05436041 172.53712043 C79.49121584 172.53839937 80.92807125 172.53969622 82.36492664 172.5410108 C95.83174691 172.55241117 109.29845819 172.53931189 122.76526058 172.51780933 C134.31223027 172.49994269 145.85903908 172.50303988 157.40600586 172.52148438 C170.82388013 172.54290741 184.24165888 172.5513085 197.65954787 172.53903532 C199.09135122 172.53776116 200.52315458 172.53650368 201.95495796 172.53526306 C202.65937958 172.53464596 203.3638012 172.53402886 204.08956892 172.53339306 C209.04572271 172.52994415 214.00181575 172.53575863 218.95796013 172.54518127 C225.63356898 172.55759427 232.30882771 172.54871204 238.98442268 172.52560425 C241.43376283 172.52031746 243.88312854 172.52183037 246.3324585 172.53065491 C249.6774226 172.54159464 253.02141543 172.52786424 256.36631775 172.50793457 C257.33432294 172.51685746 258.30232814 172.52578034 259.29966682 172.53497362 C266.32480667 172.45385525 271.60967442 170.86672317 277.0234375 166.2890625 C277.46945312 165.73992187 277.91546875 165.19078125 278.375 164.625 C278.83648437 164.08101562 279.29796875 163.53703125 279.7734375 162.9765625 C283.09335983 157.62662396 283.30247973 152.32702903 283.31884766 146.23632812 C283.32889328 145.37299866 283.3389389 144.50966919 283.34928894 143.62017822 C283.38020562 140.75720822 283.39723484 137.89433481 283.4140625 135.03125 C283.43283938 132.99767327 283.45241722 130.96410379 283.4727478 128.93054199 C283.52418372 123.54285304 283.56362291 118.15513692 283.60089111 112.76733398 C283.63226245 108.51576373 283.67210601 104.26429538 283.71243668 100.01280212 C283.8218782 88.47006778 283.90296352 76.92736209 283.96447754 65.38427734 C283.98765151 61.04211474 284.01568945 56.70001982 284.04724121 52.35791016 C284.08589701 46.95965013 284.11405279 41.5614294 284.13450241 36.16307068 C284.14372328 34.13209717 284.15632853 32.10113595 284.17247391 30.07020569 C284.19394918 27.27266075 284.20283188 24.47534969 284.20849609 21.67773438 C284.21762402 20.8526387 284.22675194 20.02754303 284.23615646 19.17744446 C284.23075686 15.2372638 284.04816557 12.39741321 282 9 C282.375 6.75 282.375 6.75 283 5 C286.77537999 11.74329296 286.43021106 18.26794488 286.40405273 25.85473633 C286.40976162 27.25825034 286.41672789 28.66175972 286.42485046 30.06526184 C286.44274309 33.86298567 286.44162051 37.66047794 286.43590808 41.45823121 C286.43280954 44.63639147 286.43891629 47.81450768 286.44494683 50.99266165 C286.45897862 58.49587772 286.45744295 65.9989799 286.44604492 73.50219727 C286.43457407 81.22360564 286.44862487 88.94466626 286.4754414 96.6660288 C286.49765162 103.31173124 286.50422356 109.95732496 286.49836498 116.60306185 C286.49500579 120.56494041 286.49734053 124.52659628 286.51461601 128.48844337 C286.53016756 132.21752901 286.52603979 135.94610297 286.50731087 139.67516899 C286.50191146 141.68183074 286.51607778 143.68851591 286.53100586 145.69512939 C286.46955962 153.28844321 285.4558994 159.20086855 282 166 C281.34 166 280.68 166 280 166 C280 166.66 280 167.32 280 168 C278.34765625 169.4375 278.34765625 169.4375 276.0625 171 C274.96615234 171.7734375 274.96615234 171.7734375 273.84765625 172.5625 C266.86895343 176.08535684 259.39480722 176.2903129 251.71508789 176.24723816 C250.21849813 176.25085978 250.21849813 176.25085978 248.69167423 176.25455457 C245.36860041 176.26016314 242.04572126 176.25154989 238.72265625 176.24291992 C236.33202055 176.24399351 233.9413851 176.24593334 231.55075073 176.24867249 C225.74362953 176.25300969 219.93657057 176.24809383 214.12945628 176.23882218 C207.35934836 176.22840423 200.5892526 176.22850928 193.81913817 176.22899476 C181.73520769 176.22949472 169.65130373 176.22035203 157.56738281 176.20581055 C145.85578936 176.19172451 134.14421923 176.18463985 122.43261719 176.18530273 C121.71124341 176.18534269 120.98986963 176.18538265 120.24663603 176.18542381 C119.52647948 176.18546417 118.80632293 176.18550452 118.06434345 176.1855461 C104.71088278 176.18623698 91.35743197 176.18033997 78.0039745 176.17139288 C73.29074545 176.16838375 68.57751823 176.16731418 63.86428833 176.16686058 C57.51460837 176.16585448 51.16495281 176.15973596 44.81528091 176.14969444 C42.48729731 176.14677897 40.15931089 176.14554214 37.83132553 176.14612198 C34.64916196 176.14661455 31.46706621 176.14093855 28.28491211 176.13371277 C26.90935701 176.13603567 26.90935701 176.13603567 25.50601292 176.1384055 C10.88475223 176.08373253 10.88475223 176.08373253 6.5 173.5625 C5 172 5 172 4 170 C3.34 170 2.68 170 2 170 C2 169.34 2 168.68 2 168 C1.01 167.67 0.02 167.34 -1 167 C-6.98797343 158.62069833 -7.84403313 150.56291361 -7.65283203 140.54589844 C-7.647812 139.13841416 -7.64541227 137.73091852 -7.645401 136.32342529 C-7.63754334 132.53801074 -7.59203146 128.75394047 -7.5381608 124.96893597 C-7.48698891 120.9903545 -7.46756036 117.01159675 -7.443573 113.03277588 C-7.39850085 106.35843999 -7.32939107 99.68469163 -7.24511719 93.01074219 C-7.14812064 85.31038286 -7.08663085 77.6103727 -7.04464638 69.9095304 C-7.00352176 62.47479901 -6.93995302 55.04043036 -6.86532211 47.60596466 C-6.83390059 44.45307712 -6.80976398 41.30026058 -6.79150772 38.1472702 C-6.76879695 34.43352589 -6.72619841 30.7205105 -6.66859245 27.00714874 C-6.64202281 25.00505869 -6.63456869 23.00274316 -6.62779236 21.00048828 C-6.46297443 12.20417183 -4.87852024 7.31778036 0 0 Z " fill="#91C1DD" transform="translate(27,76)"/>
<path d="M0 0 C1.29151474 -0.00953201 2.58302948 -0.01906403 3.91368103 -0.02888489 C5.32990547 -0.02862347 6.74612992 -0.02768645 8.16235352 -0.02612305 C9.60962548 -0.03000862 11.05689631 -0.034343 12.50416565 -0.03910828 C15.53976129 -0.04657653 18.57524064 -0.046275 21.61083984 -0.04101562 C25.50279384 -0.03522161 29.39427184 -0.0521469 33.28614712 -0.0753603 C36.27585132 -0.09008614 39.2654406 -0.09097091 42.25517464 -0.08785057 C43.69011439 -0.08836442 45.12506047 -0.09361404 46.55996513 -0.10366249 C48.56598157 -0.11598521 50.57209393 -0.10730749 52.578125 -0.09765625 C53.72014877 -0.09828568 54.86217255 -0.0989151 56.0388031 -0.0995636 C58.85375977 0.2746582 58.85375977 0.2746582 60.75770569 1.63777161 C61.85375977 3.2746582 61.85375977 3.2746582 61.66625977 5.8371582 C60.85375977 8.2746582 60.85375977 8.2746582 58.85375977 10.2746582 C56.15905762 10.52862549 56.15905762 10.52862549 52.69165039 10.53344727 C51.39690796 10.53975159 50.10216553 10.54605591 48.76818848 10.55255127 C47.3487942 10.5489716 45.92940115 10.54486966 44.51000977 10.5402832 C43.06034276 10.5416299 41.6106762 10.54357046 40.16101074 10.54608154 C37.12121282 10.54903262 34.08153234 10.54473577 31.04174805 10.53540039 C27.14081728 10.52400576 23.2401617 10.53056533 19.33924103 10.54254532 C16.34529539 10.54976442 13.35141524 10.54747578 10.35746765 10.54228973 C8.91891955 10.54095337 7.48036555 10.5426005 6.04182434 10.54724884 C4.03317373 10.5523146 2.02450233 10.54322764 0.01586914 10.53344727 C-1.12837524 10.53185608 -2.27261963 10.53026489 -3.45153809 10.52862549 C-6.14624023 10.2746582 -6.14624023 10.2746582 -8.14624023 8.2746582 C-8.39624023 5.2746582 -8.39624023 5.2746582 -8.14624023 2.2746582 C-5.40052566 -0.47105637 -3.84446265 0.01552095 0 0 Z " fill="#448FD9" transform="translate(50.146240234375,164.725341796875)"/>
<path d="M0 0 C0.74584854 0.00091141 1.49169708 0.00182281 2.26014709 0.00276184 C3.02706375 -0.00152328 3.79398041 -0.00580841 4.58413696 -0.01022339 C6.20733146 -0.01597014 7.83055172 -0.0164644 9.45375061 -0.01213074 C11.93849128 -0.00897351 14.42203836 -0.03241445 16.90663147 -0.05778503 C18.48280184 -0.06005827 20.05897542 -0.06076141 21.63514709 -0.05973816 C22.75088356 -0.07355278 22.75088356 -0.07355278 23.88916016 -0.08764648 C29.00620737 -0.04172289 29.00620737 -0.04172289 31.51820374 1.66609192 C32.51405334 3.30354309 32.51405334 3.30354309 32.32655334 5.86604309 C31.51405334 8.30354309 31.51405334 8.30354309 29.51405334 10.30354309 C26.88465139 10.50319682 24.36285171 10.58338419 21.73280334 10.56916809 C20.96351501 10.57108154 20.19422668 10.572995 19.40162659 10.57496643 C17.77422255 10.57632817 16.14680764 10.57263248 14.51942444 10.56428528 C12.02389704 10.5535853 9.52908952 10.5641806 7.03358459 10.57698059 C5.45415592 10.57565899 3.87472769 10.5730966 2.29530334 10.56916809 C1.54631775 10.57321655 0.79733215 10.57726501 0.02565002 10.58143616 C-5.25602422 10.53346552 -5.25602422 10.53346552 -7.48594666 8.30354309 C-7.73594666 5.30354309 -7.73594666 5.30354309 -7.48594666 2.30354309 C-4.97772565 -0.20467791 -3.42440723 0.04724542 0 0 Z " fill="#438ED9" transform="translate(49.48594665527344,189.6964569091797)"/>
<path d="M0 0 C4.13426842 1.59010324 7.43167022 4.42448207 10 8 C10.375 11.375 10.375 11.375 10 14 C9.67 14 9.34 14 9 14 C9 12.35 9 10.7 9 9 C-14.94840043 9.01381698 -38.89660504 9.05609722 -62.8448925 9.13209057 C-73.9649766 9.16671639 -85.08493705 9.19209294 -96.20507812 9.19555664 C-105.89949335 9.19859987 -115.59368821 9.21913874 -125.28801835 9.26052457 C-130.41925296 9.28182353 -135.55017453 9.29447107 -140.6814537 9.28615379 C-145.51610425 9.2785941 -150.35012153 9.29451443 -155.18465614 9.32806015 C-156.95424979 9.3362703 -158.72390669 9.33607074 -160.49349403 9.32659721 C-172.87680798 9.22892015 -172.87680798 9.22892015 -184.15648079 14.02708912 C-185.0690228 14.50868001 -185.0690228 14.50868001 -186 15 C-186.99 14.67 -187.98 14.34 -189 14 C-183.0343342 8.71225077 -179.51733791 7.85286089 -171.4956665 7.84178162 C-170.35735417 7.83437465 -170.35735417 7.83437465 -169.19604564 7.82681805 C-166.65185814 7.81145351 -164.10769586 7.80308525 -161.56347656 7.79467773 C-159.74024738 7.78509839 -157.91702041 7.77508828 -156.09379578 7.76467896 C-151.14172542 7.73762993 -146.18964554 7.71662033 -141.23754215 7.69667697 C-136.06318993 7.67481743 -130.88886709 7.64742858 -125.71453857 7.62062073 C-115.9150897 7.57069343 -106.11562453 7.52575472 -96.31614375 7.48259836 C-85.16025836 7.43322632 -74.00440244 7.37830806 -62.84854555 7.32291877 C-39.89905787 7.20909815 -16.94954191 7.10225926 6 7 C5.01 6.34 4.02 5.68 3 5 C3 4.34 3 3.68 3 3 C2.34 3 1.68 3 1 3 C0.67 2.01 0.34 1.02 0 0 Z " fill="#6FAEEA" transform="translate(218,61)"/>
<path d="M0 0 C1.72974441 0.00015918 3.45949355 0.0058569 5.18920898 0.01586914 C6.09783188 0.01728409 7.00645477 0.01869904 7.94261169 0.02015686 C10.85687494 0.02577346 13.77106254 0.03832874 16.68530273 0.05102539 C18.65600475 0.05603825 20.62670797 0.06060153 22.59741211 0.06469727 C27.43923832 0.07574828 32.28100768 0.09302401 37.12280273 0.11352539 C35.12280273 2.11352539 35.12280273 2.11352539 31.49926758 2.34057617 C29.94405585 2.34025896 28.38882223 2.32892838 26.83374023 2.30883789 C25.60610458 2.30459305 25.60610458 2.30459305 24.35366821 2.30026245 C21.7348988 2.28905071 19.11646909 2.26394468 16.49780273 2.23852539 C14.72437017 2.22849686 12.95093225 2.21937079 11.17749023 2.21118164 C6.82579647 2.18910817 2.47435723 2.15457183 -1.87719727 2.11352539 C-1.86672363 3.31477051 -1.85625 4.51601562 -1.84545898 5.75366211 C-1.80932439 10.20024651 -1.7863207 14.64681787 -1.76733398 19.09350586 C-1.75726144 21.01996033 -1.74360283 22.94639947 -1.72631836 24.87280273 C-1.70212486 27.63797791 -1.69072691 30.40295139 -1.68188477 33.16821289 C-1.67156219 34.03284149 -1.66123962 34.89747009 -1.65060425 35.78829956 C-1.6502062 37.8980606 -1.75454483 40.00733257 -1.87719727 42.11352539 C-3.87719727 44.11352539 -3.87719727 44.11352539 -6.30737305 44.34057617 C-7.30236816 44.33010254 -8.29736328 44.31962891 -9.32250977 44.30883789 C-10.39887695 44.30239258 -11.47524414 44.29594727 -12.58422852 44.28930664 C-14.27612305 44.26416992 -14.27612305 44.26416992 -16.00219727 44.23852539 C-17.13786133 44.22950195 -18.27352539 44.22047852 -19.44360352 44.21118164 C-22.25501025 44.18755637 -25.06600025 44.15461552 -27.87719727 44.11352539 C-27.87719727 43.78352539 -27.87719727 43.45352539 -27.87719727 43.11352539 C-20.28719727 43.11352539 -12.69719727 43.11352539 -4.87719727 43.11352539 C-4.88879883 40.09325195 -4.90040039 37.07297852 -4.91235352 33.96118164 C-4.92014335 31.04882919 -4.92622053 28.13647789 -4.93212891 25.22412109 C-4.93717005 23.19384241 -4.94400283 21.16356737 -4.95263672 19.13330078 C-4.96471194 16.22175192 -4.97042761 13.31025089 -4.97485352 10.39868164 C-4.9800148 9.4851442 -4.98517609 8.57160675 -4.99049377 7.63038635 C-4.99068895 5.45777112 -4.93931531 3.28525243 -4.87719727 1.11352539 C-3.87719727 0.11352539 -3.87719727 0.11352539 0 0 Z " fill="#FCE0D6" transform="translate(873.877197265625,161.886474609375)"/>
<path d="M0 0 C0.66 0 1.32 0 2 0 C0.86810644 3.01838282 -0.34841847 5.5672559 -2.04577637 8.33070374 C-4.97769541 14.20947028 -4.5584549 20.26919974 -4.51757812 26.70874023 C-4.5230065 28.08446999 -4.53013317 29.46019393 -4.53881836 30.83590698 C-4.55697171 34.55300762 -4.5500172 38.26966152 -4.53730202 41.98676944 C-4.52713059 45.88898285 -4.53657933 49.79115962 -4.54284668 53.69337463 C-4.55011195 60.24592916 -4.54056585 66.79830302 -4.52148438 73.35083008 C-4.49972675 80.90926878 -4.50676323 88.46727564 -4.52879 96.02570385 C-4.54698695 102.53214648 -4.54948115 109.03845967 -4.53903532 115.54491955 C-4.53282272 119.42346043 -4.53190256 123.30179886 -4.54518127 127.18032646 C-4.55680172 130.82901295 -4.54860257 134.47714708 -4.52560425 138.12577438 C-4.51785804 140.09085598 -4.52962069 142.05598472 -4.54211426 144.02104187 C-4.46014246 152.64901298 -2.78713541 158.45800156 1.6875 165.75 C5.01175805 168.98441323 8.8777277 170.93005557 13 173 C11.02 173.99 11.02 173.99 9 175 C5.125 172.25 5.125 172.25 4 170 C3.34 170 2.68 170 2 170 C2 169.34 2 168.68 2 168 C1.01 167.67 0.02 167.34 -1 167 C-6.98797343 158.62069833 -7.84403313 150.56291361 -7.65283203 140.54589844 C-7.647812 139.13841416 -7.64541227 137.73091852 -7.645401 136.32342529 C-7.63754334 132.53801074 -7.59203146 128.75394047 -7.5381608 124.96893597 C-7.48698891 120.9903545 -7.46756036 117.01159675 -7.443573 113.03277588 C-7.39850085 106.35843999 -7.32939107 99.68469163 -7.24511719 93.01074219 C-7.14812064 85.31038286 -7.08663085 77.6103727 -7.04464638 69.9095304 C-7.00352176 62.47479901 -6.93995302 55.04043036 -6.86532211 47.60596466 C-6.83390059 44.45307712 -6.80976398 41.30026058 -6.79150772 38.1472702 C-6.76879695 34.43352589 -6.72619841 30.7205105 -6.66859245 27.00714874 C-6.64202281 25.00505869 -6.63456869 23.00274316 -6.62779236 21.00048828 C-6.46297443 12.20417183 -4.87852024 7.31778036 0 0 Z " fill="#94BDD7" transform="translate(27,76)"/>
<path d="M0 0 C6.22875 -0.061875 12.4575 -0.12375 18.875 -0.1875 C20.84065918 -0.21481201 22.80631836 -0.24212402 24.83154297 -0.27026367 C26.38508489 -0.27902336 27.93863366 -0.28666852 29.4921875 -0.29296875 C30.70757202 -0.3159906 30.70757202 -0.3159906 31.94750977 -0.33947754 C34.28466797 -0.34057617 34.28466797 -0.34057617 38 0 C38.66 0.99 39.32 1.98 40 3 C27.46 2.67 14.92 2.34 2 2 C2 16.85 2 31.7 2 47 C13.88 46.67 25.76 46.34 38 46 C36 48 36 48 32.46826172 48.22705078 C30.95536674 48.22655032 29.44244799 48.21549111 27.9296875 48.1953125 C26.87116577 48.19229126 26.87116577 48.19229126 25.79125977 48.18920898 C23.15244049 48.17873636 20.51371379 48.15081375 17.875 48.125 C9.026875 48.063125 9.026875 48.063125 0 48 C0 32.16 0 16.32 0 0 Z " fill="#FCE6F4" transform="translate(870,93)"/>
<path d="M0 0 C0.66 0.33 1.32 0.66 2 1 C1.50371094 1.3403125 1.00742187 1.680625 0.49609375 2.03125 C-4.10979882 5.31742762 -7.73083493 8.78519699 -11.34375 13.12890625 C-12.84897054 14.82937945 -14.32217865 16.13408689 -16.125 17.5 C-21.90515688 22.52622337 -24.56208588 28.89403441 -27 36 C-27.77900406 37.95125537 -28.55953336 39.90164916 -29.3515625 41.84765625 C-34.37313653 58.51565197 -31.3862213 77.92752822 -23.5625 93.0625 C-21.05829064 97.44486638 -18.46066264 101.32960023 -15 105 C-15.33 105.66 -15.66 106.32 -16 107 C-20.01161723 102.60059311 -23.24784032 98.27304544 -26 93 C-26.66 91.865625 -27.32 90.73125 -28 89.5625 C-35.83251562 73.40016618 -36.21218439 54.78327849 -30.67578125 37.90234375 C-25.42439778 23.1195475 -14.46210359 7.23105179 0 0 Z " fill="#F3DBD2" transform="translate(376,78)"/>
<path d="M0 0 C3.97915159 -0.02886984 7.95827653 -0.04675406 11.9375 -0.0625 C13.07380859 -0.07087891 14.21011719 -0.07925781 15.38085938 -0.08789062 C16.46044922 -0.09111328 17.54003906 -0.09433594 18.65234375 -0.09765625 C20.15269165 -0.10551147 20.15269165 -0.10551147 21.68334961 -0.11352539 C24 0 24 0 25 1 C25.09498646 3.43396019 25.12558417 5.83942952 25.11352539 8.27368164 C25.11367142 9.03460617 25.11381744 9.7955307 25.1139679 10.57951355 C25.11326862 13.10642298 25.10547555 15.63325962 25.09765625 18.16015625 C25.09579212 19.9075059 25.0943682 21.65485607 25.09336853 23.40220642 C25.08954293 28.01031934 25.07971229 32.61840095 25.06866455 37.22650146 C25.05845134 41.92508521 25.0538711 46.62367399 25.04882812 51.32226562 C25.03809005 60.54819087 25.02101313 69.77409284 25 79 C26.485 78.505 26.485 78.505 28 78 C28 78.66 28 79.32 28 80 C27.34 80 26.68 80 26 80 C25.67 80.99 25.34 81.98 25 83 C24.34 83 23.68 83 23 83 C23 55.94 23 28.88 23 1 C15.41 1 7.82 1 0 1 C0 0.67 0 0.34 0 0 Z " fill="#FBDCEB" transform="translate(1175,67)"/>
<path d="M0 0 C5.81625 -0.04125 11.6325 -0.0825 17.625 -0.125 C19.4498291 -0.14320801 21.2746582 -0.16141602 23.15478516 -0.18017578 C24.61620795 -0.1860221 26.07763403 -0.19111733 27.5390625 -0.1953125 C28.28567139 -0.20554443 29.03228027 -0.21577637 29.80151367 -0.22631836 C34.2346174 -0.22778579 37.95308494 0.12277422 42 2 C42.495 3.485 42.495 3.485 43 5 C41.86691406 4.51917969 40.73382812 4.03835937 39.56640625 3.54296875 C32.2502246 1.10424153 24.56983802 1.42829479 16.9375 1.3125 C9.0484375 1.1578125 9.0484375 1.1578125 1 1 C1 12.22 1 23.44 1 35 C13.21 34.67 25.42 34.34 38 34 C36 36 36 36 32.46826172 36.22705078 C30.95536674 36.22655032 29.44244799 36.21549111 27.9296875 36.1953125 C26.87116577 36.19229126 26.87116577 36.19229126 25.79125977 36.18920898 C23.15244049 36.17873636 20.51371379 36.15081375 17.875 36.125 C9.026875 36.063125 9.026875 36.063125 0 36 C0 24.12 0 12.24 0 0 Z " fill="#CACEDB" transform="translate(677,92)"/>
<path d="M0 0 C8.91 0 17.82 0 27 0 C25.875 9 25.875 9 22.9375 13 C22.38964844 13.763125 21.84179688 14.52625 21.27734375 15.3125 C20.85582031 15.869375 20.43429687 16.42625 20 17 C20 13.83457396 20.47563174 12.77293901 21.9375 10.0625 C23.38379448 7.37208124 24.30366427 4.96920034 25 2 C21.22887069 2.13874615 17.45818555 2.28721093 13.6875 2.4375 C12.61564453 2.47681641 11.54378906 2.51613281 10.43945312 2.55664062 C8.89741211 2.61948242 8.89741211 2.61948242 7.32421875 2.68359375 C5.9024231 2.73858032 5.9024231 2.73858032 4.4519043 2.79467773 C1.863829 2.91430187 1.863829 2.91430187 -1 4 C-0.67 2.68 -0.34 1.36 0 0 Z " fill="#FCDAC5" transform="translate(1037,172)"/>
<path d="M0 0 C9.9 0 19.8 0 30 0 C30 1.32 30 2.64 30 4 C29.34 4 28.68 4 28 4 C27.773125 4.556875 27.54625 5.11375 27.3125 5.6875 C25.64103234 8.63246684 23.44723648 10.68156544 21 13 C22.81313137 9.22264299 24.91497662 5.63183951 27 2 C22.54140138 2.13835803 18.08320214 2.28694579 13.625 2.4375 C11.71847656 2.49647461 11.71847656 2.49647461 9.7734375 2.55664062 C8.56171875 2.59853516 7.35 2.64042969 6.1015625 2.68359375 C4.42054443 2.73858032 4.42054443 2.73858032 2.70556641 2.79467773 C0.03287229 2.82596013 0.03287229 2.82596013 -2 4 C-1.34 2.68 -0.68 1.36 0 0 Z " fill="#FCDAB6" transform="translate(1233,104)"/>
<path d="M0 0 C5.37513189 -0.0740324 10.74996854 -0.12854569 16.12548828 -0.16479492 C17.95496793 -0.17990251 19.78441125 -0.20038968 21.61376953 -0.22631836 C24.23999992 -0.26261585 26.86575249 -0.27970615 29.4921875 -0.29296875 C30.31306854 -0.30845261 31.13394958 -0.32393646 31.97970581 -0.33988953 C34.28466797 -0.34057617 34.28466797 -0.34057617 38 0 C38.66 0.99 39.32 1.98 40 3 C34.62452409 2.9065993 29.24950579 2.8005365 23.87451172 2.68261719 C22.04515471 2.64428223 20.21572115 2.60943737 18.38623047 2.578125 C15.75981241 2.53257195 13.13392341 2.47456269 10.5078125 2.4140625 C9.68693146 2.40251129 8.86605042 2.39096008 8.02029419 2.37905884 C2.22774341 2.22774341 2.22774341 2.22774341 0 0 Z " fill="#FCDEC6" transform="translate(870,93)"/>
<path d="M0 0 C6.17349093 6.17349093 6.11698434 14.07833526 6.3125 22.375 C6.1608699 32.39269543 4.12306039 41.35483558 -1 50 C-1.99 50.66 -2.98 51.32 -4 52 C-3.13244912 49.68653099 -2.24232064 47.43895789 -1.046875 45.2734375 C5.09952269 34.1273581 5.13231181 21.31352438 2.6328125 9.09375 C2.02835939 6.72809634 2.02835939 6.72809634 0 4 C0 2.68 0 1.36 0 0 Z " fill="#FBDEEC" transform="translate(943,94)"/>
<path d="M0 0 C2.72426311 2.35277269 3.8141763 4.62496331 5 8 C4 9 4 9 1.40795898 9.11352539 C0.28204346 9.10828857 -0.84387207 9.10305176 -2.00390625 9.09765625 C-3.21884766 9.09443359 -4.43378906 9.09121094 -5.68554688 9.08789062 C-6.96494141 9.07951172 -8.24433594 9.07113281 -9.5625 9.0625 C-10.84576172 9.05798828 -12.12902344 9.05347656 -13.45117188 9.04882812 C-16.63416022 9.03699545 -19.81705762 9.02051068 -23 9 C-23.33 8.34 -23.66 7.68 -24 7 C-15.42 7 -6.84 7 2 7 C1.34 4.69 0.68 2.38 0 0 Z " fill="#FCDAB3" transform="translate(1263,197)"/>
<path d="M0 0 C1.39664108 0.11562606 2.79231199 0.242992 4.1875 0.375 C4.96480469 0.44460937 5.74210938 0.51421875 6.54296875 0.5859375 C9 1 9 1 11.12890625 2.02734375 C15.61326877 3.54653595 20.0511988 3.24701815 24.75 3.1875 C25.70132813 3.18685547 26.65265625 3.18621094 27.6328125 3.18554688 C33.49428507 3.14941451 39.18661748 2.74760578 45 2 C39.9211475 7.0788525 28.96973698 5.29329146 22.20507812 5.33007812 C14.15469384 5.25658101 7.43834222 4.25427472 0 1 C0 0.67 0 0.34 0 0 Z " fill="#D0CDD6" transform="translate(535,203)"/>
<path d="M0 0 C0.66 0 1.32 0 2 0 C1.44271087 3.34373475 0.64826111 6.03312999 -1 9 C-1.66 9 -2.32 9 -3 9 C-3 9.66 -3 10.32 -3 11 C-4.79296875 12.5078125 -4.79296875 12.5078125 -7.1875 14.125 C-7.96480469 14.66382813 -8.74210937 15.20265625 -9.54296875 15.7578125 C-12.27108181 17.13704931 -13.98614999 17.24624707 -17 17 C-15.74179908 14.48359816 -14.85906031 14.38448062 -12.3125 13.3125 C-6.34620772 10.45253584 -2.77685373 5.91703412 0 0 Z " fill="#90C1DB" transform="translate(310,233)"/>
<path d="M0 0 C5.01707535 -0.04961356 10.03400635 -0.08582043 15.05126953 -0.10986328 C16.75637298 -0.1198914 18.46145936 -0.13351726 20.16650391 -0.15087891 C22.62406642 -0.17526803 25.08140061 -0.18651512 27.5390625 -0.1953125 C28.67379501 -0.21079636 28.67379501 -0.21079636 29.83145142 -0.22659302 C34.25461954 -0.22752066 37.96284019 0.12729935 42 2 C42.495 3.485 42.495 3.485 43 5 C41.87722656 4.51917969 40.75445313 4.03835937 39.59765625 3.54296875 C32.14305368 1.05810123 24.21340757 1.4244473 16.4375 1.3125 C14.8404677 1.27927239 13.24346123 1.24477784 11.64648438 1.20898438 C7.76446676 1.12470507 3.88250128 1.05760577 0 1 C0 0.67 0 0.34 0 0 Z " fill="#989EBF" transform="translate(677,92)"/>
<path d="M0 0 C0.66 0.33 1.32 0.66 2 1 C1.25556641 1.51046875 1.25556641 1.51046875 0.49609375 2.03125 C-4.14965601 5.34586463 -7.84919101 8.84366404 -11.45703125 13.265625 C-13 15 -13 15 -16 17 C-15.56285528 12.24184786 -13.81180864 10.44152756 -10.25 7.375 C-9.38890625 6.61960937 -8.5278125 5.86421875 -7.640625 5.0859375 C-5.16610699 3.13121469 -2.81338212 1.42582971 0 0 Z " fill="#ACAAC6" transform="translate(376,78)"/>
<path d="M0 0 C3 1 3 1 4.625 3.25 C7.84097716 6.97376303 11.64692039 8.81415874 16 11 C14.02 11.99 14.02 11.99 12 13 C8.125 10.25 8.125 10.25 7 8 C6.34 8 5.68 8 5 8 C5 7.34 5 6.68 5 6 C4.01 5.67 3.02 5.34 2 5 C0.8125 2.4375 0.8125 2.4375 0 0 Z " fill="#9FCAE1" transform="translate(24,238)"/>
<path d="M0 0 C5.46788524 2.0309288 9.73597333 4.01806456 13 9 C12.67 9.66 12.34 10.32 12 11 C11.38511719 10.51789063 10.77023437 10.03578125 10.13671875 9.5390625 C9.32847656 8.90742187 8.52023437 8.27578125 7.6875 7.625 C6.88699219 6.99851562 6.08648437 6.37203125 5.26171875 5.7265625 C3.55336788 4.42243282 1.78827274 3.19218183 0 2 C0 1.34 0 0.68 0 0 Z " fill="#9AC7DE" transform="translate(296,70)"/>
<path d="M0 0 C-4.06727245 2.91832543 -6.84915617 3.33790436 -11.8125 3.1875 C-13.55466797 3.14689453 -13.55466797 3.14689453 -15.33203125 3.10546875 C-16.21246094 3.07066406 -17.09289062 3.03585938 -18 3 C-18 2.67 -18 2.34 -18 2 C-15.56421213 1.46969932 -13.12694025 0.95047688 -10.6875 0.4375 C-9.65206055 0.21030273 -9.65206055 0.21030273 -8.59570312 -0.02148438 C-5.24455934 -0.71761569 -3.30465928 -1.10155309 0 0 Z " fill="#CBCAD7" transform="translate(432,182)"/>
<path d="M0 0 C-3.29324523 2.19549682 -6.48187121 4.17811188 -10 6 C-10.99 5.67 -11.98 5.34 -13 5 C-8.58490204 0.69258736 -6.42286118 -0.64228612 0 0 Z " fill="#86BCD7" transform="translate(42,70)"/>
<path d="M0 0 C4.57989423 -0.46733615 7.24854513 -0.17261016 10.9375 2.5 C11.948125 3.325 12.95875 4.15 14 5 C13.01 5.495 13.01 5.495 12 6 C10.1953125 5.29296875 10.1953125 5.29296875 8.125 4.1875 C7.10792969 3.65189453 7.10792969 3.65189453 6.0703125 3.10546875 C5.38710938 2.74066406 4.70390625 2.37585938 4 2 C2.66851465 1.32965011 1.33572063 0.66187054 0 0 Z " fill="#CCC4CF" transform="translate(424,93)"/>
<path d="M0 0 C0.66 0.33 1.32 0.66 2 1 C1.07038578 2.15224028 0.1309875 3.29659176 -0.8125 4.4375 C-1.59560547 5.39462891 -1.59560547 5.39462891 -2.39453125 6.37109375 C-4 8 -4 8 -7 9 C-5.44499019 5.18315774 -2.96404505 2.80804268 0 0 Z " fill="#FCD99C" transform="translate(1124,108)"/>
<path d="M0 0 C4.2742558 1.5830577 6.26531794 4.50568404 9 8 C6.5625 7.1875 6.5625 7.1875 4 6 C3.67 5.01 3.34 4.02 3 3 C2.34 3 1.68 3 1 3 C0.67 2.01 0.34 1.02 0 0 Z " fill="#C2DAC3" transform="translate(218,61)"/>
<path d="M0 0 C0.66 0 1.32 0 2 0 C1.44271087 3.34373475 0.64826111 6.03312999 -1 9 C-1.66 8.67 -2.32 8.34 -3 8 C-2.01 5.36 -1.02 2.72 0 0 Z " fill="#A6D0D4" transform="translate(310,233)"/>
</svg>
