<?xml version="1.0" encoding="UTF-8"?>
<svg version="1.1" xmlns="http://www.w3.org/2000/svg" width="1282" height="274">
<path d="M0 0 C52.47 0 104.94 0 159 0 C162.57925674 7.87436483 165.65669792 15.3698612 168.05273438 23.60742188 C168.84754484 25.98802287 169.56735004 27.93699548 171 30 C173.73342768 31.35659262 175.90893632 31.58418926 179 32 C182.51633548 33.75816774 183.79350008 34.69025013 186 38 C186.65940086 42.03275686 186.8464951 46.14451296 185.125 49.91796875 C182.07645833 53.97934828 178.73697671 54.81575582 174 56 C172.91950051 59.24149847 172.71429045 61.94667216 172.5 65.35546875 C172.4175 66.61810547 172.335 67.88074219 172.25 69.18164062 C172.16635182 70.5169074 172.08302084 71.85219408 172 73.1875 C171.00038212 88.97052923 171.00038212 88.97052923 170 96 C171.32 96.33 172.64 96.66 174 97 C174.20848384 106.51975481 173.57262943 115.78837635 172.5625 125.25 C171.44103967 136.16326954 170.544321 147.04258169 170 158 C169.84701611 160.64700705 169.67567063 163.29179383 169.5 165.9375 C169.4278125 167.06027344 169.355625 168.18304688 169.28125 169.33984375 C169 172 169 172 168 174 C167.80368104 175.37558727 167.65609242 176.75832529 167.53515625 178.14257812 C167.45837646 178.99686401 167.38159668 179.8511499 167.30249023 180.73132324 C167.18369507 182.11728699 167.18369507 182.11728699 167.0625 183.53125 C166.97750244 184.47810669 166.89250488 185.42496338 166.80493164 186.4005127 C166.53277501 189.43334724 166.2657763 192.46660006 166 195.5 C165.65040898 199.49000728 165.29560761 203.47949911 164.9375 207.46875 C164.81870483 208.85471375 164.81870483 208.85471375 164.69750977 210.26867676 C164.62072998 211.12296265 164.5439502 211.97724854 164.46484375 212.85742188 C164.399021 213.61083862 164.33319824 214.36425537 164.26538086 215.14050293 C164 217 164 217 163 219 C162.34 219 161.68 219 161 219 C160.98018066 219.96599121 160.96036133 220.93198242 160.93994141 221.92724609 C159.96079217 268.07841566 159.96079217 268.07841566 157 274 C130.18329394 274.09349222 103.36661236 274.16400326 76.54977608 274.20724869 C64.09790724 274.22786309 51.64613973 274.25596242 39.19433594 274.30175781 C28.33979215 274.34165971 17.48532176 274.36744096 6.63070667 274.37635398 C0.88466419 274.381563 -4.8611683 274.39378306 -10.6071434 274.42292023 C-16.01944833 274.45014211 -21.43145749 274.45843122 -26.84382439 274.45243073 C-28.82631095 274.45352793 -30.80880777 274.46144122 -32.79123497 274.4768219 C-45.78861787 274.57268551 -56.3067061 274.30294091 -66.24609375 264.92578125 C-74.05993566 256.34621764 -75.22788936 248.27679961 -74.8125 237 C-74.76158203 235.93265625 -74.71066406 234.8653125 -74.65820312 233.765625 C-74.37514942 227.0684573 -74.37514942 227.0684573 -77.44921875 221.375 C-78.29097656 220.59125 -79.13273437 219.8075 -80 219 C-81.60401128 215.79197745 -81.49163648 212.48026877 -81 209 C-79.0625 205.625 -79.0625 205.625 -77 203 C-76.505 202.01 -76.505 202.01 -76 201 C-76.30421875 200.45988281 -76.6084375 199.91976562 -76.921875 199.36328125 C-78.44009676 196.03529514 -78.21089023 192.77654225 -78.25 189.1875 C-78.32434365 183.77448268 -78.32434365 183.77448268 -80.39453125 178.88671875 C-81.490805 177.89314043 -82.58715684 176.89964826 -83.68359375 175.90625 C-86.7133876 171.51889273 -85.91566826 165.03022953 -85 160 C-82.60271572 156.21727221 -81.5427937 155.1899778 -77.25 153.6875 C-76.1775 153.460625 -75.105 153.23375 -74 153 C-74.04640625 152.37996094 -74.0928125 151.75992188 -74.140625 151.12109375 C-74.7137555 137.05892744 -69.94730981 124.72272106 -62.125 113.25 C-51.19150629 101.6733596 -37.4401819 93.40129619 -21.24609375 92.87890625 C-17.82814299 92.87545726 -14.41670267 92.91138235 -11 93 C-11.33 92.34 -11.66 91.68 -12 91 C-12.50090278 87.2240903 -12.75489881 83.42102659 -13.0625 79.625 C-13.15337891 78.58988281 -13.24425781 77.55476563 -13.33789062 76.48828125 C-13.93234413 69.31014343 -14.10881387 62.20106022 -14 55 C-15.258125 54.896875 -16.51625 54.79375 -17.8125 54.6875 C-21.73172854 54.19673241 -21.73172854 54.19673241 -23.875 52.625 C-27.20802495 47.81063063 -27.80888122 44.78054144 -27 39 C-25.37854397 35.81499709 -24.02671736 33.77888904 -21.1875 31.625 C-18.09681682 30.74194766 -15.1927746 30.87720098 -12 31 C-11.84144531 30.42894531 -11.68289062 29.85789062 -11.51953125 29.26953125 C-8.5783601 19.04855528 -4.75880889 9.51761777 0 0 Z " fill="#C69C6D" transform="translate(85,0)"/>
<path d="M0 0 C52.47 0 104.94 0 159 0 C162.57925674 7.87436483 165.65669792 15.3698612 168.05273438 23.60742188 C168.84754484 25.98802287 169.56735004 27.93699548 171 30 C173.73342768 31.35659262 175.90893632 31.58418926 179 32 C182.51633548 33.75816774 183.79350008 34.69025013 186 38 C186.37109375 40.26953125 186.37109375 40.26953125 186.4375 42.8125 C186.47746094 43.64394531 186.51742187 44.47539063 186.55859375 45.33203125 C185.77351779 49.0817297 183.93303086 51.62082892 181 54 C178.02147921 54.59555394 175.85548677 54.79429412 172.8842926 54.72825623 C172.07162695 54.73408834 171.2589613 54.73992046 170.42166942 54.7459293 C167.70033084 54.75814761 164.98118004 54.72750548 162.26000977 54.69702148 C160.30843955 54.69696609 158.35686775 54.69953877 156.40530396 54.70454407 C151.10546208 54.71054167 145.80641489 54.67934585 140.50673032 54.64129519 C134.96154336 54.60750641 129.41635248 54.60691643 123.87107849 54.60255432 C114.55738531 54.59059161 105.24398785 54.5567688 95.93041992 54.50756836 C82.79861071 54.43824274 69.6669343 54.40883217 56.53497231 54.38716781 C46.33709744 54.36885762 36.13924971 54.33944838 25.94140625 54.30859375 C24.8478486 54.30542231 23.75429095 54.30225088 22.62759519 54.29898334 C16.3387109 54.28014429 10.04989354 54.25574944 3.76106644 54.22286797 C1.85593458 54.21356017 -0.04920605 54.2058823 -1.95435143 54.19995499 C-4.55538516 54.19147744 -7.1563138 54.17688201 -9.75730896 54.16062927 C-10.88742556 54.15885946 -10.88742556 54.15885946 -12.04037279 54.15705389 C-16.12175229 54.12396816 -20.01991272 53.94065295 -24 53 C-26.72723452 50.09094985 -27.2355061 47.42644778 -27.4375 43.5625 C-27.28010724 39.06556393 -26.00811949 36.42591386 -23 33 C-19.59079146 30.41370387 -16.15494595 30.84019439 -12 31 C-11.84144531 30.42894531 -11.68289062 29.85789062 -11.51953125 29.26953125 C-8.5783601 19.04855528 -4.75880889 9.51761777 0 0 Z " fill="#6A6B6B" transform="translate(85,0)"/>
<path d="M0 0 C0.6506543 -0.00817749 1.30130859 -0.01635498 1.97167969 -0.02478027 C4.13906945 -0.04971165 6.30639251 -0.06618553 8.47387695 -0.08056641 C9.21673258 -0.08589008 9.9595882 -0.09121376 10.72495461 -0.09669876 C14.6703043 -0.12348624 18.61562201 -0.14282775 22.56103516 -0.15722656 C25.80546871 -0.17047113 29.04925906 -0.1981358 32.29345703 -0.23925781 C36.22398147 -0.28907676 40.15393027 -0.31340953 44.08475685 -0.32045364 C45.57206306 -0.32709674 47.05936002 -0.34213339 48.54648399 -0.36634445 C61.05932003 -0.55813922 72.19159038 1.17089698 82.2746582 9.25537109 C89.81589073 16.68478962 93.70030101 25.8537833 94.0871582 36.38037109 C93.95066179 45.38913413 89.89684996 53.70334783 83.7746582 60.19287109 C82.46412764 61.22257368 81.1356207 62.2308114 79.7746582 63.19287109 C80.48750977 63.66595703 81.20036133 64.13904297 81.93481445 64.62646484 C89.78250554 70.04485721 97.32436473 76.29351649 100.3371582 85.70849609 C102.4608645 97.76811402 101.06180832 109.29573527 94.0246582 119.50537109 C86.65093349 128.51974956 76.82478597 132.39194426 65.7746582 135.19287109 C63.35242338 135.36282286 60.92232871 135.43858212 58.49414062 135.43579102 C57.80382751 135.43768936 57.1135144 135.43958771 56.40228271 135.44154358 C54.144778 135.44521669 51.88760252 135.43460132 49.63012695 135.42333984 C48.05308571 135.42214648 46.47604375 135.42169521 44.89900208 135.42195129 C41.60661318 135.42039269 38.31433398 135.41214736 35.02197266 135.39868164 C30.79728113 135.3816227 26.57270912 135.37786964 22.34798717 135.37862682 C19.09756831 135.37835539 15.84717568 135.37287967 12.59676552 135.36562538 C11.03820303 135.36244019 9.47963757 135.36047165 7.92107201 135.35973167 C5.75006371 135.35757047 3.57918393 135.34883312 1.40820312 135.33813477 C-0.44542595 135.33241707 -0.44542595 135.33241707 -2.33650208 135.32658386 C-5.2253418 135.19287109 -5.2253418 135.19287109 -7.2253418 134.19287109 C-7.2486703 116.86909757 -7.26632073 99.54532893 -7.27715397 82.22154331 C-7.28231703 74.17837055 -7.28935992 66.13520753 -7.30078125 58.09204102 C-7.31072778 51.08414149 -7.31719515 44.07624901 -7.31943029 37.06834263 C-7.32073745 33.35543917 -7.32382364 29.6425559 -7.33107185 25.92965889 C-7.33908511 21.79155699 -7.33933296 17.65349049 -7.33886719 13.51538086 C-7.34246246 12.27532791 -7.34605774 11.03527496 -7.34976196 9.75764465 C-7.3483873 8.6371875 -7.34701263 7.51673035 -7.34559631 6.36231995 C-7.34651811 5.382454 -7.3474399 4.40258806 -7.34838963 3.39302921 C-7.09458734 -1.14508554 -3.85784816 0.04199801 0 0 Z M19.7746582 22.19287109 C19.7746582 33.41287109 19.7746582 44.63287109 19.7746582 56.19287109 C25.1990332 56.29599609 30.6234082 56.39912109 36.2121582 56.50537109 C37.90526123 56.55089111 39.59836426 56.59641113 41.34277344 56.64331055 C49.33686772 56.76890685 56.42752729 56.71758413 62.7746582 51.19287109 C66.65719373 46.77985957 67.42260785 42.43790003 67.1574707 36.62255859 C66.32263776 31.323925 64.00964219 28.17056675 59.7746582 24.81787109 C54.86768827 22.15992905 50.67903581 22.05445544 45.1652832 22.09521484 C44.52059082 22.09622192 43.87589844 22.097229 43.21166992 22.0982666 C40.81598111 22.10347707 38.42031777 22.11743829 36.0246582 22.13037109 C30.6621582 22.15099609 25.2996582 22.17162109 19.7746582 22.19287109 Z M19.7746582 75.19287109 C19.7746582 87.40287109 19.7746582 99.61287109 19.7746582 112.19287109 C25.18286068 112.26201005 30.58950928 112.32166193 35.99780273 112.35766602 C37.83476987 112.37268606 39.67170154 112.39310818 41.50854492 112.41918945 C44.15983875 112.45587312 46.81065552 112.47266547 49.4621582 112.48583984 C50.27394531 112.5013237 51.08573242 112.51680756 51.92211914 112.53276062 C58.15506795 112.53457084 63.88842514 111.60262925 68.83325195 107.47412109 C69.51581055 106.59240234 69.51581055 106.59240234 70.2121582 105.69287109 C70.68524414 105.10505859 71.15833008 104.51724609 71.64575195 103.91162109 C74.72938192 99.21682115 74.406962 93.57480576 73.7746582 88.19287109 C72.02826518 83.26379919 69.38309571 80.19923947 64.7746582 77.75537109 C59.11140924 75.20919263 53.54309707 75.05348458 47.41137695 75.09521484 C46.70871704 75.09622192 46.00605713 75.097229 45.28210449 75.0982666 C42.67543896 75.10347009 40.06879682 75.11743123 37.4621582 75.13037109 C28.7068457 75.16130859 28.7068457 75.16130859 19.7746582 75.19287109 Z " fill="#1557B1" transform="translate(626.225341796875,70.80712890625)"/>
<path d="M0 0 C0.33 0.66 0.66 1.32 1 2 C0.34 2 -0.32 2 -1 2 C-1.01981934 2.96599121 -1.03963867 3.93198242 -1.06005859 4.92724609 C-2.03920783 51.07841566 -2.03920783 51.07841566 -5 57 C-31.90308617 57.0466932 -58.80616627 57.0819757 -85.70928478 57.10362434 C-98.20049073 57.11394276 -110.69167152 57.1280139 -123.18286133 57.15087891 C-134.06848632 57.17079547 -144.9540931 57.18371233 -155.83973581 57.18817699 C-161.60511137 57.1907873 -167.37043481 57.19693445 -173.13579369 57.21146011 C-178.56033617 57.2250166 -183.98480497 57.22922654 -189.40936279 57.22621536 C-191.40200005 57.22676639 -193.39463972 57.23075531 -195.38726234 57.23841095 C-198.10500153 57.24834188 -200.82246144 57.2459756 -203.54020691 57.24050903 C-204.331069 57.24633472 -205.12193109 57.2521604 -205.9367587 57.25816262 C-210.06606777 57.23566891 -213.28592846 56.85578608 -217 55 C-213.25 53.875 -213.25 53.875 -211 55 C-209.36664808 55.11872573 -207.72872646 55.17709092 -206.09130859 55.20532227 C-205.07040131 55.22526749 -204.04949402 55.24521271 -202.99765015 55.26576233 C-201.89240997 55.28247482 -200.7871698 55.29918732 -199.6484375 55.31640625 C-197.95468491 55.3475779 -197.95468491 55.3475779 -196.22671509 55.37937927 C-192.60954028 55.44491335 -188.99229119 55.50377774 -185.375 55.5625 C-182.92707556 55.60568154 -180.47915872 55.64929571 -178.03125 55.69335938 C-172.0209125 55.80059867 -166.01050065 55.90235787 -160 56 C-160.08564209 55.11554199 -160.17128418 54.23108398 -160.25952148 53.31982422 C-161.93354059 35.887871 -163.45685222 18.51183351 -164 1 C-160.91660069 0.97213796 -157.83347004 0.9527647 -154.75 0.9375 C-153.91597656 0.92912109 -153.08195312 0.92074219 -152.22265625 0.91210938 C-147.14318223 0.89357115 -142.10327195 1.03978377 -137.0329895 1.35296631 C-120.23455295 2.36013512 -103.39975028 2.19612847 -86.57786179 2.18847656 C-83.85855671 2.18749406 -81.13925729 2.18848263 -78.41995239 2.18969727 C-52.23544367 2.19405809 -26.12970189 1.86658457 0 0 Z " fill="#F0E7E8" transform="translate(247,217)"/>
<path d="M0 0 C66 0.33 132 0.66 200 1 C198.68 1.66 197.36 2.32 196 3 C194.91950051 6.24149847 194.71429045 8.94667216 194.5 12.35546875 C194.4175 13.61810547 194.335 14.88074219 194.25 16.18164062 C194.16635182 17.5169074 194.08302084 18.85219408 194 20.1875 C193.00038212 35.97052923 193.00038212 35.97052923 192 43 C193.32 43.33 194.64 43.66 196 44 C196.10920422 51.74136601 195.97159933 59.31395526 195 67 C194.67 67 194.34 67 194 67 C193.97247023 65.02091515 193.95336998 63.04171269 193.9375 61.0625 C193.92589844 59.96035156 193.91429687 58.85820313 193.90234375 57.72265625 C193.97778575 54.84680716 194.17632341 52.11667976 194.50610352 49.26733398 C194.59803482 48.46561264 194.68996613 47.6638913 194.78468323 46.83787537 C194.85573776 46.2313765 194.9267923 45.62487762 195 45 C194.19346481 45.03758423 193.38692963 45.07516846 192.55595398 45.1138916 C132.25893871 47.9097665 72.29014269 49.53580154 12 45 C11.505 43.515 11.505 43.515 11 42 C4.07 41.505 4.07 41.505 -3 41 C-3 40.67 -3 40.34 -3 40 C1.62 40 6.24 40 11 40 C10.67 39.34 10.34 38.68 10 38 C9.49909722 34.2240903 9.24510119 30.42102659 8.9375 26.625 C8.84662109 25.58988281 8.75574219 24.55476563 8.66210938 23.48828125 C8.06765587 16.31014343 7.89118613 9.20106022 8 2 C5.36 1.67 2.72 1.34 0 1 C0 0.67 0 0.34 0 0 Z " fill="#EFE6E7" transform="translate(63,53)"/>
<path d="M0 0 C1.5610144 -0.02114868 1.5610144 -0.02114868 3.15356445 -0.04272461 C13.51852731 0.02175543 23.18620743 2.15307439 32.4375 6.875 C33.44478149 7.38776489 33.44478149 7.38776489 34.47241211 7.91088867 C49.14614679 15.77163118 57.66120281 27.98619216 63.58984375 43.33203125 C64.47489387 46.50923881 64.6722343 49.09351036 64.4375 52.375 C62.72665499 54.08584501 60.49389907 53.50514689 58.16015625 53.5078125 C57.08958984 53.50910156 56.01902344 53.51039062 54.91601562 53.51171875 C53.78873047 53.50785156 52.66144531 53.50398438 51.5 53.5 C50.37658203 53.50386719 49.25316406 53.50773437 48.09570312 53.51171875 C47.02384766 53.51042969 45.95199219 53.50914063 44.84765625 53.5078125 C43.85902588 53.50668457 42.87039551 53.50555664 41.85180664 53.50439453 C39.4375 53.375 39.4375 53.375 37.4375 52.375 C36.86682832 50.7457767 36.35630382 49.09532428 35.875 47.4375 C32.89603135 38.98426424 27.40985284 32.63510972 19.5 28.375 C8.65255924 23.62294778 -3.2343937 22.89577084 -14.5625 26.375 C-27.09653542 31.61996299 -34.73909184 38.28969203 -40.63671875 50.62109375 C-45.76082369 63.44385392 -44.85845122 79.35111383 -39.4609375 91.9453125 C-34.27557196 101.814234 -27.29127977 108.81533969 -16.53125 112.37890625 C-13.55404282 113.15703995 -10.58410896 113.79603437 -7.5625 114.375 C-6.304375 114.66375 -5.04625 114.9525 -3.75 115.25 C5.03712729 116.15266087 16.16397909 113.26870531 23.4375 108.375 C24.03820312 107.97796875 24.63890625 107.5809375 25.2578125 107.171875 C32.13714114 101.99004304 35.31621044 94.17822391 38.4375 86.375 C47.0175 86.375 55.5975 86.375 64.4375 86.375 C62.77530614 102.99693855 56.01362704 115.40568805 43.2578125 126.30859375 C38.00696299 130.15582282 32.40937941 132.87212763 26.4375 135.375 C24.88869141 136.02855469 24.88869141 136.02855469 23.30859375 136.6953125 C10.01049509 141.36188455 -7.10659893 141.45877784 -20.5625 137.375 C-21.49835938 137.09140625 -22.43421875 136.8078125 -23.3984375 136.515625 C-41.54065209 130.15189434 -56.87762309 117.41712848 -65.4375 100.0625 C-73.40285755 80.47509052 -73.86242021 61.3987101 -66.125 41.71875 C-57.35651279 22.6641528 -42.11503094 9.64894318 -22.65625 2.2734375 C-15.20264399 0.12952394 -7.71104543 0.07647037 0 0 Z " fill="#1155B0" transform="translate(381.5625,68.625)"/>
<path d="M0 0 C0.98484375 -0.00128906 1.9696875 -0.00257812 2.984375 -0.00390625 C4.02078125 -0.00003906 5.0571875 0.00382812 6.125 0.0078125 C7.67960937 0.00201172 7.67960937 0.00201172 9.265625 -0.00390625 C10.25046875 -0.00261719 11.2353125 -0.00132813 12.25 0 C13.16007812 0.00112793 14.07015625 0.00225586 15.0078125 0.00341797 C17.125 0.1328125 17.125 0.1328125 18.125 1.1328125 C18.22352467 2.90210207 18.25132089 4.67535715 18.25198364 6.4473877 C18.25621338 8.17639061 18.25621338 8.17639061 18.26052856 9.94032288 C18.25749222 11.85415016 18.25749222 11.85415016 18.25439453 13.80664062 C18.25574856 15.15490262 18.2575285 16.50316425 18.25970459 17.85142517 C18.26427873 21.52281278 18.26248945 25.19417241 18.2593255 28.86556053 C18.2568018 32.69947767 18.25913947 36.53339234 18.26071167 40.36730957 C18.26253334 46.80688916 18.26012713 53.2464573 18.25537109 59.68603516 C18.24992848 67.14153413 18.25169114 74.59700576 18.2571975 82.05250406 C18.26172871 88.44229826 18.26237914 94.8320842 18.25975883 101.22187948 C18.2581961 105.04319298 18.25800217 108.8644936 18.26129532 112.68580627 C18.26417416 116.27755075 18.26219812 119.86925981 18.25640106 123.46100044 C18.25443793 125.41576717 18.25742727 127.37053687 18.26052856 129.32530212 C18.25770874 130.47797073 18.25488892 131.63063934 18.25198364 132.8182373 C18.2514181 134.33033405 18.2514181 134.33033405 18.25084114 135.87297821 C18.125 138.1328125 18.125 138.1328125 17.125 139.1328125 C15.66021494 139.23164586 14.19077042 139.26360539 12.72265625 139.265625 C11.83255859 139.26691406 10.94246094 139.26820313 10.02539062 139.26953125 C9.08888672 139.26566406 8.15238281 139.26179687 7.1875 139.2578125 C6.25486328 139.26167969 5.32222656 139.26554688 4.36132812 139.26953125 C3.46994141 139.26824219 2.57855469 139.26695312 1.66015625 139.265625 C0.839104 139.26449707 0.01805176 139.26336914 -0.82788086 139.26220703 C-2.875 139.1328125 -2.875 139.1328125 -4.875 138.1328125 C-5.2890625 135.41015625 -5.2890625 135.41015625 -5.5 132.0703125 C-5.61214844 130.41322266 -5.61214844 130.41322266 -5.7265625 128.72265625 C-5.77554687 127.86800781 -5.82453125 127.01335937 -5.875 126.1328125 C-6.52855469 126.82117188 -6.52855469 126.82117188 -7.1953125 127.5234375 C-10.83728837 131.27577628 -14.29567998 134.52888543 -18.875 137.1328125 C-19.50019531 137.50535156 -20.12539062 137.87789062 -20.76953125 138.26171875 C-31.31035109 143.55981909 -45.50811329 142.68052211 -56.5 139.1328125 C-69.6235292 133.63386893 -79.38799555 123.11878768 -84.84375 110.05078125 C-90.53804455 93.93851599 -89.95957239 78.72833377 -83.58984375 62.94921875 C-76.90781204 49.82712304 -66.89415014 40.75524284 -53.03125 36.08984375 C-42.58188766 33.34202953 -29.79190481 33.2559032 -20.21484375 38.56640625 C-9.29333811 45.87779817 -9.29333811 45.87779817 -7.875 50.1328125 C-7.215 50.1328125 -6.555 50.1328125 -5.875 50.1328125 C-5.87722061 49.52115738 -5.87944122 48.90950226 -5.88172913 48.27931213 C-5.90378122 41.93710919 -5.91890627 35.59491706 -5.92993164 29.25268555 C-5.93497341 26.88288938 -5.94180665 24.51309635 -5.95043945 22.14331055 C-5.9625119 18.74527211 -5.96822971 15.34727465 -5.97265625 11.94921875 C-5.97781754 10.88256485 -5.98297882 9.81591095 -5.98829651 8.7169342 C-5.98837204 7.73599289 -5.98844757 6.75505157 -5.98852539 5.74438477 C-5.990746 4.87612564 -5.99296661 4.00786652 -5.99525452 3.11329651 C-5.75703991 -0.80988441 -3.36925827 0.00417578 0 0 Z M-58.375 70.15625 C-62.29336746 76.14511844 -63.07217655 80.79433747 -63.125 87.9453125 C-63.145625 88.63173828 -63.16625 89.31816406 -63.1875 90.02539062 C-63.244266 97.52559801 -60.41885101 103.16089403 -55.875 109.1328125 C-50.12424935 114.88356315 -43.07677898 118.25883201 -34.875 118.6328125 C-25.46102367 118.17539359 -18.24300608 113.86933745 -11.875 107.1328125 C-6.1623353 100.06714827 -5.00923654 91.96909675 -5.875 83.1328125 C-7.43094212 75.24850074 -11.5173261 69.4904864 -17.125 63.8828125 C-31.1299103 54.97059685 -48.02176891 56.19017265 -58.375 70.15625 Z " fill="#109044" transform="translate(1263.875,66.8671875)"/>
<path d="M0 0 C4.14581887 -0.02886751 8.29161216 -0.04675327 12.4375 -0.0625 C14.21350586 -0.07506836 14.21350586 -0.07506836 16.02539062 -0.08789062 C17.15009766 -0.09111328 18.27480469 -0.09433594 19.43359375 -0.09765625 C20.47572021 -0.10289307 21.51784668 -0.10812988 22.59155273 -0.11352539 C25 0 25 0 26 1 C26.1038916 3.64994199 26.14361376 6.27466788 26.1418457 8.92529297 C26.14705734 10.17184914 26.14705734 10.17184914 26.15237427 11.44358826 C26.15974764 13.2562378 26.16508455 15.06889646 26.16866493 16.88155746 C26.17582048 19.75795569 26.19148414 22.63418233 26.21000671 25.51052856 C26.26249059 33.6918896 26.31037135 41.8731621 26.32592773 50.0546875 C26.33605997 55.05514031 26.36552701 60.05516947 26.40724754 65.05545425 C26.41949904 66.95543321 26.42468958 68.85547222 26.42244911 70.75548935 C26.41093549 83.7180005 26.53065936 95.45704002 36.09765625 105.34765625 C42.29588426 110.73133274 49.87496018 112.6990726 58 113 C64.49228628 112.10397017 70.26028504 110.17194774 76 107 C76.66 107 77.32 107 78 107 C78.495 105.515 78.495 105.515 79 104 C79.598125 103.484375 80.19625 102.96875 80.8125 102.4375 C87.8699034 94.57353621 88.12699028 83.60862828 88.20532227 73.56445312 C88.21522186 72.76349213 88.22512146 71.96253113 88.23532104 71.13729858 C88.26663264 68.51864466 88.291572 65.89997266 88.31640625 63.28125 C88.33700206 61.45421914 88.35799918 59.62719275 88.37937927 57.8001709 C88.43432881 53.01301729 88.48385663 48.22582264 88.53222656 43.43859863 C88.58264075 38.5449665 88.63822241 33.6513933 88.69335938 28.7578125 C88.80060879 19.17192546 88.90212623 9.58598704 89 0 C93.14581887 -0.02886751 97.29161216 -0.04675327 101.4375 -0.0625 C102.62150391 -0.07087891 103.80550781 -0.07925781 105.02539062 -0.08789062 C106.15009766 -0.09111328 107.27480469 -0.09433594 108.43359375 -0.09765625 C109.47572021 -0.10289307 110.51784668 -0.10812988 111.59155273 -0.11352539 C114 0 114 0 115 1 C115.11118734 3.73630311 115.1573973 6.44759573 115.16113281 9.18481445 C115.16858017 10.47285225 115.16858017 10.47285225 115.17617798 11.78691101 C115.19085383 14.64570912 115.19761449 17.50445155 115.203125 20.36328125 C115.20887691 22.35092673 115.21463464 24.3385722 115.22039795 26.32621765 C115.23092666 30.50695047 115.23675545 34.68766398 115.24023438 38.8684082 C115.24568923 44.19992116 115.26964433 49.53117484 115.29820633 54.862607 C115.31693683 58.97642224 115.32204407 63.09017673 115.32357025 67.20403099 C115.32657951 69.16742541 115.33454902 71.13081921 115.34775543 73.09417152 C115.46389746 91.70653005 113.51240626 106.80612309 100.1796875 120.81640625 C86.99260258 134.02712394 72.15404689 137.27270165 54.1875 137.32128906 C46.07689781 137.23035201 39.480083 136.30274434 32 133 C31.28585937 132.72285156 30.57171875 132.44570312 29.8359375 132.16015625 C17.51377828 126.83364519 7.70403608 115.91701081 2.5625 103.6875 C0.07709506 97.12291027 -0.14289596 90.70961479 -0.11352539 83.78173828 C-0.11367142 82.87378006 -0.11381744 81.96582184 -0.1139679 81.03034973 C-0.11327391 78.04364594 -0.10550563 75.05700533 -0.09765625 72.0703125 C-0.09579024 69.99380528 -0.0943672 67.91729761 -0.09336853 65.84078979 C-0.08955774 60.38609595 -0.07973975 54.9314289 -0.06866455 49.47674561 C-0.05841949 43.90637576 -0.05386428 38.33600156 -0.04882812 32.765625 C-0.03811617 21.84373825 -0.02105704 10.92187136 0 0 Z " fill="#1557B1" transform="translate(471,71)"/>
<path d="M0 0 C11.94118119 8.95588589 19.0241146 20.72304385 21.6484375 35.3125 C23.66772265 50.74881312 20.38685923 65.2084517 10.99609375 77.65625 C2.73333535 87.47104709 -9.073666 95.37669294 -22 97 C-36.77361277 98.04976861 -50.86321118 97.76450002 -63.125 88.4375 C-64.42799958 87.30457065 -65.71968509 86.15850357 -67 85 C-67.81082031 84.39414063 -68.62164063 83.78828125 -69.45703125 83.1640625 C-78.25562037 75.67647668 -83.3336732 64.63733117 -85.75 53.5625 C-86.97468529 36.11073468 -84.16842895 21.80775424 -72.82421875 8.12109375 C-54.29602742 -13.0089013 -22.9221167 -14.96486761 0 0 Z M-55 25 C-60.65135677 33.78917405 -61.14499286 43.37434756 -59.609375 53.6015625 C-57.66540372 60.65468906 -52.89538082 66.68192912 -46.6171875 70.41796875 C-37.95320206 74.37823932 -30.11774183 75.2481685 -21.09765625 71.90625 C-14.53866918 69.07257216 -9.1185036 64.39302103 -5.9921875 57.91015625 C-2.18919833 47.99653884 -2.13981361 39.88340825 -6 30 C-9.77402649 22.99109366 -15.66465942 18.02981459 -23 15 C-34.87628371 11.5621284 -47.03778682 15.70449169 -55 25 Z " fill="#129147" transform="translate(1136,111)"/>
<path d="M0 0 C10.71146137 8.2408118 19.38317815 19.32826652 21.625 33.01953125 C22.81213942 48.14128312 22.62800685 62.24595314 13.3125 74.89453125 C12.10925253 76.29226915 10.87986181 77.66794051 9.625 79.01953125 C9.00625 79.71691406 8.3875 80.41429687 7.75 81.1328125 C-1.39584122 90.92402558 -12.99265064 96.60658398 -26.41796875 97.40234375 C-42.79005321 97.9481292 -55.81708796 94.83612099 -68.625 84.140625 C-78.56434305 74.82249089 -84.82435138 61.95238526 -85.578125 48.35546875 C-85.78596043 30.79337533 -81.4369617 17.47008745 -69.0703125 4.53125 C-50.43039727 -12.83898985 -20.86167965 -14.40304918 0 0 Z M-55.375 26.01953125 C-60.39724349 33.49326562 -61.1567718 42.54655724 -59.6875 51.26953125 C-57.53040287 60.150048 -52.79626275 65.81060077 -45.375 71.01953125 C-38.07053018 74.76883553 -30.29065931 74.62646961 -22.375 73.01953125 C-14.54343881 70.19081811 -9.66386812 64.9658556 -5.5625 57.89453125 C-2.12836019 49.58029803 -2.10663652 39.50815644 -5.32421875 31.12109375 C-9.21985314 23.32982497 -14.4645591 18.57115778 -22.375 15.01953125 C-35.49033195 11.22298779 -46.70138803 16.06152701 -55.375 26.01953125 Z " fill="#149248" transform="translate(1010.375,110.98046875)"/>
<path d="M0 0 C30.36 0 60.72 0 92 0 C93.13127933 2.26255865 93.12890585 3.51787909 93.1328125 6.02734375 C93.13410156 6.81947266 93.13539063 7.61160156 93.13671875 8.42773438 C93.13285156 9.25595703 93.12898437 10.08417969 93.125 10.9375 C93.12886719 11.76185547 93.13273438 12.58621094 93.13671875 13.43554688 C93.13542969 14.22896484 93.13414062 15.02238281 93.1328125 15.83984375 C93.13168457 16.56550537 93.13055664 17.29116699 93.12939453 18.03881836 C93 20 93 20 92 23 C88.74628455 24.08457182 86.3910068 24.12046857 82.96801758 24.11352539 C81.72695755 24.11344986 80.48589752 24.11337433 79.20722961 24.11329651 C77.85299642 24.10818991 76.49876363 24.10297391 75.14453125 24.09765625 C73.75876415 24.09579083 72.37299639 24.09436751 70.98722839 24.09336853 C67.3425209 24.0895531 63.69785335 24.07973113 60.05316162 24.06866455 C56.33297272 24.0584295 52.61277716 24.05381162 48.89257812 24.04882812 C41.59501682 24.03863885 34.29756516 24.01906476 27 24 C26.67 36.21 26.34 48.42 26 61 C44.81 61 63.62 61 83 61 C83 67.93 83 74.86 83 82 C80.42866541 83.28566729 78.602829 83.12009778 75.72412109 83.11352539 C74.07263565 83.11341209 74.07263565 83.11341209 72.38778687 83.11329651 C71.19505157 83.10813522 70.00231628 83.10297394 68.7734375 83.09765625 C67.55548492 83.0962413 66.33753235 83.09482635 65.08267212 83.09336853 C61.1800901 83.08775639 57.27756477 83.07520179 53.375 83.0625 C50.73437583 83.05748657 48.09375076 83.05292339 45.453125 83.04882812 C38.96871041 83.0386325 32.48441891 83.01905936 26 83 C26 99.83 26 116.66 26 134 C23.45724451 135.27137774 21.65191799 135.129425 18.80859375 135.1328125 C17.78185547 135.13410156 16.75511719 135.13539063 15.69726562 135.13671875 C14.62154297 135.13285156 13.54582031 135.12898437 12.4375 135.125 C11.35791016 135.12886719 10.27832031 135.13273438 9.16601562 135.13671875 C7.6278418 135.13478516 7.6278418 135.13478516 6.05859375 135.1328125 C5.11298584 135.13168457 4.16737793 135.13055664 3.19311523 135.12939453 C1 135 1 135 0 134 C-0.09627113 132.26640402 -0.12187568 130.52885354 -0.12025452 128.79258728 C-0.12162918 127.66371597 -0.12300385 126.53484467 -0.12442017 125.37176514 C-0.12082489 124.12236145 -0.11722961 122.87295776 -0.11352539 121.58569336 C-0.11367142 120.27856888 -0.11381744 118.9714444 -0.1139679 117.62471008 C-0.11425586 114.02982901 -0.10835928 110.43498103 -0.10139394 106.84010768 C-0.09516026 103.08713748 -0.09455659 99.3341666 -0.09336853 95.58119202 C-0.09025526 88.46969174 -0.08204192 81.35820675 -0.07201904 74.24671322 C-0.0587725 64.64027711 -0.05335796 55.03383685 -0.04751682 45.42739391 C-0.03810203 30.28491781 -0.01818309 15.14247399 0 0 Z " fill="#018C3C" transform="translate(816,71)"/>
<path d="M0 0 C0.52378235 0.16265854 1.0475647 0.32531708 1.58721924 0.49290466 C4.63838255 1.13416918 7.48521807 1.11938869 10.60449219 1.11352539 C11.25856552 1.11367142 11.91263885 1.11381744 12.58653259 1.1139679 C14.74001426 1.11327341 16.89340852 1.10550283 19.046875 1.09765625 C20.54331414 1.09579042 22.03975388 1.09436729 23.53619385 1.09336853 C27.46858415 1.08955635 31.40093732 1.07973717 35.33331299 1.06866455 C39.34850563 1.05842249 43.3637043 1.05386492 47.37890625 1.04882812 C55.25262307 1.03811372 63.12630264 1.02052745 71 1 C71.495 9.91 71.495 9.91 72 19 C72.66 19 73.32 19 74 19 C75.07143913 23.6005459 75.40662083 28.18938476 75.75390625 32.88671875 C75.81907944 33.74376907 75.88425262 34.6008194 75.95140076 35.48384094 C76.08821012 37.29501906 76.22343457 39.1063175 76.35717773 40.91772461 C76.56053944 43.66105219 76.7711394 46.40375685 76.98242188 49.14648438 C77.11502409 50.91402949 77.24719899 52.68160672 77.37890625 54.44921875 C77.44139053 55.2568718 77.50387482 56.06452484 77.56825256 56.89665222 C77.98215343 62.60571194 78.06748468 68.27700717 78 74 C70.9383037 74.07655567 63.87671587 74.12881072 56.81469727 74.16479492 C54.41621908 74.17980862 52.01776801 74.20022579 49.61938477 74.22631836 C46.15634436 74.26302904 42.6936694 74.27980116 39.23046875 74.29296875 C38.17168015 74.30845261 37.11289154 74.32393646 36.02201843 74.33988953 C26.05801836 74.34210254 17.08891885 73.11966708 9.71875 65.9609375 C1.1746032 56.21284274 0.74472961 47.28136402 1.34179688 34.765625 C1.62485058 28.0684573 1.62485058 28.0684573 -1.44921875 22.375 C-2.29097656 21.59125 -3.13273438 20.8075 -4 20 C-5.6035194 16.7929612 -5.4933647 13.47951949 -5 10 C-3.0625 6.75 -3.0625 6.75 -1 4 C-0.23060319 1.77397385 -0.23060319 1.77397385 0 0 Z " fill="#DD8128" transform="translate(9,199)"/>
<path d="M0 0 C0.76336432 -0.00412327 1.52672864 -0.00824653 2.31322521 -0.01249474 C4.87356383 -0.02143124 7.43288078 -0.00175684 9.9931488 0.01777649 C11.82808557 0.01726774 13.66302257 0.01501232 15.49795532 0.01113892 C20.4860469 0.00571114 25.47376817 0.02515852 30.46179318 0.04923987 C35.68568859 0.07052761 40.90958251 0.06994113 46.1335144 0.07192993 C54.91426462 0.07838279 63.69487582 0.0996419 72.47557068 0.13105774 C83.72476646 0.17125404 94.97387135 0.18873289 106.22313023 0.19836712 C115.91059183 0.20669349 125.59803441 0.22392699 135.28547931 0.24340463 C137.3601586 0.24744589 139.43483849 0.25118662 141.50951886 0.25462699 C147.43347919 0.26446441 153.3573862 0.27905381 159.28131294 0.30146599 C161.07146728 0.30754766 162.86162797 0.31202021 164.65179062 0.31470871 C189.59331946 0.35565404 189.59331946 0.35565404 194.64329529 3.42524719 C197.16567022 7.68719104 197.68874289 11.66474628 196.45579529 16.48774719 C194.83637122 18.96896955 193.70194233 20.65799826 191.45579529 22.48774719 C188.4772745 23.08330114 186.31128206 23.28204132 183.34008789 23.21600342 C182.52742224 23.22183553 181.71475659 23.22766765 180.87746471 23.23367649 C178.15612613 23.2458948 175.43697533 23.21525267 172.71580505 23.18476868 C170.76423484 23.18471329 168.81266304 23.18728596 166.86109924 23.19229126 C161.56125737 23.19828886 156.26221018 23.16709304 150.96252561 23.12904239 C145.41733865 23.0952536 139.87214777 23.09466362 134.32687378 23.09030151 C125.0131806 23.07833881 115.69978313 23.04451599 106.38621521 22.99531555 C93.254406 22.92598993 80.12272959 22.89657936 66.9907676 22.874915 C56.79289273 22.85660481 46.595045 22.82719557 36.39720154 22.79634094 C35.30364389 22.79316951 34.21008624 22.78999807 33.08339047 22.78673053 C26.79450619 22.76789148 20.50568883 22.74349663 14.21686172 22.71061516 C12.31172987 22.70130736 10.40658924 22.69362949 8.50144386 22.68770218 C5.90041013 22.67922463 3.29948149 22.6646292 0.69848633 22.64837646 C-0.43163027 22.64660665 -0.43163027 22.64660665 -1.5845775 22.64480108 C-5.665957 22.61171535 -9.56411744 22.42840014 -13.54420471 21.48774719 C-16.30949425 18.53810502 -16.80171435 15.78088097 -17.04420471 11.86274719 C-16.96607971 9.49946594 -16.96607971 9.49946594 -16.54420471 7.48774719 C-14.29420471 5.67524719 -14.29420471 5.67524719 -11.54420471 4.48774719 C-10.98308518 3.81331479 -10.42196566 3.13888239 -9.84384251 2.44401264 C-6.69516299 -0.23451915 -3.94599072 -0.06076357 0 0 Z " fill="#4E4E4E" transform="translate(74.54420471191406,31.512252807617188)"/>
<path d="M0 0 C1.12019531 -0.00128906 2.24039063 -0.00257812 3.39453125 -0.00390625 C4.57402344 -0.00003906 5.75351562 0.00382812 6.96875 0.0078125 C8.73798828 0.00201172 8.73798828 0.00201172 10.54296875 -0.00390625 C12.22326172 -0.00197266 12.22326172 -0.00197266 13.9375 0 C14.97326172 0.00112793 16.00902344 0.00225586 17.07617188 0.00341797 C19.46875 0.1328125 19.46875 0.1328125 20.46875 1.1328125 C20.56499593 2.85373903 20.59062598 4.57864632 20.58900452 6.30226135 C20.59037918 7.42271851 20.59175385 8.54317566 20.59317017 9.69758606 C20.58957489 10.93763901 20.58597961 12.17769196 20.58227539 13.45532227 C20.58242142 14.75269318 20.58256744 16.05006409 20.5827179 17.38674927 C20.58300586 20.95477179 20.57710932 24.52276098 20.57014394 28.09077573 C20.56391021 31.8157187 20.56330659 35.54066236 20.56211853 39.26560974 C20.55900527 46.32398613 20.55079195 53.3823471 20.54076904 60.44071668 C20.52960774 68.47444221 20.52409741 76.50816846 20.51907361 84.5418998 C20.50860934 101.07221307 20.49101 117.60251082 20.46875 134.1328125 C17.93428127 135.40004687 16.14648046 135.26222578 13.3125 135.265625 C12.29027344 135.26691406 11.26804687 135.26820313 10.21484375 135.26953125 C9.14363281 135.26566406 8.07242188 135.26179687 6.96875 135.2578125 C5.36193359 135.26361328 5.36193359 135.26361328 3.72265625 135.26953125 C2.70042969 135.26824219 1.67820312 135.26695312 0.625 135.265625 C-0.31537109 135.26449707 -1.25574219 135.26336914 -2.22460938 135.26220703 C-4.53125 135.1328125 -4.53125 135.1328125 -6.53125 134.1328125 C-6.5545785 116.80903898 -6.57222893 99.48527034 -6.58306217 82.16148472 C-6.58822523 74.11831196 -6.59526812 66.07514893 -6.60668945 58.03198242 C-6.61663598 51.0240829 -6.62310335 44.01619042 -6.62533849 37.00828403 C-6.62664566 33.29538058 -6.62973184 29.5824973 -6.63698006 25.8696003 C-6.64499332 21.73149839 -6.64524116 17.59343189 -6.64477539 13.45532227 C-6.64837067 12.21526932 -6.65196594 10.97521637 -6.65567017 9.69758606 C-6.6542955 8.57712891 -6.65292084 7.45667175 -6.65150452 6.30226135 C-6.65242631 5.32239541 -6.6533481 4.34252947 -6.65429783 3.33297062 C-6.41173922 -1.00410135 -3.73713749 0.00406969 0 0 Z " fill="#205FB4" transform="translate(759.53125,70.8671875)"/>
<path d="M0 0 C0.88365234 0.00451172 1.76730469 0.00902344 2.67773438 0.01367188 C4.84768559 0.02540134 7.01760172 0.04333505 9.1875 0.0625 C9.1875 1.0525 9.1875 2.0425 9.1875 3.0625 C7.8675 3.0625 6.5475 3.0625 5.1875 3.0625 C5.27314209 3.85197021 5.35878418 4.64144043 5.44702148 5.45483398 C8.41501448 32.98442198 8.41501448 32.98442198 8.9765625 45.19140625 C9.26524626 50.48928781 9.74688219 55.77508633 10.1875 61.0625 C-12.5825 61.0625 -35.3525 61.0625 -58.8125 61.0625 C-58.8125 60.7325 -58.8125 60.4025 -58.8125 60.0625 C-56.3375 59.5675 -56.3375 59.5675 -53.8125 59.0625 C-53.85890625 58.44246094 -53.9053125 57.82242188 -53.953125 57.18359375 C-54.5262555 43.12142744 -49.75980981 30.78522106 -41.9375 19.3125 C-30.18251669 6.86604708 -17.14024333 -0.16616194 0 0 Z " fill="#DB8129" transform="translate(64.8125,93.9375)"/>
<path d="M0 0 C0.52378235 0.16265854 1.0475647 0.32531708 1.58721924 0.49290466 C4.63838255 1.13416918 7.48521807 1.11938869 10.60449219 1.11352539 C11.25856552 1.11367142 11.91263885 1.11381744 12.58653259 1.1139679 C14.74001426 1.11327341 16.89340852 1.10550283 19.046875 1.09765625 C20.54331414 1.09579042 22.03975388 1.09436729 23.53619385 1.09336853 C27.46858415 1.08955635 31.40093732 1.07973717 35.33331299 1.06866455 C39.34850563 1.05842249 43.3637043 1.05386492 47.37890625 1.04882812 C55.25262307 1.03811372 63.12630264 1.02052745 71 1 C71.495 9.91 71.495 9.91 72 19 C72.66 19 73.32 19 74 19 C74.495 23.455 74.495 23.455 75 28 C66.23754321 28.04640675 57.47512893 28.08191151 48.71257591 28.10362434 C44.64346338 28.11404711 40.57443513 28.12817869 36.50537109 28.15087891 C32.57611898 28.17266116 28.64694777 28.18457996 24.71763992 28.18975449 C23.22098136 28.19344059 21.72432707 28.20063863 20.22770309 28.21146011 C18.12615246 28.22604678 16.02493322 28.22797498 13.92333984 28.22705078 C12.1313063 28.23371262 12.1313063 28.23371262 10.30307007 28.24050903 C6.22364221 27.94347045 2.49874175 27.31006405 -0.64453125 24.5625 C-4.35777714 19.59494697 -5.89179816 16.28952389 -5 10 C-3.0625 6.75 -3.0625 6.75 -1 4 C-0.23060319 1.77397385 -0.23060319 1.77397385 0 0 Z " fill="#EFC31D" transform="translate(9,199)"/>
<path d="M0 0 C0.91122528 5.64347086 1.29774046 11.22997887 1.5625 16.9375 C1.60568359 17.81212891 1.64886719 18.68675781 1.69335938 19.58789062 C1.79846901 21.72511995 1.89963985 23.86254238 2 26 C0.83275139 26.0154612 0.83275139 26.0154612 -0.358078 26.03123474 C-7.69994988 26.12930762 -15.04173975 26.23183576 -22.38347912 26.33933926 C-26.15772355 26.39444831 -29.93197588 26.44784864 -33.70629883 26.49731445 C-37.3503146 26.54513584 -40.99424006 26.59748423 -44.63814735 26.65294075 C-46.02674414 26.67328402 -47.41536562 26.69200997 -48.80400658 26.70907402 C-50.75245274 26.73329637 -52.70081693 26.76385894 -54.64916992 26.79467773 C-55.7572551 26.81022202 -56.86534027 26.8257663 -58.00700378 26.84178162 C-60.97703091 26.91002337 -60.97703091 26.91002337 -63.70942688 27.63783264 C-66 28 -66 28 -69 26 C-69.34057617 24.12060547 -69.34057617 24.12060547 -69.29296875 21.8671875 C-69.28330078 21.06152344 -69.27363281 20.25585938 -69.26367188 19.42578125 C-69.23853516 18.58402344 -69.21339844 17.74226563 -69.1875 16.875 C-69.17396484 16.02550781 -69.16042969 15.17601562 -69.14648438 14.30078125 C-69.11108219 12.20025163 -69.05727401 10.10004707 -69 8 C-67.71029297 8.06960937 -67.71029297 8.06960937 -66.39453125 8.140625 C-56.13323975 8.45394688 -47.86564447 6.72666013 -38.5546875 2.3984375 C-26.24352762 -3.21204789 -12.9850068 -4.3283356 0 0 Z " fill="#7E4638" transform="translate(77,173)"/>
<path d="M0 0 C0.69308762 -0.00073013 1.38617523 -0.00146027 2.1002655 -0.00221252 C4.38437997 0.00126278 6.66643855 0.04011535 8.95019531 0.0793457 C10.53630458 0.08867418 12.12242829 0.09579013 13.70855713 0.1007843 C17.87807165 0.11985182 22.04671173 0.16894932 26.21588135 0.2243042 C30.47225109 0.2755027 34.72876248 0.29829955 38.98535156 0.32348633 C47.33345333 0.37706963 55.68067722 0.46500235 64.02832031 0.56762695 C65.01832031 9.47762695 65.01832031 9.47762695 66.02832031 18.56762695 C63.71832031 18.23762695 61.40832031 17.90762695 59.02832031 17.56762695 C45.78247321 16.19061805 35.55665075 18.08402456 23.48144531 23.62231445 C17.32309132 26.4253678 11.4793662 27.85163917 4.65332031 27.75512695 C3.63496094 27.74868164 2.61660156 27.74223633 1.56738281 27.7355957 C-0.97167969 27.56762695 -0.97167969 27.56762695 -2.97167969 26.56762695 C-2.97167969 31.84762695 -2.97167969 37.12762695 -2.97167969 42.56762695 C-3.30167969 42.56762695 -3.63167969 42.56762695 -3.97167969 42.56762695 C-3.97425781 41.49383789 -3.97683594 40.42004883 -3.97949219 39.3137207 C-3.81603184 31.52048875 -3.81603184 31.52048875 -6.37402344 24.4387207 C-6.921875 23.94500977 -7.46972656 23.45129883 -8.03417969 22.94262695 C-10.55772972 20.65622982 -10.95123834 19.69534807 -11.50683594 16.22387695 C-11.72998806 6.83208341 -11.72998806 6.83208341 -9.36981201 2.89656067 C-6.16089866 -0.21975882 -4.42453878 -0.03922463 0 0 Z " fill="#1A9D83" transform="translate(10.9716796875,154.432373046875)"/>
<path d="M0 0 C30.36 0 60.72 0 92 0 C93.13127933 2.26255865 93.12890585 3.51787909 93.1328125 6.02734375 C93.13410156 6.81947266 93.13539063 7.61160156 93.13671875 8.42773438 C93.13285156 9.25595703 93.12898437 10.08417969 93.125 10.9375 C93.12886719 11.76185547 93.13273438 12.58621094 93.13671875 13.43554688 C93.13542969 14.22896484 93.13414062 15.02238281 93.1328125 15.83984375 C93.13168457 16.56550537 93.13055664 17.29116699 93.12939453 18.03881836 C93 20 93 20 92 23 C88.74628455 24.08457182 86.3910068 24.12046857 82.96801758 24.11352539 C81.72695755 24.11344986 80.48589752 24.11337433 79.20722961 24.11329651 C77.85299642 24.10818991 76.49876363 24.10297391 75.14453125 24.09765625 C73.75876415 24.09579083 72.37299639 24.09436751 70.98722839 24.09336853 C67.3425209 24.0895531 63.69785335 24.07973113 60.05316162 24.06866455 C56.33297272 24.0584295 52.61277716 24.05381162 48.89257812 24.04882812 C41.59501682 24.03863885 34.29756516 24.01906476 27 24 C26.67 36.21 26.34 48.42 26 61 C25.67 61 25.34 61 25 61 C25 48.13 25 35.26 25 22 C46.78 22 68.56 22 91 22 C91 15.07 91 8.14 91 1 C46.945 1.495 46.945 1.495 2 2 C2 45.23 2 88.46 2 133 C9.26 133 16.52 133 24 133 C23.99214478 130.69044312 23.99214478 130.69044312 23.98413086 128.33422852 C23.96608826 122.6446185 23.95457071 116.95501103 23.94506836 111.26538086 C23.94002644 108.79857967 23.93319309 106.33178148 23.92456055 103.86499023 C23.91248875 100.32795471 23.90677044 96.79095855 23.90234375 93.25390625 C23.89718246 92.14350479 23.89202118 91.03310333 23.88670349 89.88905334 C23.88659019 88.35757912 23.88659019 88.35757912 23.88647461 86.79516602 C23.884254 85.89137711 23.88203339 84.9875882 23.87974548 84.05641174 C24 82 24 82 25 81 C26.77991924 80.90629376 28.56356739 80.88255729 30.34594727 80.88647461 C32.05760826 80.88658791 32.05760826 80.88658791 33.80384827 80.88670349 C35.0454924 80.89186478 36.28713654 80.89702606 37.56640625 80.90234375 C39.46204567 80.90446617 39.46204567 80.90446617 41.39598083 80.90663147 C44.76124889 80.91129418 48.1264499 80.9202852 51.49169922 80.93133545 C54.9234967 80.94155154 58.35530109 80.94612951 61.78710938 80.95117188 C68.52476064 80.9622262 75.26237111 80.97950363 82 81 C82 74.4 82 67.8 82 61 C82.33 61 82.66 61 83 61 C83 67.93 83 74.86 83 82 C80.42866541 83.28566729 78.602829 83.12009778 75.72412109 83.11352539 C74.07263565 83.11341209 74.07263565 83.11341209 72.38778687 83.11329651 C71.19505157 83.10813522 70.00231628 83.10297394 68.7734375 83.09765625 C67.55548492 83.0962413 66.33753235 83.09482635 65.08267212 83.09336853 C61.1800901 83.08775639 57.27756477 83.07520179 53.375 83.0625 C50.73437583 83.05748657 48.09375076 83.05292339 45.453125 83.04882812 C38.96871041 83.0386325 32.48441891 83.01905936 26 83 C26 99.83 26 116.66 26 134 C23.45724451 135.27137774 21.65191799 135.129425 18.80859375 135.1328125 C17.78185547 135.13410156 16.75511719 135.13539063 15.69726562 135.13671875 C14.62154297 135.13285156 13.54582031 135.12898437 12.4375 135.125 C11.35791016 135.12886719 10.27832031 135.13273438 9.16601562 135.13671875 C7.6278418 135.13478516 7.6278418 135.13478516 6.05859375 135.1328125 C5.11298584 135.13168457 4.16737793 135.13055664 3.19311523 135.12939453 C1 135 1 135 0 134 C-0.09627113 132.26640402 -0.12187568 130.52885354 -0.12025452 128.79258728 C-0.12162918 127.66371597 -0.12300385 126.53484467 -0.12442017 125.37176514 C-0.12082489 124.12236145 -0.11722961 122.87295776 -0.11352539 121.58569336 C-0.11367142 120.27856888 -0.11381744 118.9714444 -0.1139679 117.62471008 C-0.11425586 114.02982901 -0.10835928 110.43498103 -0.10139394 106.84010768 C-0.09516026 103.08713748 -0.09455659 99.3341666 -0.09336853 95.58119202 C-0.09025526 88.46969174 -0.08204192 81.35820675 -0.07201904 74.24671322 C-0.0587725 64.64027711 -0.05335796 55.03383685 -0.04751682 45.42739391 C-0.03810203 30.28491781 -0.01818309 15.14247399 0 0 Z " fill="#D1C9B8" transform="translate(816,71)"/>
<path d="M0 0 C0.33 0 0.66 0 1 0 C1 43.23 1 86.46 1 131 C8.26 131 15.52 131 23 131 C22.99214478 128.69044312 22.99214478 128.69044312 22.98413086 126.33422852 C22.96608826 120.6446185 22.95457071 114.95501103 22.94506836 109.26538086 C22.94002644 106.79857967 22.93319309 104.33178148 22.92456055 101.86499023 C22.91248875 98.32795471 22.90677044 94.79095855 22.90234375 91.25390625 C22.89718246 90.14350479 22.89202118 89.03310333 22.88670349 87.88905334 C22.88659019 86.35757912 22.88659019 86.35757912 22.88647461 84.79516602 C22.884254 83.89137711 22.88203339 82.9875882 22.87974548 82.05641174 C23 80 23 80 24 79 C25.77991924 78.90629376 27.56356739 78.88255729 29.34594727 78.88647461 C31.05760826 78.88658791 31.05760826 78.88658791 32.80384827 78.88670349 C34.0454924 78.89186478 35.28713654 78.89702606 36.56640625 78.90234375 C38.46204567 78.90446617 38.46204567 78.90446617 40.39598083 78.90663147 C43.76124889 78.91129418 47.1264499 78.9202852 50.49169922 78.93133545 C53.9234967 78.94155154 57.35530109 78.94612951 60.78710938 78.95117188 C67.52476064 78.9622262 74.26237111 78.97950363 81 79 C81 72.4 81 65.8 81 59 C81.33 59 81.66 59 82 59 C82 65.93 82 72.86 82 80 C79.42866541 81.28566729 77.602829 81.12009778 74.72412109 81.11352539 C73.07263565 81.11341209 73.07263565 81.11341209 71.38778687 81.11329651 C70.19505157 81.10813522 69.00231628 81.10297394 67.7734375 81.09765625 C66.55548492 81.0962413 65.33753235 81.09482635 64.08267212 81.09336853 C60.1800901 81.08775639 56.27756477 81.07520179 52.375 81.0625 C49.73437583 81.05748657 47.09375076 81.05292339 44.453125 81.04882812 C37.96871041 81.0386325 31.48441891 81.01905936 25 81 C25 97.83 25 114.66 25 132 C17.54047961 135.72976019 8.33999734 133 0 133 C0 89.11 0 45.22 0 0 Z " fill="#83BAA8" transform="translate(817,73)"/>
<path d="M0 0 C0.33 0 0.66 0 1 0 C1.02332826 17.8453085 1.04097882 35.69061306 1.05181217 53.53593349 C1.05697528 61.82124274 1.06401827 70.10654253 1.07543945 78.3918457 C1.08538583 85.61069608 1.09185332 92.82953961 1.09408849 100.04839665 C1.09539568 103.87308255 1.09848203 107.69774887 1.10573006 111.52242851 C1.11248954 115.11825787 1.11461711 118.71405946 1.11310768 122.30989456 C1.11351636 124.26706037 1.11891193 126.22422312 1.12442017 128.18138123 C1.1230455 129.335495 1.12167084 130.48960876 1.12025452 131.67869568 C1.12117631 132.688059 1.1220981 133.69742231 1.12304783 134.7373724 C1 137 1 137 0 138 C-1.46478506 138.09883336 -2.93422958 138.13079289 -4.40234375 138.1328125 C-5.29244141 138.13410156 -6.18253906 138.13539063 -7.09960938 138.13671875 C-8.03611328 138.13285156 -8.97261719 138.12898437 -9.9375 138.125 C-10.87013672 138.12886719 -11.80277344 138.13273438 -12.76367188 138.13671875 C-13.65505859 138.13542969 -14.54644531 138.13414062 -15.46484375 138.1328125 C-16.285896 138.13168457 -17.10694824 138.13055664 -17.95288086 138.12939453 C-20 138 -20 138 -22 137 C-22.4140625 134.3828125 -22.4140625 134.3828125 -22.625 131.125 C-22.73714844 129.52011719 -22.73714844 129.52011719 -22.8515625 127.8828125 C-23.14004914 122.28009828 -23.14004914 122.28009828 -22 120 C-21.34 120 -20.68 120 -20 120 C-20 125.28 -20 130.56 -20 136 C-13.4 136 -6.8 136 0 136 C0 91.12 0 46.24 0 0 Z " fill="#008C91" transform="translate(1281,68)"/>
<path d="M0 0 C0.66 0.33 1.32 0.66 2 1 C1.50371094 1.3403125 1.00742187 1.680625 0.49609375 2.03125 C-4.10979882 5.31742762 -7.73083493 8.78519699 -11.34375 13.12890625 C-12.84897054 14.82937945 -14.32217865 16.13408689 -16.125 17.5 C-21.90515688 22.52622337 -24.56208588 28.89403441 -27 36 C-27.77900406 37.95125537 -28.55953336 39.90164916 -29.3515625 41.84765625 C-34.37313653 58.51565197 -31.3862213 77.92752822 -23.5625 93.0625 C-21.05829064 97.44486638 -18.46066264 101.32960023 -15 105 C-15.33 105.66 -15.66 106.32 -16 107 C-20.01161723 102.60059311 -23.24784032 98.27304544 -26 93 C-26.66 91.865625 -27.32 90.73125 -28 89.5625 C-35.83251562 73.40016618 -36.21218439 54.78327849 -30.67578125 37.90234375 C-25.42439778 23.1195475 -14.46210359 7.23105179 0 0 Z " fill="#F3DBD2" transform="translate(344,78)"/>
<path d="M0 0 C5.81625 -0.04125 11.6325 -0.0825 17.625 -0.125 C19.4498291 -0.14320801 21.2746582 -0.16141602 23.15478516 -0.18017578 C24.61620795 -0.1860221 26.07763403 -0.19111733 27.5390625 -0.1953125 C28.28567139 -0.20554443 29.03228027 -0.21577637 29.80151367 -0.22631836 C34.2346174 -0.22778579 37.95308494 0.12277422 42 2 C42.495 3.485 42.495 3.485 43 5 C41.86691406 4.51917969 40.73382812 4.03835937 39.56640625 3.54296875 C32.2502246 1.10424153 24.56983802 1.42829479 16.9375 1.3125 C9.0484375 1.1578125 9.0484375 1.1578125 1 1 C1 12.22 1 23.44 1 35 C13.21 34.67 25.42 34.34 38 34 C36 36 36 36 32.46826172 36.22705078 C30.95536674 36.22655032 29.44244799 36.21549111 27.9296875 36.1953125 C26.87116577 36.19229126 26.87116577 36.19229126 25.79125977 36.18920898 C23.15244049 36.17873636 20.51371379 36.15081375 17.875 36.125 C9.026875 36.063125 9.026875 36.063125 0 36 C0 24.12 0 12.24 0 0 Z " fill="#CACEDB" transform="translate(645,92)"/>
<path d="M0 0 C0.66 0 1.32 0 2 0 C2 5.28 2 10.56 2 16 C8.6 16 15.2 16 22 16 C22 16.66 22 17.32 22 18 C18.70835171 18.02895225 15.41673601 18.0467823 12.125 18.0625 C11.18785156 18.07087891 10.25070312 18.07925781 9.28515625 18.08789062 C7.94130859 18.09272461 7.94130859 18.09272461 6.5703125 18.09765625 C5.32918701 18.10551147 5.32918701 18.10551147 4.06298828 18.11352539 C2 18 2 18 0 17 C-0.4140625 14.3828125 -0.4140625 14.3828125 -0.625 11.125 C-0.69976563 10.05507812 -0.77453125 8.98515625 -0.8515625 7.8828125 C-1.14004914 2.28009828 -1.14004914 2.28009828 0 0 Z " fill="#A1BF99" transform="translate(1259,188)"/>
<path d="M0 0 C-3.58170565 1.19390188 -5.29692058 0.63653398 -9 0 C-18.42117989 -0.62671623 -27.2134297 -0.69865895 -36 3 C-38.65295866 3.74067374 -41.31878743 4.36625885 -44 5 C-42.24315355 1.4863071 -38.40870894 0.92798444 -34.84985352 -0.30493164 C-24.40469665 -3.4978853 -10.21042918 -4.23027765 0 0 Z " fill="#C4CAC3" transform="translate(1121,104)"/>
<path d="M0 0 C1.39664108 0.11562606 2.79231199 0.242992 4.1875 0.375 C4.96480469 0.44460937 5.74210937 0.51421875 6.54296875 0.5859375 C9 1 9 1 11.12890625 2.02734375 C15.61326877 3.54653595 20.0511988 3.24701815 24.75 3.1875 C25.70132813 3.18685547 26.65265625 3.18621094 27.6328125 3.18554688 C33.49428507 3.14941451 39.18661748 2.74760578 45 2 C39.9211475 7.0788525 28.96973698 5.29329146 22.20507812 5.33007812 C14.15469384 5.25658101 7.43834222 4.25427472 0 1 C0 0.67 0 0.34 0 0 Z " fill="#D0CDD6" transform="translate(503,203)"/>
<path d="M0 0 C0.66 0.33 1.32 0.66 2 1 C-4.50109723 8.75130824 -4.50109723 8.75130824 -8.3125 11.6875 C-11.06701242 14.05766185 -12.01550247 15.55425866 -13 19 C-13.66 19 -14.32 19 -15 19 C-13.67737512 13.9486191 -11.62316414 11.03549315 -8.0625 7.25 C-7.18722656 6.30640625 -6.31195312 5.3628125 -5.41015625 4.390625 C-3 2 -3 2 0 0 Z " fill="#93B27B" transform="translate(1197,110)"/>
<path d="M0 0 C5.01707535 -0.04961356 10.03400635 -0.08582043 15.05126953 -0.10986328 C16.75637298 -0.1198914 18.46145936 -0.13351726 20.16650391 -0.15087891 C22.62406642 -0.17526803 25.08140061 -0.18651512 27.5390625 -0.1953125 C28.67379501 -0.21079636 28.67379501 -0.21079636 29.83145142 -0.22659302 C34.25461954 -0.22752066 37.96284019 0.12729935 42 2 C42.495 3.485 42.495 3.485 43 5 C41.87722656 4.51917969 40.75445313 4.03835937 39.59765625 3.54296875 C32.14305368 1.05810123 24.21340757 1.4244473 16.4375 1.3125 C14.8404677 1.27927239 13.24346123 1.24477784 11.64648438 1.20898438 C7.76446676 1.12470507 3.88250128 1.05760577 0 1 C0 0.67 0 0.34 0 0 Z " fill="#989EBF" transform="translate(645,92)"/>
<path d="M0 0 C0.66 0.33 1.32 0.66 2 1 C1.25556641 1.51046875 1.25556641 1.51046875 0.49609375 2.03125 C-4.14965601 5.34586463 -7.84919101 8.84366404 -11.45703125 13.265625 C-13 15 -13 15 -16 17 C-15.56285528 12.24184786 -13.81180864 10.44152756 -10.25 7.375 C-9.38890625 6.61960937 -8.5278125 5.86421875 -7.640625 5.0859375 C-5.16610699 3.13121469 -2.81338212 1.42582971 0 0 Z " fill="#ACAAC6" transform="translate(344,78)"/>
<path d="M0 0 C0.66 0.33 1.32 0.66 2 1 C-2.32893185 6.18419194 -6.76564995 10.72706118 -12 15 C-12 11.11566834 -10.82920314 10.32394504 -8.25 7.5 C-7.55390625 6.7265625 -6.8578125 5.953125 -6.140625 5.15625 C-4.19891408 3.20036601 -2.25069252 1.58156772 0 0 Z " fill="#E5B485" transform="translate(34,103)"/>
<path d="M0 0 C0.66 0.33 1.32 0.66 2 1 C0.61240749 2.61130023 -0.78545623 4.21375841 -2.1875 5.8125 C-2.96480469 6.70582031 -3.74210937 7.59914063 -4.54296875 8.51953125 C-6.89417119 10.8931617 -9.06791184 12.43240047 -12 14 C-9.3129633 7.95416742 -5.07578221 4.03755403 0 0 Z " fill="#8BAE75" transform="translate(1072,111)"/>
<path d="M0 0 C0.33 0.99 0.66 1.98 1 3 C-0.546875 3.061875 -0.546875 3.061875 -2.125 3.125 C-7.19718105 4.2703312 -8.54513251 6.22374948 -12 10 C-12.66 10 -13.32 10 -14 10 C-13.07870137 6.90108642 -12.32841931 5.27211886 -9.8125 3.1875 C-6.38325617 1.73959705 -3.68625273 1.7831616 0 2 C0 1.34 0 0.68 0 0 Z " fill="#AEAFB0" transform="translate(73,29)"/>
<path d="M0 0 C0.66 0.66 1.32 1.32 2 2 C1.82989684 3.59896968 1.64111625 5.19813251 1.359375 6.78125 C0.65094346 11.15504471 0.37505463 15.58712322 0 20 C-0.33 20 -0.66 20 -1 20 C-1.02689449 17.04160645 -1.04678741 14.08345573 -1.0625 11.125 C-1.07087891 10.28324219 -1.07925781 9.44148437 -1.08789062 8.57421875 C-1.09111328 7.76855469 -1.09433594 6.96289062 -1.09765625 6.1328125 C-1.10289307 5.38918457 -1.10812988 4.64555664 -1.11352539 3.87939453 C-1 2 -1 2 0 0 Z " fill="#DCD1C4" transform="translate(252,165)"/>
<path d="M0 0 C-4.06727245 2.91832543 -6.84915617 3.33790436 -11.8125 3.1875 C-13.55466797 3.14689453 -13.55466797 3.14689453 -15.33203125 3.10546875 C-16.21246094 3.07066406 -17.09289062 3.03585938 -18 3 C-18 2.67 -18 2.34 -18 2 C-15.56421213 1.46969932 -13.12694025 0.95047688 -10.6875 0.4375 C-9.65206055 0.21030273 -9.65206055 0.21030273 -8.59570312 -0.02148438 C-5.24455934 -0.71761569 -3.30465928 -1.10155309 0 0 Z " fill="#CBCAD7" transform="translate(400,182)"/>
<path d="M0 0 C4.57989423 -0.46733615 7.24854513 -0.17261016 10.9375 2.5 C11.948125 3.325 12.95875 4.15 14 5 C13.01 5.495 13.01 5.495 12 6 C10.1953125 5.29296875 10.1953125 5.29296875 8.125 4.1875 C7.10792969 3.65189453 7.10792969 3.65189453 6.0703125 3.10546875 C5.38710938 2.74066406 4.70390625 2.37585938 4 2 C2.66851465 1.32965011 1.33572063 0.66187054 0 0 Z " fill="#CCC4CF" transform="translate(392,93)"/>
<path d="M0 0 C2.83374881 3.20336822 3.5205537 5.78087253 4 10 C1 8 1 8 0.48828125 6.0546875 C0.32552083 4.03645833 0.16276042 2.01822917 0 0 Z " fill="#73BFC7" transform="translate(1151,129)"/>
</svg>
