<?xml version="1.0" encoding="UTF-8"?>
<svg version="1.1" xmlns="http://www.w3.org/2000/svg" width="1282" height="274">
<path d="M0 0 C1.18026764 -0.00335861 2.36053528 -0.00671722 3.5765686 -0.01017761 C7.45299348 -0.01962574 11.32937489 -0.02162757 15.20581055 -0.02270508 C16.55086981 -0.02413065 17.89592891 -0.02572703 19.24098778 -0.02749062 C26.28452352 -0.03671596 33.32804045 -0.04082899 40.37158203 -0.04003906 C46.9017226 -0.03943885 53.43178041 -0.04998686 59.96190006 -0.06578273 C65.59878017 -0.07892431 71.23563345 -0.08422021 76.87252873 -0.08358365 C80.22576242 -0.08333063 83.57886414 -0.08701591 86.93209267 -0.0967617 C90.67875538 -0.1066326 94.42520843 -0.10365568 98.171875 -0.09765625 C99.8034127 -0.10608551 99.8034127 -0.10608551 101.46791077 -0.11468506 C114.43337571 -0.06231065 125.13380883 0.78615425 134.7565918 10.04760742 C155.7800293 32.53682244 155.7800293 32.53682244 155.7800293 42.14526367 C156.4400293 42.14526367 157.1000293 42.14526367 157.7800293 42.14526367 C159.7331543 46.05151367 161.6862793 49.95776367 163.6394043 53.86401367 C163.99397705 54.56937256 164.3485498 55.27473145 164.71386719 56.00146484 C165.42584789 57.43308896 166.12556347 58.87087726 166.81298828 60.31445312 C168.63699528 64.10752352 170.41012958 67.25604004 173.3425293 70.33276367 C175.91257638 73.15381323 177.99884446 75.74481989 179.7800293 79.14526367 C180.18092773 79.89807617 180.58182617 80.65088867 180.99487305 81.42651367 C184.69318061 88.54441576 187.03954481 94.84688828 187.01049805 102.98510742 C187.008927 104.93429077 187.008927 104.93429077 187.00732422 106.92285156 C186.9948849 108.30949658 186.98160277 109.69613427 186.9675293 111.08276367 C186.95863501 112.5117176 186.94992917 113.94067271 186.94140625 115.36962891 C186.90959819 119.62857449 186.84966832 123.8867863 186.7800293 128.14526367 C186.76069336 129.37535156 186.74135742 130.60543945 186.72143555 131.87280273 C186.65863696 135.15218189 186.57050428 138.42942414 186.4675293 141.70776367 C186.4452124 142.6686792 186.42289551 143.62959473 186.39990234 144.61962891 C186.12083505 151.63032856 185.00640955 156.58492638 180.2800293 162.02026367 C172.77838464 167.58807578 158.51842581 165.43020629 149.48388672 165.49536133 C147.81154454 165.51191114 146.13927282 165.53918878 144.46728516 165.57739258 C142.0021663 165.63307139 139.53866646 165.65416144 137.07299805 165.66870117 C136.34856003 165.69137054 135.62412201 165.71403992 134.87773132 165.73739624 C129.95309648 165.71801641 126.51692491 164.64322967 122.01757812 162.65405273 C110.76785808 158.43649427 98.62321818 159.41710783 86.77270317 159.47363615 C83.23854608 159.48645041 79.7044483 159.47451259 76.17028809 159.46670532 C70.23946306 159.45765326 64.30895112 159.46947871 58.37817383 159.4934082 C51.55804996 159.52061129 44.73867392 159.51179393 37.91856813 159.48427618 C32.02335939 159.46145814 26.12837346 159.45844642 20.23313475 159.47146952 C16.72950232 159.47919497 13.22621932 159.4804997 9.72261047 159.46378708 C-8.86078725 159.11824913 -8.86078725 159.11824913 -26.54714966 164.01998901 C-30.56044247 165.70961081 -34.21448825 165.80320984 -38.51293945 165.66870117 C-39.31049149 165.66399811 -40.10804352 165.65929504 -40.92976379 165.65444946 C-43.42330148 165.63352681 -45.91452771 165.57722575 -48.4074707 165.52026367 C-50.08127815 165.50369936 -51.7551092 165.48936632 -53.42895508 165.47729492 C-57.35424009 165.44013809 -61.27395971 165.34135613 -65.19696045 165.20471191 C-66.98474138 165.15217613 -68.77370388 165.14390174 -70.56225586 165.14233398 C-76.20528375 164.9770204 -80.6447005 163.99950459 -84.7277832 159.90600586 C-88.37224341 153.16327745 -87.60632951 144.74943954 -87.7199707 137.27026367 C-87.77639033 135.47067216 -87.83625906 133.67118532 -87.8996582 131.87182617 C-88.07069063 126.62999582 -88.15811139 121.38938999 -88.2199707 116.14526367 C-88.23159241 115.32721252 -88.24321411 114.50916138 -88.25518799 113.6663208 C-88.44426051 99.29790202 -87.62684617 85.31478818 -77.3684082 74.12573242 C-76.72129883 73.47217773 -76.07418945 72.81862305 -75.4074707 72.14526367 C-70.20094833 66.61209636 -67.6046732 59.88807581 -64.4934082 53.05932617 C-59.61386016 42.38089494 -53.78388115 32.56890838 -46.7824707 23.14526367 C-46.00166138 22.09302612 -46.00166138 22.09302612 -45.20507812 21.01953125 C-43.93016565 19.35249965 -42.58138613 17.74243123 -41.2199707 16.14526367 C-40.5599707 16.14526367 -39.8999707 16.14526367 -39.2199707 16.14526367 C-39.1271582 15.30995117 -39.1271582 15.30995117 -39.0324707 14.45776367 C-36.86377416 8.28531966 -30.77101872 5.4883021 -25.42700195 2.37963867 C-17.50490801 -0.6695473 -8.37411705 -0.0034697 0 0 Z " fill="#2882E3" transform="translate(116.219970703125,58.854736328125)"/>
<path d="M0 0 C0.6506543 -0.00817749 1.30130859 -0.01635498 1.97167969 -0.02478027 C4.13906945 -0.04971165 6.30639251 -0.06618553 8.47387695 -0.08056641 C9.21673258 -0.08589008 9.9595882 -0.09121376 10.72495461 -0.09669876 C14.6703043 -0.12348624 18.61562201 -0.14282775 22.56103516 -0.15722656 C25.80546871 -0.17047113 29.04925906 -0.1981358 32.29345703 -0.23925781 C36.22398147 -0.28907676 40.15393027 -0.31340953 44.08475685 -0.32045364 C45.57206306 -0.32709674 47.05936002 -0.34213339 48.54648399 -0.36634445 C61.05932003 -0.55813922 72.19159038 1.17089698 82.2746582 9.25537109 C89.81589073 16.68478962 93.70030101 25.8537833 94.0871582 36.38037109 C93.95066179 45.38913413 89.89684996 53.70334783 83.7746582 60.19287109 C82.46412764 61.22257368 81.1356207 62.2308114 79.7746582 63.19287109 C80.48750977 63.66595703 81.20036133 64.13904297 81.93481445 64.62646484 C89.78250554 70.04485721 97.32436473 76.29351649 100.3371582 85.70849609 C102.4608645 97.76811402 101.06180832 109.29573527 94.0246582 119.50537109 C86.65093349 128.51974956 76.82478597 132.39194426 65.7746582 135.19287109 C63.35242338 135.36282286 60.92232871 135.43858212 58.49414062 135.43579102 C57.80382751 135.43768936 57.1135144 135.43958771 56.40228271 135.44154358 C54.144778 135.44521669 51.88760252 135.43460132 49.63012695 135.42333984 C48.05308571 135.42214648 46.47604375 135.42169521 44.89900208 135.42195129 C41.60661318 135.42039269 38.31433398 135.41214736 35.02197266 135.39868164 C30.79728113 135.3816227 26.57270912 135.37786964 22.34798717 135.37862682 C19.09756831 135.37835539 15.84717568 135.37287967 12.59676552 135.36562538 C11.03820303 135.36244019 9.47963757 135.36047165 7.92107201 135.35973167 C5.75006371 135.35757047 3.57918393 135.34883312 1.40820312 135.33813477 C-0.44542595 135.33241707 -0.44542595 135.33241707 -2.33650208 135.32658386 C-5.2253418 135.19287109 -5.2253418 135.19287109 -7.2253418 134.19287109 C-7.2486703 116.86909757 -7.26632073 99.54532893 -7.27715397 82.22154331 C-7.28231703 74.17837055 -7.28935992 66.13520753 -7.30078125 58.09204102 C-7.31072778 51.08414149 -7.31719515 44.07624901 -7.31943029 37.06834263 C-7.32073745 33.35543917 -7.32382364 29.6425559 -7.33107185 25.92965889 C-7.33908511 21.79155699 -7.33933296 17.65349049 -7.33886719 13.51538086 C-7.34246246 12.27532791 -7.34605774 11.03527496 -7.34976196 9.75764465 C-7.3483873 8.6371875 -7.34701263 7.51673035 -7.34559631 6.36231995 C-7.34651811 5.382454 -7.3474399 4.40258806 -7.34838963 3.39302921 C-7.09458734 -1.14508554 -3.85784816 0.04199801 0 0 Z M19.7746582 22.19287109 C19.7746582 33.41287109 19.7746582 44.63287109 19.7746582 56.19287109 C25.1990332 56.29599609 30.6234082 56.39912109 36.2121582 56.50537109 C37.90526123 56.55089111 39.59836426 56.59641113 41.34277344 56.64331055 C49.33686772 56.76890685 56.42752729 56.71758413 62.7746582 51.19287109 C66.65719373 46.77985957 67.42260785 42.43790003 67.1574707 36.62255859 C66.32263776 31.323925 64.00964219 28.17056675 59.7746582 24.81787109 C54.86768827 22.15992905 50.67903581 22.05445544 45.1652832 22.09521484 C44.52059082 22.09622192 43.87589844 22.097229 43.21166992 22.0982666 C40.81598111 22.10347707 38.42031777 22.11743829 36.0246582 22.13037109 C30.6621582 22.15099609 25.2996582 22.17162109 19.7746582 22.19287109 Z M19.7746582 75.19287109 C19.7746582 87.40287109 19.7746582 99.61287109 19.7746582 112.19287109 C25.18286068 112.26201005 30.58950928 112.32166193 35.99780273 112.35766602 C37.83476987 112.37268606 39.67170154 112.39310818 41.50854492 112.41918945 C44.15983875 112.45587312 46.81065552 112.47266547 49.4621582 112.48583984 C50.27394531 112.5013237 51.08573242 112.51680756 51.92211914 112.53276062 C58.15506795 112.53457084 63.88842514 111.60262925 68.83325195 107.47412109 C69.51581055 106.59240234 69.51581055 106.59240234 70.2121582 105.69287109 C70.68524414 105.10505859 71.15833008 104.51724609 71.64575195 103.91162109 C74.72938192 99.21682115 74.406962 93.57480576 73.7746582 88.19287109 C72.02826518 83.26379919 69.38309571 80.19923947 64.7746582 77.75537109 C59.11140924 75.20919263 53.54309707 75.05348458 47.41137695 75.09521484 C46.70871704 75.09622192 46.00605713 75.097229 45.28210449 75.0982666 C42.67543896 75.10347009 40.06879682 75.11743123 37.4621582 75.13037109 C28.7068457 75.16130859 28.7068457 75.16130859 19.7746582 75.19287109 Z " fill="#1557B1" transform="translate(658.225341796875,70.80712890625)"/>
<path d="M0 0 C10.9725 -0.0825 21.945 -0.165 33.25 -0.25 C36.69083008 -0.28641602 40.13166016 -0.32283203 43.67675781 -0.36035156 C47.93896484 -0.37841797 47.93896484 -0.37841797 49.94598389 -0.3817749 C51.32217614 -0.38784295 52.69834965 -0.40175352 54.07440186 -0.42230225 C68.55806025 -0.62742515 81.40542788 2.31156488 92.4453125 12.1875 C102.11283612 22.14217779 105.31623279 33.372271 105.1484375 46.98046875 C104.60995197 57.93439805 100.1541878 68.50399777 92 76 C87.92725658 79.13615434 84.11655973 82.00447028 79 83 C82.47487278 90.45826352 86.39868824 97.40788975 90.81152344 104.3359375 C96.78449642 113.74303588 102.36677961 123.3871048 108 133 C102.98063922 135.9563466 97.73538956 135.40727146 92.0625 135.4375 C90.97775391 135.47037109 89.89300781 135.50324219 88.77539062 135.53710938 C87.72673828 135.54419922 86.67808594 135.55128906 85.59765625 135.55859375 C84.64383057 135.57204834 83.69000488 135.58550293 82.70727539 135.59936523 C77.92897986 134.54149568 75.73446515 131.14110926 73.18237305 127.17602539 C72.63105713 126.16016357 72.07974121 125.14430176 71.51171875 124.09765625 C70.89321045 122.96569824 70.27470215 121.83374023 69.63745117 120.66748047 C69.31956635 120.0775531 69.00168152 119.48762573 68.67416382 118.87982178 C67.67588987 117.04111547 66.65445128 115.21712131 65.6262207 113.39501953 C59.98789029 103.34589097 59.98789029 103.34589097 58.15625 98.14453125 C56.67702996 94.1783938 55.50096481 91.62457651 52 89 C43.36737709 87.06365574 34.82160559 87.73535183 26 88 C26 103.18 26 118.36 26 134 C22.76837829 134.80790543 20.54985778 135.12826107 17.3046875 135.1328125 C15.98404297 135.13474609 15.98404297 135.13474609 14.63671875 135.13671875 C13.72535156 135.13285156 12.81398438 135.12898437 11.875 135.125 C10.49634766 135.13080078 10.49634766 135.13080078 9.08984375 135.13671875 C8.21199219 135.13542969 7.33414063 135.13414062 6.4296875 135.1328125 C5.62772949 135.13168457 4.82577148 135.13055664 3.99951172 135.12939453 C2 135 2 135 0 134 C0 89.78 0 45.56 0 0 Z M26 23 C26 37.19 26 51.38 26 66 C31.73375 66.103125 37.4675 66.20625 43.375 66.3125 C45.16341309 66.35802002 46.95182617 66.40354004 48.79443359 66.45043945 C57.37188035 66.57830472 64.91647351 66.55598472 72 61 C77.74247221 54.88127649 78.31049962 49.24009625 78.203125 41.16015625 C77.7551782 34.19113782 74.20406441 30.92336247 69.23046875 26.515625 C64.07142171 23.01000284 58.82648427 22.71904228 52.7578125 22.8046875 C52.07581787 22.80670166 51.39382324 22.80871582 50.69116211 22.81079102 C48.16903862 22.82117243 45.64701181 22.84909442 43.125 22.875 C37.47375 22.91625 31.8225 22.9575 26 23 Z " fill="#607782" transform="translate(846,71)"/>
<path d="M0 0 C1.5610144 -0.02114868 1.5610144 -0.02114868 3.15356445 -0.04272461 C13.51852731 0.02175543 23.18620743 2.15307439 32.4375 6.875 C33.44478149 7.38776489 33.44478149 7.38776489 34.47241211 7.91088867 C49.14614679 15.77163118 57.66120281 27.98619216 63.58984375 43.33203125 C64.47489387 46.50923881 64.6722343 49.09351036 64.4375 52.375 C62.72665499 54.08584501 60.49389907 53.50514689 58.16015625 53.5078125 C57.08958984 53.50910156 56.01902344 53.51039062 54.91601562 53.51171875 C53.78873047 53.50785156 52.66144531 53.50398438 51.5 53.5 C50.37658203 53.50386719 49.25316406 53.50773437 48.09570312 53.51171875 C47.02384766 53.51042969 45.95199219 53.50914063 44.84765625 53.5078125 C43.85902588 53.50668457 42.87039551 53.50555664 41.85180664 53.50439453 C39.4375 53.375 39.4375 53.375 37.4375 52.375 C36.86682832 50.7457767 36.35630382 49.09532428 35.875 47.4375 C32.89603135 38.98426424 27.40985284 32.63510972 19.5 28.375 C8.65255924 23.62294778 -3.2343937 22.89577084 -14.5625 26.375 C-27.09653542 31.61996299 -34.73909184 38.28969203 -40.63671875 50.62109375 C-45.76082369 63.44385392 -44.85845122 79.35111383 -39.4609375 91.9453125 C-34.27557196 101.814234 -27.29127977 108.81533969 -16.53125 112.37890625 C-13.55404282 113.15703995 -10.58410896 113.79603437 -7.5625 114.375 C-6.304375 114.66375 -5.04625 114.9525 -3.75 115.25 C5.03712729 116.15266087 16.16397909 113.26870531 23.4375 108.375 C24.03820312 107.97796875 24.63890625 107.5809375 25.2578125 107.171875 C32.13714114 101.99004304 35.31621044 94.17822391 38.4375 86.375 C47.0175 86.375 55.5975 86.375 64.4375 86.375 C62.77530614 102.99693855 56.01362704 115.40568805 43.2578125 126.30859375 C38.00696299 130.15582282 32.40937941 132.87212763 26.4375 135.375 C24.88869141 136.02855469 24.88869141 136.02855469 23.30859375 136.6953125 C10.01049509 141.36188455 -7.10659893 141.45877784 -20.5625 137.375 C-21.49835938 137.09140625 -22.43421875 136.8078125 -23.3984375 136.515625 C-41.54065209 130.15189434 -56.87762309 117.41712848 -65.4375 100.0625 C-73.40285755 80.47509052 -73.86242021 61.3987101 -66.125 41.71875 C-57.35651279 22.6641528 -42.11503094 9.64894318 -22.65625 2.2734375 C-15.20264399 0.12952394 -7.71104543 0.07647037 0 0 Z " fill="#1155B0" transform="translate(413.5625,68.625)"/>
<path d="M0 0 C0.91974609 -0.01224609 1.83949219 -0.02449219 2.78710938 -0.03710938 C3.67076172 -0.03904297 4.55441406 -0.04097656 5.46484375 -0.04296875 C6.27429443 -0.04707764 7.08374512 -0.05118652 7.91772461 -0.05541992 C10.0625 0.1875 10.0625 0.1875 13.0625 2.1875 C13.44002342 4.53635406 13.44002342 4.53635406 13.44345093 7.53967285 C13.4519104 8.67544266 13.46036987 9.81121246 13.46908569 10.98139954 C13.463013 12.2334166 13.45694031 13.48543365 13.45068359 14.77539062 C13.45594055 16.08920212 13.46119751 17.40301361 13.46661377 18.75663757 C13.48032007 22.36612641 13.47497524 25.97535875 13.46547651 29.58485222 C13.45789697 33.35690899 13.46492076 37.12894337 13.46963501 40.90100098 C13.47509756 47.23628698 13.46788792 53.57146818 13.45361328 59.90673828 C13.43728574 67.23791418 13.4425739 74.56883981 13.4590925 81.90000963 C13.47269321 88.18709984 13.47463399 94.47411457 13.46677649 100.76121473 C13.46209214 104.51942518 13.46149588 108.27751788 13.47138596 112.03572083 C13.48163692 116.2238352 13.46744142 120.41151609 13.45068359 124.59960938 C13.45675629 125.85162643 13.46282898 127.10364349 13.46908569 128.39360046 C13.46062622 129.52937027 13.45216675 130.66514008 13.44345093 131.83532715 C13.44231985 132.82642235 13.44118877 133.81751755 13.44002342 134.83864594 C13.31544069 135.61376778 13.19085796 136.38888962 13.0625 137.1875 C9.93766757 139.27072162 9.23368109 139.4369731 5.68359375 139.41796875 C4.84505859 139.41603516 4.00652344 139.41410156 3.14257812 139.41210938 C2.27052734 139.39986328 1.39847656 139.38761719 0.5 139.375 C-0.81387695 139.3740332 -0.81387695 139.3740332 -2.15429688 139.37304688 C-8.65650615 139.32799693 -8.65650615 139.32799693 -10.9375 138.1875 C-11.3515625 135.46484375 -11.3515625 135.46484375 -11.5625 132.125 C-11.67464844 130.46791016 -11.67464844 130.46791016 -11.7890625 128.77734375 C-11.83804687 127.92269531 -11.88703125 127.06804687 -11.9375 126.1875 C-12.54335937 126.77917969 -13.14921875 127.37085938 -13.7734375 127.98046875 C-25.46532053 139.00681383 -35.16118187 141.7877744 -50.796875 141.52734375 C-63.88672295 140.94956841 -73.46032292 134.08972887 -82.1875 124.875 C-86.04589752 120.364587 -88.62158835 115.62945209 -90.9375 110.1875 C-91.24558594 109.47335938 -91.55367187 108.75921875 -91.87109375 108.0234375 C-97.3824422 94.36373177 -95.92808529 78.63230802 -90.75 65.125 C-85.2588758 52.62188629 -75.34334306 42.90999459 -62.94921875 37.28515625 C-52.77511552 33.47206402 -39.34867759 33.33462191 -29.25 37.3125 C-22.60317845 40.59867368 -17.39270661 44.24722452 -12.9375 50.1875 C-12.6075 34.0175 -12.2775 17.8475 -11.9375 1.1875 C-8.29852049 -0.63198976 -4.00590712 0.00279547 0 0 Z M-63.125 68.4375 C-69.86399459 76.87450898 -69.68364531 85.88003553 -68.9375 96.1875 C-67.80481431 103.28344274 -63.14812841 108.4691413 -57.9375 113.1875 C-51.06229063 117.71295427 -44.08166811 119.00659737 -35.9375 118.1875 C-28.06976037 116.22056509 -21.15174423 112.04713116 -16.625 105.203125 C-11.88976486 96.22010539 -10.6505122 87.91000129 -13.5 78.1875 C-16.42760023 70.09834674 -20.52296095 65.1828247 -28.1875 61.25 C-41.01172043 55.3755512 -53.47367251 58.00363244 -63.125 68.4375 Z " fill="#607783" transform="translate(1120.9375,66.8125)"/>
<path d="M0 0 C4.14581887 -0.02886751 8.29161216 -0.04675327 12.4375 -0.0625 C14.21350586 -0.07506836 14.21350586 -0.07506836 16.02539062 -0.08789062 C17.15009766 -0.09111328 18.27480469 -0.09433594 19.43359375 -0.09765625 C20.47572021 -0.10289307 21.51784668 -0.10812988 22.59155273 -0.11352539 C25 0 25 0 26 1 C26.1038916 3.64994199 26.14361376 6.27466788 26.1418457 8.92529297 C26.14705734 10.17184914 26.14705734 10.17184914 26.15237427 11.44358826 C26.15974764 13.2562378 26.16508455 15.06889646 26.16866493 16.88155746 C26.17582048 19.75795569 26.19148414 22.63418233 26.21000671 25.51052856 C26.26249059 33.6918896 26.31037135 41.8731621 26.32592773 50.0546875 C26.33605997 55.05514031 26.36552701 60.05516947 26.40724754 65.05545425 C26.41949904 66.95543321 26.42468958 68.85547222 26.42244911 70.75548935 C26.41093549 83.7180005 26.53065936 95.45704002 36.09765625 105.34765625 C42.29588426 110.73133274 49.87496018 112.6990726 58 113 C64.49228628 112.10397017 70.26028504 110.17194774 76 107 C76.66 107 77.32 107 78 107 C78.495 105.515 78.495 105.515 79 104 C79.598125 103.484375 80.19625 102.96875 80.8125 102.4375 C87.8699034 94.57353621 88.12699028 83.60862828 88.20532227 73.56445312 C88.21522186 72.76349213 88.22512146 71.96253113 88.23532104 71.13729858 C88.26663264 68.51864466 88.291572 65.89997266 88.31640625 63.28125 C88.33700206 61.45421914 88.35799918 59.62719275 88.37937927 57.8001709 C88.43432881 53.01301729 88.48385663 48.22582264 88.53222656 43.43859863 C88.58264075 38.5449665 88.63822241 33.6513933 88.69335938 28.7578125 C88.80060879 19.17192546 88.90212623 9.58598704 89 0 C93.14581887 -0.02886751 97.29161216 -0.04675327 101.4375 -0.0625 C102.62150391 -0.07087891 103.80550781 -0.07925781 105.02539062 -0.08789062 C106.15009766 -0.09111328 107.27480469 -0.09433594 108.43359375 -0.09765625 C109.47572021 -0.10289307 110.51784668 -0.10812988 111.59155273 -0.11352539 C114 0 114 0 115 1 C115.11118734 3.73630311 115.1573973 6.44759573 115.16113281 9.18481445 C115.16858017 10.47285225 115.16858017 10.47285225 115.17617798 11.78691101 C115.19085383 14.64570912 115.19761449 17.50445155 115.203125 20.36328125 C115.20887691 22.35092673 115.21463464 24.3385722 115.22039795 26.32621765 C115.23092666 30.50695047 115.23675545 34.68766398 115.24023438 38.8684082 C115.24568923 44.19992116 115.26964433 49.53117484 115.29820633 54.862607 C115.31693683 58.97642224 115.32204407 63.09017673 115.32357025 67.20403099 C115.32657951 69.16742541 115.33454902 71.13081921 115.34775543 73.09417152 C115.46389746 91.70653005 113.51240626 106.80612309 100.1796875 120.81640625 C86.99260258 134.02712394 72.15404689 137.27270165 54.1875 137.32128906 C46.07689781 137.23035201 39.480083 136.30274434 32 133 C31.28585937 132.72285156 30.57171875 132.44570312 29.8359375 132.16015625 C17.51377828 126.83364519 7.70403608 115.91701081 2.5625 103.6875 C0.07709506 97.12291027 -0.14289596 90.70961479 -0.11352539 83.78173828 C-0.11367142 82.87378006 -0.11381744 81.96582184 -0.1139679 81.03034973 C-0.11327391 78.04364594 -0.10550563 75.05700533 -0.09765625 72.0703125 C-0.09579024 69.99380528 -0.0943672 67.91729761 -0.09336853 65.84078979 C-0.08955774 60.38609595 -0.07973975 54.9314289 -0.06866455 49.47674561 C-0.05841949 43.90637576 -0.05386428 38.33600156 -0.04882812 32.765625 C-0.03811617 21.84373825 -0.02105704 10.92187136 0 0 Z " fill="#1557B1" transform="translate(503,71)"/>
<path d="M0 0 C0.76873444 0.0629425 1.53746887 0.12588501 2.32949829 0.19073486 C20.25905824 1.72039614 20.25905824 1.72039614 24.51953125 5.4453125 C29.43454617 11.99126917 33.7972219 18.80150583 38.04296875 25.79296875 C39.65073433 28.43248415 41.36931824 30.92376768 43.21484375 33.40234375 C45.6310728 36.90566355 46.0310491 38.47015633 45.4375 42.625 C43.71840377 44.34409623 41.52796545 43.749915 39.23549652 43.75874341 C38.10862301 43.75539732 38.10862301 43.75539732 36.95898438 43.75198364 C36.16662636 43.75354363 35.37426834 43.75510362 34.55789948 43.75671089 C31.88233116 43.7607241 29.20681882 43.75753001 26.53125 43.75439453 C24.62141893 43.75574843 22.71158812 43.7575283 20.80175781 43.75970459 C15.59942999 43.76428028 10.39712189 43.76248881 5.1947937 43.7593255 C-0.23667455 43.7568026 -5.66814106 43.75913924 -11.09960938 43.76071167 C-20.22265935 43.76253357 -29.34570125 43.76012652 -38.46875 43.75537109 C-49.03254596 43.74992844 -59.59632262 43.75169108 -70.1601181 43.7571975 C-79.21230993 43.76172805 -88.26449594 43.76237946 -97.31668854 43.75975883 C-102.7309043 43.75819573 -108.14511098 43.75800318 -113.55932617 43.76129532 C-118.64816191 43.76417319 -123.73697264 43.7621999 -128.82580566 43.75640106 C-130.69917764 43.75507301 -132.57255169 43.75546834 -134.44592285 43.75766373 C-136.99197227 43.76037347 -139.53794023 43.75699628 -142.08398438 43.75198364 C-142.83523338 43.75421436 -143.58648239 43.75644509 -144.36049652 43.75874341 C-149.44835015 43.73914985 -149.44835015 43.73914985 -150.5625 42.625 C-151.06074535 37.68465171 -150.19677209 35.45723029 -147.125 31.625 C-143.82453559 27.34315857 -140.81321707 23.00683087 -137.9375 18.4375 C-132.60085768 10.07721301 -132.60085768 10.07721301 -130.375 6.875 C-129.96894531 6.28203125 -129.56289062 5.6890625 -129.14453125 5.078125 C-123.8485072 0.21362884 -114.4806715 0.60950232 -107.6875 0 C-106.60270859 -0.09755585 -106.60270859 -0.09755585 -105.4960022 -0.19708252 C-70.80571169 -3.16381771 -34.68006778 -2.85242531 0 0 Z " fill="#6C8FA4" transform="translate(219.5625,68.375)"/>
<path d="M0 0 C2.27781398 1.65800066 4.27758286 3.39673635 6.296875 5.359375 C6.99167969 6.01550781 7.68648437 6.67164062 8.40234375 7.34765625 C19.72213386 18.96477668 22.54895823 32.92231138 22.46484375 48.55078125 C22.296875 51.359375 22.296875 51.359375 21.296875 52.359375 C18.89436968 52.48427198 16.51914715 52.5453829 14.11499023 52.56469727 C13.36381927 52.57459686 12.61264832 52.58449646 11.8387146 52.59469604 C9.34433188 52.62640046 6.84993009 52.65110359 4.35546875 52.67578125 C2.63053377 52.69634307 0.90560392 52.71733933 -0.81932068 52.73875427 C-5.36819314 52.79405471 -9.91711167 52.84342869 -14.46606445 52.89160156 C-19.10437133 52.94175854 -23.74261098 52.99747483 -28.38085938 53.05273438 C-37.48822388 53.16041339 -46.59564665 53.26183657 -55.703125 53.359375 C-55.1004033 54.94785295 -54.48939617 56.53318845 -53.875 58.1171875 C-53.5356543 59.00035645 -53.19630859 59.88352539 -52.84667969 60.79345703 C-50.16751975 66.80497944 -45.98123243 70.97860988 -39.96875 73.640625 C-32.62704593 75.96971733 -24.95810826 75.98930643 -17.703125 73.359375 C-15.34353042 71.86450654 -15.34353042 71.86450654 -13.703125 70.359375 C-13.043125 70.359375 -12.383125 70.359375 -11.703125 70.359375 C-11.331875 69.2146875 -11.331875 69.2146875 -10.953125 68.046875 C-9.5348772 64.99764223 -8.55799082 64.0706882 -5.703125 62.359375 C-3.16943359 62.00292969 -3.16943359 62.00292969 -0.3515625 62.03125 C1.17210937 62.03898437 1.17210937 62.03898437 2.7265625 62.046875 C3.78101563 62.0675 4.83546875 62.088125 5.921875 62.109375 C6.9840625 62.11453125 8.04625 62.1196875 9.140625 62.125 C16.98786526 62.20487013 16.98786526 62.20487013 19.296875 63.359375 C18.78954589 72.99862815 11.72150305 80.73025761 5.07421875 87.09765625 C0.56114106 90.77286298 -4.3147508 93.216044 -9.703125 95.359375 C-10.36852295 95.62572754 -11.0339209 95.89208008 -11.71948242 96.16650391 C-17.49855519 98.30765514 -22.74959821 98.90367764 -28.890625 98.859375 C-29.80682617 98.85437988 -30.72302734 98.84938477 -31.66699219 98.84423828 C-43.49411793 98.5432672 -53.35737463 94.64493992 -62.703125 87.359375 C-63.31542969 86.90949219 -63.92773438 86.45960938 -64.55859375 85.99609375 C-74.97131709 77.83601255 -80.69555725 65.26516769 -82.703125 52.359375 C-83.78293389 36.88903616 -79.62401355 21.79023029 -69.953125 9.484375 C-51.48800461 -9.86003684 -22.75999357 -13.81386893 0 0 Z M-49.87890625 22.0546875 C-52.5229234 25.19879832 -52.5229234 25.19879832 -55.703125 33.359375 C-38.873125 33.359375 -22.043125 33.359375 -4.703125 33.359375 C-5.60583268 27.04042127 -6.08577691 24.30313348 -10.703125 20.359375 C-23.61815283 11.81842077 -37.87838108 11.94103735 -49.87890625 22.0546875 Z " fill="#5E7682" transform="translate(1240.703125,109.640625)"/>
<path d="M0 0 C1.2579689 -0.00095673 2.51593781 -0.00191345 3.81202698 -0.00289917 C7.12242428 -0.00374618 10.43277316 0.0002233 13.74316406 0.00585938 C15.75107333 0.00780975 17.75893884 0.00586578 19.7668457 0.00244141 C23.67791713 -0.00379443 27.58892575 -0.00297224 31.5 0 C32.67751328 -0.00202423 33.85502655 -0.00404846 35.06822205 -0.00613403 C57.88648753 0.05705908 57.88648753 0.05705908 62.265625 3.3515625 C63.26708984 4.98828125 63.26708984 4.98828125 64.31640625 7.1328125 C64.8367041 8.09832031 65.35700195 9.06382813 65.89306641 10.05859375 C67.40291185 12.94472947 68.84618132 15.85151754 70.24780273 18.79150391 C71.13020646 20.63552964 72.0338656 22.46805043 72.93945312 24.30078125 C73.50341797 25.47253906 74.06738281 26.64429688 74.6484375 27.8515625 C75.16124268 28.91310547 75.67404785 29.97464844 76.20239258 31.06835938 C77.38623244 34.3248919 77.611488 36.6961629 77.31640625 40.1328125 C75.55217078 41.89704797 73.01547228 41.3651866 70.61743164 41.44482422 C69.39519394 41.48616486 68.17295624 41.52750549 66.91368103 41.57009888 C65.55965681 41.60975821 64.20561664 41.64887588 62.8515625 41.6875 C62.16339006 41.70843594 61.47521763 41.72937187 60.76619148 41.75094223 C45.84072977 42.20079708 30.919325 42.28751188 15.98803711 42.26318359 C12.43563012 42.25743719 8.88329717 42.26092665 5.33089256 42.26660538 C-7.64468244 42.28439897 -20.6182742 42.25436455 -33.5859375 41.75 C-34.49396622 41.71963654 -35.40199493 41.68927307 -36.33753967 41.6579895 C-42.44294134 41.37346491 -42.44294134 41.37346491 -44.68359375 39.1328125 C-44.33029082 35.04863064 -42.68705539 31.85586092 -40.80859375 28.2578125 C-39.17130488 25.06859106 -37.59627894 21.92907795 -36.18359375 18.6328125 C-30.18359375 4.6328125 -30.18359375 4.6328125 -26.68359375 1.1328125 C-17.92885367 -0.26833445 -8.84426522 -0.01517784 0 0 Z " fill="#F61A49" transform="translate(149.68359375,14.8671875)"/>
<path d="M0 0 C0.96597107 -0.01134979 1.93194214 -0.02269958 2.92718506 -0.03439331 C3.98544998 -0.03146271 5.0437149 -0.0285321 6.13404846 -0.0255127 C7.80755875 -0.03821701 7.80755875 -0.03821701 9.51487732 -0.05117798 C13.21300062 -0.07462992 16.91070986 -0.07556816 20.60890198 -0.07434082 C23.1733619 -0.08143738 25.73782022 -0.08913562 28.30227661 -0.09741211 C33.68163607 -0.11087579 39.06083286 -0.11259773 44.44020081 -0.10656738 C50.65758914 -0.09992585 56.87438432 -0.12279325 63.09165233 -0.15988111 C69.07339686 -0.19426893 75.05482611 -0.20091574 81.03668404 -0.1967926 C83.58165822 -0.1984893 86.12663983 -0.20818423 88.67155266 -0.22593689 C92.22724155 -0.24800994 95.78149054 -0.23848232 99.33717346 -0.2208252 C100.9215345 -0.24072006 100.9215345 -0.24072006 102.53790283 -0.26101685 C109.64770039 -0.17875729 109.64770039 -0.17875729 112.98794556 2.75488281 C114.72021194 6.23895235 114.42967685 7.68952919 113.30030823 11.39440918 C112.23367234 13.92972065 111.13732864 16.37030574 109.92530823 18.83190918 C109.31223749 20.10091366 108.70025247 21.37044325 108.08937073 22.64050293 C107.63739319 23.56838623 107.63739319 23.56838623 107.17628479 24.51501465 C106.29758402 26.40025392 105.52873297 28.30933843 104.76124573 30.24206543 C103.30030823 33.39440918 103.30030823 33.39440918 100.30030823 35.39440918 C97.23577415 35.60523319 94.2608816 35.69849555 91.19483948 35.70080566 C89.79689651 35.71329094 89.79689651 35.71329094 88.37071228 35.72602844 C85.28470202 35.75015895 82.19890287 35.75890326 79.11280823 35.76550293 C76.97193842 35.77446521 74.83106928 35.78358697 72.69020081 35.79286194 C68.20117163 35.80936159 63.71221713 35.81705414 59.22315979 35.81994629 C53.46240885 35.82533854 47.70235633 35.86304952 41.94180298 35.90869045 C37.52037469 35.93838262 33.0991164 35.9456681 28.67759705 35.94667244 C26.55323581 35.95088847 24.42887468 35.96337773 22.30461121 35.98418999 C19.33780464 36.01094857 16.37264124 36.0063259 13.40577698 35.99377441 C12.08251907 36.01602585 12.08251907 36.01602585 10.73252869 36.03872681 C8.47659797 36.0114515 6.48634005 35.95193634 4.30030823 35.39440918 C2.30413818 32.99349976 2.30413818 32.99349976 1.30030823 30.39440918 C0.91528137 29.67342041 0.53025452 28.95243164 0.13356018 28.20959473 C-1.05667373 25.84159981 -2.22498595 23.46378236 -3.38719177 21.08190918 C-3.80291443 20.26528809 -4.21863708 19.44866699 -4.6469574 18.6072998 C-7.2418005 13.25996304 -8.45942372 9.34888947 -7.69969177 3.39440918 C-5.46096723 0.31375164 -3.71154116 0.01647358 0 0 Z " fill="#323334" transform="translate(112.69969177246094,144.6055908203125)"/>
<path d="M0 0 C1.12019531 -0.00128906 2.24039063 -0.00257812 3.39453125 -0.00390625 C4.57402344 -0.00003906 5.75351562 0.00382812 6.96875 0.0078125 C8.73798828 0.00201172 8.73798828 0.00201172 10.54296875 -0.00390625 C12.22326172 -0.00197266 12.22326172 -0.00197266 13.9375 0 C14.97326172 0.00112793 16.00902344 0.00225586 17.07617188 0.00341797 C19.46875 0.1328125 19.46875 0.1328125 20.46875 1.1328125 C20.56499593 2.85373903 20.59062598 4.57864632 20.58900452 6.30226135 C20.59037918 7.42271851 20.59175385 8.54317566 20.59317017 9.69758606 C20.58957489 10.93763901 20.58597961 12.17769196 20.58227539 13.45532227 C20.58242142 14.75269318 20.58256744 16.05006409 20.5827179 17.38674927 C20.58300586 20.95477179 20.57710932 24.52276098 20.57014394 28.09077573 C20.56391021 31.8157187 20.56330659 35.54066236 20.56211853 39.26560974 C20.55900527 46.32398613 20.55079195 53.3823471 20.54076904 60.44071668 C20.52960774 68.47444221 20.52409741 76.50816846 20.51907361 84.5418998 C20.50860934 101.07221307 20.49101 117.60251082 20.46875 134.1328125 C17.93428127 135.40004687 16.14648046 135.26222578 13.3125 135.265625 C12.29027344 135.26691406 11.26804687 135.26820313 10.21484375 135.26953125 C9.14363281 135.26566406 8.07242188 135.26179687 6.96875 135.2578125 C5.36193359 135.26361328 5.36193359 135.26361328 3.72265625 135.26953125 C2.70042969 135.26824219 1.67820312 135.26695312 0.625 135.265625 C-0.31537109 135.26449707 -1.25574219 135.26336914 -2.22460938 135.26220703 C-4.53125 135.1328125 -4.53125 135.1328125 -6.53125 134.1328125 C-6.5545785 116.80903898 -6.57222893 99.48527034 -6.58306217 82.16148472 C-6.58822523 74.11831196 -6.59526812 66.07514893 -6.60668945 58.03198242 C-6.61663598 51.0240829 -6.62310335 44.01619042 -6.62533849 37.00828403 C-6.62664566 33.29538058 -6.62973184 29.5824973 -6.63698006 25.8696003 C-6.64499332 21.73149839 -6.64524116 17.59343189 -6.64477539 13.45532227 C-6.64837067 12.21526932 -6.65196594 10.97521637 -6.65567017 9.69758606 C-6.6542955 8.57712891 -6.65292084 7.45667175 -6.65150452 6.30226135 C-6.65242631 5.32239541 -6.6533481 4.34252947 -6.65429783 3.33297062 C-6.41173922 -1.00410135 -3.73713749 0.00406969 0 0 Z " fill="#205FB4" transform="translate(791.53125,70.8671875)"/>
<path d="M0 0 C0.78117188 -0.00128906 1.56234375 -0.00257812 2.3671875 -0.00390625 C3.17414062 -0.00003906 3.98109375 0.00382812 4.8125 0.0078125 C5.61945312 0.00394531 6.42640625 0.00007813 7.2578125 -0.00390625 C8.03898438 -0.00261719 8.82015625 -0.00132813 9.625 0 C10.68654297 0.00169189 10.68654297 0.00169189 11.76953125 0.00341797 C13.8125 0.1328125 13.8125 0.1328125 17.8125 1.1328125 C17.8125 34.1328125 17.8125 67.1328125 17.8125 101.1328125 C14.7300866 101.90341585 12.69219225 102.26073649 9.625 102.265625 C8.84382812 102.26691406 8.06265625 102.26820313 7.2578125 102.26953125 C6.04738281 102.26373047 6.04738281 102.26373047 4.8125 102.2578125 C4.00554688 102.26167969 3.19859375 102.26554687 2.3671875 102.26953125 C1.58601562 102.26824219 0.80484375 102.26695312 0 102.265625 C-0.70769531 102.26449707 -1.41539062 102.26336914 -2.14453125 102.26220703 C-4.1875 102.1328125 -4.1875 102.1328125 -8.1875 101.1328125 C-8.1875 68.1328125 -8.1875 35.1328125 -8.1875 1.1328125 C-5.1050866 0.36220915 -3.06719225 0.00488851 0 0 Z " fill="#657B86" transform="translate(984.1875,103.8671875)"/>
<path d="M0 0 C1.2579689 -0.00095673 2.51593781 -0.00191345 3.81202698 -0.00289917 C7.12242428 -0.00374618 10.43277316 0.0002233 13.74316406 0.00585938 C15.75107333 0.00780975 17.75893884 0.00586578 19.7668457 0.00244141 C23.67791713 -0.00379443 27.58892575 -0.00297224 31.5 0 C32.67751328 -0.00202423 33.85502655 -0.00404846 35.06822205 -0.00613403 C57.88648753 0.05705908 57.88648753 0.05705908 62.265625 3.3515625 C63.26708984 4.98828125 63.26708984 4.98828125 64.31640625 7.1328125 C64.8367041 8.09832031 65.35700195 9.06382813 65.89306641 10.05859375 C67.40291185 12.94472947 68.84618132 15.85151754 70.24780273 18.79150391 C71.13020646 20.63552964 72.0338656 22.46805043 72.93945312 24.30078125 C73.50341797 25.47253906 74.06738281 26.64429688 74.6484375 27.8515625 C75.16124268 28.91310547 75.67404785 29.97464844 76.20239258 31.06835938 C77.38623244 34.3248919 77.611488 36.6961629 77.31640625 40.1328125 C75.55217078 41.89704797 73.01547228 41.3651866 70.61743164 41.44482422 C69.39519394 41.48616486 68.17295624 41.52750549 66.91368103 41.57009888 C65.55965681 41.60975821 64.20561664 41.64887588 62.8515625 41.6875 C62.16339006 41.70843594 61.47521763 41.72937187 60.76619148 41.75094223 C45.84072977 42.20079708 30.919325 42.28751188 15.98803711 42.26318359 C12.43563012 42.25743719 8.88329717 42.26092665 5.33089256 42.26660538 C-7.64468244 42.28439897 -20.6182742 42.25436455 -33.5859375 41.75 C-34.49396622 41.71963654 -35.40199493 41.68927307 -36.33753967 41.6579895 C-42.44294134 41.37346491 -42.44294134 41.37346491 -44.68359375 39.1328125 C-44.33029082 35.04863064 -42.68705539 31.85586092 -40.80859375 28.2578125 C-39.17130488 25.06859106 -37.59627894 21.92907795 -36.18359375 18.6328125 C-30.18359375 4.6328125 -30.18359375 4.6328125 -26.68359375 1.1328125 C-17.92885367 -0.26833445 -8.84426522 -0.01517784 0 0 Z M-24.68359375 10.1328125 C-25.8732877 12.07355108 -25.8732877 12.07355108 -26.75390625 14.13671875 C-27.09292969 14.87728516 -27.43195313 15.61785156 -27.78125 16.38085938 C-28.12027344 17.14462891 -28.45929688 17.90839844 -28.80859375 18.6953125 C-29.49660292 20.21839601 -30.18663087 21.74056959 -30.87890625 23.26171875 C-31.17812988 23.93275635 -31.47735352 24.60379395 -31.78564453 25.29516602 C-32.68359375 27.1328125 -32.68359375 27.1328125 -34.68359375 30.1328125 C-34.93390352 32.71661427 -34.93390352 32.71661427 -34.68359375 35.1328125 C-32.72994069 37.08646556 -29.74959623 36.25303374 -27.14958191 36.25723267 C-25.73833794 36.25183975 -25.73833794 36.25183975 -24.29858398 36.24633789 C-23.31332733 36.24648392 -22.32807068 36.24662994 -21.31295776 36.2467804 C-18.03934568 36.24608082 -14.76578971 36.23828635 -11.4921875 36.23046875 C-9.22917207 36.22860473 -6.96615624 36.22718075 -4.70314026 36.22618103 C1.26619573 36.2223546 7.23550757 36.21252325 13.20483398 36.20147705 C19.29084954 36.19126562 25.37686898 36.18668399 31.46289062 36.18164062 C43.41407314 36.17090109 55.36523769 36.15382318 67.31640625 36.1328125 C68.68225442 30.90194056 67.16430495 27.92529892 64.69140625 23.3203125 C64.32329834 22.61124756 63.95519043 21.90218262 63.57592773 21.17163086 C59.64595183 13.15736297 59.64595183 13.15736297 54.31640625 6.1328125 C52.00693911 6.01722949 49.69388496 5.97308011 47.3815918 5.95581055 C46.65635315 5.94923935 45.9311145 5.94266815 45.18389893 5.93589783 C42.77364001 5.9161188 40.36344356 5.90449163 37.953125 5.89453125 C37.1315925 5.89045572 36.31006001 5.8863802 35.46363258 5.88218117 C31.11483636 5.86130001 26.76607189 5.84700763 22.41723633 5.83764648 C17.92109314 5.82658224 13.42544492 5.79218841 8.92947674 5.75247478 C5.47651744 5.72634755 2.02367668 5.7179581 -1.42937279 5.71436501 C-3.08679736 5.70948832 -4.74421626 5.6978436 -6.40154457 5.67932701 C-8.72162836 5.65501885 -11.04042397 5.65588474 -13.3605957 5.6628418 C-14.04594894 5.65003174 -14.73130219 5.63722168 -15.43742371 5.62402344 C-19.95627303 5.67342876 -21.92531058 6.55631121 -24.68359375 10.1328125 Z " fill="#4291E7" transform="translate(149.68359375,14.8671875)"/>
<path d="M0 0 C1.0442086 0.00303635 1.0442086 0.00303635 2.10951233 0.00613403 C2.83956985 0.00438171 3.56962738 0.00262939 4.32180786 0.00082397 C6.74650924 -0.00359443 9.17113828 -0.00065661 11.59584045 0.00271606 C13.27353428 0.00204302 14.95122802 0.00107299 16.62892151 -0.00018311 C20.14964219 -0.00166006 23.67033755 0.0004944 27.1910553 0.00515747 C31.71419541 0.01085476 36.23727619 0.00757574 40.76041412 0.00158501 C44.22611441 -0.00202067 47.69180052 -0.00088199 51.15750122 0.0017128 C52.8257447 0.00238205 54.49398945 0.00155371 56.16223145 -0.00076675 C58.48974539 -0.00329339 60.81716193 0.00054744 63.14466858 0.00613403 C63.84080765 0.0041098 64.53694672 0.00208557 65.25418091 0 C70.01282772 0.02126583 70.01282772 0.02126583 71.12709045 1.13552856 C71.22618348 3.46712912 71.2567955 5.80182798 71.25209045 8.13552856 C71.25595764 10.05365356 71.25595764 10.05365356 71.25990295 12.01052856 C71.12709045 15.13552856 71.12709045 15.13552856 70.12709045 16.13552856 C67.7899472 16.23576411 65.4823472 16.27172059 63.14466858 16.2649231 C62.41461105 16.26667542 61.68455353 16.26842773 60.93237305 16.27023315 C58.50767167 16.27465156 56.08304263 16.27171373 53.65834045 16.26834106 C51.98064663 16.26901411 50.30295289 16.26998414 48.6252594 16.27124023 C45.10453872 16.27271719 41.58384336 16.27056273 38.06312561 16.26589966 C33.5399855 16.26020237 29.01690472 16.26348138 24.49376678 16.26947212 C21.0280665 16.2730778 17.56238039 16.27193912 14.09667969 16.26934433 C12.42843621 16.26867508 10.76019146 16.26950342 9.09194946 16.27182388 C6.76443552 16.27435052 4.43701898 16.27050969 2.10951233 16.2649231 C1.41337326 16.26694733 0.71723419 16.26897156 0 16.27105713 C-4.75864681 16.2497913 -4.75864681 16.2497913 -5.87290955 15.13552856 C-5.97200257 12.80392801 -6.00261459 10.46922915 -5.99790955 8.13552856 C-6.00048767 6.85677856 -6.0030658 5.57802856 -6.00572205 4.26052856 C-5.79686515 -0.65375143 -4.49652654 0.02009444 0 0 Z " fill="#000205" transform="translate(132.87290954589844,189.86447143554688)"/>
<path d="M0 0 C2.56695636 0.39491636 4.67123994 0.83561997 7 2 C9.31126603 2.14324275 11.626352 2.22654191 13.94140625 2.28125 C14.62428207 2.29965942 15.3071579 2.31806885 16.01072693 2.33703613 C18.93692188 2.41581002 21.8633476 2.48359985 24.78979492 2.55224609 C26.92378516 2.60386152 29.05757072 2.66114393 31.19140625 2.71875 C33.11255249 2.76418945 33.11255249 2.76418945 35.07250977 2.81054688 C38 3 38 3 39 4 C39.09985642 5.97583828 39.13080794 7.95523478 39.1328125 9.93359375 C39.13474609 11.7424707 39.13474609 11.7424707 39.13671875 13.58789062 C39.13285156 14.85826172 39.12898438 16.12863281 39.125 17.4375 C39.13080078 19.33725586 39.13080078 19.33725586 39.13671875 21.27539062 C39.13542969 22.48259766 39.13414063 23.68980469 39.1328125 24.93359375 C39.13168457 26.04790771 39.13055664 27.16222168 39.12939453 28.31030273 C39 31 39 31 38 33 C32.76728431 33.07403712 27.53487199 33.12854783 22.30175781 33.16479492 C20.52077933 33.17990173 18.73983816 33.20038835 16.95898438 33.22631836 C14.40225022 33.26261943 11.8460069 33.27970688 9.2890625 33.29296875 C8.49005524 33.30845261 7.69104797 33.32393646 6.86782837 33.33988953 C4.62353516 33.34057617 4.62353516 33.34057617 1 33 C-1.41212469 29.38181297 -1.24528253 27.69908089 -1.23046875 23.3984375 C-1.22853516 22.10421875 -1.22660156 20.81 -1.22460938 19.4765625 C-1.21840576 18.80399414 -1.21220215 18.13142578 -1.20581055 17.43847656 C-1.18750467 15.37552609 -1.18530128 13.31302337 -1.18554688 11.25 C-1.14014333 1.14014333 -1.14014333 1.14014333 0 0 Z " fill="#373837" transform="translate(33,224)"/>
<path d="M0 0 C0.049377 4.52065428 0.08570823 9.04115217 0.10986328 13.56201172 C0.11993118 15.10045098 0.13358646 16.63887107 0.15087891 18.17724609 C0.17509317 20.38644133 0.18647491 22.59538395 0.1953125 24.8046875 C0.20563507 25.49432587 0.21595764 26.18396423 0.22659302 26.89450073 C0.22699478 28.59800906 0.12191026 30.30085943 0 32 C-2.55433751 34.55433751 -4.20733883 34.23730793 -7.68971252 34.25224304 C-8.46370895 34.24505753 -9.23770538 34.23787201 -10.03515625 34.23046875 C-11.22594032 34.22978142 -11.22594032 34.22978142 -12.44078064 34.2290802 C-14.11947117 34.22605765 -15.7981589 34.21817125 -17.47680664 34.20581055 C-20.05560158 34.18754885 -22.63403777 34.18530087 -25.21289062 34.18554688 C-26.84114896 34.18063196 -28.46940484 34.17480376 -30.09765625 34.16796875 C-31.26168724 34.16629951 -31.26168724 34.16629951 -32.44923401 34.16459656 C-37.88394993 34.11605007 -37.88394993 34.11605007 -39 33 C-39.08775605 30.85441173 -39.10695219 28.70595579 -39.09765625 26.55859375 C-39.09443359 25.25341797 -39.09121094 23.94824219 -39.08789062 22.60351562 C-39.07953401 21.2148431 -39.07106905 19.82617123 -39.0625 18.4375 C-39.05748666 17.04492344 -39.05292347 15.65234519 -39.04882812 14.25976562 C-39.03699434 10.8398013 -39.0205088 7.41992156 -39 4 C-37.68394775 3.97812622 -37.68394775 3.97812622 -36.34130859 3.95581055 C-33.06450679 3.8945032 -29.78851056 3.82030667 -26.51220703 3.73754883 C-25.0982551 3.70443709 -23.68417536 3.67636284 -22.27001953 3.65356445 C-20.22894177 3.61976225 -18.18902072 3.56744036 -16.1484375 3.51171875 C-14.92302246 3.48553467 -13.69760742 3.45935059 -12.43505859 3.43237305 C-7.83081517 2.85283395 -4.5701699 0 0 0 Z " fill="#343434" transform="translate(301,223)"/>
<path d="M0 0 C2.82273193 6.17062328 5.9731144 13.06655991 5 20 C2.33836792 23.4613713 -0.25848864 24.73685131 -4.375 26 C-5.95667969 26.48726562 -5.95667969 26.48726562 -7.5703125 26.984375 C-8.70210938 27.31953125 -9.83390625 27.6546875 -11 28 C-12.19367188 28.37640625 -13.38734375 28.7528125 -14.6171875 29.140625 C-26.45400039 32.75530765 -26.45400039 32.75530765 -33 32 C-35 30 -35 30 -35.4375 27.375 C-34.33857587 18.8975853 -28.29805594 14.085913 -21.8515625 9.046875 C-15.20496698 4.27589411 -8.35018029 -0.15207282 0 0 Z " fill="#C6C9CC" transform="translate(275,147)"/>
<path d="M0 0 C11.91893984 0.80952337 24.44487553 9.86784676 32.21875 18.44921875 C34.05468238 21.07830613 34.60756574 22.53712444 34.875 25.6875 C34.95492187 26.45449219 35.03484375 27.22148437 35.1171875 28.01171875 C35 30 35 30 33 32 C26.95792261 32.59636089 21.8578832 31.04855159 16.125 29.25 C15.27808594 28.99734375 14.43117188 28.7446875 13.55859375 28.484375 C-1.81644885 23.77532673 -1.81644885 23.77532673 -5 19 C-4.80182509 16.57235737 -4.47105055 14.37726443 -4 12 C-3.85175781 11.13890625 -3.70351563 10.2778125 -3.55078125 9.390625 C-2.26333774 2.26333774 -2.26333774 2.26333774 0 0 Z " fill="#C7C9CC" transform="translate(56,147)"/>
<path d="M0 0 C3.66964541 2.08435859 5.50490843 4.4795833 7.1328125 8.34765625 C8.33790838 13.02376774 7.36954111 16.88463948 5.5 21.3125 C3.00143656 24.3280076 1.46118901 25.26379153 -2.3125 26.5 C-9.05224591 27.11886975 -14.65064601 27.60860201 -20.3125 23.5 C-23.82189157 19.48926678 -24.66637959 15.9032853 -24.59765625 10.5625 C-24.00424103 6.2704009 -21.40004917 3.45572503 -18.25 0.6875 C-12.68748229 -2.72178505 -5.88976723 -2.50370255 0 0 Z " fill="#677C87" transform="translate(997.3125,62.5)"/>
<path d="M0 0 C6.99004952 -1.01823556 14.31206683 -0.97800376 20.4453125 2.8125 C23.63110567 5.24586966 25.60803245 7.11236678 26.4453125 11.14453125 C26.78117672 15.54727309 26.78117672 15.54727309 26 18 C22.5702959 21.91726008 20.23368679 23.269826 15.0390625 23.70703125 C13.23500554 23.7662886 11.42999271 23.80091303 9.625 23.8125 C8.69816406 23.83763672 7.77132813 23.86277344 6.81640625 23.88867188 C4.54384359 23.94724308 2.27319322 23.98374013 0 24 C-4 17.375 -4 17.375 -4 14 C-3.34 14 -2.68 14 -2 14 C-2.02320313 13.24074219 -2.04640625 12.48148438 -2.0703125 11.69921875 C-2.08835937 10.70535156 -2.10640625 9.71148437 -2.125 8.6875 C-2.14820313 7.70136719 -2.17140625 6.71523437 -2.1953125 5.69921875 C-2 3 -2 3 0 0 Z " fill="#3F90E7" transform="translate(287,97)"/>
<path d="M0 0 C2.51522009 2.51522009 2.35317085 3.50778101 2.4375 7 C2.3631655 13.25235728 0.20011384 17.73124115 -3 23 C-5.71003427 23.1358035 -8.41318941 23.23444624 -11.125 23.3125 C-11.88554688 23.35439453 -12.64609375 23.39628906 -13.4296875 23.43945312 C-17.50374321 23.52725605 -20.22231144 23.2885601 -23.51953125 20.76171875 C-26 18 -26 18 -26.69140625 15.71875 C-26.20825516 7.40269487 -26.20825516 7.40269487 -23 4 C-16.11033571 -0.78186745 -8.12371083 -0.92780761 0 0 Z " fill="#358AE6" transform="translate(48,97)"/>
<path d="M0 0 C1.15628906 0.00386719 2.31257813 0.00773438 3.50390625 0.01171875 C6.4375 0.3125 6.4375 0.3125 8.4375 2.3125 C8.6328125 5.3515625 8.6328125 5.3515625 8.5625 8.9375 C8.54445313 10.12601563 8.52640625 11.31453125 8.5078125 12.5390625 C8.48460937 13.45429688 8.46140625 14.36953125 8.4375 15.3125 C5.46894127 16.79677936 2.73838341 16.52191537 -0.5625 16.5625 C-1.820625 16.58828125 -3.07875 16.6140625 -4.375 16.640625 C-5.426875 16.53234375 -6.47875 16.4240625 -7.5625 16.3125 C-9.70803377 13.09419935 -9.85833868 12.04463493 -9.875 8.3125 C-9.89175781 7.44625 -9.90851563 6.58 -9.92578125 5.6875 C-9.5625 3.3125 -9.5625 3.3125 -8.453125 1.51953125 C-5.63894272 -0.27712644 -3.30317826 -0.04797913 0 0 Z " fill="#4A4E52" transform="translate(275.5625,189.6875)"/>
<path d="M0 0 C1.73056641 -0.04253906 1.73056641 -0.04253906 3.49609375 -0.0859375 C6.5625 0.375 6.5625 0.375 8.453125 2.11328125 C9.67785626 4.61018054 9.9358378 6.17171979 9.875 8.9375 C9.87113281 9.70191406 9.86726563 10.46632812 9.86328125 11.25390625 C9.5625 13.375 9.5625 13.375 7.5625 16.375 C4.375 16.73828125 4.375 16.73828125 0.5625 16.6875 C-1.3246875 16.68169922 -1.3246875 16.68169922 -3.25 16.67578125 C-6.4375 16.375 -6.4375 16.375 -8.4375 14.375 C-8.703125 11.625 -8.703125 11.625 -8.6875 8.375 C-8.69265625 7.3025 -8.6978125 6.23 -8.703125 5.125 C-8.1648875 -0.44734114 -4.79333156 0.05343736 0 0 Z " fill="#4A4E52" transform="translate(55.4375,189.625)"/>
<path d="M0 0 C0.66 0.33 1.32 0.66 2 1 C1.50371094 1.3403125 1.00742187 1.680625 0.49609375 2.03125 C-4.10979882 5.31742762 -7.73083493 8.78519699 -11.34375 13.12890625 C-12.84897054 14.82937945 -14.32217865 16.13408689 -16.125 17.5 C-21.90515688 22.52622337 -24.56208588 28.89403441 -27 36 C-27.77900406 37.95125537 -28.55953336 39.90164916 -29.3515625 41.84765625 C-34.37313653 58.51565197 -31.3862213 77.92752822 -23.5625 93.0625 C-21.05829064 97.44486638 -18.46066264 101.32960023 -15 105 C-15.33 105.66 -15.66 106.32 -16 107 C-20.01161723 102.60059311 -23.24784032 98.27304544 -26 93 C-26.66 91.865625 -27.32 90.73125 -28 89.5625 C-35.83251562 73.40016618 -36.21218439 54.78327849 -30.67578125 37.90234375 C-25.42439778 23.1195475 -14.46210359 7.23105179 0 0 Z " fill="#F3DBD2" transform="translate(376,78)"/>
<path d="M0 0 C0.049377 4.52065428 0.08570823 9.04115217 0.10986328 13.56201172 C0.11993118 15.10045098 0.13358646 16.63887107 0.15087891 18.17724609 C0.17509317 20.38644133 0.18647491 22.59538395 0.1953125 24.8046875 C0.20563507 25.49432587 0.21595764 26.18396423 0.22659302 26.89450073 C0.22699478 28.59800906 0.12191026 30.30085943 0 32 C-2 34 -2 34 -5.53173828 34.22705078 C-7.04463331 34.22673363 -8.55755088 34.21540633 -10.0703125 34.1953125 C-10.86654022 34.1924826 -11.66276794 34.18965271 -12.48312378 34.18673706 C-15.03056763 34.1755264 -17.57766211 34.15042062 -20.125 34.125 C-21.85025535 34.11497133 -23.57551619 34.10584528 -25.30078125 34.09765625 C-29.53398914 34.07558422 -33.7669353 34.04104867 -38 34 C-38 33.01 -38 32.02 -38 31 C-26.12 31.33 -14.24 31.66 -2 32 C-2.33 22.43 -2.66 12.86 -3 3 C-4.65 3.66 -6.3 4.32 -8 5 C-11.41333008 5.22705078 -11.41333008 5.22705078 -15.26953125 5.1953125 C-15.95053391 5.1924826 -16.63153656 5.18965271 -17.33317566 5.18673706 C-19.49313455 5.17560525 -21.65266794 5.15051457 -23.8125 5.125 C-25.28319711 5.11496111 -26.75390076 5.10583685 -28.22460938 5.09765625 C-31.81654286 5.07568913 -35.40822985 5.0412082 -39 5 C-39 4.67 -39 4.34 -39 4 C-37.68394775 3.97812622 -37.68394775 3.97812622 -36.34130859 3.95581055 C-33.06450679 3.8945032 -29.78851056 3.82030667 -26.51220703 3.73754883 C-25.0982551 3.70443709 -23.68417536 3.67636284 -22.27001953 3.65356445 C-20.22894177 3.61976225 -18.18902072 3.56744036 -16.1484375 3.51171875 C-14.92302246 3.48553467 -13.69760742 3.45935059 -12.43505859 3.43237305 C-7.83081517 2.85283395 -4.5701699 0 0 0 Z " fill="#868987" transform="translate(301,223)"/>
<path d="M0 0 C2.56695636 0.39491636 4.67123994 0.83561997 7 2 C9.32273159 2.15520557 11.64959313 2.25019167 13.9765625 2.31640625 C14.66181 2.33718735 15.3470575 2.35796844 16.05307007 2.37937927 C18.24361069 2.44480185 20.43427189 2.50372554 22.625 2.5625 C24.1093875 2.60569218 25.59376278 2.6493067 27.078125 2.69335938 C30.71862084 2.80047553 34.35925251 2.90176362 38 3 C38 3.33 38 3.66 38 4 C33.37355096 4.04950925 28.74725682 4.08577116 24.12060547 4.10986328 C22.54733595 4.11990887 20.97408504 4.13354781 19.40087891 4.15087891 C17.13699748 4.17519096 14.87336334 4.18649747 12.609375 4.1953125 C11.90818542 4.20563507 11.20699585 4.21595764 10.48455811 4.22659302 C6.49430197 4.22750579 4.69188542 3.84594271 1 2 C1.33 11.57 1.66 21.14 2 31 C13.88 31 25.76 31 38 31 C38 31.66 38 32.32 38 33 C32.76728431 33.07403712 27.53487199 33.12854783 22.30175781 33.16479492 C20.52077933 33.17990173 18.73983816 33.20038835 16.95898438 33.22631836 C14.40225022 33.26261943 11.8460069 33.27970688 9.2890625 33.29296875 C8.49005524 33.30845261 7.69104797 33.32393646 6.86782837 33.33988953 C4.62353516 33.34057617 4.62353516 33.34057617 1 33 C-1.41212469 29.38181297 -1.24528253 27.69908089 -1.23046875 23.3984375 C-1.22853516 22.10421875 -1.22660156 20.81 -1.22460938 19.4765625 C-1.21840576 18.80399414 -1.21220215 18.13142578 -1.20581055 17.43847656 C-1.18750467 15.37552609 -1.18530128 13.31302337 -1.18554688 11.25 C-1.14014333 1.14014333 -1.14014333 1.14014333 0 0 Z " fill="#ACB0AD" transform="translate(33,224)"/>
<path d="M0 0 C5.81625 -0.04125 11.6325 -0.0825 17.625 -0.125 C19.4498291 -0.14320801 21.2746582 -0.16141602 23.15478516 -0.18017578 C24.61620795 -0.1860221 26.07763403 -0.19111733 27.5390625 -0.1953125 C28.28567139 -0.20554443 29.03228027 -0.21577637 29.80151367 -0.22631836 C34.2346174 -0.22778579 37.95308494 0.12277422 42 2 C42.495 3.485 42.495 3.485 43 5 C41.86691406 4.51917969 40.73382812 4.03835937 39.56640625 3.54296875 C32.2502246 1.10424153 24.56983802 1.42829479 16.9375 1.3125 C9.0484375 1.1578125 9.0484375 1.1578125 1 1 C1 12.22 1 23.44 1 35 C13.21 34.67 25.42 34.34 38 34 C36 36 36 36 32.46826172 36.22705078 C30.95536674 36.22655032 29.44244799 36.21549111 27.9296875 36.1953125 C26.87116577 36.19229126 26.87116577 36.19229126 25.79125977 36.18920898 C23.15244049 36.17873636 20.51371379 36.15081375 17.875 36.125 C9.026875 36.063125 9.026875 36.063125 0 36 C0 24.12 0 12.24 0 0 Z " fill="#CACEDB" transform="translate(677,92)"/>
<path d="M0 0 C6.95348837 4.23255814 6.95348837 4.23255814 8 8 C8.41885379 12.4070703 8.53929387 16.1910592 6 20 C5.34 20 4.68 20 4 20 C3.32749476 17.41806023 2.66182099 14.83467929 2 12.25 C1.71382813 11.15558594 1.71382813 11.15558594 1.421875 10.0390625 C0.53484036 6.55428354 0 3.61876278 0 0 Z " fill="#B7C1CD" transform="translate(282,146)"/>
<path d="M0 0 C-0.67963477 4.34174442 -1.55848785 8.59703519 -2.5625 12.875 C-2.83191406 14.02742187 -3.10132813 15.17984375 -3.37890625 16.3671875 C-3.58386719 17.23601562 -3.78882813 18.10484375 -4 19 C-4.66 19 -5.32 19 -6 19 C-7.32036617 14.3518817 -7.57346725 9.79697604 -7 5 C-4.1 0 -4.1 0 0 0 Z " fill="#BAC3CD" transform="translate(49,147)"/>
<path d="M0 0 C0 0.33 0 0.66 0 1 C-1.30324219 1.05607422 -1.30324219 1.05607422 -2.6328125 1.11328125 C-10.54467012 1.56462883 -16.33521083 2.05197137 -22 8 C-22.66 8 -23.32 8 -24 8 C-24 11.63 -24 15.26 -24 19 C-24.66 18.67 -25.32 18.34 -26 18 C-26.2435301 13.85998825 -26.38416792 10.15250375 -25.0625 6.1875 C-18.22418982 -1.06525322 -9.33587623 -0.47808186 0 0 Z " fill="#98C3EF" transform="translate(48,97)"/>
<path d="M0 0 C1.39664108 0.11562606 2.79231199 0.242992 4.1875 0.375 C4.96480469 0.44460937 5.74210938 0.51421875 6.54296875 0.5859375 C9 1 9 1 11.12890625 2.02734375 C15.61326877 3.54653595 20.0511988 3.24701815 24.75 3.1875 C25.70132813 3.18685547 26.65265625 3.18621094 27.6328125 3.18554688 C33.49428507 3.14941451 39.18661748 2.74760578 45 2 C39.9211475 7.0788525 28.96973698 5.29329146 22.20507812 5.33007812 C14.15469384 5.25658101 7.43834222 4.25427472 0 1 C0 0.67 0 0.34 0 0 Z " fill="#D0CDD6" transform="translate(535,203)"/>
<path d="M0 0 C5.01707535 -0.04961356 10.03400635 -0.08582043 15.05126953 -0.10986328 C16.75637298 -0.1198914 18.46145936 -0.13351726 20.16650391 -0.15087891 C22.62406642 -0.17526803 25.08140061 -0.18651512 27.5390625 -0.1953125 C28.67379501 -0.21079636 28.67379501 -0.21079636 29.83145142 -0.22659302 C34.25461954 -0.22752066 37.96284019 0.12729935 42 2 C42.495 3.485 42.495 3.485 43 5 C41.87722656 4.51917969 40.75445313 4.03835937 39.59765625 3.54296875 C32.14305368 1.05810123 24.21340757 1.4244473 16.4375 1.3125 C14.8404677 1.27927239 13.24346123 1.24477784 11.64648438 1.20898438 C7.76446676 1.12470507 3.88250128 1.05760577 0 1 C0 0.67 0 0.34 0 0 Z " fill="#989EBF" transform="translate(677,92)"/>
<path d="M0 0 C1.03974499 3.41065139 1.11508506 6.52264842 1.09765625 10.078125 C1.09282227 11.81835938 1.09282227 11.81835938 1.08789062 13.59375 C1.07951172 14.8003125 1.07113281 16.006875 1.0625 17.25 C1.05798828 18.47203125 1.05347656 19.6940625 1.04882812 20.953125 C1.03704815 23.96879946 1.02059853 26.98437498 1 30 C-3.47002871 23.29495693 -2.76894066 13.87441511 -1.55078125 6.15234375 C-1.08956501 4.0883193 -0.5535462 2.0412016 0 0 Z " fill="#E6D2BD" transform="translate(1160,140)"/>
<path d="M0 0 C0.66 0.33 1.32 0.66 2 1 C0.58791833 2.60820412 -0.82986036 4.21140708 -2.25 5.8125 C-3.03890625 6.70582031 -3.8278125 7.59914063 -4.640625 8.51953125 C-7 11 -7 11 -9.21875 12.65625 C-11.56226068 14.42416157 -12.10973261 16.25500887 -13 19 C-13.66 19 -14.32 19 -15 19 C-13.1179246 10.63522046 -6.5128329 5.08318666 0 0 Z " fill="#B5AAA1" transform="translate(1180,111)"/>
<path d="M0 0 C0.66 0.33 1.32 0.66 2 1 C1.25556641 1.51046875 1.25556641 1.51046875 0.49609375 2.03125 C-4.14965601 5.34586463 -7.84919101 8.84366404 -11.45703125 13.265625 C-13 15 -13 15 -16 17 C-15.56285528 12.24184786 -13.81180864 10.44152756 -10.25 7.375 C-9.38890625 6.61960937 -8.5278125 5.86421875 -7.640625 5.0859375 C-5.16610699 3.13121469 -2.81338212 1.42582971 0 0 Z " fill="#ACAAC6" transform="translate(376,78)"/>
<path d="M0 0 C-4.06727245 2.91832543 -6.84915617 3.33790436 -11.8125 3.1875 C-13.55466797 3.14689453 -13.55466797 3.14689453 -15.33203125 3.10546875 C-16.21246094 3.07066406 -17.09289062 3.03585938 -18 3 C-18 2.67 -18 2.34 -18 2 C-15.56421213 1.46969932 -13.12694025 0.95047688 -10.6875 0.4375 C-9.65206055 0.21030273 -9.65206055 0.21030273 -8.59570312 -0.02148438 C-5.24455934 -0.71761569 -3.30465928 -1.10155309 0 0 Z " fill="#CBCAD7" transform="translate(432,182)"/>
<path d="M0 0 C0.66 0.33 1.32 0.66 2 1 C0.92492371 2.29854721 -0.16043736 3.58858361 -1.25 4.875 C-1.85328125 5.59429687 -2.4565625 6.31359375 -3.078125 7.0546875 C-4.97087634 8.97052118 -6.53657727 9.96449045 -9 11 C-7.59155282 7.78475695 -5.89655214 5.67816132 -3.375 3.25 C-2.74335937 2.63640625 -2.11171875 2.0228125 -1.4609375 1.390625 C-0.73777344 0.70226562 -0.73777344 0.70226562 0 0 Z " fill="#B8ACA1" transform="translate(1046,111)"/>
<path d="M0 0 C4.57989423 -0.46733615 7.24854513 -0.17261016 10.9375 2.5 C11.948125 3.325 12.95875 4.15 14 5 C13.01 5.495 13.01 5.495 12 6 C10.1953125 5.29296875 10.1953125 5.29296875 8.125 4.1875 C7.10792969 3.65189453 7.10792969 3.65189453 6.0703125 3.10546875 C5.38710938 2.74066406 4.70390625 2.37585938 4 2 C2.66851465 1.32965011 1.33572063 0.66187054 0 0 Z " fill="#CCC4CF" transform="translate(424,93)"/>
</svg>
