<?xml version="1.0" encoding="UTF-8"?>
<svg version="1.1" xmlns="http://www.w3.org/2000/svg" width="1282" height="274">
<path d="M0 0 C0.87859629 -0.00583219 1.75719258 -0.01166439 2.662413 -0.01767331 C3.62329694 -0.01389399 4.58418088 -0.01011467 5.57418251 -0.00622082 C6.59833846 -0.01004636 7.6224944 -0.01387191 8.67768538 -0.01781338 C12.1200123 -0.02815747 15.56217285 -0.02414851 19.00451088 -0.02018261 C21.46824231 -0.02452831 23.93197239 -0.02971099 26.39570045 -0.03567028 C32.39968391 -0.04769265 38.40360163 -0.05020975 44.40759109 -0.04787002 C49.28778916 -0.04608763 54.16797365 -0.04783479 59.04817009 -0.05209446 C59.74251146 -0.05268965 60.43685284 -0.05328484 61.15223486 -0.05389806 C62.56276134 -0.05510981 63.97328782 -0.05632394 65.38381429 -0.05754044 C78.61541818 -0.06841984 91.84699659 -0.0662517 105.07860191 -0.06015559 C117.18289715 -0.05498705 129.28711189 -0.06623949 141.3913912 -0.08525381 C153.81943082 -0.10462707 166.24743234 -0.11288905 178.67548716 -0.10913056 C185.65312258 -0.10721761 192.6306895 -0.10971512 199.60831261 -0.1238451 C206.1697082 -0.13699765 212.73096916 -0.1345058 219.29237366 -0.12143421 C221.70224308 -0.11906273 224.11212376 -0.12182348 226.52198029 -0.13005733 C229.8085313 -0.1404779 233.09453617 -0.1324614 236.38106728 -0.11974621 C237.33748977 -0.12712049 238.29391227 -0.13449478 239.27931726 -0.14209253 C244.47652262 -0.09971486 248.12374952 0.32438364 252.60460854 3.25447559 C258.90719425 9.84354247 259.90277678 14.85780831 259.86530495 23.60953236 C259.86913049 24.5555441 259.87295604 25.50155585 259.87689751 26.47623461 C259.88722156 29.64822097 259.88323644 32.82002611 259.87926674 35.99202442 C259.88361358 38.26546871 259.88879663 40.53891154 259.89475441 42.81235218 C259.90815973 48.99009865 259.90872128 55.16778401 259.90619111 61.34554219 C259.90512228 66.50210015 259.91000261 71.65864569 259.91479653 76.81520098 C259.92653231 89.67710812 259.92566365 102.53897131 259.91923972 115.40087905 C259.91407278 126.56288271 259.9253201 137.72479904 259.94433794 148.88678543 C259.96372625 160.35436081 259.97167922 171.82187881 259.96821469 183.28947371 C259.96640128 189.72501592 259.96904375 196.16047817 259.98292923 202.59600735 C259.99550095 208.64937943 259.99356949 214.70257678 259.98051834 220.75594616 C259.97815147 222.9763072 259.98089119 225.1966805 259.98914146 227.41702747 C259.99960115 230.45104364 259.99151408 233.48447273 259.97883034 236.5184679 C259.98620462 237.39445458 259.99357891 238.27044125 260.00117666 239.17297298 C259.94598414 245.46068261 259.0609262 251.23937476 254.95617104 256.27791309 C254.38640541 256.72392872 253.81663979 257.16994434 253.22960854 257.62947559 C252.66499916 258.09095997 252.10038979 258.55244434 251.51867104 259.02791309 C245.99054399 262.57042716 241.02349933 262.54493991 234.6421299 262.52863026 C233.63078131 262.53386694 232.61943273 262.53910361 231.57743722 262.54449898 C228.18435485 262.55951565 224.79142305 262.56020451 221.39830971 262.56087208 C218.96723106 262.56849241 216.53615483 262.57691969 214.10508156 262.58609486 C207.49761057 262.6080586 200.89017527 262.61686305 194.28267646 262.6219213 C190.15531039 262.62518053 186.02795361 262.63170434 181.9005928 262.63892269 C170.46802986 262.65848518 159.03547555 262.67489167 147.60289478 262.67779922 C146.50597555 262.67808058 146.50597555 262.67808058 145.38689633 262.67836762 C143.90448749 262.67873386 142.42207865 262.67909756 140.93966981 262.67945873 C139.83590066 262.67973295 139.83590066 262.67973295 138.70983315 262.6800127 C137.60471344 262.68028353 137.60471344 262.68028353 136.47726808 262.68055982 C124.53923513 262.68410151 112.60138257 262.71112504 100.66341218 262.74851059 C88.40031102 262.78660637 76.13729934 262.80595679 63.8741377 262.80625874 C56.99140542 262.80684299 50.10888837 262.81531435 43.22621155 262.8442564 C36.75256995 262.87135377 30.27924225 262.87266429 23.80556107 262.85660076 C21.43038568 262.8547831 19.05518601 262.86150537 16.68006325 262.87741947 C13.43554894 262.89783239 10.19253317 262.88735483 6.9480381 262.86920643 C6.00979625 262.8824064 5.07155441 262.89560636 4.10488099 262.90920633 C-2.28028751 262.8277199 -6.41967671 261.28282012 -11.39539146 257.25447559 C-17.27297932 251.22221438 -17.69112653 244.8234257 -17.662817 236.82385731 C-17.66734811 235.88178026 -17.67187923 234.9397032 -17.67654765 233.96907836 C-17.68919496 230.81635799 -17.68757105 227.6638103 -17.68591881 224.51106739 C-17.69190384 222.24894965 -17.69870933 219.98683396 -17.70627403 217.72472095 C-17.72394367 211.58209495 -17.72862982 205.43952467 -17.72990561 199.29687572 C-17.7313272 195.45844967 -17.73559697 191.62003779 -17.74090004 187.78161526 C-17.75844856 175.07967364 -17.7677399 162.37777843 -17.76623909 149.67582764 C-17.76615918 148.9915886 -17.76607927 148.30734955 -17.76599693 147.60237598 C-17.76591517 146.91729777 -17.76583341 146.23221957 -17.76574917 145.52638141 C-17.76493646 134.42652542 -17.78407193 123.32680519 -17.81227367 112.22698846 C-17.84102813 100.81926273 -17.8544466 89.41163065 -17.85308611 78.00386268 C-17.85257635 71.6034842 -17.85826767 65.20325938 -17.87944221 58.80291271 C-17.89881661 52.78231786 -17.89895423 46.76202338 -17.88440895 40.74141788 C-17.8823188 38.53437263 -17.887034 36.32730862 -17.89912987 34.12029552 C-17.91459866 31.10186017 -17.90526287 28.0844584 -17.88986778 25.06604481 C-17.90015491 24.19754404 -17.91044204 23.32904328 -17.92104089 22.43422431 C-17.85294379 16.37137605 -16.49826177 11.49798935 -13.39539146 6.25447559 C-9.42334886 2.38173406 -5.59691303 0.00640258 0 0 Z " fill="#E5EBFE" transform="translate(24.3953914642334,5.7455244064331055)"/>
<path d="M0 0 C1.13457642 -0.00630432 2.26915283 -0.01260864 3.43811035 -0.019104 C5.28342346 -0.01303131 5.28342346 -0.01303131 7.16601562 -0.00683594 C9.0524176 -0.00970612 9.0524176 -0.00970612 10.97692871 -0.01263428 C13.64019438 -0.01399743 16.30309492 -0.011291 18.96630859 -0.00195312 C22.38297957 0.00944154 25.79933635 0.00288159 29.21599579 -0.00909805 C32.47018042 -0.01805547 35.7243269 -0.01178722 38.97851562 -0.00683594 C40.20872437 -0.0108844 41.43893311 -0.01493286 42.7064209 -0.019104 C44.40828552 -0.00964752 44.40828552 -0.00964752 46.14453125 0 C47.14665649 0.00159119 48.14878174 0.00318237 49.18127441 0.00482178 C51.57226562 0.25878906 51.57226562 0.25878906 53.57226562 2.25878906 C56.03698609 2.53396283 56.03698609 2.53396283 58.82226562 2.57128906 C63.06694716 2.92039472 66.1576401 3.32873573 69.30664062 6.50488281 C75.73496648 15.41327265 78.09449672 26.93193059 80.57226562 37.44628906 C81.6252726 41.46087816 83.0261658 45.21243912 84.57226562 49.05957031 C86.02563374 53.70921284 86.77349191 58.45924248 87.57226562 63.25878906 C88.26787598 63.23260498 88.96348633 63.2064209 89.68017578 63.17944336 C92.85230647 63.07507957 96.02407541 63.01033846 99.19726562 62.94628906 C100.29167969 62.90439453 101.38609375 62.8625 102.51367188 62.81933594 C111.63313138 62.68116231 111.63313138 62.68116231 115.22070312 65.52832031 C119.4849318 70.47964231 119.4849318 70.47964231 119.66748047 74.19848633 C118.84562276 80.74161903 117.11603412 86.8968611 115.19726562 93.19628906 C114.89304688 94.21658203 114.58882812 95.236875 114.27539062 96.28808594 C113.38165513 99.28057208 112.47753576 102.26977564 111.57226562 105.25878906 C111.07966007 106.9057995 110.58745406 108.55292951 110.09570312 110.20019531 C108.28708154 116.22973483 106.42785251 122.24357377 104.57226562 128.25878906 C104.20472168 129.45455566 103.83717773 130.65032227 103.45849609 131.88232422 C102.31159879 135.61281031 101.16093562 139.34211949 100.00976562 143.07128906 C99.62369141 144.32876953 99.23761719 145.58625 98.83984375 146.88183594 C98.09382688 149.29527042 97.33829392 151.70579078 96.57177734 154.11279297 C95.98108569 155.97201442 95.40763698 157.83711765 94.87353516 159.71337891 C93.18190836 165.14127204 90.48693737 168.50334201 85.57226562 171.25878906 C81.47364334 172.11971673 77.46665706 172.06930724 73.29052734 172.01928711 C71.45761642 172.03264854 71.45761642 172.03264854 69.587677 172.04627991 C66.25234372 172.06388551 62.91925798 172.05470761 59.58410025 172.03181052 C56.08706735 172.01282726 52.59010842 172.02406294 49.0930481 172.03071594 C43.22379353 172.03704575 37.35499806 172.01883981 31.48583984 171.98608398 C24.70599494 171.94855788 17.92701805 171.95038622 11.14712703 171.97312516 C4.61431412 171.99408865 -1.91817877 171.98679447 -8.45098495 171.96680641 C-11.22686817 171.95883231 -14.0024798 171.96079716 -16.77835464 171.97083092 C-20.65416853 171.98336096 -24.52907861 171.95460994 -28.40478516 171.92163086 C-29.55400452 171.93018097 -30.70322388 171.93873108 -31.88726807 171.94754028 C-39.67197623 171.83305165 -39.67197623 171.83305165 -43.57447815 168.86773682 C-46.84876713 164.25831003 -48.94530089 160.17824012 -50.62695312 154.75488281 C-50.82297623 154.1276532 -51.01899933 153.50042358 -51.22096252 152.85418701 C-51.8593146 150.80362849 -52.48757606 148.75014373 -53.11523438 146.69628906 C-53.55934299 145.25977671 -54.00368193 143.82333554 -54.44824219 142.38696289 C-57.66158684 131.95961807 -60.69450915 121.48584527 -63.65332031 110.98339844 C-66.66204687 100.32762073 -69.92631911 89.76303485 -73.42773438 79.25878906 C-73.77304705 73.90644264 -73.90348023 70.60347138 -70.42773438 66.25878906 C-67.21648373 63.30056497 -65.11033207 62.89683272 -60.78710938 62.96582031 C-59.18222656 62.98032227 -59.18222656 62.98032227 -57.54492188 62.99511719 C-56.43375 63.02025391 -55.32257813 63.04539063 -54.17773438 63.07128906 C-52.48777344 63.0915918 -52.48777344 63.0915918 -50.76367188 63.11230469 C-47.98454173 63.14763261 -45.20638074 63.19696386 -42.42773438 63.25878906 C-42.30398437 62.20691406 -42.18023437 61.15503906 -42.05273438 60.07128906 C-41.50948389 56.75746112 -40.73077047 54.31090053 -39.42773438 51.25878906 C-38.98122629 49.57893851 -38.56694042 47.89033334 -38.17773438 46.19628906 C-36.77534442 40.42931814 -35.13596055 34.75329475 -33.42773438 29.07128906 C-33.17862305 28.24040771 -32.92951172 27.40952637 -32.67285156 26.5534668 C-31.93601081 24.1181743 -31.18515608 21.68775362 -30.42773438 19.25878906 C-30.17515869 18.43620605 -29.92258301 17.61362305 -29.66235352 16.76611328 C-29.41090576 15.97350098 -29.15945801 15.18088867 -28.90039062 14.36425781 C-28.67875244 13.65809326 -28.45711426 12.95192871 -28.22875977 12.22436523 C-26.6841203 8.43409021 -24.13224346 5.1110436 -20.42773438 3.25878906 C-17.08618099 2.98179187 -13.74487563 2.81178203 -10.39648438 2.63769531 C-6.1289189 2.09301919 -4.70321808 0.00746783 0 0 Z " fill="#FE1845" transform="translate(122.427734375,76.7412109375)"/>
<path d="M0 0 C0.87859629 -0.00583219 1.75719258 -0.01166439 2.662413 -0.01767331 C3.62329694 -0.01389399 4.58418088 -0.01011467 5.57418251 -0.00622082 C6.59833846 -0.01004636 7.6224944 -0.01387191 8.67768538 -0.01781338 C12.1200123 -0.02815747 15.56217285 -0.02414851 19.00451088 -0.02018261 C21.46824231 -0.02452831 23.93197239 -0.02971099 26.39570045 -0.03567028 C32.39968391 -0.04769265 38.40360163 -0.05020975 44.40759109 -0.04787002 C49.28778916 -0.04608763 54.16797365 -0.04783479 59.04817009 -0.05209446 C59.74251146 -0.05268965 60.43685284 -0.05328484 61.15223486 -0.05389806 C62.56276134 -0.05510981 63.97328782 -0.05632394 65.38381429 -0.05754044 C78.61541818 -0.06841984 91.84699659 -0.0662517 105.07860191 -0.06015559 C117.18289715 -0.05498705 129.28711189 -0.06623949 141.3913912 -0.08525381 C153.81943082 -0.10462707 166.24743234 -0.11288905 178.67548716 -0.10913056 C185.65312258 -0.10721761 192.6306895 -0.10971512 199.60831261 -0.1238451 C206.1697082 -0.13699765 212.73096916 -0.1345058 219.29237366 -0.12143421 C221.70224308 -0.11906273 224.11212376 -0.12182348 226.52198029 -0.13005733 C229.8085313 -0.1404779 233.09453617 -0.1324614 236.38106728 -0.11974621 C237.33748977 -0.12712049 238.29391227 -0.13449478 239.27931726 -0.14209253 C246.14639372 -0.08609884 250.41278035 1.06264741 255.41710854 6.06697559 C263.13785256 17.3172026 258.60460854 44.62084043 258.60460854 51.25447559 C167.85460854 51.25447559 77.10460854 51.25447559 -16.39539146 51.25447559 C-16.39539146 9.29795385 -16.39539146 9.29795385 -11.52039146 4.31697559 C-7.51827976 1.67558187 -4.840666 0.00553747 0 0 Z " fill="#044CAD" transform="translate(24.3953914642334,5.7455244064331055)"/>
<path d="M0 0 C4.84830087 0.15296799 7.68609285 0.35577409 11.72094727 3.18896484 C13.84472028 6.01592691 15.62251057 8.79194311 17.31762695 11.8828125 C19.47403369 15.62207546 22.11971654 19.0183468 24.68188477 22.48583984 C25.78228987 24.01474751 26.88121578 25.54472074 27.97875977 27.07568359 C32.91961571 33.92065212 38.00522442 40.65721792 43.08422852 47.39990234 C43.65125488 48.15432617 44.21828125 48.90875 44.80249023 49.68603516 C45.94915651 51.20234825 47.10474257 52.71194967 48.26831055 54.21533203 C49.09371338 55.28895996 49.09371338 55.28895996 49.93579102 56.38427734 C50.42893799 57.01897949 50.92208496 57.65368164 51.43017578 58.30761719 C52.49438477 59.92333984 52.49438477 59.92333984 52.49438477 61.92333984 C53.15438477 61.92333984 53.81438477 61.92333984 54.49438477 61.92333984 C54.9027356 61.05443115 54.9027356 61.05443115 55.31933594 60.16796875 C56.48832967 57.93490654 57.78806868 56.02710912 59.29516602 54.00927734 C59.85365234 53.25727051 60.41213867 52.50526367 60.98754883 51.73046875 C61.58792969 50.92786621 62.18831055 50.12526367 62.80688477 49.29833984 C64.07981494 47.58538849 65.35193117 45.87183202 66.62329102 44.15771484 C67.26927246 43.28695312 67.91525391 42.41619141 68.58081055 41.51904297 C71.50386438 37.55401256 74.3734131 33.55114932 77.24438477 29.54833984 C81.80105612 23.20643884 86.465972 16.96995686 91.27563477 10.81787109 C93.42961725 8.17815424 93.42961725 8.17815424 94.48950195 6.02441406 C95.66773527 3.92133664 96.64038751 2.47497196 98.49438477 0.92333984 C102.27558389 0.03891737 105.88573126 0.21503207 109.74438477 0.42333984 C111.27192383 0.45814453 111.27192383 0.45814453 112.83032227 0.49365234 C120.28331849 0.71227357 120.28331849 0.71227357 121.49438477 1.92333984 C121.5906307 3.64426637 121.61626075 5.36917367 121.61463928 7.0927887 C121.61670128 8.77347443 121.61670128 8.77347443 121.61880493 10.4881134 C121.61520966 11.72816635 121.61161438 12.9682193 121.60791016 14.24584961 C121.60805618 15.54322052 121.60820221 16.84059143 121.60835266 18.17727661 C121.60864063 21.74529914 121.60274409 25.31328832 121.5957787 28.88130307 C121.58954498 32.60624604 121.58894135 36.3311897 121.5877533 40.05613708 C121.58464004 47.11451347 121.57642672 54.17287444 121.56640381 61.23124403 C121.5552425 69.26496955 121.54973218 77.2986958 121.54470837 85.33242714 C121.5342441 101.86274183 121.51589869 118.39303528 121.49438477 134.92333984 C112.91438477 134.92333984 104.33438477 134.92333984 95.49438477 134.92333984 C95.16438477 105.55333984 94.83438477 76.18333984 94.49438477 45.92333984 C88.61612993 53.56507113 82.84422685 61.15824095 77.28735352 69.01708984 C73.93167971 73.73410936 70.49388406 78.39041782 67.05688477 83.04833984 C66.45328125 83.86641113 65.84967773 84.68448242 65.2277832 85.52734375 C63.65186337 87.66075301 62.07541949 89.79371843 60.49438477 91.92333984 C60.01767334 92.65480225 59.54096191 93.38626465 59.04980469 94.13989258 C57.49438477 95.92333984 57.49438477 95.92333984 53.60375977 96.51318359 C50.23277075 96.32770223 49.61497505 96.02968864 46.94750977 93.67724609 C46.22047852 92.62408203 45.49344727 91.57091797 44.74438477 90.48583984 C44.3330127 89.90672852 43.92164063 89.32761719 43.49780273 88.73095703 C42.60785343 87.47193954 41.7298216 86.20443169 40.86254883 84.9296875 C39.47206374 82.89060711 38.04766946 80.87973256 36.61157227 78.87255859 C34.07500088 75.31977668 31.56658479 71.74820903 29.06616211 68.16992188 C26.36527092 64.30946821 23.64821881 60.46043477 20.93188477 56.61083984 C20.43124512 55.89959961 19.93060547 55.18835938 19.41479492 54.45556641 C18.94477051 53.78879883 18.47474609 53.12203125 17.99047852 52.43505859 C17.57983154 51.85199951 17.16918457 51.26894043 16.74609375 50.66821289 C15.35743446 48.73243214 13.92379857 46.82922492 12.49438477 44.92333984 C12.16438477 74.62333984 11.83438477 104.32333984 11.49438477 134.92333984 C2.91438477 134.92333984 -5.66561523 134.92333984 -14.50561523 134.92333984 C-14.52816185 117.59956329 -14.54659417 100.2757992 -14.55742741 82.95201206 C-14.56259047 74.9088393 -14.56963336 66.86567628 -14.58105469 58.82250977 C-14.59100122 51.81461024 -14.59746859 44.80671776 -14.59970373 37.79881138 C-14.60101089 34.08590792 -14.60409707 30.37302465 -14.61134529 26.66012764 C-14.61935855 22.52202574 -14.61960639 18.38395924 -14.61914062 14.24584961 C-14.6227359 13.00579666 -14.62633118 11.76574371 -14.6300354 10.4881134 C-14.62866074 9.36765625 -14.62728607 8.2471991 -14.62586975 7.0927887 C-14.62679154 6.11292275 -14.62771334 5.13305681 -14.62866306 4.12349796 C-14.3064795 -1.63730897 -4.3763842 0.06895234 0 0 Z " fill="#FF2950" transform="translate(839.505615234375,70.07666015625)"/>
<path d="M0 0 C0.6506543 -0.00817749 1.30130859 -0.01635498 1.97167969 -0.02478027 C4.13906945 -0.04971165 6.30639251 -0.06618553 8.47387695 -0.08056641 C9.21673258 -0.08589008 9.9595882 -0.09121376 10.72495461 -0.09669876 C14.6703043 -0.12348624 18.61562201 -0.14282775 22.56103516 -0.15722656 C25.80546871 -0.17047113 29.04925906 -0.1981358 32.29345703 -0.23925781 C36.22398147 -0.28907676 40.15393027 -0.31340953 44.08475685 -0.32045364 C45.57206306 -0.32709674 47.05936002 -0.34213339 48.54648399 -0.36634445 C61.05932003 -0.55813922 72.19159038 1.17089698 82.2746582 9.25537109 C89.81589073 16.68478962 93.70030101 25.8537833 94.0871582 36.38037109 C93.95066179 45.38913413 89.89684996 53.70334783 83.7746582 60.19287109 C82.46412764 61.22257368 81.1356207 62.2308114 79.7746582 63.19287109 C80.48750977 63.66595703 81.20036133 64.13904297 81.93481445 64.62646484 C89.78250554 70.04485721 97.32436473 76.29351649 100.3371582 85.70849609 C102.4608645 97.76811402 101.06180832 109.29573527 94.0246582 119.50537109 C86.65093349 128.51974956 76.82478597 132.39194426 65.7746582 135.19287109 C63.35242338 135.36282286 60.92232871 135.43858212 58.49414062 135.43579102 C57.80382751 135.43768936 57.1135144 135.43958771 56.40228271 135.44154358 C54.144778 135.44521669 51.88760252 135.43460132 49.63012695 135.42333984 C48.05308571 135.42214648 46.47604375 135.42169521 44.89900208 135.42195129 C41.60661318 135.42039269 38.31433398 135.41214736 35.02197266 135.39868164 C30.79728113 135.3816227 26.57270912 135.37786964 22.34798717 135.37862682 C19.09756831 135.37835539 15.84717568 135.37287967 12.59676552 135.36562538 C11.03820303 135.36244019 9.47963757 135.36047165 7.92107201 135.35973167 C5.75006371 135.35757047 3.57918393 135.34883312 1.40820312 135.33813477 C-0.44542595 135.33241707 -0.44542595 135.33241707 -2.33650208 135.32658386 C-5.2253418 135.19287109 -5.2253418 135.19287109 -7.2253418 134.19287109 C-7.2486703 116.86909757 -7.26632073 99.54532893 -7.27715397 82.22154331 C-7.28231703 74.17837055 -7.28935992 66.13520753 -7.30078125 58.09204102 C-7.31072778 51.08414149 -7.31719515 44.07624901 -7.31943029 37.06834263 C-7.32073745 33.35543917 -7.32382364 29.6425559 -7.33107185 25.92965889 C-7.33908511 21.79155699 -7.33933296 17.65349049 -7.33886719 13.51538086 C-7.34246246 12.27532791 -7.34605774 11.03527496 -7.34976196 9.75764465 C-7.3483873 8.6371875 -7.34701263 7.51673035 -7.34559631 6.36231995 C-7.34651811 5.382454 -7.3474399 4.40258806 -7.34838963 3.39302921 C-7.09458734 -1.14508554 -3.85784816 0.04199801 0 0 Z M19.7746582 22.19287109 C19.7746582 33.41287109 19.7746582 44.63287109 19.7746582 56.19287109 C25.1990332 56.29599609 30.6234082 56.39912109 36.2121582 56.50537109 C37.90526123 56.55089111 39.59836426 56.59641113 41.34277344 56.64331055 C49.33686772 56.76890685 56.42752729 56.71758413 62.7746582 51.19287109 C66.65719373 46.77985957 67.42260785 42.43790003 67.1574707 36.62255859 C66.32263776 31.323925 64.00964219 28.17056675 59.7746582 24.81787109 C54.86768827 22.15992905 50.67903581 22.05445544 45.1652832 22.09521484 C44.52059082 22.09622192 43.87589844 22.097229 43.21166992 22.0982666 C40.81598111 22.10347707 38.42031777 22.11743829 36.0246582 22.13037109 C30.6621582 22.15099609 25.2996582 22.17162109 19.7746582 22.19287109 Z M19.7746582 75.19287109 C19.7746582 87.40287109 19.7746582 99.61287109 19.7746582 112.19287109 C25.18286068 112.26201005 30.58950928 112.32166193 35.99780273 112.35766602 C37.83476987 112.37268606 39.67170154 112.39310818 41.50854492 112.41918945 C44.15983875 112.45587312 46.81065552 112.47266547 49.4621582 112.48583984 C50.27394531 112.5013237 51.08573242 112.51680756 51.92211914 112.53276062 C58.15506795 112.53457084 63.88842514 111.60262925 68.83325195 107.47412109 C69.51581055 106.59240234 69.51581055 106.59240234 70.2121582 105.69287109 C70.68524414 105.10505859 71.15833008 104.51724609 71.64575195 103.91162109 C74.72938192 99.21682115 74.406962 93.57480576 73.7746582 88.19287109 C72.02826518 83.26379919 69.38309571 80.19923947 64.7746582 77.75537109 C59.11140924 75.20919263 53.54309707 75.05348458 47.41137695 75.09521484 C46.70871704 75.09622192 46.00605713 75.097229 45.28210449 75.0982666 C42.67543896 75.10347009 40.06879682 75.11743123 37.4621582 75.13037109 C28.7068457 75.16130859 28.7068457 75.16130859 19.7746582 75.19287109 Z " fill="#1557B1" transform="translate(637.225341796875,70.80712890625)"/>
<path d="M0 0 C1.5610144 -0.02114868 1.5610144 -0.02114868 3.15356445 -0.04272461 C13.51852731 0.02175543 23.18620743 2.15307439 32.4375 6.875 C33.44478149 7.38776489 33.44478149 7.38776489 34.47241211 7.91088867 C49.14614679 15.77163118 57.66120281 27.98619216 63.58984375 43.33203125 C64.47489387 46.50923881 64.6722343 49.09351036 64.4375 52.375 C62.72665499 54.08584501 60.49389907 53.50514689 58.16015625 53.5078125 C57.08958984 53.50910156 56.01902344 53.51039062 54.91601562 53.51171875 C53.78873047 53.50785156 52.66144531 53.50398438 51.5 53.5 C50.37658203 53.50386719 49.25316406 53.50773437 48.09570312 53.51171875 C47.02384766 53.51042969 45.95199219 53.50914063 44.84765625 53.5078125 C43.85902588 53.50668457 42.87039551 53.50555664 41.85180664 53.50439453 C39.4375 53.375 39.4375 53.375 37.4375 52.375 C36.86682832 50.7457767 36.35630382 49.09532428 35.875 47.4375 C32.89603135 38.98426424 27.40985284 32.63510972 19.5 28.375 C8.65255924 23.62294778 -3.2343937 22.89577084 -14.5625 26.375 C-27.09653542 31.61996299 -34.73909184 38.28969203 -40.63671875 50.62109375 C-45.76082369 63.44385392 -44.85845122 79.35111383 -39.4609375 91.9453125 C-34.27557196 101.814234 -27.29127977 108.81533969 -16.53125 112.37890625 C-13.55404282 113.15703995 -10.58410896 113.79603437 -7.5625 114.375 C-6.304375 114.66375 -5.04625 114.9525 -3.75 115.25 C5.03712729 116.15266087 16.16397909 113.26870531 23.4375 108.375 C24.03820312 107.97796875 24.63890625 107.5809375 25.2578125 107.171875 C32.13714114 101.99004304 35.31621044 94.17822391 38.4375 86.375 C47.0175 86.375 55.5975 86.375 64.4375 86.375 C62.77530614 102.99693855 56.01362704 115.40568805 43.2578125 126.30859375 C38.00696299 130.15582282 32.40937941 132.87212763 26.4375 135.375 C24.88869141 136.02855469 24.88869141 136.02855469 23.30859375 136.6953125 C10.01049509 141.36188455 -7.10659893 141.45877784 -20.5625 137.375 C-21.49835938 137.09140625 -22.43421875 136.8078125 -23.3984375 136.515625 C-41.54065209 130.15189434 -56.87762309 117.41712848 -65.4375 100.0625 C-73.40285755 80.47509052 -73.86242021 61.3987101 -66.125 41.71875 C-57.35651279 22.6641528 -42.11503094 9.64894318 -22.65625 2.2734375 C-15.20264399 0.12952394 -7.71104543 0.07647037 0 0 Z " fill="#1155B0" transform="translate(392.5625,68.625)"/>
<path d="M0 0 C4.14581887 -0.02886751 8.29161216 -0.04675327 12.4375 -0.0625 C14.21350586 -0.07506836 14.21350586 -0.07506836 16.02539062 -0.08789062 C17.15009766 -0.09111328 18.27480469 -0.09433594 19.43359375 -0.09765625 C20.47572021 -0.10289307 21.51784668 -0.10812988 22.59155273 -0.11352539 C25 0 25 0 26 1 C26.1038916 3.64994199 26.14361376 6.27466788 26.1418457 8.92529297 C26.14705734 10.17184914 26.14705734 10.17184914 26.15237427 11.44358826 C26.15974764 13.2562378 26.16508455 15.06889646 26.16866493 16.88155746 C26.17582048 19.75795569 26.19148414 22.63418233 26.21000671 25.51052856 C26.26249059 33.6918896 26.31037135 41.8731621 26.32592773 50.0546875 C26.33605997 55.05514031 26.36552701 60.05516947 26.40724754 65.05545425 C26.41949904 66.95543321 26.42468958 68.85547222 26.42244911 70.75548935 C26.41093549 83.7180005 26.53065936 95.45704002 36.09765625 105.34765625 C42.29588426 110.73133274 49.87496018 112.6990726 58 113 C64.49228628 112.10397017 70.26028504 110.17194774 76 107 C76.66 107 77.32 107 78 107 C78.495 105.515 78.495 105.515 79 104 C79.598125 103.484375 80.19625 102.96875 80.8125 102.4375 C87.8699034 94.57353621 88.12699028 83.60862828 88.20532227 73.56445312 C88.21522186 72.76349213 88.22512146 71.96253113 88.23532104 71.13729858 C88.26663264 68.51864466 88.291572 65.89997266 88.31640625 63.28125 C88.33700206 61.45421914 88.35799918 59.62719275 88.37937927 57.8001709 C88.43432881 53.01301729 88.48385663 48.22582264 88.53222656 43.43859863 C88.58264075 38.5449665 88.63822241 33.6513933 88.69335938 28.7578125 C88.80060879 19.17192546 88.90212623 9.58598704 89 0 C93.14581887 -0.02886751 97.29161216 -0.04675327 101.4375 -0.0625 C102.62150391 -0.07087891 103.80550781 -0.07925781 105.02539062 -0.08789062 C106.15009766 -0.09111328 107.27480469 -0.09433594 108.43359375 -0.09765625 C109.47572021 -0.10289307 110.51784668 -0.10812988 111.59155273 -0.11352539 C114 0 114 0 115 1 C115.11118734 3.73630311 115.1573973 6.44759573 115.16113281 9.18481445 C115.16858017 10.47285225 115.16858017 10.47285225 115.17617798 11.78691101 C115.19085383 14.64570912 115.19761449 17.50445155 115.203125 20.36328125 C115.20887691 22.35092673 115.21463464 24.3385722 115.22039795 26.32621765 C115.23092666 30.50695047 115.23675545 34.68766398 115.24023438 38.8684082 C115.24568923 44.19992116 115.26964433 49.53117484 115.29820633 54.862607 C115.31693683 58.97642224 115.32204407 63.09017673 115.32357025 67.20403099 C115.32657951 69.16742541 115.33454902 71.13081921 115.34775543 73.09417152 C115.46389746 91.70653005 113.51240626 106.80612309 100.1796875 120.81640625 C86.99260258 134.02712394 72.15404689 137.27270165 54.1875 137.32128906 C46.07689781 137.23035201 39.480083 136.30274434 32 133 C31.28585937 132.72285156 30.57171875 132.44570312 29.8359375 132.16015625 C17.51377828 126.83364519 7.70403608 115.91701081 2.5625 103.6875 C0.07709506 97.12291027 -0.14289596 90.70961479 -0.11352539 83.78173828 C-0.11367142 82.87378006 -0.11381744 81.96582184 -0.1139679 81.03034973 C-0.11327391 78.04364594 -0.10550563 75.05700533 -0.09765625 72.0703125 C-0.09579024 69.99380528 -0.0943672 67.91729761 -0.09336853 65.84078979 C-0.08955774 60.38609595 -0.07973975 54.9314289 -0.06866455 49.47674561 C-0.05841949 43.90637576 -0.05386428 38.33600156 -0.04882812 32.765625 C-0.03811617 21.84373825 -0.02105704 10.92187136 0 0 Z " fill="#1557B1" transform="translate(482,71)"/>
<path d="M0 0 C4.72481589 3.14529895 7.55673747 5.81310934 11.1875 10.3515625 C11.6825 3.9165625 11.6825 3.9165625 12.1875 -2.6484375 C19.7775 -2.6484375 27.3675 -2.6484375 35.1875 -2.6484375 C35.1875 30.3515625 35.1875 63.3515625 35.1875 97.3515625 C27.5975 97.3515625 20.0075 97.3515625 12.1875 97.3515625 C11.8575 93.0615625 11.5275 88.7715625 11.1875 84.3515625 C10.40375 85.3828125 9.62 86.4140625 8.8125 87.4765625 C2.60737885 94.68910332 -6.6908952 99.36634528 -16.10668945 100.66894531 C-18.43465178 100.82323036 -20.72959378 100.87036654 -23.0625 100.8515625 C-23.88661377 100.84656738 -24.71072754 100.84157227 -25.55981445 100.83642578 C-36.4824146 100.52790781 -45.69983727 96.63860026 -53.8125 89.3515625 C-54.71742188 88.56652344 -54.71742188 88.56652344 -55.640625 87.765625 C-64.76904034 79.31191862 -70.96856892 66.79954599 -71.8125 54.3515625 C-72.4107249 38.6047392 -70.28767706 23.9732095 -59.81640625 11.51171875 C-44.05480484 -5.47885743 -21.08962083 -12.36086109 0 0 Z M-36.6875 23.7265625 C-37.38875 24.5928125 -38.09 25.4590625 -38.8125 26.3515625 C-39.67875 27.2384375 -40.545 28.1253125 -41.4375 29.0390625 C-46.09264401 34.78089628 -47.42225339 42.47087098 -47.16015625 49.70703125 C-46.07295581 57.977084 -43.3787724 65.92787935 -36.8125 71.3515625 C-29.19026847 76.50936228 -21.98580603 78.28625162 -12.8125 77.3515625 C-4.92235468 75.376051 2.0694466 71.18680472 6.53515625 64.26171875 C10.85871641 55.94002768 11.66825255 46.62149185 9.50390625 37.45703125 C6.12558906 28.33136946 1.22320877 23.36351956 -7.54296875 19.296875 C-17.36574199 15.2054617 -28.45121053 16.9226712 -36.6875 23.7265625 Z " fill="#FF254D" transform="translate(1059.8125,107.6484375)"/>
<path d="M0 0 C8.25 0 16.5 0 25 0 C25 9.9 25 19.8 25 30 C34.82803025 29.96040272 34.82803025 29.96040272 44.65600586 29.90991211 C46.47950562 29.90616577 46.47950562 29.90616577 48.33984375 29.90234375 C49.59144287 29.89710693 50.84304199 29.89187012 52.13256836 29.88647461 C55 30 55 30 56 31 C56.09860131 32.40348735 56.13078937 33.81180477 56.1328125 35.21875 C56.13410156 36.06824219 56.13539062 36.91773438 56.13671875 37.79296875 C56.13285156 38.68628906 56.12898438 39.57960937 56.125 40.5 C56.12886719 41.39332031 56.13273437 42.28664062 56.13671875 43.20703125 C56.13542969 44.05652344 56.13414063 44.90601563 56.1328125 45.78125 C56.13168457 46.56564453 56.13055664 47.35003906 56.12939453 48.15820312 C56 50 56 50 55 51 C52.78144736 51.08783542 50.56011504 51.10694609 48.33984375 51.09765625 C47.34314415 51.09553383 47.34314415 51.09553383 46.3263092 51.09336853 C44.19666101 51.08775518 42.06711661 51.07520054 39.9375 51.0625 C38.49674631 51.05748671 37.05599097 51.05292351 35.61523438 51.04882812 C32.07678898 51.03778145 28.53840461 51.02050792 25 51 C25.09263245 57.42318958 25.1999838 63.84601453 25.31738281 70.26879883 C25.35557405 72.45201086 25.39044384 74.6352837 25.421875 76.81860352 C25.46773979 79.96392491 25.52569896 83.10883124 25.5859375 86.25390625 C25.59748871 87.2239711 25.60903992 88.19403595 25.62094116 89.1934967 C25.81103079 98.36287043 25.81103079 98.36287043 29.875 106.375 C33.19758276 108.91579858 36.41366916 109.11975051 40.51171875 109.28125 C41.35154297 109.31863281 42.19136719 109.35601562 43.05664062 109.39453125 C44.82224688 109.46531279 46.58787225 109.53561912 48.35351562 109.60546875 C49.60745117 109.66154297 49.60745117 109.66154297 50.88671875 109.71875 C51.65201904 109.74904297 52.41731934 109.77933594 53.20581055 109.81054688 C55 110 55 110 56 111 C56.09860131 112.40348735 56.13078937 113.81180477 56.1328125 115.21875 C56.13410156 116.06824219 56.13539062 116.91773438 56.13671875 117.79296875 C56.13285156 118.68628906 56.12898438 119.57960938 56.125 120.5 C56.12886719 121.39332031 56.13273437 122.28664063 56.13671875 123.20703125 C56.13542969 124.05652344 56.13414063 124.90601563 56.1328125 125.78125 C56.13168457 126.56564453 56.13055664 127.35003906 56.12939453 128.15820312 C56 130 56 130 55 131 C23.43541582 133.39950525 23.43541582 133.39950525 12.671875 125.46484375 C4.80281914 118.57022705 1.34310514 110.35506885 0 100 C-0.13414315 96.23127162 -0.11635412 92.46600727 -0.09765625 88.6953125 C-0.0962413 87.61619598 -0.09482635 86.53707947 -0.09336853 85.42526245 C-0.08778844 81.99181298 -0.07523955 78.55842964 -0.0625 75.125 C-0.05748243 72.79166761 -0.05291997 70.4583342 -0.04882812 68.125 C-0.03782552 62.41664133 -0.02057456 56.70833187 0 51 C-6.93 51 -13.86 51 -21 51 C-21 44.07 -21 37.14 -21 30 C-11.1 29.505 -11.1 29.505 -1 29 C-0.67 19.43 -0.34 9.86 0 0 Z " fill="#FF2850" transform="translate(1219,75)"/>
<path d="M0 0 C1.37478516 0.01740234 1.37478516 0.01740234 2.77734375 0.03515625 C3.69644531 0.04417969 4.61554688 0.05320312 5.5625 0.0625 C6.27277344 0.07410156 6.98304687 0.08570312 7.71484375 0.09765625 C8.37484375 1.41765625 9.03484375 2.73765625 9.71484375 4.09765625 C28.52484375 4.09765625 47.33484375 4.09765625 66.71484375 4.09765625 C67.37484375 2.77765625 68.03484375 1.45765625 68.71484375 0.09765625 C76.15310373 -0.26815981 76.15310373 -0.26815981 78.31640625 1.140625 C80.38356098 4.03348678 81.28070605 7.22706663 82.27734375 10.59765625 C82.60484619 11.67080078 82.60484619 11.67080078 82.93896484 12.765625 C84.41025779 17.71361093 85.44935959 22.63432159 86.2578125 27.734375 C86.6868816 29.95306567 87.29662618 31.82571601 88.15234375 33.91015625 C90.33740588 39.76612276 91.40521419 45.98605166 92.71484375 52.09765625 C56.41484375 52.09765625 20.11484375 52.09765625 -17.28515625 52.09765625 C-16.1585956 44.21173169 -16.1585956 44.21173169 -15.1640625 40.43359375 C-14.84405273 39.21542969 -14.84405273 39.21542969 -14.51757812 37.97265625 C-14.29650391 37.14765625 -14.07542969 36.32265625 -13.84765625 35.47265625 C-13.63044922 34.63992187 -13.41324219 33.8071875 -13.18945312 32.94921875 C-12.10742416 28.86805244 -10.87237254 25.01371391 -9.28515625 21.09765625 C-8.95586108 19.5426513 -8.66431442 17.97919395 -8.41015625 16.41015625 C-5.37327012 0.22962693 -5.37327012 0.22962693 0 0 Z " fill="#E6E8FB" transform="translate(107.28515625,87.90234375)"/>
<path d="M0 0 C1.12019531 -0.00128906 2.24039063 -0.00257812 3.39453125 -0.00390625 C4.57402344 -0.00003906 5.75351562 0.00382812 6.96875 0.0078125 C8.73798828 0.00201172 8.73798828 0.00201172 10.54296875 -0.00390625 C12.22326172 -0.00197266 12.22326172 -0.00197266 13.9375 0 C14.97326172 0.00112793 16.00902344 0.00225586 17.07617188 0.00341797 C19.46875 0.1328125 19.46875 0.1328125 20.46875 1.1328125 C20.56499593 2.85373903 20.59062598 4.57864632 20.58900452 6.30226135 C20.59037918 7.42271851 20.59175385 8.54317566 20.59317017 9.69758606 C20.58957489 10.93763901 20.58597961 12.17769196 20.58227539 13.45532227 C20.58242142 14.75269318 20.58256744 16.05006409 20.5827179 17.38674927 C20.58300586 20.95477179 20.57710932 24.52276098 20.57014394 28.09077573 C20.56391021 31.8157187 20.56330659 35.54066236 20.56211853 39.26560974 C20.55900527 46.32398613 20.55079195 53.3823471 20.54076904 60.44071668 C20.52960774 68.47444221 20.52409741 76.50816846 20.51907361 84.5418998 C20.50860934 101.07221307 20.49101 117.60251082 20.46875 134.1328125 C17.93428127 135.40004687 16.14648046 135.26222578 13.3125 135.265625 C12.29027344 135.26691406 11.26804687 135.26820313 10.21484375 135.26953125 C9.14363281 135.26566406 8.07242188 135.26179687 6.96875 135.2578125 C5.36193359 135.26361328 5.36193359 135.26361328 3.72265625 135.26953125 C2.70042969 135.26824219 1.67820312 135.26695312 0.625 135.265625 C-0.31537109 135.26449707 -1.25574219 135.26336914 -2.22460938 135.26220703 C-4.53125 135.1328125 -4.53125 135.1328125 -6.53125 134.1328125 C-6.5545785 116.80903898 -6.57222893 99.48527034 -6.58306217 82.16148472 C-6.58822523 74.11831196 -6.59526812 66.07514893 -6.60668945 58.03198242 C-6.61663598 51.0240829 -6.62310335 44.01619042 -6.62533849 37.00828403 C-6.62664566 33.29538058 -6.62973184 29.5824973 -6.63698006 25.8696003 C-6.64499332 21.73149839 -6.64524116 17.59343189 -6.64477539 13.45532227 C-6.64837067 12.21526932 -6.65196594 10.97521637 -6.65567017 9.69758606 C-6.6542955 8.57712891 -6.65292084 7.45667175 -6.65150452 6.30226135 C-6.65242631 5.32239541 -6.6533481 4.34252947 -6.65429783 3.33297062 C-6.41173922 -1.00410135 -3.73713749 0.00406969 0 0 Z " fill="#205FB4" transform="translate(770.53125,70.8671875)"/>
<path d="M0 0 C7.92 0 15.84 0 24 0 C24.33 3.96 24.66 7.92 25 12 C26.175625 10.4221875 26.175625 10.4221875 27.375 8.8125 C31.93890098 3.67419501 36.45890457 0.37304697 43.50830078 -0.20605469 C49.6775117 -0.42274406 55.83490014 -0.27651911 62 0 C62.02888146 3.31248187 62.04675799 6.62493167 62.0625 9.9375 C62.07087891 10.88302734 62.07925781 11.82855469 62.08789062 12.80273438 C62.09111328 13.70185547 62.09433594 14.60097656 62.09765625 15.52734375 C62.10289307 16.35999756 62.10812988 17.19265137 62.11352539 18.05053711 C62 20 62 20 61 21 C58.64796402 21.16016386 56.29296721 21.27753239 53.9375 21.375 C45.83624913 21.82124725 38.90341139 22.93703695 33 29 C26.58986544 38.42886071 25.6988139 47.45490583 25.5859375 58.59375 C25.56657135 59.78101685 25.5472052 60.96828369 25.5272522 62.19152832 C25.46776348 65.96094719 25.42119376 69.7303971 25.375 73.5 C25.336792 76.06511704 25.29773864 78.63022163 25.2578125 81.1953125 C25.16050597 87.46347469 25.08069189 93.73151408 25 100 C16.75 100 8.5 100 0 100 C0 67 0 34 0 0 Z " fill="#FF204B" transform="translate(1128,105)"/>
<path d="M0 0 C0.72699097 -0.00335861 1.45398193 -0.00671722 2.20300293 -0.01017761 C4.61264746 -0.01969745 7.02222259 -0.02163121 9.43188477 -0.02270508 C11.10335825 -0.02591685 12.77483144 -0.02928086 14.44630432 -0.03279114 C17.95265352 -0.03878492 21.45897807 -0.04063077 24.96533203 -0.04003906 C29.46250777 -0.0399374 33.95952576 -0.05359228 38.45666409 -0.07081127 C41.90957875 -0.08191914 45.36245512 -0.08395865 48.81538582 -0.08342934 C50.47360846 -0.08461119 52.13183205 -0.08904439 53.79003716 -0.0967617 C56.10753365 -0.10653758 58.42468569 -0.10369325 60.7421875 -0.09765625 C62.72169655 -0.09979378 62.72169655 -0.09979378 64.74119568 -0.10197449 C67.93579102 0.14526367 67.93579102 0.14526367 70.93579102 2.14526367 C70.36234164 5.01251054 70.07433951 6.00671518 67.93579102 8.14526367 C65.53760732 8.3433745 63.25491741 8.41810986 60.85571289 8.40405273 C59.762817 8.40930969 59.762817 8.40930969 58.64784241 8.41467285 C56.23331242 8.42349375 53.81907412 8.41763987 51.40454102 8.41088867 C49.73067163 8.41223522 48.05680262 8.41417567 46.38293457 8.41668701 C42.87235801 8.41963876 39.36188312 8.41533905 35.85131836 8.40600586 C31.34505877 8.39461126 26.8390374 8.40117047 22.33278656 8.41315079 C18.87561234 8.42036805 15.41849487 8.41808208 11.96131897 8.4128952 C10.29948397 8.41155833 8.63764386 8.41320772 6.97581482 8.41785431 C4.65569354 8.4229174 2.33596134 8.41521265 0.01586914 8.40405273 C-0.67510361 8.4081012 -1.36607635 8.41214966 -2.07798767 8.4163208 C-6.83567973 8.37379293 -6.83567973 8.37379293 -9.06420898 6.14526367 C-9.18920898 3.52026367 -9.18920898 3.52026367 -9.06420898 1.14526367 C-6.07096375 -0.35135894 -3.33846074 0.00964877 0 0 Z " fill="#D9E3FA" transform="translate(191.064208984375,27.854736328125)"/>
<path d="M0 0 C5.5 3 5.5 3 7 6 C7.47642685 9.40735661 7.55602059 12.59972023 7 16 C4.00657392 19.57750921 1.90537823 20.74585874 -2.5625 22 C-7.15960012 22 -9.15102863 20.49529404 -12.61328125 17.6953125 C-14.94135097 14.8491653 -14.46144583 11.98831022 -14.36328125 8.44921875 C-13.85843014 5.04554517 -12.51318492 3.29143331 -10 1 C-6.78918322 -0.60540839 -3.48289645 -0.48463309 0 0 Z " fill="#F6E406" transform="translate(73,21)"/>
<path d="M0 0 C3.58221979 0.05722396 5.64555517 0.51122242 8.375 2.875 C11.17440631 6.16566702 11.57309553 9.08229182 11.2734375 13.3203125 C10.40440317 17.31197866 8.16792101 19.37252635 5.0625 21.8125 C1.52407063 22.79539705 -1.67371385 22.44247176 -5.1875 21.4375 C-8.06594269 19.24079374 -10.09620222 16.90981112 -11.1875 13.4375 C-11.10554478 8.92996294 -10.67583209 6.9990819 -7.6875 3.5625 C-6.45 2.510625 -6.45 2.510625 -5.1875 1.4375 C-3.63799423 -0.11200577 -2.15077349 0.11888698 0 0 Z " fill="#F71847" transform="translate(40.1875,20.5625)"/>
<path d="M0 0 C4.09160596 0.8287742 6.82545442 3.00630195 9.140625 6.43359375 C9.95997739 9.61067445 9.88733555 12.24684479 9.140625 15.43359375 C7.09781446 18.86259715 5.04354413 21.34944955 1.140625 22.43359375 C-4.02369064 22.43359375 -5.89647295 22.25607258 -9.859375 18.87109375 C-12.45383259 14.41186976 -12.50548121 12.52168014 -11.859375 7.43359375 C-9.31788794 1.86652686 -6.24572391 -0.19662464 0 0 Z " fill="#00E177" transform="translate(99.859375,20.56640625)"/>
<path d="M0 0 C0.66 0.33 1.32 0.66 2 1 C1.50371094 1.3403125 1.00742187 1.680625 0.49609375 2.03125 C-4.10979882 5.31742762 -7.73083493 8.78519699 -11.34375 13.12890625 C-12.84897054 14.82937945 -14.32217865 16.13408689 -16.125 17.5 C-21.90515688 22.52622337 -24.56208588 28.89403441 -27 36 C-27.77900406 37.95125537 -28.55953336 39.90164916 -29.3515625 41.84765625 C-34.37313653 58.51565197 -31.3862213 77.92752822 -23.5625 93.0625 C-21.05829064 97.44486638 -18.46066264 101.32960023 -15 105 C-15.33 105.66 -15.66 106.32 -16 107 C-20.01161723 102.60059311 -23.24784032 98.27304544 -26 93 C-26.66 91.865625 -27.32 90.73125 -28 89.5625 C-35.83251562 73.40016618 -36.21218439 54.78327849 -30.67578125 37.90234375 C-25.42439778 23.1195475 -14.46210359 7.23105179 0 0 Z " fill="#F3DBD2" transform="translate(355,78)"/>
<path d="M0 0 C7.92 0 15.84 0 24 0 C24.22786458 3.05989583 24.45572917 6.11979167 24.68359375 9.1796875 C24.83001703 11.94728971 24.83001703 11.94728971 26 14 C25.67 14.66 25.34 15.32 25 16 C24.01 16 23.02 16 22 16 C22 11.05 22 6.1 22 1 C15.07 1 8.14 1 1 1 C1 33.67 1 66.34 1 100 C0.67 100 0.34 100 0 100 C0 67 0 34 0 0 Z " fill="#FFD18A" transform="translate(1128,105)"/>
<path d="M0 0 C5.81625 -0.04125 11.6325 -0.0825 17.625 -0.125 C19.4498291 -0.14320801 21.2746582 -0.16141602 23.15478516 -0.18017578 C24.61620795 -0.1860221 26.07763403 -0.19111733 27.5390625 -0.1953125 C28.28567139 -0.20554443 29.03228027 -0.21577637 29.80151367 -0.22631836 C34.2346174 -0.22778579 37.95308494 0.12277422 42 2 C42.495 3.485 42.495 3.485 43 5 C41.86691406 4.51917969 40.73382812 4.03835937 39.56640625 3.54296875 C32.2502246 1.10424153 24.56983802 1.42829479 16.9375 1.3125 C9.0484375 1.1578125 9.0484375 1.1578125 1 1 C1 12.22 1 23.44 1 35 C13.21 34.67 25.42 34.34 38 34 C36 36 36 36 32.46826172 36.22705078 C30.95536674 36.22655032 29.44244799 36.21549111 27.9296875 36.1953125 C26.87116577 36.19229126 26.87116577 36.19229126 25.79125977 36.18920898 C23.15244049 36.17873636 20.51371379 36.15081375 17.875 36.125 C9.026875 36.063125 9.026875 36.063125 0 36 C0 24.12 0 12.24 0 0 Z " fill="#CACEDB" transform="translate(656,92)"/>
<path d="M0 0 C7.59 0 15.18 0 23 0 C23.22786458 3.05989583 23.45572917 6.11979167 23.68359375 9.1796875 C23.83001703 11.94728971 23.83001703 11.94728971 25 14 C24.67 14.66 24.34 15.32 24 16 C23.01 16 22.02 16 21 16 C21 11.05 21 6.1 21 1 C14.07 1 7.14 1 0 1 C0 0.67 0 0.34 0 0 Z " fill="#FF718A" transform="translate(1129,105)"/>
<path d="M0 0 C1.39664108 0.11562606 2.79231199 0.242992 4.1875 0.375 C4.96480469 0.44460937 5.74210938 0.51421875 6.54296875 0.5859375 C9 1 9 1 11.12890625 2.02734375 C15.61326877 3.54653595 20.0511988 3.24701815 24.75 3.1875 C25.70132813 3.18685547 26.65265625 3.18621094 27.6328125 3.18554688 C33.49428507 3.14941451 39.18661748 2.74760578 45 2 C39.9211475 7.0788525 28.96973698 5.29329146 22.20507812 5.33007812 C14.15469384 5.25658101 7.43834222 4.25427472 0 1 C0 0.67 0 0.34 0 0 Z " fill="#D0CDD6" transform="translate(514,203)"/>
<path d="M0 0 C5.01707535 -0.04961356 10.03400635 -0.08582043 15.05126953 -0.10986328 C16.75637298 -0.1198914 18.46145936 -0.13351726 20.16650391 -0.15087891 C22.62406642 -0.17526803 25.08140061 -0.18651512 27.5390625 -0.1953125 C28.67379501 -0.21079636 28.67379501 -0.21079636 29.83145142 -0.22659302 C34.25461954 -0.22752066 37.96284019 0.12729935 42 2 C42.495 3.485 42.495 3.485 43 5 C41.87722656 4.51917969 40.75445313 4.03835937 39.59765625 3.54296875 C32.14305368 1.05810123 24.21340757 1.4244473 16.4375 1.3125 C14.8404677 1.27927239 13.24346123 1.24477784 11.64648438 1.20898438 C7.76446676 1.12470507 3.88250128 1.05760577 0 1 C0 0.67 0 0.34 0 0 Z " fill="#989EBF" transform="translate(656,92)"/>
<path d="M0 0 C0.66 0.33 1.32 0.66 2 1 C1.25556641 1.51046875 1.25556641 1.51046875 0.49609375 2.03125 C-4.14965601 5.34586463 -7.84919101 8.84366404 -11.45703125 13.265625 C-13 15 -13 15 -16 17 C-15.56285528 12.24184786 -13.81180864 10.44152756 -10.25 7.375 C-9.38890625 6.61960937 -8.5278125 5.86421875 -7.640625 5.0859375 C-5.16610699 3.13121469 -2.81338212 1.42582971 0 0 Z " fill="#ACAAC6" transform="translate(355,78)"/>
<path d="M0 0 C0.9583374 0.00523682 1.9166748 0.01047363 2.90405273 0.01586914 C4.45576172 0.02070313 4.45576172 0.02070313 6.03881836 0.02563477 C7.12743164 0.03401367 8.21604492 0.04239258 9.33764648 0.05102539 C10.97636719 0.05779297 10.97636719 0.05779297 12.64819336 0.06469727 C15.35723144 0.07652713 18.06616248 0.09300996 20.77514648 0.11352539 C20.77514648 0.44352539 20.77514648 0.77352539 20.77514648 1.11352539 C19.81475464 1.11968872 19.81475464 1.11968872 18.83496094 1.12597656 C15.91826744 1.15898577 13.00364265 1.22963565 10.08764648 1.30102539 C9.08024414 1.30682617 8.0728418 1.31262695 7.03491211 1.31860352 C0.7011911 1.37894349 0.7011911 1.37894349 -4.43188477 4.66430664 C-5.02356445 5.47254883 -5.61524414 6.28079102 -6.22485352 7.11352539 C-6.88485352 6.78352539 -7.54485352 6.45352539 -8.22485352 6.11352539 C-2.22485352 0.11352539 -2.22485352 0.11352539 0 0 Z " fill="#FC2651" transform="translate(58.224853515625,139.886474609375)"/>
<path d="M0 0 C0.66 0.33 1.32 0.66 2 1 C0.92492371 2.29854721 -0.16043736 3.58858361 -1.25 4.875 C-1.85328125 5.59429687 -2.4565625 6.31359375 -3.078125 7.0546875 C-4.97087634 8.97052118 -6.53657727 9.96449045 -9 11 C-7.59155282 7.78475695 -5.89655214 5.67816132 -3.375 3.25 C-2.74335937 2.63640625 -2.11171875 2.0228125 -1.4609375 1.390625 C-0.73777344 0.70226562 -0.73777344 0.70226562 0 0 Z " fill="#FF8B7C" transform="translate(1008,111)"/>
<path d="M0 0 C-4.06727245 2.91832543 -6.84915617 3.33790436 -11.8125 3.1875 C-13.55466797 3.14689453 -13.55466797 3.14689453 -15.33203125 3.10546875 C-16.21246094 3.07066406 -17.09289062 3.03585938 -18 3 C-18 2.67 -18 2.34 -18 2 C-15.56421213 1.46969932 -13.12694025 0.95047688 -10.6875 0.4375 C-9.65206055 0.21030273 -9.65206055 0.21030273 -8.59570312 -0.02148438 C-5.24455934 -0.71761569 -3.30465928 -1.10155309 0 0 Z " fill="#CBCAD7" transform="translate(411,182)"/>
<path d="M0 0 C4.57989423 -0.46733615 7.24854513 -0.17261016 10.9375 2.5 C11.948125 3.325 12.95875 4.15 14 5 C13.01 5.495 13.01 5.495 12 6 C10.1953125 5.29296875 10.1953125 5.29296875 8.125 4.1875 C7.10792969 3.65189453 7.10792969 3.65189453 6.0703125 3.10546875 C5.38710938 2.74066406 4.70390625 2.37585938 4 2 C2.66851465 1.32965011 1.33572063 0.66187054 0 0 Z " fill="#CCC4CF" transform="translate(403,93)"/>
<path d="M0 0 C2.0625 0.4375 2.0625 0.4375 4 1 C2.8553125 1.6496875 2.8553125 1.6496875 1.6875 2.3125 C-0.58093768 3.73686785 -2.2199723 5.03260097 -4 7 C-4.66 6.67 -5.32 6.34 -6 6 C-4 4 -2 2 0 0 Z " fill="#F83D65" transform="translate(56,140)"/>
</svg>
