<?xml version="1.0" encoding="UTF-8"?>
<svg version="1.1" xmlns="http://www.w3.org/2000/svg" width="1414" height="336">
<path d="M0 0 C1.83203354 1.13574665 3.64179174 2.30764971 5.4375 3.5 C7.36015289 4.6452096 9.29739798 5.76335469 11.23486328 6.88330078 C13.43115344 8.15758001 15.61494069 9.45130889 17.796875 10.75 C22.55341228 13.57558555 27.33552378 16.35569288 32.125 19.125 C32.92647461 19.58841797 33.72794922 20.05183594 34.55371094 20.52929688 C44.00597735 25.98922955 53.48096466 31.4072255 63 36.75 C78.48583528 45.44393547 93.87630474 54.30503309 109.23193359 63.2265625 C112.29451539 64.99481871 115.36624723 66.74684773 118.4375 68.5 C118.66945945 77.9139771 118.8470049 87.32696756 118.95562172 96.74318123 C119.00776125 101.11594865 119.0784357 105.48675813 119.19189453 109.85839844 C119.30076038 114.07961016 119.36038057 118.29894269 119.38627243 122.52145004 C119.40471524 124.13004022 119.44073586 125.73853015 119.49480057 127.34631729 C119.65266137 132.23645259 119.68310254 136.74619836 118.4375 141.5 C115.47514599 144.61743207 112.43123452 146.03562245 108.4375 147.5 C107.36757813 148.09167969 106.29765625 148.68335938 105.1953125 149.29296875 C103.42467091 150.23083084 101.65383419 151.16832462 99.8828125 152.10546875 C97.5765095 153.42072461 95.52009366 154.85814128 93.4375 156.5 C94.54544922 157.13615234 94.54544922 157.13615234 95.67578125 157.78515625 C100.72193305 160.70256295 105.72880462 163.64880452 110.625 166.8125 C116.08957775 170.33394053 121.69004838 173.59789738 127.3059082 176.86938477 C131.76405648 179.47892287 136.07921701 182.21811418 140.33984375 185.140625 C143.57332132 187.23606298 146.96251749 189.02019699 150.37109375 190.8125 C151.38300781 191.369375 152.39492188 191.92625 153.4375 192.5 C154.27337646 192.79390625 155.10925293 193.0878125 155.97045898 193.390625 C159.17636515 194.76152474 161.09640213 195.89211266 163.4375 198.5 C164.75313883 203.71785407 164.8370511 208.64595242 164.6862793 214.00390625 C164.62506032 216.4975428 164.66533979 218.97517394 164.71679688 221.46875 C164.73070663 232.90242212 164.73070663 232.90242212 161.52368164 236.86425781 C159.2111116 238.42661697 157.03593099 239.49800707 154.4375 240.5 C153.52097656 241.03109375 152.60445313 241.5621875 151.66015625 242.109375 C150.94730469 242.48578125 150.23445313 242.8621875 149.5 243.25 C147.03875197 244.55224763 145.42239258 245.51510742 143.4375 247.5 C141.34685093 248.74214296 139.24969819 249.94407306 137.125 251.125 C129.07396511 255.65863327 121.12774285 260.37317143 113.4375 265.5 C112.4475 265.5 111.4575 265.5 110.4375 265.5 C110.4375 266.16 110.4375 266.82 110.4375 267.5 C109.79425781 267.8403125 109.15101563 268.180625 108.48828125 268.53125 C102.0769687 271.97012806 95.86788533 275.65311326 89.69140625 279.49609375 C86.63254656 281.37988129 83.54705968 283.20145362 80.4375 285 C76.37283407 287.35151516 72.35778653 289.76719719 68.3671875 292.2421875 C61.81633621 296.28991103 55.19750792 300.21676821 48.5625 304.125 C39.65537234 309.38501745 30.77451165 314.68517181 21.9375 320.0625 C21.03789551 320.60922363 20.13829102 321.15594727 19.21142578 321.71923828 C18.34759277 322.24630371 17.48375977 322.77336914 16.59375 323.31640625 C15.75070313 323.82961426 14.90765625 324.34282227 14.0390625 324.87158203 C12.20060306 326.02234446 10.38463802 327.20941984 8.5859375 328.42138672 C-0.97793239 334.82064503 -0.97793239 334.82064503 -6.5625 334.5 C-9.25559845 333.27693345 -11.39053513 332.11877521 -13.8125 330.5 C-14.46508789 330.08645264 -15.11767578 329.67290527 -15.79003906 329.24682617 C-17.72623488 328.01545691 -19.64525961 326.76061622 -21.5625 325.5 C-23.47765364 324.26847723 -25.39414701 323.03903316 -27.3125 321.8125 C-28.19035156 321.24789063 -29.06820312 320.68328125 -29.97265625 320.1015625 C-32.52067473 318.5258648 -35.10548429 317.0942409 -37.75 315.6875 C-43.10949453 312.82097092 -48.22734924 309.63684788 -53.36230469 306.39233398 C-58.03558444 303.44250584 -62.74859561 300.57206813 -67.5 297.75 C-71.57303531 295.33043745 -75.58704536 292.86090565 -79.5 290.1875 C-82.04244551 288.45637291 -84.53834593 286.95176934 -87.3125 285.625 C-92.04306286 283.35730385 -96.41139609 280.55347872 -100.859375 277.78125 C-104.94966666 275.24429 -109.0970575 272.80760756 -113.25 270.375 C-113.98186523 269.94566162 -114.71373047 269.51632324 -115.46777344 269.07397461 C-116.87555185 268.24820327 -118.2834251 267.42259359 -119.69140625 266.59716797 C-126.05537628 262.86547678 -132.31550446 259.02277954 -138.5 255 C-143.44606258 251.78462831 -148.46426204 248.87667832 -153.6796875 246.11328125 C-167.91634615 238.14615385 -167.91634615 238.14615385 -171.5625 234.5 C-175.24958788 204.53874641 -175.24958788 204.53874641 -169.90429688 195.78417969 C-165.81642619 191.94446056 -161.08363857 189.9642021 -155.79760742 188.26367188 C-152.40471931 187.10441966 -149.6279453 185.36469484 -146.5625 183.5 C-145.3306695 182.77912277 -144.09754628 182.06045093 -142.86328125 181.34375 C-134.84648973 176.63887599 -126.85152471 171.89782046 -118.875 167.125 C-118.03815674 166.62548828 -117.20131348 166.12597656 -116.33911133 165.61132812 C-112.87022756 163.53105064 -109.43706784 161.44338238 -106.10546875 159.1484375 C-103.5625 157.5 -103.5625 157.5 -101.5625 157.5 C-102.93722752 154.75054497 -104.58993338 154.28349545 -107.3125 152.875 C-108.25901932 152.35454102 -109.20553864 151.83408203 -110.18074036 151.29785156 C-113.52524485 149.46459365 -113.52524485 149.46459365 -116.9719696 148.00927734 C-120.87139351 146.09116258 -123.4438137 144.5451566 -126.5625 141.5 C-128.36661514 135.89285449 -128.08862124 130.58015869 -127.83203125 124.75 C-127.80775282 123.12483099 -127.78926275 121.49956616 -127.77629089 119.87426758 C-127.72688807 115.61700973 -127.59944787 111.36561355 -127.45513916 107.11065674 C-127.32161115 102.76077598 -127.26266756 98.4099376 -127.19726562 94.05859375 C-127.05826534 85.53638602 -126.83672846 77.018924 -126.5625 68.5 C-125.68932129 68.03601807 -124.81614258 67.57203613 -123.91650391 67.09399414 C-122.76069824 66.47645264 -121.60489258 65.85891113 -120.4140625 65.22265625 C-119.27275879 64.61429932 -118.13145508 64.00594238 -116.95556641 63.37915039 C-113.86718879 61.66874296 -110.89729492 59.85969817 -107.9375 57.9375 C-103.69601555 55.18659437 -99.38467316 52.72118478 -94.9296875 50.3359375 C-90.52105394 47.93215818 -86.16826974 45.4354913 -81.8125 42.9375 C-74.0977477 38.51585873 -66.36881834 34.12054484 -58.625 29.75 C-47.83560094 23.65780216 -37.06478491 17.53552552 -26.33862305 11.33251953 C-24.67099124 10.37033128 -23.000622 9.41287001 -21.32739258 8.46044922 C-17.03348218 6.00291994 -13.01594048 3.3965366 -9 0.5 C-5.40748912 -1.61613655 -3.79031059 -1.76881161 0 0 Z " fill="#4382CA" transform="translate(171.5625,1.5)"/>
<path d="M0 0 C1.83203354 1.13574665 3.64179174 2.30764971 5.4375 3.5 C7.36015289 4.6452096 9.29739798 5.76335469 11.23486328 6.88330078 C13.43115344 8.15758001 15.61494069 9.45130889 17.796875 10.75 C22.55341228 13.57558555 27.33552378 16.35569288 32.125 19.125 C32.92647461 19.58841797 33.72794922 20.05183594 34.55371094 20.52929688 C44.00597735 25.98922955 53.48096466 31.4072255 63 36.75 C77.84850827 45.08613237 92.60802956 53.57794709 107.3359375 62.125 C111.02738867 64.26607632 114.72992535 66.38697592 118.4375 68.5 C114.98782105 72.44249023 111.05095002 74.57026385 106.5 77 C104.87305809 77.88684806 103.24678252 78.77491938 101.62109375 79.6640625 C100.77144043 80.1271582 99.92178711 80.59025391 99.04638672 81.06738281 C85.9164414 88.27742578 73.02443699 95.89744855 60.19921875 103.6328125 C48.83013901 110.48860801 37.36184053 117.16710753 25.79711914 123.6875 C24.10120564 124.64942805 22.4289472 125.65367536 20.77587891 126.6875 C17.94042058 128.22695024 15.40267195 129.23294652 12.37646484 130.28125 C6.37826929 132.65249511 1.24855149 135.13276348 -2.5625 140.5 C-5.86554119 151.28302321 -4.8416658 163.10066681 -4.39935303 174.23687744 C-4.25411026 178.43952737 -4.22399405 182.64292285 -4.18359375 186.84765625 C-4.0879083 195.07005697 -3.86614967 203.28266051 -3.5625 211.5 C-19.22093337 202.97255972 -34.84260416 194.3701714 -50.17041016 185.25878906 C-57.05692578 181.17702986 -64.03496508 177.26049393 -71.015625 173.3425293 C-75.58517305 170.77177568 -80.13505426 168.17911421 -84.6328125 165.484375 C-85.40689453 165.02095703 -86.18097656 164.55753906 -86.97851562 164.08007812 C-88.40566698 163.22075887 -89.82913901 162.35528558 -91.24804688 161.48242188 C-94.70831125 159.39779777 -97.5957421 158.17833035 -101.5625 157.5 C-102.0575 156.51 -102.0575 156.51 -102.5625 155.5 C-104.11424801 154.57013573 -105.70575792 153.70623362 -107.3125 152.875 C-108.25901932 152.35454102 -109.20553864 151.83408203 -110.18074036 151.29785156 C-113.52524485 149.46459365 -113.52524485 149.46459365 -116.9719696 148.00927734 C-120.87139351 146.09116258 -123.4438137 144.5451566 -126.5625 141.5 C-128.36661514 135.89285449 -128.08862124 130.58015869 -127.83203125 124.75 C-127.80775282 123.12483099 -127.78926275 121.49956616 -127.77629089 119.87426758 C-127.72688807 115.61700973 -127.59944787 111.36561355 -127.45513916 107.11065674 C-127.32161115 102.76077598 -127.26266756 98.4099376 -127.19726562 94.05859375 C-127.05826534 85.53638602 -126.83672846 77.018924 -126.5625 68.5 C-125.68932129 68.03601807 -124.81614258 67.57203613 -123.91650391 67.09399414 C-122.76069824 66.47645264 -121.60489258 65.85891113 -120.4140625 65.22265625 C-119.27275879 64.61429932 -118.13145508 64.00594238 -116.95556641 63.37915039 C-113.86718879 61.66874296 -110.89729492 59.85969817 -107.9375 57.9375 C-103.69601555 55.18659437 -99.38467316 52.72118478 -94.9296875 50.3359375 C-90.52105394 47.93215818 -86.16826974 45.4354913 -81.8125 42.9375 C-74.0977477 38.51585873 -66.36881834 34.12054484 -58.625 29.75 C-47.83560094 23.65780216 -37.06478491 17.53552552 -26.33862305 11.33251953 C-24.67099124 10.37033128 -23.000622 9.41287001 -21.32739258 8.46044922 C-17.03348218 6.00291994 -13.01594048 3.3965366 -9 0.5 C-5.40748912 -1.61613655 -3.79031059 -1.76881161 0 0 Z " fill="#B5F1EE" transform="translate(171.5625,1.5)"/>
<path d="M0 0 C0.66 0 1.32 0 2 0 C2.22324847 5.01679391 2.38612008 10.03067531 2.49438477 15.05126953 C2.53952418 16.75686004 2.60085724 18.46210452 2.67895508 20.16650391 C3.31119175 34.32364673 3.31119175 34.32364673 0.13012695 38.390625 C-2.19879159 39.95787403 -4.37834899 41.01377977 -7 42 C-7.91652344 42.53109375 -8.83304687 43.0621875 -9.77734375 43.609375 C-10.49019531 43.98578125 -11.20304687 44.3621875 -11.9375 44.75 C-14.39874803 46.05224763 -16.01510742 47.01510742 -18 49 C-20.09064907 50.24214296 -22.18780181 51.44407306 -24.3125 52.625 C-32.36353489 57.15863327 -40.30975715 61.87317143 -48 67 C-48.99 67 -49.98 67 -51 67 C-51 67.66 -51 68.32 -51 69 C-51.64324219 69.3403125 -52.28648437 69.680625 -52.94921875 70.03125 C-59.3605313 73.47012806 -65.56961467 77.15311326 -71.74609375 80.99609375 C-74.80495344 82.87988129 -77.89044032 84.70145362 -81 86.5 C-85.06466593 88.85151516 -89.07971347 91.26719719 -93.0703125 93.7421875 C-99.62116379 97.78991103 -106.23999208 101.71676821 -112.875 105.625 C-121.78212766 110.88501745 -130.66298835 116.18517181 -139.5 121.5625 C-140.84940674 122.38258545 -140.84940674 122.38258545 -142.22607422 123.21923828 C-143.52182373 124.00983643 -143.52182373 124.00983643 -144.84375 124.81640625 C-145.68679687 125.32961426 -146.52984375 125.84282227 -147.3984375 126.37158203 C-149.23689694 127.52234446 -151.05286198 128.70941984 -152.8515625 129.92138672 C-162.41543239 136.32064503 -162.41543239 136.32064503 -168 136 C-170.69309845 134.77693345 -172.82803513 133.61877521 -175.25 132 C-176.22888184 131.37967896 -176.22888184 131.37967896 -177.22753906 130.74682617 C-179.16373488 129.51545691 -181.08275961 128.26061622 -183 127 C-184.91515364 125.76847723 -186.83164701 124.53903316 -188.75 123.3125 C-189.62785156 122.74789062 -190.50570312 122.18328125 -191.41015625 121.6015625 C-193.95817473 120.0258648 -196.54298429 118.5942409 -199.1875 117.1875 C-204.54699453 114.32097092 -209.66484924 111.13684788 -214.79980469 107.89233398 C-219.47308444 104.94250584 -224.18609561 102.07206813 -228.9375 99.25 C-233.01053531 96.83043745 -237.02454536 94.36090565 -240.9375 91.6875 C-243.47994551 89.95637291 -245.97584593 88.45176934 -248.75 87.125 C-253.48056286 84.85730385 -257.84889609 82.05347872 -262.296875 79.28125 C-266.38716666 76.74429 -270.5345575 74.30760756 -274.6875 71.875 C-275.78529785 71.23099243 -275.78529785 71.23099243 -276.90527344 70.57397461 C-278.31305185 69.74820327 -279.7209251 68.92259359 -281.12890625 68.09716797 C-287.49287628 64.36547678 -293.75300446 60.52277954 -299.9375 56.5 C-304.88356258 53.28462831 -309.90176204 50.37667832 -315.1171875 47.61328125 C-329.35384615 39.64615385 -329.35384615 39.64615385 -333 36 C-333.08847743 33.47905924 -333.11527301 30.98569107 -333.09765625 28.46484375 C-333.0962413 27.71159317 -333.09482635 26.95834259 -333.09336853 26.18226624 C-333.08775376 23.7673044 -333.07519883 21.35243399 -333.0625 18.9375 C-333.0574869 17.30403779 -333.05292366 15.67057414 -333.04882812 14.03710938 C-333.03777954 10.02470415 -333.02050506 6.01236759 -333 2 C-328.75181034 3.63718659 -324.94214593 5.69704696 -321.0625 8.0625 C-320.08168457 8.65478394 -320.08168457 8.65478394 -319.08105469 9.2590332 C-314.58492834 11.98990552 -310.15779985 14.81689205 -305.75 17.6875 C-300.970155 20.79905173 -296.10986319 23.6209997 -291.07421875 26.296875 C-286.37700745 28.899142 -281.82615294 31.73190915 -277.25366211 34.54589844 C-271.46204496 38.10978641 -265.64661075 41.63111317 -259.8125 45.125 C-258.9676001 45.63111816 -258.1227002 46.13723633 -257.25219727 46.65869141 C-255.6000692 47.64801078 -253.94781073 48.63711242 -252.29541016 49.62597656 C-249.02872291 51.58140263 -245.76431037 53.54060965 -242.5 55.5 C-241.30209785 56.21877419 -240.10418088 56.93752369 -238.90625 57.65625 C-224.91210938 66.05273438 -224.91210938 66.05273438 -210.91796875 74.44921875 C-209.98053833 75.01165283 -209.98053833 75.01165283 -209.02416992 75.58544922 C-207.8042231 76.31744975 -206.58433334 77.0495454 -205.36450195 77.78173828 C-202.3693433 79.57940158 -199.37317354 81.37533763 -196.375 83.16796875 C-195.76817383 83.53148437 -195.16134766 83.895 -194.53613281 84.26953125 C-193.31041253 85.00250291 -192.0832102 85.73300227 -190.85449219 86.4609375 C-187.27235161 88.59338672 -183.75419117 90.79925884 -180.265625 93.08203125 C-179.46294189 93.59781738 -178.66025879 94.11360352 -177.83325195 94.64501953 C-176.26617489 95.65396612 -174.70940608 96.67915306 -173.16479492 97.72216797 C-168.81429537 100.57363657 -168.81429537 100.57363657 -163.75 100.4609375 C-162.8425 99.97882813 -161.935 99.49671875 -161 99 C-160.25878906 98.60683594 -159.51757812 98.21367187 -158.75390625 97.80859375 C-158.03074219 97.35613281 -157.30757812 96.90367187 -156.5625 96.4375 C-155.68851563 95.89867187 -154.81453125 95.35984375 -153.9140625 94.8046875 C-152.47160156 93.91136719 -152.47160156 93.91136719 -151 93 C-148.81438445 91.68422641 -146.62695404 90.37184402 -144.4375 89.0625 C-143.14831834 88.28926113 -141.85926408 87.51580983 -140.5703125 86.7421875 C-52.4453125 33.8671875 -52.4453125 33.8671875 -50.6394043 32.78369141 C-49.41945755 32.05169075 -48.19956841 31.31959408 -46.97973633 30.58740234 C-43.34334331 28.40490888 -39.70549888 26.22486458 -36.06640625 24.046875 C-20.2141649 14.73880843 -20.2141649 14.73880843 -4.7734375 4.78125 C-2 3 -2 3 0 3 C0 2.01 0 1.02 0 0 Z " fill="#247CD3" transform="translate(333,200)"/>
<path d="M0 0 C11.364375 -0.061875 22.72875 -0.12375 34.4375 -0.1875 C38.01005615 -0.21481201 41.5826123 -0.24212402 45.26342773 -0.27026367 C49.6661377 -0.28381348 49.6661377 -0.28381348 51.73500061 -0.28633118 C53.16296706 -0.2909021 54.59092281 -0.3013781 56.01881409 -0.31672668 C64.11572641 -0.39932054 71.50379358 -0.39737399 79 3 C79.71735825 3.30013504 80.43471649 3.60027008 81.17381287 3.90950012 C89.52828987 7.5083025 94.17669748 13.53182987 98.0546875 21.5703125 C101.24150084 29.76121289 101.42963622 40.12744504 98.4375 48.375 C95.65449727 54.39821305 91.51063258 59.32624494 86 63 C86.64066406 63.3403125 87.28132812 63.680625 87.94140625 64.03125 C97.47347399 69.37261732 104.23847559 76.27358285 107.5859375 86.8515625 C109.61277084 97.36815057 107.91654421 107.63246399 102.3125 116.6875 C95.40460174 126.34150102 86.56389333 131.71398863 75 134 C72.40640569 134.1637515 69.80577497 134.23583032 67.20703125 134.22705078 C66.46265305 134.22729185 65.71827484 134.22753292 64.95133972 134.2277813 C62.57159949 134.22630339 60.19218325 134.21114168 57.8125 134.1953125 C56.33138174 134.19236733 54.85026139 134.19032981 53.36914062 134.18920898 C47.91272841 134.17877661 42.45636093 134.15085411 37 134.125 C24.79 134.08375 12.58 134.0425 0 134 C0 89.78 0 45.56 0 0 Z M26 22 C26 32.89 26 43.78 26 55 C31.0176117 55.0690497 36.03356045 55.12872743 41.05126953 55.16479492 C42.75640463 55.17983738 44.46150132 55.20027653 46.16650391 55.22631836 C48.62412012 55.26290284 51.08122269 55.27977173 53.5390625 55.29296875 C54.67379501 55.31619453 54.67379501 55.31619453 55.83145142 55.33988953 C60.62446511 55.34139733 63.83316268 54.61545464 68 52 C73.07847724 46.37249819 73.34705347 42.66318006 73.28125 35.2109375 C72.92073038 31.09500522 71.8786888 28.9564912 69 26 C63.55086263 22.04937541 58.74163308 21.85544828 52.171875 21.90234375 C51.42286926 21.9037587 50.67386353 21.90517365 49.90216064 21.90663147 C47.51806588 21.91221341 45.13406622 21.92476255 42.75 21.9375 C41.13020969 21.94251734 39.51041791 21.94707984 37.890625 21.95117188 C33.92701752 21.96132456 29.96361479 21.98090335 26 22 Z M26 75 C26 87.21 26 99.42 26 112 C31.40820248 112.06913895 36.81485108 112.12879084 42.22314453 112.16479492 C44.06011166 112.17981496 45.89704334 112.20023709 47.73388672 112.22631836 C50.38518054 112.26300202 53.03599732 112.27979438 55.6875 112.29296875 C56.49928711 112.30845261 57.31107422 112.32393646 58.14746094 112.33988953 C64.35444943 112.34169221 70.09142573 111.42006855 75.0234375 107.31640625 C75.69246094 106.44822266 75.69246094 106.44822266 76.375 105.5625 C76.83648438 104.98628906 77.29796875 104.41007812 77.7734375 103.81640625 C81.10127162 98.88824426 81.90308046 94.88883715 81 89 C79.24436647 84.0936313 76.97638638 80.20963691 72.4375 77.5 C68.453928 75.76171403 65.29601044 74.87241555 60.96582031 74.88647461 C60.18531311 74.88655014 59.40480591 74.88662567 58.60064697 74.88670349 C57.76821472 74.89186478 56.93578247 74.89702606 56.078125 74.90234375 C55.21813904 74.9037587 54.35815308 74.90517365 53.47210693 74.90663147 C50.73136891 74.91221903 47.99071324 74.92476925 45.25 74.9375 C43.3893241 74.94251661 41.52864691 74.94707923 39.66796875 74.95117188 C35.11192208 74.96133255 30.55605299 74.98091039 26 75 Z " fill="#1456B0" transform="translate(709,96)"/>
<path d="M0 0 C0.23197133 9.28358741 0.40951047 18.56617406 0.51812172 27.8520298 C0.57025895 32.16427768 0.64092827 36.47453979 0.75439453 40.78564453 C0.86327 44.94850427 0.9228823 49.10945828 0.94877243 53.27363205 C0.96721364 54.85989778 1.00323132 56.44606199 1.05730057 58.03151321 C1.21401168 62.81824558 1.2373842 67.33187971 0 72 C-2.96398153 75.10255945 -6.01614561 76.53237817 -10 78 C-11.06992187 78.58007812 -12.13984375 79.16015625 -13.2421875 79.7578125 C-15.01183395 80.67676837 -16.78268939 81.59339948 -18.5546875 82.5078125 C-21.08602357 83.89804371 -21.08602357 83.89804371 -22.9453125 86.1171875 C-25 88 -25 88 -27.62109375 88.40234375 C-32.71365769 89.30310939 -36.64768178 91.95085626 -41.0625 94.5625 C-42.00714111 95.11188232 -42.95178223 95.66126465 -43.92504883 96.22729492 C-49.74545383 99.62614804 -55.49295342 103.13101938 -61.2109375 106.69921875 C-68.73063432 111.31870426 -76.44349558 115.62549955 -84.09375 120.0234375 C-90.84797168 123.9073062 -97.58357051 127.82250449 -104.3125 131.75 C-105.31385986 132.33410645 -106.31521973 132.91821289 -107.34692383 133.52001953 C-112.54394067 136.54490595 -112.54394067 136.54490595 -117.67651367 139.67675781 C-120 141 -120 141 -122 141 C-122.20879841 131.97710984 -122.36857376 122.95505438 -122.46630955 113.93027306 C-122.51322647 109.73926682 -122.576821 105.54991639 -122.67895508 101.35986328 C-122.77696013 97.31374568 -122.83059901 93.26921704 -122.85389519 89.22200394 C-122.87048864 87.6804464 -122.90289655 86.13897321 -122.95157051 84.59809494 C-123.31719383 72.54072823 -123.31719383 72.54072823 -120.10417175 68.78244019 C-117.79463087 67.21558064 -115.56964638 66.07667819 -113 65 C-112.13141357 64.4745459 -111.26282715 63.9490918 -110.36791992 63.40771484 C-109.66256104 63.01277832 -108.95720215 62.6178418 -108.23046875 62.2109375 C-107.41433105 61.75025879 -106.59819336 61.28958008 -105.75732422 60.81494141 C-104.48526123 60.10217041 -104.48526123 60.10217041 -103.1875 59.375 C-95.85158931 55.22815997 -88.58479463 50.98740111 -81.375 46.625 C-75.64447108 43.16007995 -69.89596259 39.8087192 -63.984375 36.66015625 C-59.84292806 34.35634087 -55.803473 31.8919968 -51.75 29.4375 C-43.38940566 24.37945534 -34.92882377 19.52527538 -26.40673828 14.74511719 C-19.53614712 10.88634016 -12.72510355 6.93852705 -5.9621582 2.89404297 C-1.1013076 0 -1.1013076 0 0 0 Z " fill="#3095D3" transform="translate(290,71)"/>
<path d="M0 0 C8.58 0 17.16 0 26 0 C26 18.15 26 36.3 26 55 C47.45 55 68.9 55 91 55 C91 36.85 91 18.7 91 0 C99.58 0 108.16 0 117 0 C118.27178725 2.54357451 118.12585822 4.31399537 118.12698364 7.16235352 C118.13121338 8.80290207 118.13121338 8.80290207 118.13552856 10.47659302 C118.13249222 12.28448807 118.13249222 12.28448807 118.12939453 14.12890625 C118.13202301 16.02647171 118.13202301 16.02647171 118.13470459 17.96237183 C118.13927285 21.43749316 118.13749185 24.91258489 118.1343255 28.38770676 C118.13179878 32.01962109 118.13414032 35.65153284 118.13571167 39.28344727 C118.13753245 45.38330543 118.13512945 51.48315149 118.13037109 57.58300781 C118.12492865 64.64145025 118.12669137 71.69986381 118.1321975 78.75830555 C118.13673123 84.81183272 118.1373779 90.86535119 118.13475883 96.91887951 C118.13319749 100.53732464 118.13299839 104.15575618 118.13629532 107.77420044 C118.13971252 111.80651569 118.13498003 115.83878093 118.12939453 119.87109375 C118.13141876 121.07635712 118.13344299 122.28162048 118.13552856 123.52340698 C118.13270874 124.61710602 118.12988892 125.71080505 118.12698364 126.83764648 C118.1264181 128.2689817 118.1264181 128.2689817 118.12584114 129.72923279 C118 132 118 132 117 134 C108.42 134 99.84 134 91 134 C91 115.85 91 97.7 91 79 C69.88 79 48.76 79 27 79 C26.67 97.15 26.34 115.3 26 134 C17.42 134 8.84 134 0 134 C0 89.78 0 45.56 0 0 Z " fill="#024AAD" transform="translate(1296,96)"/>
<path d="M0 0 C3.56790008 0.812405 6.30909058 2.14481837 9.5078125 3.94921875 C10.57773437 4.55056641 11.64765625 5.15191406 12.75 5.77148438 C14.420625 6.71991211 14.420625 6.71991211 16.125 7.6875 C17.21554688 8.30044922 18.30609375 8.91339844 19.4296875 9.54492188 C29.24990231 15.08347604 38.87792986 20.89492351 48.43359375 26.875 C53.18611902 29.76535452 58.10510683 32.3612012 63 35 C88.04652121 48.52435226 88.04652121 48.52435226 95.75830078 53.56884766 C98.90366272 55.51071325 102.01617814 56.77873596 105.49658203 58.01269531 C111.98514894 60.59165694 117.69154151 63.34291995 122 69 C125.48450688 79.75891198 124.17664382 91.67732781 123.51062012 102.80554199 C123.28370605 107.0000823 123.18471638 111.19755049 123.07421875 115.39648438 C122.83966456 123.60570481 122.46543711 131.80064066 122 140 C106.34156663 131.47255972 90.71989584 122.8701714 75.39208984 113.75878906 C68.50557422 109.67702986 61.52753492 105.76049393 54.546875 101.8425293 C49.97732695 99.27177568 45.42744574 96.67911421 40.9296875 93.984375 C40.15560547 93.52095703 39.38152344 93.05753906 38.58398438 92.58007812 C37.15683302 91.72075887 35.73336099 90.85528558 34.31445312 89.98242188 C30.85418875 87.89779777 27.9667579 86.67833035 24 86 C23.505 85.01 23.505 85.01 23 84 C21.42865963 83.04776184 19.8161789 82.16295465 18.1875 81.3125 C16.77841579 80.57361537 15.37208818 79.82819231 13.99046326 79.03915405 C11.88341476 77.89391432 11.88341476 77.89391432 9.07020569 76.85073853 C5.48848145 75.22850975 2.86115313 73.71283435 0 71 C-1.69302143 65.60448082 -1.40413334 60.36071432 -1.171875 54.78515625 C-1.14946889 53.20338907 -1.1323989 51.62153812 -1.12042236 50.03965759 C-1.07478464 45.89287889 -0.95710937 41.75121429 -0.82397461 37.60644531 C-0.70079872 33.37049565 -0.6463252 29.13371193 -0.5859375 24.89648438 C-0.45756623 16.59531919 -0.25302106 8.29829709 0 0 Z " fill="#5ED1E4" transform="translate(46,73)"/>
<path d="M0 0 C12.3439353 9.41644611 20.88452215 20.92508008 24.5234375 36.22265625 C24.5234375 37.87265625 24.5234375 39.52265625 24.5234375 41.22265625 C15.9434375 41.22265625 7.3634375 41.22265625 -1.4765625 41.22265625 C-2.6109375 38.91265625 -3.7453125 36.60265625 -4.9140625 34.22265625 C-9.86409727 24.70461919 -15.82236842 18.50189018 -26.140625 14.8984375 C-38.44834653 11.33784247 -52.78451085 12.47076615 -64.0625 18.62890625 C-75.03735563 25.87444201 -80.83436699 36.32781853 -83.4765625 49.03515625 C-85.84766238 62.39533073 -82.93345415 75.20208025 -75.9453125 86.75390625 C-69.63607626 95.68207074 -60.10531673 100.35784966 -49.6640625 102.91015625 C-37.62232195 104.09071905 -25.41985989 103.33273636 -15.40625 95.88671875 C-8.830595 90.21621464 -4.58671456 83.66326449 -2.4765625 75.22265625 C6.4334375 75.22265625 15.3434375 75.22265625 24.5234375 75.22265625 C23.12707373 87.78993015 19.07118618 97.85192958 10.5234375 107.22265625 C9.94464844 107.85816406 9.36585937 108.49367188 8.76953125 109.1484375 C1.97103216 116.25112 -5.34551709 120.60779508 -14.4765625 124.22265625 C-15.94996094 124.81820312 -15.94996094 124.81820312 -17.453125 125.42578125 C-34.87689027 131.44567095 -53.85950511 129.68132492 -70.4765625 122.22265625 C-72.06017578 121.52076172 -72.06017578 121.52076172 -73.67578125 120.8046875 C-88.83629268 113.25614834 -101.95663881 98.739368 -107.6953125 82.84765625 C-113.88028628 63.40916724 -112.9174136 44.35074848 -104.2890625 25.91015625 C-95.83910519 10.17144083 -82.98647924 -1.01271717 -66.4765625 -7.77734375 C-65.48011719 -8.18984375 -64.48367188 -8.60234375 -63.45703125 -9.02734375 C-42.62777328 -16.28106357 -17.84039389 -12.80343726 0 0 Z " fill="#1456B1" transform="translate(1244.4765625,104.77734375)"/>
<path d="M0 0 C11.85508315 9.0517444 19.26027382 20.59845831 23 35 C23 36.65 23 38.3 23 40 C14.09 40 5.18 40 -4 40 C-5.32 36.7 -6.64 33.4 -8 30 C-12.67687512 21.6138791 -20.17085373 16.00321624 -29.34375 13.3125 C-43.00532162 10.19973685 -55.95257492 11.83440109 -68 19 C-77.33692129 25.40769108 -82.51179646 35.15467803 -85 46 C-87.32448893 59.98111724 -85.375086 74.27924223 -77.50390625 86.28125 C-69.92399059 95.733423 -59.82321771 100.3936632 -48 102 C-36.80232311 103.09058307 -25.16370739 100.74477114 -16 94 C-9.39778399 88.26474165 -7.50582879 82.41398909 -4 74 C4.91 74 13.82 74 23 74 C21.55092746 87.04165283 17.26655672 95.90711098 9 106 C8.47921875 106.64710938 7.9584375 107.29421875 7.421875 107.9609375 C-0.26421492 116.53985604 -12.18903225 121.71606694 -23 125 C-24.53527344 125.53173828 -24.53527344 125.53173828 -26.1015625 126.07421875 C-40.23148589 130.03662871 -56.72331076 127.65378115 -70 122 C-71.62808594 121.31357422 -71.62808594 121.31357422 -73.2890625 120.61328125 C-89.94610961 112.91730379 -102.48506424 98.79572075 -109.28515625 81.78515625 C-114.38532001 66.99650935 -115.23241838 49.8922677 -110 35 C-109.69835937 34.12085938 -109.39671875 33.24171875 -109.0859375 32.3359375 C-102.7904871 15.39452219 -89.86528931 1.00027966 -73.5625 -6.875 C-71.72051232 -7.61442648 -69.86558419 -8.3223085 -68 -9 C-67.02546875 -9.39058594 -66.0509375 -9.78117187 -65.046875 -10.18359375 C-43.07189702 -17.85360418 -18.51807278 -13.62930157 0 0 Z " fill="#1155B0" transform="translate(513,106)"/>
<path d="M0 0 C30.36 0 60.72 0 92 0 C93.18807993 2.37615986 93.12914522 3.8511742 93.1328125 6.5 C93.13410156 7.386875 93.13539062 8.27375 93.13671875 9.1875 C93.13285156 10.115625 93.12898438 11.04375 93.125 12 C93.12886719 12.928125 93.13273437 13.85625 93.13671875 14.8125 C93.13542969 15.699375 93.13414063 16.58625 93.1328125 17.5 C93.13168457 18.3146875 93.13055664 19.129375 93.12939453 19.96875 C93 22 93 22 92 24 C70.22 24 48.44 24 26 24 C26 34.56 26 45.12 26 56 C30.03089844 55.98839844 34.06179688 55.97679687 38.21484375 55.96484375 C41.42077859 55.95841672 44.62671163 55.95299253 47.83264923 55.94824982 C51.22137231 55.94296031 54.61007056 55.9358872 57.9987793 55.92456055 C61.88329777 55.91165733 65.76780597 55.90677076 69.65234375 55.90234375 C70.87211411 55.89718246 72.09188446 55.89202118 73.34861755 55.88670349 C75.03024742 55.88659019 75.03024742 55.88659019 76.74584961 55.88647461 C78.23476967 55.88314369 78.23476967 55.88314369 79.75376892 55.87974548 C82 56 82 56 83 57 C83 63.93 83 70.86 83 78 C64.19 78 45.38 78 26 78 C26 89.22 26 100.44 26 112 C48.11 112 70.22 112 93 112 C93 119.59 93 127.18 93 135 C91.15765074 136.84234926 88.56354418 136.12649828 86.11170959 136.13552856 C84.84308327 136.13249222 84.84308327 136.13249222 83.54882812 136.12939453 C82.66271347 136.13114685 81.77659882 136.13289917 80.8636322 136.13470459 C77.91948518 136.1391244 74.97539769 136.13618467 72.03125 136.1328125 C69.99483224 136.1334855 67.95841456 136.1344555 65.92199707 136.13571167 C61.64802284 136.13718882 57.37406947 136.13503355 53.10009766 136.13037109 C47.60841461 136.1246738 42.11678043 136.12795271 36.62509918 136.13394356 C32.41822946 136.13754872 28.21137141 136.13641079 24.00450134 136.13381577 C21.97899876 136.13314637 19.95349514 136.13397535 17.92799377 136.13629532 C15.1023577 136.1388211 12.27680193 136.1349823 9.45117188 136.12939453 C8.18254555 136.13243088 8.18254555 136.13243088 6.88829041 136.13552856 C1.11426241 136.11426241 1.11426241 136.11426241 0 135 C-0.09629597 133.25373476 -0.12187539 131.50354095 -0.12025452 129.75462341 C-0.12162918 128.61733795 -0.12300385 127.48005249 -0.12442017 126.30830383 C-0.12082489 125.04954941 -0.11722961 123.79079498 -0.11352539 122.49389648 C-0.11367142 121.17701843 -0.11381744 119.86014038 -0.1139679 118.50335693 C-0.11425587 114.88161732 -0.10835924 111.25991054 -0.10139394 107.63817859 C-0.0951603 103.85718116 -0.09455659 100.07618305 -0.09336853 96.29518127 C-0.09025524 89.1305571 -0.08204189 81.9659481 -0.07201904 74.80133063 C-0.05877255 65.12314369 -0.05335797 55.44495263 -0.04751682 45.76675892 C-0.038102 30.51116123 -0.01818307 15.25559559 0 0 Z " fill="#004AAD" transform="translate(1023,95)"/>
<path d="M0 0 C8.25 0 16.5 0 25 0 C26.58154627 3.16309254 26.14417314 6.56542391 26.1418457 10.03881836 C26.14705734 11.28559357 26.14705734 11.28559357 26.15237427 12.55755615 C26.15973833 14.36745977 26.16508024 16.17737247 26.16866493 17.98728752 C26.17583045 20.85956496 26.19150107 23.73167156 26.21000671 26.60389709 C26.26244791 34.77244616 26.31037877 42.94090566 26.32592773 51.10961914 C26.33605948 56.10474115 26.36552289 61.09943899 26.40724754 66.09439278 C26.41949716 67.99158061 26.42468993 69.88882856 26.42244911 71.78605461 C25.81892755 87.828038 25.81892755 87.828038 32.63447571 101.65220642 C33.08509872 102.0969783 33.53572174 102.54175018 34 103 C34 103.66 34 104.32 34 105 C34.8353125 105.4021875 34.8353125 105.4021875 35.6875 105.8125 C38 107 38 107 40.1875 108.5 C48.53540896 112.95221811 58.68973671 113.07756582 67.734375 110.81640625 C74.78956926 108.27410349 80.62590323 103.71471638 84 97 C87.75123011 86.7365236 87.45779168 76.24431464 87.4765625 65.48828125 C87.49089654 63.62451566 87.50665782 61.76076056 87.52377319 59.89701843 C87.56533346 55.02973492 87.59053254 50.16251657 87.61126709 45.29510498 C87.64731063 37.46692838 87.70793715 29.63891151 87.76975632 21.81090355 C87.7888711 19.07814455 87.80057555 16.34542885 87.81118774 13.61262512 C87.82139076 11.95309347 87.8317479 10.29356276 87.84228516 8.6340332 C87.84332748 7.87101898 87.84436981 7.10800476 87.84544373 6.3218689 C87.886559 1.113441 87.886559 1.113441 89 0 C90.84159023 -0.09959621 92.68696967 -0.13080411 94.53125 -0.1328125 C95.65144531 -0.13410156 96.77164063 -0.13539062 97.92578125 -0.13671875 C99.10527344 -0.13285156 100.28476562 -0.12898438 101.5 -0.125 C103.26923828 -0.13080078 103.26923828 -0.13080078 105.07421875 -0.13671875 C106.75451172 -0.13478516 106.75451172 -0.13478516 108.46875 -0.1328125 C109.50451172 -0.13168457 110.54027344 -0.13055664 111.60742188 -0.12939453 C114 0 114 0 115 1 C115.11645975 3.62358651 115.16800875 6.2211963 115.17700195 8.84594727 C115.18357315 9.66895325 115.19014435 10.49195923 115.19691467 11.33990479 C115.21672487 14.08207283 115.22833725 16.82418548 115.23828125 19.56640625 C115.24235678 20.5053517 115.2464323 21.44429714 115.25063133 22.41169548 C115.27154081 27.39677589 115.28581225 32.38182851 115.29516602 37.36694336 C115.30614401 42.48067467 115.34042836 47.59396034 115.38033772 52.70753574 C115.40671178 56.66538709 115.41487689 60.62313658 115.41844749 64.58106804 C115.42327272 66.46302177 115.43476822 68.34497223 115.45348549 70.22683907 C115.62056379 88.16372728 113.95843396 105.85267273 100.94555664 119.47729492 C89.6695524 130.86756368 75.72705149 137.23144696 59.61572266 137.51879883 C58.67003418 137.51259521 57.7243457 137.5063916 56.75 137.5 C55.75145996 137.49572998 54.75291992 137.49145996 53.72412109 137.48706055 C44.99849048 137.28801545 37.94102702 135.62961083 30 132 C29.1440625 131.61585938 28.288125 131.23171875 27.40625 130.8359375 C15.52882803 124.85655041 6.24938544 114.26435726 1.84553528 101.72824097 C-1.63888504 90.48525855 -1.27942845 78.93825163 -1.23046875 67.3046875 C-1.22927441 65.42090893 -1.22882432 63.53712976 -1.2290802 61.65335083 C-1.22752588 57.73175253 -1.21931132 53.81024689 -1.20581055 49.88867188 C-1.18870442 44.85588575 -1.18500012 39.82319992 -1.18575573 34.79038811 C-1.18548449 30.91290323 -1.18001268 27.03544037 -1.17275429 23.1579628 C-1.1695696 21.3007537 -1.16760068 19.4435421 -1.16686058 17.58633041 C-1.16470155 15.00396157 -1.15597027 12.42170115 -1.14526367 9.83935547 C-1.14571686 9.07058578 -1.14617004 8.3018161 -1.14663696 7.50975037 C-1.11449014 2.22898028 -1.11449014 2.22898028 0 0 Z " fill="#1154B0" transform="translate(561,96)"/>
<path d="M0 0 C1.83203354 1.13574665 3.64179174 2.30764971 5.4375 3.5 C7.36015289 4.6452096 9.29739798 5.76335469 11.23486328 6.88330078 C13.43115344 8.15758001 15.61494069 9.45130889 17.796875 10.75 C22.55341228 13.57558555 27.33552378 16.35569288 32.125 19.125 C32.92647461 19.58841797 33.72794922 20.05183594 34.55371094 20.52929688 C44.00597735 25.98922955 53.48096466 31.4072255 63 36.75 C77.84850827 45.08613237 92.60802956 53.57794709 107.3359375 62.125 C111.02738867 64.26607632 114.72992535 66.38697592 118.4375 68.5 C114.98782105 72.44249023 111.05095002 74.57026385 106.5 77 C104.87305809 77.88684806 103.24678252 78.77491938 101.62109375 79.6640625 C100.77144043 80.1271582 99.92178711 80.59025391 99.04638672 81.06738281 C85.9164414 88.27742578 73.02443699 95.89744855 60.19921875 103.6328125 C48.7254654 110.55172842 37.14864289 117.28546563 25.47851562 123.86767578 C20.87284236 126.47930571 16.33887698 129.16421797 11.8671875 132 C10.96653564 132.56477051 10.06588379 133.12954102 9.13793945 133.71142578 C7.41709756 134.79664713 5.70661863 135.89853064 4.00854492 137.01904297 C-1.7077975 140.60490535 -1.7077975 140.60490535 -5.5859375 140.12890625 C-7.05933594 139.32259766 -7.05933594 139.32259766 -8.5625 138.5 C-9.20098877 138.15710938 -9.83947754 137.81421875 -10.49731445 137.4609375 C-12.77783288 136.20760225 -15.01343333 134.89260558 -17.25 133.5625 C-18.95435457 132.56237642 -20.6587837 131.56237989 -22.36328125 130.5625 C-23.66193115 129.79679687 -23.66193115 129.79679687 -24.98681641 129.015625 C-28.95900706 126.67824494 -32.94780285 124.36983011 -36.9375 122.0625 C-37.71287109 121.61350342 -38.48824219 121.16450684 -39.28710938 120.7019043 C-50.6530477 114.12499802 -62.03894019 107.5797113 -73.50146484 101.17236328 C-88.55394017 92.75757058 -103.48762163 84.0968092 -118.18579102 75.07617188 C-120.64177054 73.58138617 -122.81995832 72.41418056 -125.5625 71.5 C-125.5625 94.6 -125.5625 117.7 -125.5625 141.5 C-125.8925 141.5 -126.2225 141.5 -126.5625 141.5 C-126.5625 117.41 -126.5625 93.32 -126.5625 68.5 C-122.2725 66.19 -117.9825 63.88 -113.5625 61.5 C-109.37317922 58.8470615 -109.37317922 58.8470615 -105.203125 56.1640625 C-101.85913638 54.05675606 -98.41298938 52.20093482 -94.9296875 50.3359375 C-90.52105394 47.93215818 -86.16826974 45.4354913 -81.8125 42.9375 C-74.0977477 38.51585873 -66.36881834 34.12054484 -58.625 29.75 C-47.83560094 23.65780216 -37.06478491 17.53552552 -26.33862305 11.33251953 C-24.67099124 10.37033128 -23.000622 9.41287001 -21.32739258 8.46044922 C-17.03348218 6.00291994 -13.01594048 3.3965366 -9 0.5 C-5.40748912 -1.61613655 -3.79031059 -1.76881161 0 0 Z M-67.5625 45.5 C-68.60470703 46.42425781 -68.60470703 46.42425781 -69.66796875 47.3671875 C-76.46571199 53.73155913 -80.48269733 60.59449696 -81 70 C-80.89581246 78.82989361 -75.75872976 87.28054254 -69.7734375 93.56640625 C-60.07048534 102.05220364 -48.92671408 107.15469332 -36.5625 110.5 C-35.0762915 110.90279175 -35.0762915 110.90279175 -33.56005859 111.3137207 C-24.50215977 113.51899132 -15.86506769 113.99646071 -6.57714844 113.94604492 C-4.19638455 113.93753177 -1.81802932 113.96642741 0.5625 113.99804688 C11.12569729 114.04503412 20.30486255 112.50661279 30.4375 109.5 C32.22881428 109.01951764 34.02039273 108.54001615 35.8125 108.0625 C44.000774 105.49766375 50.86088271 101.5411963 57.4765625 96.109375 C59.4375 94.5 59.4375 94.5 62.125 92.6875 C67.21855648 87.8692709 71.84055488 80.18253052 72.73828125 73.140625 C72.78986491 62.61755888 70.15501128 56.39772735 62.8046875 48.77734375 C42.57401231 29.31449946 14.44645874 25.81836583 -12.40625 26.1640625 C-31.58561261 26.78723728 -53.04902361 32.22100321 -67.5625 45.5 Z " fill="#B7F2EE" transform="translate(171.5625,1.5)"/>
<path d="M0 0 C13.67302856 -0.02254844 27.34604488 -0.04091359 41.01908779 -0.05181217 C47.36730576 -0.05704164 53.7155104 -0.06414044 60.0637207 -0.07543945 C66.18448582 -0.08626606 72.30523809 -0.09227635 78.42601204 -0.09487724 C80.76690943 -0.0967319 83.10780609 -0.10035329 85.44869804 -0.10573006 C88.71508202 -0.11293748 91.98141215 -0.11399107 95.24780273 -0.11352539 C96.226035 -0.11712067 97.20426727 -0.12071594 98.21214294 -0.12442017 C99.09700378 -0.1230455 99.98186462 -0.12167084 100.89353943 -0.12025452 C101.66692374 -0.12117631 102.44030806 -0.1220981 103.23712826 -0.12304783 C105 0 105 0 106 1 C106.09883336 2.46478506 106.13079289 3.93422958 106.1328125 5.40234375 C106.13410156 6.29244141 106.13539063 7.18253906 106.13671875 8.09960938 C106.13285156 9.03611328 106.12898437 9.97261719 106.125 10.9375 C106.12886719 11.87013672 106.13273438 12.80277344 106.13671875 13.76367188 C106.13542969 14.65505859 106.13414062 15.54644531 106.1328125 16.46484375 C106.13168457 17.285896 106.13055664 18.10694824 106.12939453 18.95288086 C106 21 106 21 105 23 C92.13 23 79.26 23 66 23 C66.00523682 26.32698975 66.01047363 29.65397949 66.01586914 33.08178711 C66.03240248 44.04613649 66.04347019 55.01048641 66.05181217 65.97484493 C66.05704174 72.6257353 66.06414072 79.27660786 66.07543945 85.92749023 C66.08626571 92.34002877 66.09227628 98.75255504 66.09487724 105.16510201 C66.09673197 107.61764278 66.10035347 110.07018285 66.10573006 112.52271843 C66.11293702 115.94476677 66.11399109 119.36676371 66.11352539 122.78881836 C66.11712067 123.81380432 66.12071594 124.83879028 66.12442017 125.89483643 C66.1230455 126.82176804 66.12167084 127.74869965 66.12025452 128.70372009 C66.12117631 129.51397613 66.1220981 130.32423216 66.12304783 131.1590414 C66 133 66 133 65 134 C63.15840977 134.09959621 61.31303033 134.13080411 59.46875 134.1328125 C58.34855469 134.13410156 57.22835937 134.13539063 56.07421875 134.13671875 C54.89472656 134.13285156 53.71523438 134.12898437 52.5 134.125 C50.73076172 134.13080078 50.73076172 134.13080078 48.92578125 134.13671875 C47.24548828 134.13478516 47.24548828 134.13478516 45.53125 134.1328125 C44.49548828 134.13168457 43.45972656 134.13055664 42.39257812 134.12939453 C40 134 40 134 39 133 C38.90449302 131.58321089 38.87811517 130.16168759 38.87974548 128.74168396 C38.87837082 127.8231665 38.87699615 126.90464905 38.87557983 125.95829773 C38.88097275 124.43484489 38.88097275 124.43484489 38.88647461 122.88061523 C38.88632858 121.81733002 38.88618256 120.7540448 38.8860321 119.65853882 C38.88673175 116.12520342 38.89452657 112.59192 38.90234375 109.05859375 C38.90420775 106.61621632 38.90563173 104.17383851 38.90663147 101.73146057 C38.91045811 95.28865536 38.92028963 88.84587252 38.93133545 82.40307617 C38.94154644 75.83447574 38.94612842 69.2658717 38.95117188 62.69726562 C38.96191177 49.79816565 38.97950975 36.89908818 39 24 C19.695 23.505 19.695 23.505 0 23 C0 15.41 0 7.82 0 0 Z " fill="#1A5AB2" transform="translate(893,96)"/>
<path d="M0 0 C1.38759487 0.662025 2.75281148 1.37214443 4.09765625 2.1171875 C4.88986572 2.55393799 5.6820752 2.99068848 6.49829102 3.44067383 C7.34447998 3.91400146 8.19066895 4.3873291 9.0625 4.875 C10.38302368 5.60722778 10.38302368 5.60722778 11.73022461 6.35424805 C18.63013758 10.19573476 25.47792981 14.12573797 32.29125977 18.11865234 C33.74588573 18.9694498 35.20925869 19.80546502 36.6809082 20.62646484 C39 22 39 22 41.57495117 23.87744141 C44.4085907 25.7902561 46.69188603 27.1156195 50 28 C54.66456465 26.87388255 58.23965497 24.41188924 62.1875 21.75 C63.88604858 20.68998966 65.58462802 19.63002393 67.28526306 18.57336426 C69.03704204 17.47585158 70.77495321 16.35893136 72.51074219 15.23632812 C78.02577658 11.68144959 83.6667416 8.34247689 89.3125 5 C90.31369873 4.38350586 91.31489746 3.76701172 92.34643555 3.13183594 C93.28011963 2.57270508 94.21380371 2.01357422 95.17578125 1.4375 C95.98958252 0.94121094 96.80338379 0.44492188 97.6418457 -0.06640625 C100.63244534 -1.25038523 101.96536541 -1.00959621 105 0 C107.61547852 1.35107422 107.61547852 1.35107422 110.37890625 3.0546875 C111.38244141 3.66957031 112.38597656 4.28445312 113.41992188 4.91796875 C114.45697266 5.56378906 115.49402344 6.20960938 116.5625 6.875 C118.12387695 7.83212891 118.12387695 7.83212891 119.71679688 8.80859375 C123.93113478 11.40495112 128.08046753 13.97035992 132 17 C131.67 17.66 131.34 18.32 131 19 C129.92363281 18.9071875 128.84726563 18.814375 127.73828125 18.71875 C117.35988001 18.09518584 111.29959835 19.50978143 102.71484375 25.79394531 C99.60110885 27.98384429 96.29287745 29.84520291 93 31.75 C92.29721924 32.16209717 91.59443848 32.57419434 90.87036133 32.9987793 C84.10674685 36.9633454 77.30233864 40.85752689 70.48022461 44.72045898 C66.68462648 46.87260225 62.90540114 49.02915526 59.2109375 51.3515625 C58.17195313 51.99867188 57.13296875 52.64578125 56.0625 53.3125 C54.78052734 54.14201172 54.78052734 54.14201172 53.47265625 54.98828125 C50.02558599 56.39869389 48.57793873 56.12787443 45 55 C41.56333318 53.16260818 38.29714042 51.07447293 35 49 C33.12829519 47.89322992 31.25186511 46.7944169 29.37109375 45.703125 C27.92500732 44.86104492 27.92500732 44.86104492 26.44970703 44.00195312 C25.45567871 43.42380859 24.46165039 42.84566406 23.4375 42.25 C9.58157929 34.17858988 9.58157929 34.17858988 3.76196289 30.75439453 C2.35373437 29.92776616 0.94281278 29.10570612 -0.47094727 28.28857422 C-3.30780515 26.64096224 -6.01101747 24.99195498 -8.6640625 23.0546875 C-16.25975469 17.59290214 -24.02667557 18.43786599 -33 19 C-31.55909898 15.3626985 -29.94984066 14.06815153 -26.5625 12.1875 C-22.71667245 9.99465477 -18.96492983 7.72136011 -15.25 5.3125 C-4.5349977 -1.50339004 -4.5349977 -1.50339004 0 0 Z " fill="#3C6AB2" transform="translate(118,184)"/>
<path d="M0 0 C0.66 0 1.32 0 2 0 C2.22324847 5.01679391 2.38612008 10.03067531 2.49438477 15.05126953 C2.53952418 16.75686004 2.60085724 18.46210452 2.67895508 20.16650391 C3.31119175 34.32364673 3.31119175 34.32364673 0.13012695 38.390625 C-2.19879159 39.95787403 -4.37834899 41.01377977 -7 42 C-7.91652344 42.53109375 -8.83304688 43.0621875 -9.77734375 43.609375 C-10.49019531 43.98578125 -11.20304688 44.3621875 -11.9375 44.75 C-14.39874803 46.05224763 -16.01510742 47.01510742 -18 49 C-20.09064907 50.24214296 -22.18780181 51.44407306 -24.3125 52.625 C-32.36353489 57.15863327 -40.30975715 61.87317143 -48 67 C-48.99 67 -49.98 67 -51 67 C-51 67.66 -51 68.32 -51 69 C-51.64324219 69.3403125 -52.28648437 69.680625 -52.94921875 70.03125 C-59.3605313 73.47012806 -65.56961467 77.15311326 -71.74609375 80.99609375 C-74.80495344 82.87988129 -77.89044032 84.70145362 -81 86.5 C-85.06466593 88.85151516 -89.07971347 91.26719719 -93.0703125 93.7421875 C-99.62115392 97.78990493 -106.2396828 101.71730616 -112.875 105.625 C-122.89738444 111.5351297 -132.86269328 117.52962995 -142.75341797 123.65869141 C-144.07817139 124.47345947 -144.07817139 124.47345947 -145.4296875 125.3046875 C-146.57800049 126.0160083 -146.57800049 126.0160083 -147.74951172 126.74169922 C-150.10419239 128.05825641 -152.47675238 129.05246071 -155 130 C-152.49710313 126.12050985 -152.49710313 126.12050985 -149.9375 125.5 C-149.298125 125.335 -148.65875 125.17 -148 125 C-147.29605388 123.68596724 -146.63654342 122.3479743 -146 121 C-143.8002265 118.60612883 -141.79807843 116.43819023 -138.9296875 114.86328125 C-136.10179154 113.0945793 -134.71674732 111.90812859 -133 109 C-132.6186916 105.51970803 -132.73783453 102.05888319 -132.8125 98.5625 C-132.95255394 89.34900796 -132.95255394 89.34900796 -130.77636719 86.26708984 C-126.25654761 82.28158456 -120.77398404 80.44349601 -115 79 C-114.505 87.415 -114.505 87.415 -114 96 C-113.05125 94.865625 -112.1025 93.73125 -111.125 92.5625 C-108.25 89.125 -108.25 89.125 -106 88 C-106.08038203 86.24217195 -106.16614281 84.48439569 -106.28149414 82.72851562 C-106.66552465 73.83264449 -106.66552465 73.83264449 -103.42333984 70.26513672 C-99.12095974 66.88644347 -92.66312568 62 -87 62 C-87 65.3 -87 68.6 -87 72 C-83.65760988 69.96080441 -80.66188706 67.88755764 -78 65 C-77.48276494 62.51508342 -77.48276494 62.51508342 -77.625 59.9375 C-77.6171875 57.3671875 -77.6171875 57.3671875 -77 55 C-73.6420954 52.27952813 -69.93500646 50.72559709 -66 49 C-65.09765625 48.45214844 -64.1953125 47.90429688 -63.265625 47.33984375 C-61 46 -61 46 -59 46 C-58.505 48.475 -58.505 48.475 -58 51 C-57.59007812 50.50628906 -57.18015625 50.01257813 -56.7578125 49.50390625 C-56.21898437 48.86324219 -55.68015625 48.22257812 -55.125 47.5625 C-54.59132813 46.92441406 -54.05765625 46.28632813 -53.5078125 45.62890625 C-52 44 -52 44 -50 43 C-49.76023437 42.23042969 -49.52046875 41.46085937 -49.2734375 40.66796875 C-47.49739402 36.94699422 -45.26702712 36.16567274 -41.625 34.3125 C-35.11102803 30.88298087 -29.92486138 26.78826261 -24.5234375 21.80859375 C-22 20 -22 20 -19.6640625 20.22265625 C-19.11492187 20.47917969 -18.56578125 20.73570312 -18 21 C-17.6596875 20.1646875 -17.6596875 20.1646875 -17.3125 19.3125 C-14.02869483 13.52674804 -8.34066906 9.87283709 -3.109375 5.96484375 C-0.90978108 3.91596275 -0.33969077 2.93309912 0 0 Z " fill="#5690D1" transform="translate(333,200)"/>
<path d="M0 0 C8.58 0 17.16 0 26 0 C26 44.22 26 88.44 26 134 C17.42 134 8.84 134 0 134 C0 89.78 0 45.56 0 0 Z " fill="#1758B0" transform="translate(843,96)"/>
<path d="M0 0 C1.15628906 -0.01224609 2.31257813 -0.02449219 3.50390625 -0.03710938 C28.41057235 -0.07885239 52.20325968 6.20634246 70.51171875 23.4765625 C76.75228691 30.27554885 79.63276226 37.19603697 79.44921875 46.4296875 C78.20761528 54.05205318 73.89440454 61.27549622 68 66.1875 C67.10474609 67.01314453 67.10474609 67.01314453 66.19140625 67.85546875 C59.29211814 74.16300505 52.64060645 78.14362986 43.875 81.3125 C43.21314697 81.55427979 42.55129395 81.79605957 41.86938477 82.04516602 C29.69370131 86.24769883 17.85951399 87.70314822 5.06958008 87.63354492 C2.69979477 87.6250441 0.33243955 87.65390711 -2.03710938 87.68554688 C-23.60975566 87.78350337 -47.9766566 82.08079574 -63.73828125 66.4765625 C-70.09722157 59.04565679 -74.86166326 51.77492908 -74.37890625 41.73046875 C-72.62776529 29.97796603 -64.99766017 22.24725599 -56 15.1875 C-44.34159109 7.21489496 -31.70542876 3.83356786 -18 1.1875 C-16.80745605 0.91812622 -16.80745605 0.91812622 -15.59082031 0.64331055 C-10.45053499 -0.26103479 -5.20498366 0.00282572 0 0 Z M-29 10.1875 C-29.66161133 10.40712402 -30.32322266 10.62674805 -31.00488281 10.85302734 C-39.34788499 13.682759 -46.46018489 17.15074759 -53 23.1875 C-53.65742187 23.7546875 -54.31484375 24.321875 -54.9921875 24.90625 C-61.16613219 30.54221611 -63.089645 35.83372452 -63.5 44.125 C-63.337352 50.26689839 -61.54055103 54.25637044 -58 59.1875 C-56.948125 60.734375 -56.948125 60.734375 -55.875 62.3125 C-52.05757351 66.61903426 -46.94741133 69.36985665 -42 72.1875 C-41.20078125 72.65414062 -40.4015625 73.12078125 -39.578125 73.6015625 C-17.77514748 84.91966866 11.99757806 83.80744584 35 77.1875 C47.73929315 73.08261665 58.668089 66.61719584 66 55.1875 C69.06991598 48.97721096 69.09886882 41.54610049 67.41796875 34.87890625 C61.96847442 22.51178898 49.50276762 16.3380865 37.6875 11.5 C26.14396332 7.31435619 14.93830127 5.64627732 2.6875 5.75 C1.42147949 5.75757324 0.15545898 5.76514648 -1.14892578 5.77294922 C-10.96831409 5.94508693 -19.71215994 7.0428749 -29 10.1875 Z " fill="#3699D4" transform="translate(165,27.8125)"/>
<path d="M0 0 C15.06227538 -2.79095103 24.8827462 4.29601674 37.18066406 12.20068359 C40.9976955 14.636735 44.89552714 16.91723921 48.8125 19.1875 C50.14494977 19.97194579 51.47698042 20.75710392 52.80859375 21.54296875 C58.46860599 24.86957503 64.15677062 28.14788913 69.84692383 31.42260742 C70.60642334 31.86064697 71.36592285 32.29868652 72.1484375 32.75 C73.15656494 33.33007812 73.15656494 33.33007812 74.18505859 33.921875 C75.8228144 34.89474689 77.41500997 35.94333998 79 37 C85.04314919 36.91746837 89.77031127 33.55348891 94.8125 30.5625 C95.74030273 30.02189941 96.66810547 29.48129883 97.62402344 28.92431641 C100.4212969 27.29169451 103.21109415 25.64686432 106 24 C107.51913143 23.10999429 109.03863239 22.22061885 110.55859375 21.33203125 C114.00839491 19.312181 117.45056306 17.27969674 120.89111328 15.24414062 C123.13111796 13.92264678 125.37558128 12.60898636 127.62109375 11.296875 C128.38518555 10.84973145 129.14927734 10.40258789 129.93652344 9.94189453 C131.38822968 9.09259914 132.84065138 8.24452494 134.29394531 7.39794922 C134.95362305 7.0113916 135.61330078 6.62483398 136.29296875 6.2265625 C136.92879883 5.85660156 137.56462891 5.48664063 138.21972656 5.10546875 C140.24942994 3.88763303 140.24942994 3.88763303 142.93359375 1.7265625 C147.04570682 -0.58879289 150.25211865 -0.4537202 154.875 -0.25 C156.050625 -0.22292969 156.050625 -0.22292969 157.25 -0.1953125 C159.16720189 -0.14855148 161.08376715 -0.07682003 163 0 C159.9064699 3.40965727 156.71092106 5.47392232 152.6875 7.6875 C151.42760713 8.39053414 150.1685185 9.09501111 148.91015625 9.80078125 C148.26320801 10.16252441 147.61625977 10.52426758 146.94970703 10.89697266 C143.81115562 12.67257687 140.71558624 14.51746461 137.625 16.375 C137.00077148 16.75003662 136.37654297 17.12507324 135.73339844 17.51147461 C131.26883869 20.20676701 126.84959314 22.96992969 122.4375 25.75 C115.91506313 29.85373043 109.31885123 33.8248767 102.6875 37.75 C101.79281006 38.28077148 100.89812012 38.81154297 99.97631836 39.35839844 C98.21812767 40.39489417 96.45315231 41.41997212 94.68139648 42.43310547 C92.81342469 43.52466907 90.97571069 44.66898482 89.16430664 45.85205078 C82.27014269 50.1427287 82.27014269 50.1427287 78.82739258 49.75585938 C76.68995677 48.83013801 74.9535595 47.73342857 73.0625 46.375 C72.38356689 45.94147217 71.70463379 45.50794434 71.00512695 45.0612793 C68.97133832 43.74952032 66.98572167 42.38311241 65 41 C63.90945312 40.27683594 62.81890625 39.55367187 61.6953125 38.80859375 C59.71145337 37.49203269 57.73592008 36.16282696 55.76953125 34.8203125 C52.33534831 32.56314853 48.77170305 30.66343252 45.14453125 28.73828125 C40.42945966 26.1318131 35.86231409 23.29431664 31.27832031 20.46533203 C27.0521643 17.85940784 22.81099116 15.28549686 18.53515625 12.76171875 C17.18151978 11.96048584 17.18151978 11.96048584 15.80053711 11.14306641 C14.05285685 10.11062896 12.30247286 9.08275097 10.54907227 8.06005859 C6.57164067 5.70422309 3.06152569 3.53832068 0 0 Z " fill="#0B3373" transform="translate(86,202)"/>
<path d="M0 0 C0.7734375 -0.00515625 1.546875 -0.0103125 2.34375 -0.015625 C4.5 0.25 4.5 0.25 7.5 2.25 C7.6134375 3.075 7.726875 3.9 7.84375 4.75 C8.0603125 5.575 8.276875 6.4 8.5 7.25 C10.99908208 8.54601395 10.99908208 8.54601395 14 9.25 C17.03125 10.0625 17.03125 10.0625 19.5 11.25 C20.40625 13.76171875 20.40625 13.76171875 20.5 16.25 C19.5 18.0625 19.5 18.0625 17.5 19.25 C13.53478037 19.69889279 11.18605505 19.60794176 7.625 17.75 C3.47548316 15.75823192 0.02762671 15.64243245 -4.5 16.25 C-7.57499469 17.22337194 -7.57499469 17.22337194 -9.5 19.25 C-10.25 21.75 -10.25 21.75 -9.5 24.25 C-6.07794394 27.76857559 -1.95468943 28.04399824 2.6875 28.6875 C11.80705714 30.15002498 19.58874774 31.73518611 25.45703125 39.4609375 C27.16465963 42.39012775 27.32358162 43.95567353 26.5 47.25 C22.74081173 53.29108151 17.47586747 57.2348849 10.5625 59 C9.881875 59.0825 9.20125 59.165 8.5 59.25 C8.066875 60.7040625 8.066875 60.7040625 7.625 62.1875 C6.5 65.25 6.5 65.25 4.5 66.25 C2.44140625 66.453125 2.44140625 66.453125 0.0625 66.5 C-1.11119141 66.53867188 -1.11119141 66.53867188 -2.30859375 66.578125 C-4.5 66.25 -4.5 66.25 -6.28515625 64.984375 C-7.5 63.25 -7.5 63.25 -7.5 59.25 C-8.36625 59.1675 -9.2325 59.085 -10.125 59 C-14.05668644 58.1262919 -16.38561622 56.78496354 -19.5 54.25 C-20.5625 52.1875 -20.5625 52.1875 -20.5 50.25 C-19.5625 48.5 -19.5625 48.5 -17.5 47.25 C-13.04386562 46.64781968 -10.29965079 46.71689947 -6.5 49.25 C-3.69855546 49.60599164 -3.69855546 49.60599164 -0.625 49.5625 C0.40367187 49.57925781 1.43234375 49.59601563 2.4921875 49.61328125 C5.8553662 49.20707915 7.7479883 48.17437719 10.5 46.25 C10.55167527 43.82732914 10.55167527 43.82732914 9.5 41.25 C5.22074902 38.58735494 1.68300854 38.102188 -3.3125 37.8125 C-10.95121771 37.30580158 -17.6406473 35.61249178 -23.125 30 C-25.49941261 26.82507114 -26.42028311 24.20257967 -26.07421875 20.234375 C-24.68357604 15.42861652 -21.45366742 12.37634907 -17.203125 9.92578125 C-13.79786528 8.33999854 -11.28854881 7.25 -7.5 7.25 C-7.561875 6.46625 -7.62375 5.6825 -7.6875 4.875 C-7.5946875 3.575625 -7.5946875 3.575625 -7.5 2.25 C-4.377998 0.16866533 -3.56733011 -0.0237822 0 0 Z " fill="#3498D3" transform="translate(167.5,37.75)"/>
<path d="M0 0 C30.36 0 60.72 0 92 0 C93.18807993 2.37615986 93.12914522 3.8511742 93.1328125 6.5 C93.13410156 7.386875 93.13539062 8.27375 93.13671875 9.1875 C93.13285156 10.115625 93.12898438 11.04375 93.125 12 C93.12886719 12.928125 93.13273437 13.85625 93.13671875 14.8125 C93.13542969 15.699375 93.13414063 16.58625 93.1328125 17.5 C93.13168457 18.3146875 93.13055664 19.129375 93.12939453 19.96875 C93 22 93 22 92 24 C70.22 24 48.44 24 26 24 C26 34.56 26 45.12 26 56 C30.03089844 55.98839844 34.06179688 55.97679687 38.21484375 55.96484375 C41.42077859 55.95841672 44.62671163 55.95299253 47.83264923 55.94824982 C51.22137231 55.94296031 54.61007056 55.9358872 57.9987793 55.92456055 C61.88329777 55.91165733 65.76780597 55.90677076 69.65234375 55.90234375 C70.87211411 55.89718246 72.09188446 55.89202118 73.34861755 55.88670349 C75.03024742 55.88659019 75.03024742 55.88659019 76.74584961 55.88647461 C78.23476967 55.88314369 78.23476967 55.88314369 79.75376892 55.87974548 C82 56 82 56 83 57 C83 63.93 83 70.86 83 78 C64.19 78 45.38 78 26 78 C26 89.22 26 100.44 26 112 C48.11 112 70.22 112 93 112 C93 119.59 93 127.18 93 135 C91.15765074 136.84234926 88.56354418 136.12649828 86.11170959 136.13552856 C84.84308327 136.13249222 84.84308327 136.13249222 83.54882812 136.12939453 C82.66271347 136.13114685 81.77659882 136.13289917 80.8636322 136.13470459 C77.91948518 136.1391244 74.97539769 136.13618467 72.03125 136.1328125 C69.99483224 136.1334855 67.95841456 136.1344555 65.92199707 136.13571167 C61.64802284 136.13718882 57.37406947 136.13503355 53.10009766 136.13037109 C47.60841461 136.1246738 42.11678043 136.12795271 36.62509918 136.13394356 C32.41822946 136.13754872 28.21137141 136.13641079 24.00450134 136.13381577 C21.97899876 136.13314637 19.95349514 136.13397535 17.92799377 136.13629532 C15.1023577 136.1388211 12.27680193 136.1349823 9.45117188 136.12939453 C8.18254555 136.13243088 8.18254555 136.13243088 6.88829041 136.13552856 C1.11426241 136.11426241 1.11426241 136.11426241 0 135 C-0.09629597 133.25373476 -0.12187539 131.50354095 -0.12025452 129.75462341 C-0.12162918 128.61733795 -0.12300385 127.48005249 -0.12442017 126.30830383 C-0.12082489 125.04954941 -0.11722961 123.79079498 -0.11352539 122.49389648 C-0.11367142 121.17701843 -0.11381744 119.86014038 -0.1139679 118.50335693 C-0.11425587 114.88161732 -0.10835924 111.25991054 -0.10139394 107.63817859 C-0.0951603 103.85718116 -0.09455659 100.07618305 -0.09336853 96.29518127 C-0.09025524 89.1305571 -0.08204189 81.9659481 -0.07201904 74.80133063 C-0.05877255 65.12314369 -0.05335797 55.44495263 -0.04751682 45.76675892 C-0.038102 30.51116123 -0.01818307 15.25559559 0 0 Z M2 2 C2 45.56 2 89.12 2 134 C31.7 134 61.4 134 92 134 C92 127.07 92 120.14 92 113 C69.89 113 47.78 113 25 113 C25 101.12 25 89.24 25 77 C43.81 77 62.62 77 82 77 C82 70.4 82 63.8 82 57 C63.19 57 44.38 57 25 57 C25 45.78 25 34.56 25 23 C46.78 23 68.56 23 91 23 C91 16.07 91 9.14 91 2 C61.63 2 32.26 2 2 2 Z " fill="#BCBCD1" transform="translate(1023,95)"/>
<path d="M0 0 C0.33 0 0.66 0 1 0 C1 43.89 1 87.78 1 133 C8.92 133 16.84 133 25 133 C25 114.52 25 96.04 25 77 C41.68080815 76.95989119 41.68080815 76.95989119 48.76757812 76.95117188 C53.61142059 76.94518404 58.45524422 76.93808535 63.29907227 76.92456055 C67.20235971 76.91372957 71.10562699 76.90772272 75.0089283 76.90512276 C76.50133647 76.90326889 77.99374348 76.899649 79.48614311 76.89426994 C81.56948139 76.88705669 83.65273531 76.88600917 85.73608398 76.88647461 C86.92411118 76.884254 88.11213837 76.88203339 89.33616638 76.87974548 C92 77 92 77 93 78 C93.0935919 79.71865409 93.11744611 81.44115744 93.11352539 83.16235352 C93.11341209 84.81395226 93.11341209 84.81395226 93.11329651 86.49891663 C93.10813522 87.6968132 93.10297394 88.89470978 93.09765625 90.12890625 C93.0962413 91.34827377 93.09482635 92.5676413 93.09336853 93.82395935 C93.08774967 97.7368307 93.07519396 101.64964581 93.0625 105.5625 C93.05748743 108.20768147 93.0529241 110.85286383 93.04882812 113.49804688 C93.03777411 119.99871974 93.02049683 126.49935032 93 133 C100.59 133 108.18 133 116 133 C116 89.44 116 45.88 116 1 C108.41 1 100.82 1 93 1 C93 19.15 93 37.3 93 56 C70.56 56 48.12 56 25 56 C25 37.52 25 19.04 25 0 C25.33 0 25.66 0 26 0 C26 18.15 26 36.3 26 55 C47.45 55 68.9 55 91 55 C91 36.85 91 18.7 91 0 C99.58 0 108.16 0 117 0 C118.27178725 2.54357451 118.12585822 4.31399537 118.12698364 7.16235352 C118.13121338 8.80290207 118.13121338 8.80290207 118.13552856 10.47659302 C118.13249222 12.28448807 118.13249222 12.28448807 118.12939453 14.12890625 C118.13202301 16.02647171 118.13202301 16.02647171 118.13470459 17.96237183 C118.13927285 21.43749316 118.13749185 24.91258489 118.1343255 28.38770676 C118.13179878 32.01962109 118.13414032 35.65153284 118.13571167 39.28344727 C118.13753245 45.38330543 118.13512945 51.48315149 118.13037109 57.58300781 C118.12492865 64.64145025 118.12669137 71.69986381 118.1321975 78.75830555 C118.13673123 84.81183272 118.1373779 90.86535119 118.13475883 96.91887951 C118.13319749 100.53732464 118.13299839 104.15575618 118.13629532 107.77420044 C118.13971252 111.80651569 118.13498003 115.83878093 118.12939453 119.87109375 C118.13141876 121.07635712 118.13344299 122.28162048 118.13552856 123.52340698 C118.13270874 124.61710602 118.12988892 125.71080505 118.12698364 126.83764648 C118.1264181 128.2689817 118.1264181 128.2689817 118.12584114 129.72923279 C118 132 118 132 117 134 C108.42 134 99.84 134 91 134 C91 115.85 91 97.7 91 79 C69.88 79 48.76 79 27 79 C26.67 97.15 26.34 115.3 26 134 C17.42 134 8.84 134 0 134 C0 89.78 0 45.56 0 0 Z " fill="#BDD3DF" transform="translate(1296,96)"/>
<path d="M0 0 C0.33 0 0.66 0 1 0 C1 43.89 1 87.78 1 133 C8.92 133 16.84 133 25 133 C25 114.52 25 96.04 25 77 C41.68080815 76.95989119 41.68080815 76.95989119 48.76757812 76.95117188 C53.61142059 76.94518404 58.45524422 76.93808535 63.29907227 76.92456055 C67.20235971 76.91372957 71.10562699 76.90772272 75.0089283 76.90512276 C76.50133647 76.90326889 77.99374348 76.899649 79.48614311 76.89426994 C81.56948139 76.88705669 83.65273531 76.88600917 85.73608398 76.88647461 C86.92411118 76.884254 88.11213837 76.88203339 89.33616638 76.87974548 C92 77 92 77 93 78 C93.09365006 79.7492872 93.11744438 81.50236254 93.11352539 83.25415039 C93.11341209 84.93578026 93.11341209 84.93578026 93.11329651 86.65138245 C93.10813522 87.8711528 93.10297394 89.09092316 93.09765625 90.34765625 C93.0962413 91.58921982 93.09482635 92.83078339 93.09336853 94.10997009 C93.08870591 97.41605491 93.07971497 100.72207146 93.06866455 104.02813721 C93.05844827 107.3996115 93.05387045 110.77109283 93.04882812 114.14257812 C93.03777395 120.76173775 93.02101736 127.38086493 93 134 C92.34 134 91.68 134 91 134 C91 115.85 91 97.7 91 79 C69.88 79 48.76 79 27 79 C26.67 97.15 26.34 115.3 26 134 C17.42 134 8.84 134 0 134 C0 89.78 0 45.56 0 0 Z " fill="#E2D9D5" transform="translate(1296,96)"/>
<path d="M0 0 C1.12019531 -0.00128906 2.24039063 -0.00257812 3.39453125 -0.00390625 C4.57402344 -0.00003906 5.75351562 0.00382812 6.96875 0.0078125 C8.73798828 0.00201172 8.73798828 0.00201172 10.54296875 -0.00390625 C12.22326172 -0.00197266 12.22326172 -0.00197266 13.9375 0 C14.97326172 0.00112793 16.00902344 0.00225586 17.07617188 0.00341797 C19.46875 0.1328125 19.46875 0.1328125 20.46875 1.1328125 C20.58520975 3.75639901 20.63675875 6.3540088 20.64575195 8.97875977 C20.65232315 9.80176575 20.65889435 10.62477173 20.66566467 11.47271729 C20.68547487 14.21488533 20.69708725 16.95699798 20.70703125 19.69921875 C20.71110678 20.6381642 20.7151823 21.57710964 20.71938133 22.54450798 C20.74029081 27.52958839 20.75456225 32.51464101 20.76391602 37.49975586 C20.77489401 42.61348717 20.80917836 47.72677284 20.84908772 52.84034824 C20.87546178 56.79819959 20.88362689 60.75594908 20.88719749 64.71388054 C20.89202272 66.59583427 20.90351822 68.47778473 20.92223549 70.35965157 C21.03290238 82.24042588 19.99136807 92.75747419 16.46875 104.1328125 C15.40639024 100.87677334 15.58103648 98.76987405 16.38632202 95.46438599 C17.46174467 90.52131863 17.77390883 85.87345341 17.78759766 80.82763672 C17.79764328 79.95810867 17.8076889 79.08858063 17.81803894 78.19270325 C17.84859285 75.3576414 17.8658278 72.52267272 17.8828125 69.6875 C17.90154658 67.70638238 17.92112162 65.72527255 17.9414978 63.74417114 C17.99258851 58.55921037 18.03233697 53.37422379 18.06964111 48.18914795 C18.10982616 42.8864516 18.160852 37.58386045 18.2109375 32.28125 C18.30742343 21.89850445 18.39091146 11.51571461 18.46875 1.1328125 C10.87875 1.1328125 3.28875 1.1328125 -4.53125 1.1328125 C-4.51030273 3.63963623 -4.48935547 6.14645996 -4.46777344 8.72924805 C-4.4011955 17.05513758 -4.35719234 25.38103953 -4.32400131 33.70712566 C-4.30321581 38.75028876 -4.27506522 43.79317679 -4.22949219 48.83618164 C-4.18570965 53.71212746 -4.16204511 58.58781038 -4.15174103 63.46393776 C-4.14440738 65.31488998 -4.13008816 67.16582946 -4.10832977 69.01666832 C-3.98639015 79.82915801 -4.44892346 88.96366505 -8.53125 99.1328125 C-9.19125 99.1328125 -9.85125 99.1328125 -10.53125 99.1328125 C-10.21469955 97.95982353 -10.21469955 97.95982353 -9.89175415 96.76313782 C-7.31858564 86.23579602 -7.07361822 76.20897389 -7.0546875 65.42578125 C-7.04034668 63.56487417 -7.02458424 61.70397757 -7.00747681 59.84309387 C-6.96599258 54.99227962 -6.94074215 50.14153045 -6.91998291 45.29058838 C-6.88388138 37.48222922 -6.82330671 29.67402947 -6.76149368 21.865839 C-6.7423885 19.14193901 -6.73067895 16.41808236 -6.72006226 13.69413757 C-6.70986008 12.0411265 -6.69950301 10.38811638 -6.68896484 8.73510742 C-6.68792252 7.97523529 -6.68688019 7.21536316 -6.68580627 6.4324646 C-6.63570806 0.11264242 -6.20617844 0.00675844 0 0 Z " fill="#87BADE" transform="translate(655.53125,95.8671875)"/>
<path d="M0 0 C3.62599816 1.79921201 7.18812495 3.70158747 10.75 5.625 C13.84375 7.295625 13.84375 7.295625 17 9 C17 15.6 17 22.2 17 29 C10.80875348 27.45218837 3.85146189 25.45662578 0 20 C-1.65837679 13.51946964 -0.79300421 6.56926562 0 0 Z " fill="#BEDDF8" transform="translate(89,262)"/>
<path d="M0 0 C0.92169718 6.55586658 1.89176344 13.55852573 0 20 C-3.72182942 24.73148134 -9.48118687 26.99090398 -15 29 C-15.66 29 -16.32 29 -17 29 C-17.92169718 22.44413342 -18.89176344 15.44147427 -17 9 C-13.41613799 4.44391365 -5.86198995 0 0 0 Z " fill="#BFDEF8" transform="translate(190,295)"/>
<path d="M0 0 C13.25448704 4.28705961 13.25448704 4.28705961 17 9 C18.41193319 15.52444152 17.66679916 22.41127821 17 29 C14.72791794 27.8774654 12.45732355 26.75208479 10.1875 25.625 C9.54490234 25.30789063 8.90230469 24.99078125 8.24023438 24.6640625 C5.36805539 23.23541389 2.6732179 21.78214527 0 20 C-0.34057617 17.93701172 -0.34057617 17.93701172 -0.29296875 15.4296875 C-0.28330078 14.53378906 -0.27363281 13.63789063 -0.26367188 12.71484375 C-0.23853516 11.77769531 -0.21339844 10.84054687 -0.1875 9.875 C-0.17396484 8.93011719 -0.16042969 7.98523438 -0.14648438 7.01171875 C-0.11106306 4.67391221 -0.06167271 2.33723763 0 0 Z " fill="#C2E0F9" transform="translate(117,279)"/>
<path d="M0 0 C0 6.6 0 13.2 0 20 C-2.619375 21.485 -5.23875 22.97 -7.9375 24.5 C-9.17681274 25.20479492 -9.17681274 25.20479492 -10.44116211 25.92382812 C-11.08835205 26.28927734 -11.73554199 26.65472656 -12.40234375 27.03125 C-13.06741943 27.40830078 -13.73249512 27.78535156 -14.41772461 28.17382812 C-16 29 -16 29 -17 29 C-19.06951958 11.85605078 -19.06951958 11.85605078 -15.75634766 7.28369141 C-12.28263932 4.29932845 -8.2690565 2.60775521 -4 1 C-2 0 -2 0 0 0 Z " fill="#C2E0F9" transform="translate(218,279)"/>
<path d="M0 0 C3.65619863 1.35876682 6.86826518 3.01873514 10.1875 5.0625 C13.5385079 7.13105765 13.5385079 7.13105765 17 9 C17 15.6 17 22.2 17 29 C3.60377358 24.53459119 3.60377358 24.53459119 0 20 C-1.41193319 13.47555848 -0.66679916 6.58872179 0 0 Z " fill="#BFDEF8" transform="translate(145,295)"/>
<path d="M0 0 C0 6.6 0 13.2 0 20 C-2.619375 21.485 -5.23875 22.97 -7.9375 24.5 C-9.17681274 25.20479492 -9.17681274 25.20479492 -10.44116211 25.92382812 C-11.08835205 26.28927734 -11.73554199 26.65472656 -12.40234375 27.03125 C-13.06741943 27.40830078 -13.73249512 27.78535156 -14.41772461 28.17382812 C-16 29 -16 29 -17 29 C-17.92169718 22.44413342 -18.89176344 15.44147427 -17 9 C-13.41613799 4.44391365 -5.86198995 0 0 0 Z " fill="#C1DFF8" transform="translate(274,246)"/>
<path d="M0 0 C1.04220703 0.42152344 1.04220703 0.42152344 2.10546875 0.8515625 C4.08481238 1.63688912 6.090337 2.35842948 8.11328125 3.0234375 C11.93286026 4.63708138 14.2296407 5.87413293 17 9 C18.55211816 15.49281959 17.725538 22.42830008 17 29 C16.30519531 28.71898437 15.61039063 28.43796875 14.89453125 28.1484375 C12.91518762 27.36311088 10.909663 26.64157052 8.88671875 25.9765625 C5.06713974 24.36291862 2.7703593 23.12586707 0 20 C-1.55211816 13.50718041 -0.725538 6.57169992 0 0 Z " fill="#C0DFF9" transform="translate(61,246)"/>
<path d="M0 0 C0 6.6 0 13.2 0 20 C-2.26875 21.32 -4.5375 22.64 -6.875 24 C-7.58769043 24.41765625 -8.30038086 24.8353125 -9.03466797 25.265625 C-13.77777778 28 -13.77777778 28 -16 28 C-16 21.4 -16 14.8 -16 8 C-12.596875 6.02 -12.596875 6.02 -9.125 4 C-8.05596436 3.37351562 -8.05596436 3.37351562 -6.96533203 2.734375 C-2.22222222 0 -2.22222222 0 0 0 Z " fill="#C3E0F9" transform="translate(245,263)"/>
<path d="M0 0 C1.66750629 0.66456375 3.33396108 1.33176611 5 2 C6.43279297 2.50660156 6.43279297 2.50660156 7.89453125 3.0234375 C11.46532644 4.67738012 13.50743615 5.9121331 16 9 C17.42329709 15.51903492 16.66644116 22.41481572 16 29 C14.27009975 28.06385433 12.54111304 27.12602042 10.8125 26.1875 C9.84957031 25.66542969 8.88664062 25.14335937 7.89453125 24.60546875 C6.93933594 24.07566406 5.98414063 23.54585937 5 23 C3.59234375 22.4740625 3.59234375 22.4740625 2.15625 21.9375 C0 20 0 20 -0.38989258 17.88989258 C-0.49412743 15.18004504 -0.43469525 12.52147464 -0.3125 9.8125 C-0.28994141 8.87212891 -0.26738281 7.93175781 -0.24414062 6.96289062 C-0.18519227 4.64032527 -0.10297785 2.32096224 0 0 Z " fill="#C4E1FA" transform="translate(34,230)"/>
<path d="M0 0 C1.98 0.66 3.96 1.32 6 2 C6.91523438 2.26554688 7.83046875 2.53109375 8.7734375 2.8046875 C12.09884505 4.17279811 13.76895849 5.12904736 16 8 C17.30615574 14.53648242 16.60100648 21.40742117 16 28 C10.35447383 25.87389691 5.27034249 22.92091271 0 20 C0 13.4 0 6.8 0 0 Z " fill="#C3E1F9" transform="translate(6,214)"/>
<path d="M0 0 C2.22589643 16.96328759 2.22589643 16.96328759 -1.34179688 21.83056641 C-5.13590858 25.1716012 -10.82745224 29 -16 29 C-16.92119116 22.44773262 -17.90187454 15.43559622 -16 9 C-12.81742497 4.99883509 -5.28938588 0 0 0 Z " fill="#C4E1F9" transform="translate(329,213)"/>
<path d="M0 0 C0 6.6 0 13.2 0 20 C-2.26875 21.299375 -4.5375 22.59875 -6.875 23.9375 C-7.58769043 24.34605225 -8.30038086 24.75460449 -9.03466797 25.17553711 C-13.77777778 27.88888889 -13.77777778 27.88888889 -16 29 C-16 22.07 -16 15.14 -16 8 C-12.596875 6.02 -12.596875 6.02 -9.125 4 C-8.05596436 3.37351563 -8.05596436 3.37351563 -6.96533203 2.734375 C-2.22222222 0 -2.22222222 0 0 0 Z " fill="#C5E2FA" transform="translate(301,230)"/>
<path d="M0 0 C0.33 0 0.66 0 1 0 C1.09308504 10.98841482 1.16395921 21.97673431 1.20724869 32.96546459 C1.22803584 38.06916009 1.25618958 43.17258387 1.30175781 48.27612305 C1.34553429 53.21042324 1.36920365 58.1444637 1.37950897 63.07894325 C1.38684369 64.95222366 1.40116506 66.82549145 1.42292023 68.6986599 C1.54402203 79.56782143 1.1170449 88.78113044 -3 99 C-3.66 99 -4.32 99 -5 99 C-4.68344955 97.82701103 -4.68344955 97.82701103 -4.36050415 96.63032532 C-1.78733564 86.10298352 -1.54236822 76.07616139 -1.5234375 65.29296875 C-1.50909668 63.43206167 -1.49333424 61.57116507 -1.47622681 59.71028137 C-1.43474258 54.85946712 -1.40949215 50.00871795 -1.38873291 45.15777588 C-1.35263138 37.34941672 -1.29205671 29.54121697 -1.23024368 21.7330265 C-1.2111385 19.00912651 -1.19942895 16.28526986 -1.18881226 13.56132507 C-1.17861008 11.908314 -1.16825301 10.25530388 -1.15771484 8.60229492 C-1.15667252 7.84242279 -1.15563019 7.08255066 -1.15455627 6.2996521 C-1.1134444 1.1134444 -1.1134444 1.1134444 0 0 Z " fill="#F0CED0" transform="translate(650,96)"/>
<path d="M0 0 C0.33 1.32 0.66 2.64 1 4 C0.34 4 -0.32 4 -1 4 C-1.18175781 4.66644531 -1.36351562 5.33289063 -1.55078125 6.01953125 C-1.80214844 6.94121094 -2.05351562 7.86289063 -2.3125 8.8125 C-2.58320313 9.82441406 -2.85390625 10.83632812 -3.1328125 11.87890625 C-3.67075173 13.81500283 -4.24272758 15.74239653 -4.8671875 17.65234375 C-9.87100212 33.49775672 -7.01916091 50.19053469 -0.1875 65 C0.13154297 65.69399902 0.45058594 66.38799805 0.77929688 67.10302734 C3.19757104 72.04093331 6.25790975 75.98585751 10 80 C9.67 80.66 9.34 81.32 9 82 C-2.67908478 70.56940639 -8.9936052 54.16299502 -9.24121094 37.97021484 C-9.2865428 24.58472364 -7.6150306 11.4225459 0 0 Z " fill="#F2DCD2" transform="translate(409,128)"/>
<path d="M0 0 C3.5 0.25 3.5 0.25 5.5 2.25 C5.83015665 5.35347254 6.00531294 7.40781176 4.375 10.125 C1.63083761 11.77149743 -0.3694571 11.64964378 -3.5 11.25 C-5.80163882 7.79754176 -5.84490322 6.30261287 -5.5 2.25 C-3.5 0.25 -3.5 0.25 0 0 Z " fill="#0F3979" transform="translate(167.5,279.75)"/>
<path d="M0 0 C2.5 0.8125 2.5 0.8125 5.5 2.8125 C5.1875 6.1875 5.1875 6.1875 4.5 9.8125 C1.5 11.8125 1.5 11.8125 -1.0625 11.625 C-3.5 10.8125 -3.5 10.8125 -5.5 7.8125 C-5.86145422 4.92086622 -5.88440503 3.4194553 -4.3125 0.9375 C-2.5 -0.1875 -2.5 -0.1875 0 0 Z " fill="#0D3878" transform="translate(223.5,229.1875)"/>
<path d="M0 0 C1.38550197 2.77100394 1.1877467 4.9334706 1 8 C0.01 9.485 0.01 9.485 -1 11 C-4.16259871 11.40373601 -6.14012639 11.54458662 -8.875 9.8125 C-10.40659584 7.34492892 -10.42822025 5.85480169 -10 3 C-7.65127184 -1.00665392 -4.23309225 -0.239609 0 0 Z " fill="#0D3777" transform="translate(60,196)"/>
<path d="M0 0 C2.9375 0.8125 2.9375 0.8125 4.9375 2.8125 C4.75 6.3125 4.75 6.3125 3.9375 9.8125 C0.9375 11.8125 0.9375 11.8125 -1.625 11.625 C-4.0625 10.8125 -4.0625 10.8125 -6.0625 7.8125 C-6.41938862 4.95739108 -6.42820003 3.42200005 -4.9375 0.9375 C-3.0625 -0.1875 -3.0625 -0.1875 0 0 Z " fill="#0C3676" transform="translate(196.0625,246.1875)"/>
<path d="M0 0 C2.4375 0.75 2.4375 0.75 4.4375 2.75 C4.8125 5.6875 4.8125 5.6875 4.4375 8.75 C2.75 10.6875 2.75 10.6875 0.4375 11.75 C-2.1875 11.625 -2.1875 11.625 -4.5625 10.75 C-6.5625 7.75 -6.5625 7.75 -6.375 4.6875 C-5.32105756 0.87709272 -4.04091296 -0.39423541 0 0 Z " fill="#0D3676" transform="translate(140.5625,246.25)"/>
<path d="M0 0 C3.16259871 -0.40373601 5.14012639 -0.54458662 7.875 1.1875 C9.40659584 3.65507108 9.42822025 5.14519831 9 8 C7.875 9.8125 7.875 9.8125 6 11 C2.9375 11.3125 2.9375 11.3125 0 11 C-2 9 -2 9 -2.25 6.0625 C-2 3 -2 3 0 0 Z " fill="#0D3777" transform="translate(206,238)"/>
<path d="M0 0 C3.0625 0.3125 3.0625 0.3125 4.9375 1.5 C6.46909584 3.96757108 6.49072025 5.45769831 6.0625 8.3125 C4.9375 10.125 4.9375 10.125 3.0625 11.3125 C0 11.6875 0 11.6875 -2.9375 11.3125 C-5.23913882 7.86004176 -5.28240322 6.36511287 -4.9375 2.3125 C-2.9375 0.3125 -2.9375 0.3125 0 0 Z " fill="#0D3777" transform="translate(278.9375,195.6875)"/>
<path d="M0 0 C1 1 1 1 1.1875 4.4375 C1 8 1 8 -1 10 C-4.13704316 10.333728 -6.16554166 10.52849028 -8.875 8.8125 C-10.40659584 6.34492892 -10.42822025 4.85480169 -10 2 C-7.59027568 -2.25245468 -4.23782457 -0.94173879 0 0 Z " fill="#0D3877" transform="translate(32,197)"/>
<path d="M0 0 C3.5 0.25 3.5 0.25 5.5 2.25 C5.875 5.1875 5.875 5.1875 5.5 8.25 C3.8125 10.1875 3.8125 10.1875 1.5 11.25 C-1.125 11.125 -1.125 11.125 -3.5 10.25 C-5.64915785 7.02626323 -5.88286803 5.98296326 -5.5 2.25 C-3.5 0.25 -3.5 0.25 0 0 Z " fill="#0D3676" transform="translate(181.5,271.75)"/>
<path d="M0 0 C2.9375 0.8125 2.9375 0.8125 4.9375 2.8125 C4.36057692 9.38942308 4.36057692 9.38942308 2.9375 10.8125 C-0.5 11 -0.5 11 -4.0625 10.8125 C-6.0625 8.8125 -6.0625 8.8125 -6.375 5.875 C-6.0625 2.8125 -6.0625 2.8125 -4.9375 0.875 C-3.0625 -0.1875 -3.0625 -0.1875 0 0 Z " fill="#0D3777" transform="translate(168.0625,263.1875)"/>
<path d="M0 0 C2 2 2 2 2.3125 4.9375 C2 8 2 8 0.8125 9.875 C-1.65507108 11.40659584 -3.14519831 11.42822025 -6 11 C-7.875 9.9375 -7.875 9.9375 -9 8 C-8.8125 4.375 -8.8125 4.375 -8 1 C-5.23749964 -0.38125018 -3.05268901 -0.19079306 0 0 Z " fill="#0E3878" transform="translate(129,255)"/>
<path d="M0 0 C3.0625 0.3125 3.0625 0.3125 4.9375 1.5 C6.46909584 3.96757108 6.49072025 5.45769831 6.0625 8.3125 C4.9375 10.125 4.9375 10.125 3.0625 11.3125 C0 11.6875 0 11.6875 -2.9375 11.3125 C-5.23913882 7.86004176 -5.28240322 6.36511287 -4.9375 2.3125 C-2.9375 0.3125 -2.9375 0.3125 0 0 Z " fill="#0E3878" transform="translate(264.9375,170.6875)"/>
<path d="M0 0 C2 3 2 3 1.6875 6.625 C1 10 1 10 0 11 C-5.27565392 11.45875252 -5.27565392 11.45875252 -7.875 9.8125 C-9.40659584 7.34492892 -9.42822025 5.85480169 -9 3 C-6.74087166 -0.63970677 -4.02464148 -0.51378402 0 0 Z " fill="#0C3676" transform="translate(143,263)"/>
<path d="M0 0 C3.125 0.25 3.125 0.25 5 1.4375 C6.53159584 3.90507108 6.55322025 5.39519831 6.125 8.25 C5 10.0625 5 10.0625 3.125 11.25 C0.0625 11.625 0.0625 11.625 -2.875 11.25 C-4.875 8.25 -4.875 8.25 -4.5625 4.625 C-3.68565574 0.3204918 -3.68565574 0.3204918 0 0 Z " fill="#0C3675" transform="translate(236.875,237.75)"/>
<path d="M0 0 C2.9375 0.75 2.9375 0.75 4.9375 2.75 C5.29773622 5.55984248 5.32082602 7.13241919 3.8125 9.5625 C1.10304166 11.27849028 -0.92545684 11.083728 -4.0625 10.75 C-6.0625 8.75 -6.0625 8.75 -6.375 5.25 C-6.271875 4.095 -6.16875 2.94 -6.0625 1.75 C-3.0625 -0.25 -3.0625 -0.25 0 0 Z " fill="#0D3776" transform="translate(266.0625,221.25)"/>
<path d="M0 0 C3.0625 0.3125 3.0625 0.3125 5 1.4375 C6.0625 3.3125 6.0625 3.3125 5.9375 6.375 C5.0625 9.3125 5.0625 9.3125 2.0625 11.3125 C-0.5 11.625 -0.5 11.625 -2.9375 11.3125 C-5.23913882 7.86004176 -5.28240322 6.36511287 -4.9375 2.3125 C-2.9375 0.3125 -2.9375 0.3125 0 0 Z " fill="#0D3676" transform="translate(250.9375,212.6875)"/>
<path d="M0 0 C1.8125 1.125 1.8125 1.125 3 3 C3.3125 6.0625 3.3125 6.0625 3 9 C1 11 1 11 -1.9375 11.3125 C-5 11 -5 11 -6.875 9.8125 C-8.40659584 7.34492892 -8.42822025 5.85480169 -8 3 C-5.85607122 -0.27231235 -3.76836426 -0.56525464 0 0 Z " fill="#0C3676" transform="translate(86,179)"/>
<path d="M0 0 C2 2 2 2 2.3125 4.9375 C2 8 2 8 0.8125 9.875 C-1.65507108 11.40659584 -3.14519831 11.42822025 -6 11 C-7.8125 9.8125 -7.8125 9.8125 -9 8 C-9.42822025 5.14519831 -9.40659584 3.65507108 -7.875 1.1875 C-5.16554166 -0.52849028 -3.13704316 -0.333728 0 0 Z " fill="#0D3776" transform="translate(73,171)"/>
<path d="M0 0 C3.0625 0.3125 3.0625 0.3125 5 1.4375 C6.0625 3.3125 6.0625 3.3125 5.9375 6.375 C5.0625 9.3125 5.0625 9.3125 2.0625 11.3125 C-1.25990324 10.9883631 -2.54526303 10.70473697 -4.9375 8.3125 C-5.1875 5.3125 -5.1875 5.3125 -4.9375 2.3125 C-2.9375 0.3125 -2.9375 0.3125 0 0 Z " fill="#0D3676" transform="translate(208.9375,254.6875)"/>
<path d="M0 0 C1.33359073 6.42548263 1.33359073 6.42548263 -0.125 8.9375 C-2.63647631 10.36066991 -4.15503228 10.42674516 -7 10 C-8.8125 8.8125 -8.8125 8.8125 -10 7 C-10.42674516 4.15503228 -10.36066991 2.63647631 -8.9375 0.125 C-5.88430685 -1.64782183 -3.33588292 -0.69235306 0 0 Z " fill="#0D3777" transform="translate(130,239)"/>
<path d="M0 0 C2 2 2 2 2.3125 4.9375 C2 8 2 8 0.875 9.9375 C-1 11 -1 11 -4.0625 10.8125 C-7 10 -7 10 -9 8 C-9.36023622 5.19015752 -9.38332602 3.61758081 -7.875 1.1875 C-5.16554166 -0.52849028 -3.13704316 -0.333728 0 0 Z " fill="#0C3675" transform="translate(115,230)"/>
<path d="M0 0 C3.0625 0.3125 3.0625 0.3125 5 1.4375 C6.0625 3.3125 6.0625 3.3125 5.9375 6.375 C5.0625 9.3125 5.0625 9.3125 2.0625 11.3125 C-0.5 11.625 -0.5 11.625 -2.9375 11.3125 C-5.23913882 7.86004176 -5.28240322 6.36511287 -4.9375 2.3125 C-2.9375 0.3125 -2.9375 0.3125 0 0 Z " fill="#0C3676" transform="translate(278.9375,212.6875)"/>
<path d="M0 0 C3 0.25 3 0.25 5 2.25 C5.333728 5.38704316 5.52849028 7.41554166 3.8125 10.125 C1.31963619 11.67229478 -0.11967335 11.75405716 -3 11.25 C-4.875 9.5625 -4.875 9.5625 -6 7.25 C-5.67747519 2.7346526 -4.81889451 0.40157454 0 0 Z " fill="#0D3676" transform="translate(84,212.75)"/>
<path d="M0 0 C3 0.25 3 0.25 5 2.25 C5.333728 5.38704316 5.52849028 7.41554166 3.8125 10.125 C1.31963619 11.67229478 -0.11967335 11.75405716 -3 11.25 C-4.875 9.5625 -4.875 9.5625 -6 7.25 C-5.67747519 2.7346526 -4.81889451 0.40157454 0 0 Z " fill="#0C3676" transform="translate(56,212.75)"/>
<path d="M0 0 C2.9375 0.8125 2.9375 0.8125 4.9375 2.8125 C5.29773622 5.62234248 5.32082602 7.19491919 3.8125 9.625 C1.10304166 11.34099028 -0.92545684 11.146228 -4.0625 10.8125 C-6.0625 8.8125 -6.0625 8.8125 -6.375 5.875 C-6.0625 2.8125 -6.0625 2.8125 -4.9375 0.875 C-3.0625 -0.1875 -3.0625 -0.1875 0 0 Z " fill="#0D3676" transform="translate(266.0625,204.1875)"/>
<path d="M0 0 C2 2 2 2 2.3125 4.9375 C2 8 2 8 0.875 9.9375 C-1 11 -1 11 -4.0625 10.8125 C-7 10 -7 10 -9 8 C-9.36023622 5.19015752 -9.38332602 3.61758081 -7.875 1.1875 C-5.16554166 -0.52849028 -3.13704316 -0.333728 0 0 Z " fill="#0C3676" transform="translate(73,188)"/>
<path d="M0 0 C2.9375 0.8125 2.9375 0.8125 4.9375 2.8125 C5.29773622 5.62234248 5.32082602 7.19491919 3.8125 9.625 C1.10304166 11.34099028 -0.92545684 11.146228 -4.0625 10.8125 C-6.0625 8.8125 -6.0625 8.8125 -6.375 5.875 C-6.0625 2.8125 -6.0625 2.8125 -4.9375 0.875 C-3.0625 -0.1875 -3.0625 -0.1875 0 0 Z " fill="#0C3676" transform="translate(252.0625,179.1875)"/>
<path d="M0 0 C1.875 1.0625 1.875 1.0625 3 3 C2.55555556 9.44444444 2.55555556 9.44444444 1 11 C-4.27565392 11.45875252 -4.27565392 11.45875252 -6.875 9.8125 C-8.40659584 7.34492892 -8.42822025 5.85480169 -8 3 C-5.85607122 -0.27231235 -3.76836426 -0.56525464 0 0 Z " fill="#0C3675" transform="translate(58,179)"/>
<path d="M0 0 C2.9375 0.8125 2.9375 0.8125 4.9375 2.8125 C5.29773622 5.62234248 5.32082602 7.19491919 3.8125 9.625 C1.07762639 11.35708662 -0.89990129 11.21623601 -4.0625 10.8125 C-6.21752531 7.57996204 -6.53106135 6.56099077 -6.0625 2.8125 C-4.28235296 -0.15441173 -3.48497618 -0.21336589 0 0 Z " fill="#0B3474" transform="translate(196.0625,263.1875)"/>
<path d="M0 0 C3.125 0.25 3.125 0.25 5 1.4375 C6.54729478 3.93036381 6.62905716 5.36967335 6.125 8.25 C4.4375 10.125 4.4375 10.125 2.125 11.25 C-0.5 11.125 -0.5 11.125 -2.875 10.25 C-4.875 7.25 -4.875 7.25 -4.5625 4.125 C-3.65202703 0.31756757 -3.65202703 0.31756757 0 0 Z " fill="#0C3675" transform="translate(180.875,254.75)"/>
<path d="M0 0 C2.9375 0.8125 2.9375 0.8125 4.9375 2.8125 C5.29773622 5.62234248 5.32082602 7.19491919 3.8125 9.625 C1.07762639 11.35708662 -0.89990129 11.21623601 -4.0625 10.8125 C-6.21752531 7.57996204 -6.53106135 6.56099077 -6.0625 2.8125 C-4.28235296 -0.15441173 -3.48497618 -0.21336589 0 0 Z " fill="#0C3575" transform="translate(224.0625,246.1875)"/>
<path d="M0 0 C0.66 0.66 1.32 1.32 2 2 C1.42307692 8.57692308 1.42307692 8.57692308 0 10 C-5.27565392 10.45875252 -5.27565392 10.45875252 -7.875 8.8125 C-9.42229478 6.31963619 -9.50405716 4.88032665 -9 2 C-6.07557433 -1.24936186 -4.04996841 -1.38551551 0 0 Z " fill="#0C3675" transform="translate(115,247)"/>
<path d="M0 0 C3 0.25 3 0.25 5 2.25 C5.33302312 5.3804173 5.47671956 7.42898298 3.875 10.1875 C2 11.25 2 11.25 -1.0625 11.125 C-4 10.25 -4 10.25 -6 7.25 C-5.5601518 2.74155593 -4.87125629 0.40593802 0 0 Z " fill="#0C3675" transform="translate(84,229.75)"/>
<path d="M0 0 C2.9375 0.8125 2.9375 0.8125 4.9375 2.8125 C5.29773622 5.62234248 5.32082602 7.19491919 3.8125 9.625 C1.07762639 11.35708662 -0.89990129 11.21623601 -4.0625 10.8125 C-6.21752531 7.57996204 -6.53106135 6.56099077 -6.0625 2.8125 C-4.28235296 -0.15441173 -3.48497618 -0.21336589 0 0 Z " fill="#0B3574" transform="translate(238.0625,221.1875)"/>
<path d="M0 0 C2.5625 0.3125 2.5625 0.3125 4.4375 1.375 C6.22560335 4.45451133 5.30842606 6.95583273 4.5625 10.3125 C3.5625 11.3125 3.5625 11.3125 0.6875 11.5625 C-2.4375 11.3125 -2.4375 11.3125 -4.375 10.1875 C-5.4375 8.3125 -5.4375 8.3125 -5.25 5.25 C-4.27786515 1.7353586 -3.70860904 0.4754627 0 0 Z " fill="#0C3675" transform="translate(97.4375,220.6875)"/>
<path d="M0 0 C0.66 0.66 1.32 1.32 2 2 C1.42307692 8.57692308 1.42307692 8.57692308 0 10 C-5.27565392 10.45875252 -5.27565392 10.45875252 -7.875 8.8125 C-9.42229478 6.31963619 -9.50405716 4.88032665 -9 2 C-6.07557433 -1.24936186 -4.04996841 -1.38551551 0 0 Z " fill="#0D3676" transform="translate(73,222)"/>
<path d="M0 0 C2.9375 0.8125 2.9375 0.8125 4.9375 2.8125 C5.29773622 5.62234248 5.32082602 7.19491919 3.8125 9.625 C1.07762639 11.35708662 -0.89990129 11.21623601 -4.0625 10.8125 C-6.21752531 7.57996204 -6.53106135 6.56099077 -6.0625 2.8125 C-4.28235296 -0.15441173 -3.48497618 -0.21336589 0 0 Z " fill="#0C3575" transform="translate(280.0625,179.1875)"/>
<path d="M0 0 C2 3 2 3 1.8125 6.0625 C1 9 1 9 -2 11 C-5.32240324 10.6758631 -6.60776303 10.39223697 -9 8 C-8.75 4.4375 -8.75 4.4375 -8 1 C-5.21136993 -0.39431504 -3.07921132 -0.25660094 0 0 Z " fill="#0C3575" transform="translate(157,272)"/>
<path d="M0 0 C1.8125 1.1875 1.8125 1.1875 3 3 C3.4334014 5.88934264 3.42525784 7.35092224 1.8125 9.8125 C-0.64907776 11.42525784 -2.11065736 11.4334014 -5 11 C-6.8125 9.8125 -6.8125 9.8125 -8 8 C-8.4334014 5.11065736 -8.42525784 3.64907776 -6.8125 1.1875 C-4.35092224 -0.42525784 -2.88934264 -0.4334014 0 0 Z " fill="#0C3575" transform="translate(100,238)"/>
<path d="M0 0 C6.57692308 0.57692308 6.57692308 0.57692308 8 2 C8.1875 5.4375 8.1875 5.4375 8 9 C6 11 6 11 3 11.25 C0 11 0 11 -2 9 C-2.25 5.5 -2.25 5.5 -2 2 C-1.34 1.34 -0.68 0.68 0 0 Z " fill="#0C3675" transform="translate(304,196)"/>
<path d="M0 0 C1.875 1.125 1.875 1.125 3 3 C2.77669287 6.64734979 2.61627165 8.38372835 0 11 C-2.84602594 11.36487512 -4.3864306 11.40199375 -6.8125 9.8125 C-8.42525784 7.35092224 -8.4334014 5.88934264 -8 3 C-5.85607122 -0.27231235 -3.76836426 -0.56525464 0 0 Z " fill="#0C3575" transform="translate(156,255)"/>
<path d="M0 0 C2.68930863 0.94125802 3.95731359 1.47526558 5.5 3.875 C5.25546876 7.21692692 4.89456443 8.48043557 2.5 10.875 C-0.5 11.125 -0.5 11.125 -3.5 10.875 C-5.5 8.875 -5.5 8.875 -5.8125 5.9375 C-5.5 2.875 -5.5 2.875 -4.3125 0.9375 C-2.5 -0.125 -2.5 -0.125 0 0 Z " fill="#0B3574" transform="translate(293.5,204.125)"/>
<path d="M0 0 C3 0.25 3 0.25 5 2.25 C5.33661952 5.4142235 5.49943411 7.43513382 3.8125 10.1875 C2 11.25 2 11.25 -0.5 11.125 C-3.18930863 10.18374198 -4.45731359 9.64973442 -6 7.25 C-5.66963219 2.73497322 -4.81520347 0.40126696 0 0 Z " fill="#0C3575" transform="translate(42,187.75)"/>
<path d="M0 0 C3.0625 0.3125 3.0625 0.3125 4.9375 1.5 C6.45934676 3.95186422 6.49816323 5.48068902 6.0625 8.3125 C2.61004176 10.61413882 1.11511287 10.65740322 -2.9375 10.3125 C-4.9375 8.3125 -4.9375 8.3125 -5.1875 5.3125 C-4.84687504 1.2250005 -4.07761768 0.43378911 0 0 Z " fill="#0C3575" transform="translate(264.9375,187.6875)"/>
<path d="M0 0 C0.66 0.66 1.32 1.32 2 2 C1.42307692 8.57692308 1.42307692 8.57692308 0 10 C-5.27565392 10.45875252 -5.27565392 10.45875252 -7.875 8.8125 C-9.39684676 6.36063578 -9.43566323 4.83181098 -9 2 C-5.54754176 -0.30163882 -4.05261287 -0.34490322 0 0 Z " fill="#0B3574" transform="translate(73,205)"/>
<path d="M0 0 C3 0.25 3 0.25 5 2.25 C5.33661952 5.4142235 5.49943411 7.43513382 3.8125 10.1875 C2 11.25 2 11.25 -0.5625 11.0625 C-3 10.25 -3 10.25 -5 8.25 C-5.25 5.25 -5.25 5.25 -5 2.25 C-3 0.25 -3 0.25 0 0 Z " fill="#0B3473" transform="translate(251,229.75)"/>
<path d="M0 0 C3 0.25 3 0.25 5 2.25 C5.25 5.25 5.25 5.25 5 8.25 C3 10.25 3 10.25 0.0625 10.5625 C-3 10.25 -3 10.25 -4.9375 9.0625 C-6 7.25 -6 7.25 -5.8125 4.6875 C-4.61374094 1.09122283 -3.8124642 0.31770535 0 0 Z " fill="#0B3473" transform="translate(42,204.75)"/>
<path d="M0 0 C3 0.25 3 0.25 5 2.25 C5.33661952 5.4142235 5.49943411 7.43513382 3.8125 10.1875 C2 11.25 2 11.25 -0.5625 11.0625 C-3 10.25 -3 10.25 -5 8.25 C-5.25 5.25 -5.25 5.25 -5 2.25 C-3 0.25 -3 0.25 0 0 Z " fill="#0B3473" transform="translate(293,187.75)"/>
<path d="M0 0 C1.75 1.25 1.75 1.25 2.75 2.25 C3.04178308 5.02193929 3.11366316 6.66409825 1.625 9.0625 C-1.10987361 10.79458662 -3.08740129 10.65373601 -6.25 10.25 C-8.25 7.25 -8.25 7.25 -8.1875 4.75 C-7.25 2.25 -7.25 2.25 -4.9375 0.3125 C-2.25 -0.75 -2.25 -0.75 0 0 Z " fill="#0D3877" transform="translate(240.25,171.75)"/>
<path d="M0 0 C1.75 1.5 1.75 1.5 2.75 3.875 C2.75 6.5 2.75 6.5 1.125 8.875 C-1.25 10.5 -1.25 10.5 -3.875 10.375 C-6.25 9.5 -6.25 9.5 -8.25 7.5 C-8.1875 5.0625 -8.1875 5.0625 -7.25 2.5 C-3.37181303 -0.74929178 -3.37181303 -0.74929178 0 0 Z " fill="#0C3776" transform="translate(254.25,163.5)"/>
<path d="M0 0 C3.0831351 1.19899698 6.06279492 2.47700477 9 4 C8.6875 6.375 8.6875 6.375 8 9 C5 11 5 11 2.4375 10.8125 C0 10 0 10 -2 7 C-2.25 4.4375 -2.25 4.4375 -2 2 C-1.34 1.34 -0.68 0.68 0 0 Z " fill="#0E3A79" transform="translate(80,163)"/>
<path d="M0 0 C3.36241563 0.45438049 6.04009971 1.35561095 9 3 C8.25 7.75 8.25 7.75 6 10 C3.5625 10.375 3.5625 10.375 1 10 C-0.875 8.3125 -0.875 8.3125 -2 6 C-1.58974359 1.58974359 -1.58974359 1.58974359 0 0 Z " fill="#0D3776" transform="translate(94,172)"/>
<path d="M0 0 C0 0.66 0 1.32 0 2 C-0.825 2.350625 -1.65 2.70125 -2.5 3.0625 C-6.3092458 4.93084437 -9.18848061 7.69386848 -12.265625 10.57421875 C-14 12 -14 12 -16 12 C-16.26425781 12.58136719 -16.52851562 13.16273437 -16.80078125 13.76171875 C-18.04672352 16.08720709 -19.46765163 17.81716104 -21.1875 19.8125 C-26.04759312 25.89782668 -28.9244488 32.90473144 -32 40 C-33.24550233 37.08666984 -32.98891328 35.96956968 -31.8828125 32.93359375 C-26.63082544 22.48797504 -13.87564421 0 0 0 Z " fill="#E9D1CE" transform="translate(1170,102)"/>
<path d="M0 0 C0 0.33 0 0.66 0 1 C-6.43223594 3.31891768 -12.52341069 3.29875468 -19.3125 3.25 C-20.40884766 3.25773438 -21.50519531 3.26546875 -22.63476562 3.2734375 C-23.67955078 3.27085937 -24.72433594 3.26828125 -25.80078125 3.265625 C-26.75122314 3.26336914 -27.70166504 3.26111328 -28.6809082 3.25878906 C-31 3 -31 3 -33 1 C-29.00010952 0.83063527 -25.00007283 0.66499743 -21 0.5 C-19.87464844 0.45230469 -18.74929688 0.40460938 -17.58984375 0.35546875 C-11.72065214 0.11520944 -5.87406622 -0.05758888 0 0 Z " fill="#AAB8D4" transform="translate(1223,230)"/>
<path d="M0 0 C8.91 0 17.82 0 27 0 C27 1.65 27 3.3 27 5 C26.505 3.02 26.505 3.02 26 1 C17.75 1 9.5 1 1 1 C0.67 3.31 0.34 5.62 0 8 C-1.41688139 10.63400573 -3.12303593 12.64176309 -5 15 C-5 12 -5 12 0 0 Z " fill="#768EBE" transform="translate(509,180)"/>
<path d="M0 0 C-8.99187032 3.5460897 -17.16228819 4.38642074 -26.75 4.375 C-28.3577832 4.37693359 -28.3577832 4.37693359 -29.99804688 4.37890625 C-37.73006518 4.26993482 -37.73006518 4.26993482 -40 2 C-39.30962646 2.01047363 -38.61925293 2.02094727 -37.90795898 2.03173828 C-34.75117701 2.07355697 -31.59445355 2.09940802 -28.4375 2.125 C-26.80844727 2.15013672 -26.80844727 2.15013672 -25.14648438 2.17578125 C-19.3338424 2.21111646 -14.4811896 1.96285844 -9 0 C-5.4910888 -0.89762845 -3.45813579 -0.96827802 0 0 Z " fill="#D4DAE2" transform="translate(497,229)"/>
<path d="M0 0 C2.97 0 5.94 0 9 0 C9 0.66 9 1.32 9 2 C16.92 1.67 24.84 1.34 33 1 C29.72209966 3.1852669 28.72538499 3.2561264 24.921875 3.265625 C23.92542969 3.26820313 22.92898438 3.27078125 21.90234375 3.2734375 C20.34193359 3.26183594 20.34193359 3.26183594 18.75 3.25 C17.72519531 3.25773438 16.70039062 3.26546875 15.64453125 3.2734375 C10.03790455 3.25900603 5.2918619 2.88354406 0 1 C0 0.67 0 0.34 0 0 Z " fill="#E2E2E5" transform="translate(599,230)"/>
<path d="M0 0 C0.66 0.33 1.32 0.66 2 1 C0.18454172 6.264829 -1.73339019 10.4943313 -5 15 C-5 11.37149374 -3.93046332 9.13832722 -2.5 5.8125 C-2.0359375 4.72582031 -1.571875 3.63914063 -1.09375 2.51953125 C-0.7328125 1.68808594 -0.371875 0.85664063 0 0 Z " fill="#F0D6CF" transform="translate(509,180)"/>
</svg>
